<?xml version="1.0"?>
<svg xmlns="http://www.w3.org/2000/svg" xmlns:xlink="http://www.w3.org/1999/xlink" width="234.705368" height="230.407333">
	<defs>
		<marker id="CustomMarker-01" markerUnits="strokeWidth" markerWidth="15.000001" markerHeight="9" viewBox="-15 -4.5 15 9" orient="auto-start-reverse">
			<path d="M 0 -0 L -10 -3, -8 -0.5, -8 0.5, -10 3 Z" fill="#000000" stroke="#000000" stroke-linejoin="round" />
		</marker>
		<marker id="CustomMarker-02" markerUnits="strokeWidth" markerWidth="15.000001" markerHeight="9" viewBox="-15 -4.5 15 9" orient="auto-start-reverse">
			<path d="M 0 -0 L -10 -3, -8 -0.5, -8 0.5, -10 3 Z" fill="#000000" stroke="#000000" stroke-linejoin="round" />
		</marker>
		<marker id="CustomMarker-03" markerUnits="strokeWidth" markerWidth="15.000001" markerHeight="9" viewBox="-15 -4.5 15 9" orient="auto-start-reverse">
			<path d="M 0 -0 L -10 -3, -8 -0.5, -8 0.5, -10 3 Z" fill="#000000" stroke="#000000" stroke-linejoin="round" />
		</marker>
		<marker id="CustomMarker-04" markerUnits="strokeWidth" markerWidth="15.000001" markerHeight="9" viewBox="-15 -4.5 15 9" orient="auto-start-reverse">
			<path d="M 0 -0 L -10 -3, -8 -0.5, -8 0.5, -10 3 Z" fill="#000000" stroke="#000000" stroke-linejoin="round" />
		</marker>
		<marker id="CustomMarker-05" markerUnits="strokeWidth" markerWidth="15.000001" markerHeight="9" viewBox="-15 -4.5 15 9" orient="auto-start-reverse">
			<path d="M 0 -0 L -10 -3, -8 -0.5, -8 0.5, -10 3 Z" fill="#000000" stroke="#000000" stroke-linejoin="round" />
		</marker>
		<marker id="CustomMarker-06" markerUnits="strokeWidth" markerWidth="15.000001" markerHeight="9" viewBox="-15 -4.5 15 9" orient="auto-start-reverse">
			<path d="M 0 -0 L -10 -3, -8 -0.5, -8 0.5, -10 3 Z" fill="#000000" stroke="#000000" stroke-linejoin="round" />
		</marker>
	</defs>
	<path d="M -170.938 0 L 170.937 0" fill="none" stroke="#000000" stroke-width="2" stroke-linecap="round" stroke-linejoin="round" marker-end="url(#CustomMarker-01)" transform="matrix(0.5 0 0 0.5 93.9688 193.345)" />
	<path d="M 0 196.313 L 0 -196.312" fill="none" stroke="#000000" stroke-width="2" stroke-linecap="round" stroke-linejoin="round" marker-end="url(#CustomMarker-02)" transform="matrix(0.5 0 0 0.5 31.4375 123.751)" />
	<path d="M 0 -64.25 L 0 64.2499" fill="none" stroke="#000000" stroke-width="2" stroke-linecap="round" stroke-linejoin="round" marker-end="url(#CustomMarker-03)" transform="matrix(0.5 0 0 0.5 71.0942 123.47)" />
	<path d="M -66.3434 0 L 66.3433 0" fill="none" stroke="#000000" stroke-width="2" stroke-linecap="round" stroke-linejoin="round" marker-end="url(#CustomMarker-04)" transform="matrix(0.5 0 0 0.5 104.266 155.595)" />
	<path d="M 0 64.2499 L 0 -64.25" fill="none" stroke="#000000" stroke-width="2" stroke-linecap="round" stroke-linejoin="round" marker-end="url(#CustomMarker-05)" transform="matrix(0.5 0 0 0.5 137.438 123.47)" />
	<path d="M 66.3431 0 L -66.3434 0" fill="none" stroke="#000000" stroke-width="2" stroke-linecap="round" stroke-linejoin="round" marker-end="url(#CustomMarker-06)" transform="matrix(0.5 0 0 0.5 104.266 91.3448)" />
	<g transform="matrix(1 0 -0 1 59.4151 75.8395)">
		<svg width="23.9302292" height="23.9844532">
			<defs />
			<path d="M 6.04284 10.0414 C 5.98927 10.2556, 5.92875 10.4846, 5.86128 10.7288, 5.7938 10.9733, 5.70384 11.1999, 5.59138 11.4093, 5.47933 11.6186, 5.33784 11.7998, 5.1669 11.9523, 4.99638 12.1049, 4.78291 12.1809, 4.52651 12.1809, 4.18546 12.1809, 3.91229 12.0864, 3.70782 11.8967, 3.50335 11.707, 3.38558 11.5139, 3.35409 11.3172, 3.20115 11.4923, 2.97337 11.68, 2.66994 11.8803, 2.36692 12.0807, 2.04672 12.1809, 1.70976 12.1809, 1.35481 12.1809, 1.0571 12.0918, 0.816647 11.9131, 0.576193 11.7344, 0.3889 11.5094, 0.253952 11.2387, 0.092422 10.9165, 0.00695449 10.5697, -0.00204211 10.1984 L -0.00204211 10.1002 C -0.00204211 9.75593, 0.0453944 9.4116, 0.13945 9.06646, 0.247409 8.68738, 0.397897 8.31238, 0.590914 7.94148, 0.784341 7.57098, 1.04033 7.22625, 1.3593 6.90728, 1.6202 6.64597, 1.91791 6.42596, 2.25242 6.24685, 2.58693 6.06814, 2.92716 5.97859, 3.27312 5.97818, 3.5741 5.97859, 3.81905 6.05833, 4.00757 6.21741, 4.1965 6.37689, 4.3155 6.50857, 4.36498 6.61285 L 4.33799 6.72408 C 4.36948 6.56296, 4.44472 6.44109, 4.56372 6.35808, 4.68313 6.27548, 4.80336 6.23376, 4.9244 6.23335, 5.06344 6.23376, 5.1804 6.27507, 5.27486 6.35767, 5.33334 6.42351, 5.36483 6.51061, 5.36892 6.61939, 5.36892 6.65906, 5.36442 6.70281, 5.35542 6.75025 L 4.38502 10.5321 C 4.34003 10.7112, 4.30855 10.8793, 4.29055 11.0359, 4.28197 11.1148, 4.27747 11.1868, 4.27747 11.2518, 4.27747 11.3091, 4.28197 11.37, 4.29055 11.435, 4.30446 11.5401, 4.33595 11.6186, 4.38502 11.671, 4.4345 11.7233, 4.50402 11.7495, 4.59398 11.7491, 4.68845 11.7495, 4.77719 11.7102, 4.8602 11.6317, 4.94362 11.5532, 5.02009 11.4367, 5.08961 11.2817, 5.15913 11.1271, 5.22538 10.9414, 5.28836 10.7255, 5.35133 10.5096, 5.41635 10.2753, 5.48342 10.0217, 5.51041 9.90887, 5.58688 9.85203, 5.71283 9.85162 L 5.86782 9.85162 C 5.98477 9.85203, 6.04284 9.89987, 6.04284 9.99556 L 6.04284 10.0414 Z M 4.11553 7.63355 C 4.09754 7.55544, 4.082 7.47366, 4.0685 7.3886, 4.05501 7.30354, 4.03456 7.21971, 4.00757 7.13628, 3.93601 6.93182, 3.83377 6.76047, 3.70128 6.62307, 3.56878 6.48567, 3.40112 6.41697, 3.19911 6.41656, 3.01059 6.41697, 2.82411 6.48485, 2.63968 6.6198, 2.45566 6.75516, 2.28718 6.92936, 2.13424 7.14283, 1.91873 7.44421, 1.7572 7.75746, 1.64924 8.08215, 1.54128 8.40726, 1.44232 8.74626, 1.35235 9.09917, 1.2628 9.44841, 1.18878 9.7866, 1.12989 10.1133, 1.09431 10.2794, 1.07632 10.4364, 1.07632 10.5844, 1.07632 10.7419, 1.09431 10.8944, 1.12989 11.0424, 1.17078 11.2477, 1.24358 11.417, 1.34908 11.5499, 1.45459 11.6832, 1.6018 11.7495, 1.79032 11.7491, 1.99724 11.7495, 2.20498 11.6775, 2.41395 11.5336, 2.62292 11.3896, 2.81716 11.213, 2.99668 11.0032, 3.06865 10.9165, 3.13736 10.8327, 3.20238 10.7517, 3.26781 10.6711, 3.32506 10.5848, 3.37413 10.4928 L 4.11553 7.63355 Z" stroke="none" fill="#000000" />
			<rect />
		</svg>
	</g>
	<g transform="matrix(1 0 -0 1 59.9981 155.339)">
		<svg width="18.0697632" height="35.9036179">
			<defs />
			<path d="M 4.74099 9.10572 C 4.63304 9.48562, 4.48173 9.86102, 4.28626 10.2315, 4.09079 10.6024, 3.83602 10.9447, 3.52114 11.2584, 3.26065 11.5205, 2.9654 11.7397, 2.63498 11.9163, 2.30497 12.093, 1.96228 12.1809, 1.60732 12.1809, 1.26586 12.1809, 0.980424 12.0897, 0.75142 11.9065, 0.522416 11.7233, 0.346983 11.4964, 0.225529 11.2256, 0.0819929 10.9034, 0.00552195 10.5566, -0.00347465 10.1853 L -0.00347465 10.1002 C -0.00347465 9.75593, 0.0415083 9.41365, 0.131474 9.073 L 1.48587 3.80591 C 1.52185 3.66238, 1.54435 3.55319, 1.55334 3.47876 L 1.55334 3.45914 C 1.55334 3.42029, 1.54435 3.39207, 1.52635 3.37408, 1.47237 3.33973, 1.37137 3.3156, 1.22292 3.30251, 1.07489 3.28943, 0.903953 3.28288, 0.710936 3.28248, 0.64387 3.28288, 0.594389 3.26121, 0.562492 3.21705, 0.535502 3.19128, 0.522008 3.15857, 0.522008 3.1189, 0.522008 3.09314, 0.528959 3.06901, 0.542454 3.04693 L 0.562492 2.94224 C 0.598478 2.83796, 0.679448 2.77253, 0.8054 2.74595 L 2.59122 2.60201, 2.61821 2.60201 C 2.67219 2.60242, 2.71676 2.62, 2.75275 2.65435, 2.77074 2.68952, 2.77974 2.72469, 2.77974 2.75904, 2.77974 2.78562, 2.7732 2.80975, 2.7597 2.83101 L 1.7893 6.59976 C 1.88826 6.49998, 2.07024 6.37117, 2.33523 6.21413, 2.60022 6.0571, 2.8787 5.97859, 3.17068 5.97818, 3.52564 5.97859, 3.8258 6.07019, 4.07034 6.25339, 4.31529 6.4366, 4.50299 6.6611, 4.63304 6.92691, 4.78598 7.24997, 4.86654 7.5992, 4.87553 7.97378 L 4.87553 8.06539 C 4.87553 8.40153, 4.83096 8.74831, 4.74099 9.10572 Z M 3.76364 7.11666 C 3.72356 6.90769, 3.64709 6.7388, 3.53464 6.60998, 3.42259 6.48158, 3.2766 6.41697, 3.09667 6.41656, 2.88116 6.41697, 2.67015 6.48689, 2.46322 6.62634, 2.25671 6.7662, 2.06329 6.94245, 1.88335 7.15591, 1.74432 7.33503, 1.62286 7.5031, 1.5194 7.65972 L 1.14891 9.09917 C 1.05894 9.44841, 0.991874 9.78455, 0.946891 10.1068, 0.928898 10.2426, 0.919902 10.371, 0.919902 10.4928, 0.919902 10.685, 0.942393 10.8682, 0.987376 11.0424, 1.03686 11.2436, 1.11864 11.4117, 1.23315 11.5467, 1.34765 11.682, 1.49936 11.7495, 1.68788 11.7491, 1.87681 11.7495, 2.06451 11.68, 2.25099 11.5401, 2.43746 11.4007, 2.60472 11.226, 2.75275 11.0163, 2.96867 10.7243, 3.13142 10.4139, 3.24143 10.0843, 3.35184 9.75511, 3.45162 9.41814, 3.54118 9.073, 3.63114 8.71559, 3.71007 8.37127, 3.77713 8.03921, 3.80412 7.88259, 3.81762 7.73006, 3.81762 7.58121, 3.81762 7.42458, 3.79963 7.2696, 3.76364 7.11666 Z" stroke="none" fill="#000000" />
			<rect />
		</svg>
	</g>
	<g transform="matrix(1 0 -0 1 143.942 155.339)">
		<svg width="21.0837173" height="23.9844532">
			<defs />
			<path d="M 5.05097 10.4339 C 5.08246 10.465, 5.098 10.4977, 5.098 10.5321, 5.098 10.5718, 5.08041 10.6155, 5.04443 10.6629, 4.68947 11.1561, 4.23678 11.5328, 3.68635 11.792, 3.13592 12.0513, 2.58468 12.1809, 2.0318 12.1809, 1.64086 12.1809, 1.30185 12.095, 1.01437 11.9229, 0.726886 11.7507, 0.499927 11.525, 0.33349 11.2453, 0.144971 10.9316, 0.0370116 10.5893, 0.0100219 10.218, 0.00102526 10.1268, -0.00347304 10.0352, -0.00347304 9.94322, -0.00347304 9.66432, 0.0325133 9.37439, 0.104486 9.073, 0.212445 8.67225, 0.377246 8.28621, 0.599707 7.91531, 0.822168 7.54481, 1.10188 7.20417, 1.43884 6.89419, 1.74882 6.6243, 2.0915 6.40388, 2.4665 6.23376, 2.8419 6.06365, 3.21812 5.97859, 3.59516 5.97818, 3.82457 5.97859, 4.03926 6.01376, 4.23923 6.08328, 4.4392 6.1532, 4.60973 6.25462, 4.75122 6.38752, 4.89271 6.52084, 4.99495 6.67664, 5.05792 6.85494, 5.07591 6.95145, 5.0845 7.04714, 5.0845 7.14283, 5.0845 7.24792, 5.07142 7.35915, 5.04443 7.47652, 4.99495 7.67322, 4.89394 7.82289, 4.741 7.92512, 4.58846 8.02776, 4.43552 8.07888, 4.28258 8.07847, 4.12105 8.07888, 3.99101 8.02204, 3.89205 7.90835, 3.81558 7.83475, 3.77714 7.73865, 3.77714 7.62046, 3.77714 7.57303, 3.78613 7.51414, 3.80413 7.4438, 3.85402 7.25242, 3.95175 7.1097, 4.09774 7.01565, 4.24373 6.922, 4.35701 6.87293, 4.43757 6.86802, 4.39299 6.75925, 4.28626 6.65701, 4.11778 6.56091, 3.9493 6.46522, 3.74851 6.41697, 3.5146 6.41656, 3.29009 6.41697, 3.05986 6.48567, 2.82391 6.62307, 2.58795 6.76047, 2.38021 6.93836, 2.20028 7.15591, 1.95778 7.43971, 1.77253 7.74642, 1.64454 8.07561, 1.51654 8.40521, 1.40735 8.74626, 1.31739 9.09917, 1.22783 9.44841, 1.15831 9.7866, 1.10842 10.1133, 1.09043 10.2184, 1.08143 10.3166, 1.08143 10.4078, 1.08143 10.6221, 1.11742 10.8269, 1.18939 11.0228, 1.25687 11.2412, 1.37014 11.417, 1.52963 11.5499, 1.68911 11.6832, 1.88131 11.7495, 2.10582 11.7491, 2.58223 11.7495, 3.04719 11.6276, 3.5011 11.3831, 3.95502 11.1389, 4.33002 10.8073, 4.62649 10.3881, 4.65348 10.3407, 4.70542 10.3035, 4.78148 10.2769 L 4.83546 10.2769 C 4.88044 10.2773, 4.91888 10.2924, 4.94996 10.3227 L 5.05097 10.4339 Z" stroke="none" fill="#000000" />
			<rect />
		</svg>
	</g>
	<g transform="matrix(1 0 -0 1 143.305 75.8395)">
		<svg width="23.9302292" height="35.9036179">
			<defs />
			<path d="M 4.38665 10.5386 C 4.30609 10.8183, 4.26561 11.0625, 4.26561 11.2714, 4.26561 11.3287, 4.27011 11.3831, 4.2791 11.435, 4.3016 11.6448, 4.4071 11.7495, 4.59562 11.7491, 4.69008 11.7495, 4.77882 11.7102, 4.86184 11.6317, 4.94526 11.5532, 5.02173 11.4367, 5.09125 11.2817, 5.16077 11.1271, 5.22702 10.9414, 5.28999 10.7255, 5.35297 10.5096, 5.41799 10.2753, 5.48505 10.0217, 5.51204 9.90887, 5.58852 9.85203, 5.71447 9.85162 L 5.86945 9.85162 C 5.98641 9.85203, 6.04448 9.89987, 6.04448 9.99556 L 6.04448 10.0414 C 5.99091 10.2556, 5.93039 10.4846, 5.86291 10.7288, 5.79544 10.9733, 5.70547 11.1999, 5.59301 11.4093, 5.48097 11.6186, 5.33947 11.7998, 5.16854 11.9523, 4.99801 12.1049, 4.78455 12.1809, 4.52815 12.1809, 4.18709 12.1809, 3.91392 12.0864, 3.70946 11.8967, 3.50499 11.707, 3.38722 11.5139, 3.35573 11.3172, 3.20279 11.4923, 2.97501 11.68, 2.67158 11.8803, 2.36856 12.0807, 2.04836 12.1809, 1.7114 12.1809, 1.35644 12.1809, 1.05874 12.0918, 0.818283 11.9131, 0.577829 11.7344, 0.390537 11.5094, 0.255588 11.2387, 0.0940583 10.9165, 0.00859082 10.5697, -0.000405788 10.1984 L -0.000405788 10.1002 C -0.000405788 9.75593, 0.0470307 9.4116, 0.141086 9.06646, 0.249045 8.68738, 0.399533 8.31238, 0.592551 7.94148, 0.785977 7.57098, 1.04197 7.22625, 1.36094 6.90728, 1.62184 6.64597, 1.91955 6.42596, 2.25406 6.24685, 2.58856 6.06814, 2.9288 5.97859, 3.27476 5.97818, 3.57574 5.97859, 3.82069 6.05833, 4.00921 6.21741, 4.19813 6.37689, 4.31713 6.51061, 4.36662 6.61939 L 5.09452 3.80591 C 5.13051 3.66238, 5.15259 3.55319, 5.16159 3.47876 L 5.16159 3.47222 C 5.16159 3.42887, 5.14605 3.39616, 5.11456 3.37408, 5.07448 3.33973, 4.98002 3.3156, 4.83158 3.30251, 4.68354 3.28943, 4.51261 3.28288, 4.31918 3.28248, 4.19364 3.28288, 4.13066 3.224, 4.13066 3.10582 L 4.13066 3.05347, 4.17114 2.94224 C 4.19813 2.84246, 4.2791 2.77703, 4.41364 2.74595 L 5.69402 2.64126, 6.18597 2.60201, 6.21296 2.60201 C 6.26694 2.60242, 6.31438 2.62204, 6.35445 2.66089, 6.36836 2.70056, 6.3749 2.73777, 6.3749 2.77212 L 6.3749 2.81792 Z M 4.11717 7.63355 C 4.09917 7.55544, 4.08363 7.47366, 4.07014 7.3886, 4.05664 7.30354, 4.0362 7.21971, 4.00921 7.13628, 3.93764 6.93182, 3.83541 6.76047, 3.70291 6.62307, 3.57042 6.48567, 3.40276 6.41697, 3.20074 6.41656, 3.01222 6.41697, 2.82575 6.48485, 2.64132 6.6198, 2.4573 6.75516, 2.28882 6.92936, 2.13587 7.14283, 1.92036 7.44421, 1.75883 7.75746, 1.65088 8.08215, 1.54292 8.40726, 1.44395 8.74626, 1.35399 9.09917, 1.26443 9.44841, 1.19041 9.7866, 1.13153 10.1133, 1.09595 10.2794, 1.07796 10.4364, 1.07796 10.5844, 1.07796 10.7419, 1.09595 10.8944, 1.13153 11.0424, 1.17242 11.2477, 1.24521 11.417, 1.35072 11.5499, 1.45622 11.6832, 1.60344 11.7495, 1.79196 11.7491, 1.99888 11.7495, 2.20662 11.6775, 2.41559 11.5336, 2.62455 11.3896, 2.8188 11.213, 2.99832 11.0032, 3.07029 10.9165, 3.13899 10.8327, 3.20401 10.7517, 3.26944 10.6711, 3.32669 10.5848, 3.37577 10.4928 L 4.11717 7.63355 Z" stroke="none" fill="#000000" />
			<rect />
		</svg>
	</g>
	<path d="M 0 -37.75 L 0 37.75" fill="none" stroke="#000000" stroke-width="1" stroke-linecap="round" stroke-linejoin="round" stroke-dasharray="3.505, 2.495" transform="matrix(0.5 0 0 0.5 71.0942 174.47)" />
	<path d="M 0 -37.75 L 0 37.75" fill="none" stroke="#000000" stroke-width="1" stroke-linecap="round" stroke-linejoin="round" stroke-dasharray="3.505, 2.495" transform="matrix(0.5 0 0 0.5 137.438 174.47)" />
	<path d="M -39.6567 0 L 39.6567 0" fill="none" stroke="#000000" stroke-width="1" stroke-linecap="round" stroke-linejoin="round" stroke-dasharray="3.505, 2.495" transform="matrix(0.5 0 0 0.5 51.2658 91.3448)" />
	<path d="M -39.6567 0 L 39.6567 0" fill="none" stroke="#000000" stroke-width="1" stroke-linecap="round" stroke-linejoin="round" stroke-dasharray="3.505, 2.495" transform="matrix(0.5 0 0 0.5 51.2658 155.595)" />
	<g transform="matrix(1 0 -0 1 16.1981 8)">
		<svg width="98.9441605" height="41.9471397">
			<defs />
			<path d="M 7.92926 6.68116 C 7.90268 6.42434, 7.87815 6.19657, 7.85566 5.99782, 7.83316 5.79949, 7.80495 5.60647, 7.77141 5.41877, 7.73788 5.23148, 7.69167 5.06218, 7.63319 4.91169, 7.57472 4.7612, 7.50479 4.6422, 7.42382 4.55469, 7.25329 4.38498, 7.05455 4.26189, 6.82759 4.18542, 6.60104 4.10936, 6.36181 4.07092, 6.10991 4.07051 L 5.51 4.07051, 5.51 11.6211, 7.34326 11.6211, 7.34326 12.4913 C 6.32337 12.4611, 5.34643 12.4455, 4.4116 12.4455, 3.47269 12.4455, 2.49328 12.4611, 1.4734 12.4913 L 1.4734 11.6211, 3.30625 11.6211, 3.30625 4.07051, 2.78077 4.07051 C 2.52927 4.07092, 2.27982 4.10691, 2.03282 4.17888, 1.78583 4.25085, 1.57686 4.3764, 1.40593 4.55469, 1.31596 4.6467, 1.24317 4.76693, 1.18674 4.91496, 1.13071 5.06341, 1.08491 5.23148, 1.04892 5.41877, 1.01294 5.60647, 0.983904 5.79949, 0.961412 5.99782, 0.938921 6.19657, 0.913976 6.42434, 0.886986 6.68116 L -0.00244877 6.68116, 0.307524 3.20684, 8.50913 3.20684, 8.81911 6.68116 Z" stroke="none" fill="#000000" />
			<path d="M 25.9907 12.4913 C 25.3077 12.4611, 24.6813 12.4455, 24.1108 12.4455 L 24.0838 12.4455 C 23.3293 12.4455, 22.5409 12.4611, 21.7189 12.4913 L 21.7189 11.6211 C 21.9209 11.6215, 22.0804 11.6195, 22.1974 11.615, 22.3143 11.6109, 22.4219 11.6019, 22.5204 11.5884, 22.5564 11.5757, 22.5969 11.5561, 22.6419 11.5295, 22.6284 11.5344, 22.6194 11.5516, 22.6149 11.5818, 22.6149 11.6084, 22.6194 11.626, 22.6284 11.6342 L 20.2971 8.08789, 19.4886 8.86651, 19.4886 11.6211, 20.7821 11.6211, 20.7821 12.4913 C 19.938 12.4611, 19.1406 12.4455, 18.3902 12.4455, 17.6267 12.4455, 16.8272 12.4611, 15.9914 12.4913 L 15.9914 11.6211, 17.2852 11.6211, 17.2852 3.92002, 15.9914 3.92002, 15.9914 3.04981 C 16.8272 3.08089, 17.6267 3.09602, 18.3902 3.09561, 19.1451 3.09602, 19.9421 3.08089, 20.7821 3.04981 L 20.7821 3.92002, 19.4886 3.92002, 19.4886 7.63643, 23.4033 3.89385 C 23.3898 3.91184, 23.3829 3.93147, 23.3829 3.95274, 23.3829 3.98791, 23.3964 4.00999, 23.4234 4.01817, 23.3694 4.00999, 23.3044 3.9969, 23.2279 3.97891, 23.1338 3.96173, 23.0337 3.94783, 22.9281 3.93679, 22.8226 3.92616, 22.6758 3.92043, 22.4869 3.92002 L 22.4869 3.04981 C 23.2013 3.08089, 23.8728 3.09602, 24.5013 3.09561 L 24.5283 3.09561 C 24.9013 3.09602, 25.3237 3.08089, 25.7952 3.04981 L 25.7952 3.92002 C 25.5662 3.92043, 25.3822 3.92289, 25.2427 3.92698, 25.1037 3.93147, 24.9687 3.94211, 24.8383 3.95928, 24.7712 3.97727, 24.7062 3.9924, 24.6432 4.00549, 24.5802 4.01858, 24.5308 4.03821, 24.4948 4.06397 L 21.732 6.72041, 24.8653 11.5033 C 24.8968 11.5516, 24.9573 11.5822, 25.0473 11.5949, 25.1327 11.6129, 25.2497 11.6215, 25.3977 11.6211 L 25.9907 11.6211, 25.9907 12.4913 Z" stroke="none" fill="#000000" />
			<path d="M 1.10479 6.39732 C -3.26361 3.51853, -3.26361 -3.51853, 1.10479 -6.39732 L 1.79087 -6.39732 C -2.14873 -3.51853, -2.14873 3.51853, 1.79087 6.39732" stroke="none" fill="#000000" transform="matrix(1 0 -0 1 13.5116 8.40732)" />
			<path d="M 1.10479 6.39732 C -3.26361 3.51853, -3.26361 -3.51853, 1.10479 -6.39732 L 1.79087 -6.39732 C -2.14873 -3.51853, -2.14873 3.51853, 1.79087 6.39732" stroke="none" fill="#000000" transform="matrix(-1 1.50996e-007 -1.50996e-007 -1 28.4688 8.40732)" />
			<rect />
		</svg>
	</g>
	<g transform="matrix(1 0 -0 1 185.407 184.937)">
		<svg width="131.930206" height="44.9689026">
			<defs />
			<path d="M 6.35547 9.61895 C 6.35547 10.0033, 6.30067 10.3861, 6.19026 10.7676, 6.08026 11.1496, 5.88356 11.4906, 5.60058 11.7912, 5.34458 12.0795, 5.03584 12.2922, 4.67393 12.4292, 4.31243 12.5666, 3.94071 12.6353, 3.55876 12.6353, 2.57486 12.6353, 1.79543 12.4193, 1.22006 11.9875 L 0.647142 12.5437 C 0.589073 12.596, 0.5171 12.6267, 0.431633 12.6353 L 0.310179 12.6353 C 0.234117 12.6353, 0.163371 12.6058, 0.0979413 12.5469, 0.0329206 12.488, 0.000205755 12.4152, 0.000205755 12.3277 L 0.000205755 9.51426 C 0.000205755 9.44065, 0.0316938 9.37072, 0.0946699 9.30529, 0.157646 9.23987, 0.229619 9.20715, 0.310179 9.20674 L 0.586619 9.20674 C 0.66309 9.20715, 0.735063 9.23987, 0.802537 9.30529, 0.870012 9.37072, 0.903544 9.44065, 0.903544 9.51426, 0.903544 10.2389, 1.144 10.795, 1.6245 11.1831, 2.10541 11.5716, 2.74989 11.7655, 3.55876 11.765, 3.92721 11.7655, 4.21715 11.6411, 4.42816 11.3921, 4.54961 11.2531, 4.63713 11.0907, 4.6911 10.9051, 4.74508 10.7198, 4.77167 10.5202, 4.77167 10.306, 4.77167 9.96164, 4.68538 9.65657, 4.5124 9.39035, 4.33942 9.12455, 4.10469 8.95197, 3.8078 8.87305 L 2.14998 8.47393 C 1.82692 8.40441, 1.53371 8.27928, 1.27077 8.09812, 1.00823 7.91737, 0.783317 7.70677, 0.596843 7.46672, 0.410368 7.22708, 0.264378 6.9576, 0.158873 6.65866, 0.0533674 6.36014, 0.000205755 6.05139, 0.000205755 5.73243, 0.000205755 5.36193, 0.0578657 4.9992, 0.172368 4.64343, 0.28687 4.28806, 0.483568 3.96828, 0.761644 3.68448, 1.03154 3.41008, 1.34479 3.21297, 1.7022 3.09275, 2.0596 2.97293, 2.42438 2.91282, 2.79692 2.91241, 3.63728 2.91282, 4.29771 3.12014, 4.77862 3.53399 L 5.33109 2.99746 C 5.39406 2.94103, 5.47054 2.91282, 5.56009 2.91241 L 5.66805 2.91241 C 5.74452 2.91282, 5.8165 2.94144, 5.88356 2.99787, 5.95104 3.05472, 5.98457 3.12669, 5.98457 3.21338 L 5.98457 6.02686 C 5.98457 6.10129, 5.95104 6.17121, 5.88356 6.23664, 5.8165 6.30207, 5.74452 6.33479, 5.66805 6.33438 L 5.39161 6.33438 C 5.20759 6.33479, 5.10209 6.24114, 5.0751 6.05303, 5.00762 5.32063, 4.78189 4.74934, 4.39749 4.33918, 4.0135 3.92943, 3.47984 3.72414, 2.79692 3.72373, 2.62639 3.72414, 2.46363 3.75154, 2.30865 3.80593, 2.15366 3.86073, 2.02444 3.94456, 1.92098 4.05743, 1.80443 4.18011, 1.72019 4.32405, 1.66825 4.48967, 1.61673 4.6557, 1.59056 4.8344, 1.59056 5.02578, 1.59056 5.33167, 1.67725 5.60197, 1.85023 5.83752, 2.02321 6.07307, 2.2514 6.2256, 2.53438 6.29512 L 4.17871 6.69424 C 4.52017 6.77317, 4.82442 6.90852, 5.09186 7.10031, 5.35931 7.29251, 5.58586 7.51906, 5.77233 7.78078, 5.95881 8.0425, 6.10275 8.33039, 6.20376 8.64445, 6.30517 8.95852, 6.35547 9.28362, 6.35547 9.61895 Z" stroke="none" fill="#000000" />
			<path d="M 19.1239 3.92002 L 19.1239 10.4368 C 19.1239 10.773, 19.0434 11.0809, 18.8815 11.3598, 18.7199 11.6391, 18.502 11.8746, 18.228 12.066, 17.891 12.2889, 17.5352 12.439, 17.1598 12.5175, 16.7848 12.596, 16.4131 12.6353, 16.0447 12.6353, 15.7527 12.6353, 15.4587 12.6005, 15.1622 12.5306, 14.8657 12.4611, 14.595 12.3523, 14.3504 12.2038, 14.1059 12.0558, 13.9072 11.8681, 13.7542 11.6411, 13.6017 11.4146, 13.5252 11.1484, 13.5248 10.8425, 13.5252 10.4634, 13.6487 10.1788, 13.8957 9.98904, 14.1427 9.79929, 14.4101 9.70442, 14.6972 9.70401, 14.9892 9.70442, 15.2587 9.79929, 15.5057 9.98904, 15.7527 10.1788, 15.8762 10.4634, 15.8762 10.8425, 15.8762 11.1263, 15.8001 11.359, 15.6472 11.5397, 15.4946 11.7209, 15.3981 11.8178, 15.3577 11.8305, 15.4611 11.8877, 15.6901 11.9159, 16.0447 11.9155, 16.3187 11.9159, 16.5391 11.7982, 16.7051 11.5622, 16.8176 11.4101, 16.8953 11.2379, 16.9378 11.0457, 16.9803 10.8539, 17.0016 10.6511, 17.0016 10.4368 L 17.0016 3.92002, 15.3172 3.92002, 15.3172 3.04981 C 16.2651 3.08089, 17.1791 3.09602, 18.0595 3.09561, 18.1989 3.09602, 18.3347 3.09397, 18.4672 3.08947, 18.5997 3.08539, 18.7355 3.08293, 18.8745 3.08252, 19.0589 3.08293, 19.2421 3.08089, 19.4241 3.07639, 19.6061 3.0723, 19.8318 3.0633, 20.1009 3.04981 L 20.1009 3.92002 Z" stroke="none" fill="#000000" />
			<path d="M 21.5574 15.5469 C 21.5264 15.6344, 21.4679 15.6974, 21.3824 15.7366, 21.3284 15.7587, 21.279 15.7693, 21.234 15.7693, 21.2029 15.7693, 21.1645 15.7653, 21.1195 15.7563, 20.9579 15.6998, 20.877 15.6017, 20.877 15.4618, 20.877 15.4185, 20.8884 15.3702, 20.9105 15.3179 L 25.6889 2.46094 C 25.7204 2.37425, 25.7809 2.30636, 25.8709 2.25811, 25.9204 2.24543, 25.9654 2.23889, 26.0054 2.23848, 26.0373 2.23889, 26.0778 2.24339, 26.1269 2.25157, 26.2888 2.30882, 26.3673 2.40696, 26.3628 2.546, 26.3628 2.59017, 26.3518 2.63801, 26.3289 2.68995 Z" stroke="none" fill="#000000" />
			<path d="M 36.523 12.4913 C 35.8401 12.4611, 35.2136 12.4455, 34.6432 12.4455 L 34.6162 12.4455 C 33.8617 12.4455, 33.0733 12.4611, 32.2513 12.4913 L 32.2513 11.6211 C 32.4533 11.6215, 32.6128 11.6195, 32.7298 11.615, 32.8467 11.6109, 32.9543 11.6019, 33.0528 11.5884, 33.0888 11.5757, 33.1293 11.5561, 33.1743 11.5295, 33.1608 11.5344, 33.1518 11.5516, 33.1473 11.5818, 33.1473 11.6084, 33.1518 11.626, 33.1608 11.6342 L 30.8294 8.08789, 30.021 8.86651, 30.021 11.6211, 31.3144 11.6211, 31.3144 12.4913 C 30.4704 12.4611, 29.673 12.4455, 28.9226 12.4455, 28.1591 12.4455, 27.3596 12.4611, 26.5238 12.4913 L 26.5238 11.6211, 27.8176 11.6211, 27.8176 3.92002, 26.5238 3.92002, 26.5238 3.04981 C 27.3596 3.08089, 28.1591 3.09602, 28.9226 3.09561, 29.6775 3.09602, 30.4745 3.08089, 31.3144 3.04981 L 31.3144 3.92002, 30.021 3.92002, 30.021 7.63643, 33.9357 3.89385 C 33.9222 3.91184, 33.9153 3.93147, 33.9153 3.95274, 33.9153 3.98791, 33.9288 4.00999, 33.9557 4.01817, 33.9018 4.00999, 33.8367 3.9969, 33.7603 3.97891, 33.6662 3.96173, 33.566 3.94783, 33.4605 3.93679, 33.355 3.92616, 33.2082 3.92043, 33.0193 3.92002 L 33.0193 3.04981 C 33.7337 3.08089, 34.4052 3.09602, 35.0337 3.09561 L 35.0607 3.09561 C 35.4336 3.09602, 35.8561 3.08089, 36.3276 3.04981 L 36.3276 3.92002 C 36.0986 3.92043, 35.9145 3.92289, 35.7751 3.92698, 35.6361 3.93147, 35.5011 3.94211, 35.3707 3.95928, 35.3036 3.97727, 35.2386 3.9924, 35.1756 4.00549, 35.1126 4.01858, 35.0631 4.03821, 35.0272 4.06397 L 32.2644 6.72041, 35.3977 11.5033 C 35.4291 11.5516, 35.4897 11.5822, 35.5796 11.5949, 35.6651 11.6129, 35.7821 11.6215, 35.9301 11.6211 L 36.523 11.6211, 36.523 12.4913 Z" stroke="none" fill="#000000" />
			<path d="M 1.10479 6.39732 C -3.26361 3.51853, -3.26361 -3.51853, 1.10479 -6.39732 L 1.79087 -6.39732 C -2.14873 -3.51853, -2.14873 3.51853, 1.79087 6.39732" stroke="none" fill="#000000" transform="matrix(1 0 -0 1 11.0453 8.40732)" />
			<path d="M 1.10479 6.39732 C -3.26361 3.51853, -3.26361 -3.51853, 1.10479 -6.39732 L 1.79087 -6.39732 C -2.14873 -3.51853, -2.14873 3.51853, 1.79087 6.39732" stroke="none" fill="#000000" transform="matrix(-1 1.50996e-007 -1.50996e-007 -1 39.2883 8.40732)" />
			<rect />
		</svg>
	</g>
	<g transform="matrix(1 0 -0 1 68.1357 200.402)">
		<svg width="21.0837173" height="32.8818588">
			<defs />
			<path d="M 5.43396 11.9764 L 0.0582091 11.9764, 0.0582091 11.6237 C 0.0582091 11.5985, 0.0714341 11.56, 0.0978841 11.5083 L 2.25756 9.16146 C 2.51284 8.87973, 2.77133 8.59119, 3.03343 8.29623, 3.29552 8.00127, 3.53037 7.6999, 3.73716 7.39212, 3.94395 7.08434, 4.10906 6.76694, 4.23249 6.43993, 4.35593 6.11291, 4.41724 5.76986, 4.41724 5.41038, 4.41724 5.10741, 4.37757 4.82407, 4.29822 4.56118, 4.21887 4.29828, 4.10465 4.06744, 3.95477 3.86867, 3.80528 3.66989, 3.61813 3.50959, 3.39371 3.38776, 3.16928 3.26593, 2.90919 3.20502, 2.61424 3.20461, 2.17421 3.20502, 1.78547 3.33646, 1.44843 3.59936, 1.1118 3.86226, 0.888176 4.152, 0.777968 4.4678, 0.756328 4.47662, 0.791594 4.48103, 0.883768 4.48063 L 0.99598 4.48063 C 1.12823 4.51108, 1.24245 4.55717, 1.33943 4.61889, 1.43641 4.681, 1.51777 4.76636, 1.58389 4.87537, 1.65002 4.98438, 1.68288 5.11582, 1.68288 5.26931, 1.68288 5.5262, 1.59952 5.72297, 1.432 5.85963, 1.26449 5.99669, 1.07733 6.06482, 0.870543 6.06442, 0.672569 6.06482, 0.48742 5.99669, 0.315896 5.85963, 0.144372 5.72297, 0.0582091 5.5262, 0.0582091 5.26931, 0.0582091 4.91064, 0.128742 4.5708, 0.269809 4.25019, 0.410875 3.92958, 0.602036 3.65186, 0.844093 3.41662, 1.08615 3.18177, 1.37229 2.99582, 1.70251 2.85876, 2.03274 2.7221, 2.383 2.65357, 2.7529 2.65317, 3.21096 2.65357, 3.63056 2.7209, 4.01127 2.85556, 4.39199 2.99021, 4.71661 3.18378, 4.98511 3.43585, 5.25362 3.68833, 5.46402 3.98008, 5.6159 4.3111, 5.76779 4.64253, 5.84353 5.00882, 5.84353 5.41038, 5.84353 5.85522, 5.74254 6.26479, 5.53976 6.6387, 5.33738 7.01301, 5.0865 7.35606, 4.78714 7.66784, 4.48777 7.98003, 4.16957 8.27379, 3.83254 8.54951, 3.4959 8.82523, 3.19093 9.09334, 2.91801 9.35383 L 1.39874 10.7837, 3.3869 10.7837 C 3.66422 10.7841, 3.92311 10.7821, 4.16276 10.7777, 4.40281 10.7737, 4.6064 10.7649, 4.77391 10.7521, 4.94143 10.7392, 5.02719 10.7308, 5.0312 10.726, 5.06647 10.6964, 5.09973 10.6367, 5.13059 10.5469, 5.16145 10.4571, 5.1899 10.3513, 5.21635 10.2295, 5.2428 10.1077, 5.26925 9.98382, 5.2957 9.85758, 5.32215 9.73174, 5.3462 9.59348, 5.36824 9.4436 L 5.85676 9.4436 Z" stroke="none" fill="#000000" />
			<rect />
		</svg>
	</g>
	<g transform="matrix(1 0 -0 1 132.987 200.402)">
		<svg width="23.9302292" height="35.9036179">
			<defs />
			<path d="M 6.07731 9.55902 C 6.07731 9.92691, 5.99596 10.28, 5.83325 10.6174, 5.67054 10.9553, 5.45253 11.2438, 5.17921 11.4826, 4.87143 11.7524, 4.53119 11.9519, 4.15929 12.0822, 3.78738 12.2128, 3.39865 12.2778, 2.99349 12.2778, 2.6284 12.2778, 2.27212 12.2265, 1.92427 12.1239, 1.57641 12.0213, 1.26302 11.8742, 0.98329 11.6818, 0.703561 11.4895, 0.48034 11.2534, 0.312823 10.9733, 0.145708 10.6936, 0.0619497 10.3717, 0.0619497 10.0079, 0.0619497 9.73455, 0.153322 9.53056, 0.336067 9.39591, 0.518812 9.26125, 0.711176 9.19393, 0.913558 9.19353, 1.12516 9.19393, 1.32193 9.26125, 1.50467 9.39591, 1.68742 9.53056, 1.77879 9.73455, 1.77879 10.0079, 1.77879 10.1706, 1.74713 10.3064, 1.68301 10.4154, 1.61929 10.5244, 1.53794 10.6154, 1.43855 10.6879, 1.33956 10.7609, 1.22615 10.8054, 1.09871 10.8222, 1.03298 10.8398, 0.971267 10.8483, 0.913558 10.8478, 0.85665 10.8483, 0.847834 10.8527, 0.887108 10.8607, 1.02377 11.1003, 1.29227 11.3123, 1.69303 11.4959, 2.09379 11.6798, 2.527 11.7716, 2.99349 11.7712, 3.2139 11.7716, 3.41949 11.7171, 3.61105 11.6081, 3.80261 11.4991, 3.96252 11.3528, 4.08996 11.1685, 4.24866 10.9296, 4.35646 10.6731, 4.41337 10.3994, 4.47068 10.1261, 4.49913 9.84596, 4.49913 9.55902, 4.49913 9.26446, 4.47068 8.98152, 4.41337 8.70981, 4.35646 8.4385, 4.24866 8.18722, 4.08996 7.95599, 3.95771 7.76843, 3.797 7.61655, 3.60785 7.50113, 3.41869 7.38571, 3.2139 7.328, 2.99349 7.3276 L 2.03608 7.3276 C 1.90864 7.328, 1.84051 7.26829, 1.83169 7.14806 L 1.83169 7.07753 C 1.83169 7.02663, 1.84732 6.98616, 1.87778 6.9557, 1.91745 6.91763, 1.96795 6.89839, 2.02967 6.89799, 2.15751 6.88116, 2.28936 6.87274, 2.42561 6.87234, 2.55786 6.87274, 2.68811 6.86433, 2.81555 6.84669, 3.0532 6.82986, 3.25999 6.75652, 3.43592 6.62588, 3.61225 6.49563, 3.75973 6.32892, 3.87836 6.12573, 3.99738 5.92295, 4.08755 5.68891, 4.14927 5.42361, 4.21099 5.15871, 4.24184 4.88699, 4.24184 4.60887, 4.24184 4.40408, 4.2198 4.20971, 4.17572 4.02577, 4.13164 3.84222, 4.05028 3.68152, 3.93126 3.54446, 3.68479 3.26272, 3.3722 3.12366, 2.99349 3.12767, 2.58872 3.12807, 2.21802 3.20421, 1.88139 3.3557, 1.54475 3.50759, 1.31872 3.6711, 1.20411 3.84583, 1.17365 3.85064, 1.18888 3.85264, 1.25059 3.85224, 1.40929 3.85264, 1.55878 3.89953, 1.69944 3.9933, 1.91104 4.11754, 2.01644 4.32714, 2.01644 4.62169, 2.01644 4.87016, 1.93629 5.05731, 1.77559 5.18315, 1.61488 5.30939, 1.43534 5.37231, 1.23737 5.37191, 1.0438 5.37231, 0.862261 5.31059, 0.692741 5.18636, 0.523221 5.06252, 0.43826 4.87417, 0.43826 4.62169, 0.43826 4.3099, 0.513202 4.03458, 0.662684 3.79493, 0.812567 3.55568, 1.00493 3.35049, 1.24058 3.17937, 1.47622 3.00865, 1.74793 2.878, 2.05612 2.78823, 2.3643 2.69846, 2.67689 2.65357, 2.99349 2.65317, 3.33253 2.65357, 3.66075 2.69846, 3.97774 2.78823, 4.29474 2.878, 4.59411 3.01706, 4.87544 3.20461, 5.10467 3.36732, 5.29704 3.5673, 5.45333 3.80455, 5.60963 4.0418, 5.68777 4.3099, 5.68777 4.60887, 5.68777 4.90863, 5.63407 5.19077, 5.52627 5.45567, 5.41847 5.72097, 5.27539 5.96022, 5.09706 6.17382, 4.91872 6.38783, 4.70632 6.57578, 4.45986 6.73809, 4.21339 6.9008, 4.02824 7.00299, 3.90481 7.04547, 4.01061 7.05869, 4.19135 7.12201, 4.44663 7.23503, 4.70191 7.34844, 4.94597 7.49913, 5.17921 7.68668, 5.45253 7.92232, 5.67054 8.20325, 5.83325 8.53027, 5.99596 8.85729, 6.07731 9.20034, 6.07731 9.55902 Z" stroke="none" fill="#000000" />
			<rect />
		</svg>
	</g>
	<g transform="matrix(1 0 -0 1 16.0978 147.069)">
		<svg width="21.0837173" height="32.8818588">
			<defs />
			<path d="M 5.43396 11.9764 L 0.0582091 11.9764, 0.0582091 11.6237 C 0.0582091 11.5985, 0.0714341 11.56, 0.0978841 11.5083 L 2.25756 9.16146 C 2.51284 8.87973, 2.77133 8.59119, 3.03343 8.29623, 3.29552 8.00127, 3.53037 7.6999, 3.73716 7.39212, 3.94395 7.08434, 4.10906 6.76694, 4.23249 6.43993, 4.35593 6.11291, 4.41724 5.76986, 4.41724 5.41038, 4.41724 5.10741, 4.37757 4.82407, 4.29822 4.56118, 4.21887 4.29828, 4.10465 4.06744, 3.95477 3.86867, 3.80528 3.66989, 3.61813 3.50959, 3.39371 3.38776, 3.16928 3.26593, 2.90919 3.20502, 2.61424 3.20461, 2.17421 3.20502, 1.78547 3.33646, 1.44843 3.59936, 1.1118 3.86226, 0.888176 4.152, 0.777968 4.4678, 0.756328 4.47662, 0.791594 4.48103, 0.883768 4.48063 L 0.99598 4.48063 C 1.12823 4.51108, 1.24245 4.55717, 1.33943 4.61889, 1.43641 4.681, 1.51777 4.76636, 1.58389 4.87537, 1.65002 4.98438, 1.68288 5.11582, 1.68288 5.26931, 1.68288 5.5262, 1.59952 5.72297, 1.432 5.85963, 1.26449 5.99669, 1.07733 6.06482, 0.870543 6.06442, 0.672569 6.06482, 0.48742 5.99669, 0.315896 5.85963, 0.144372 5.72297, 0.0582091 5.5262, 0.0582091 5.26931, 0.0582091 4.91064, 0.128742 4.5708, 0.269809 4.25019, 0.410875 3.92958, 0.602036 3.65186, 0.844093 3.41662, 1.08615 3.18177, 1.37229 2.99582, 1.70251 2.85876, 2.03274 2.7221, 2.383 2.65357, 2.7529 2.65317, 3.21096 2.65357, 3.63056 2.7209, 4.01127 2.85556, 4.39199 2.99021, 4.71661 3.18378, 4.98511 3.43585, 5.25362 3.68833, 5.46402 3.98008, 5.6159 4.3111, 5.76779 4.64253, 5.84353 5.00882, 5.84353 5.41038, 5.84353 5.85522, 5.74254 6.26479, 5.53976 6.6387, 5.33738 7.01301, 5.0865 7.35606, 4.78714 7.66784, 4.48777 7.98003, 4.16957 8.27379, 3.83254 8.54951, 3.4959 8.82523, 3.19093 9.09334, 2.91801 9.35383 L 1.39874 10.7837, 3.3869 10.7837 C 3.66422 10.7841, 3.92311 10.7821, 4.16276 10.7777, 4.40281 10.7737, 4.6064 10.7649, 4.77391 10.7521, 4.94143 10.7392, 5.02719 10.7308, 5.0312 10.726, 5.06647 10.6964, 5.09973 10.6367, 5.13059 10.5469, 5.16145 10.4571, 5.1899 10.3513, 5.21635 10.2295, 5.2428 10.1077, 5.26925 9.98382, 5.2957 9.85758, 5.32215 9.73174, 5.3462 9.59348, 5.36824 9.4436 L 5.85676 9.4436 Z" stroke="none" fill="#000000" />
			<rect />
		</svg>
	</g>
	<g transform="matrix(1 0 -0 1 15.9872 83.3395)">
		<svg width="23.9302292" height="35.9036179">
			<defs />
			<path d="M 6.07731 9.55902 C 6.07731 9.92691, 5.99596 10.28, 5.83325 10.6174, 5.67054 10.9553, 5.45253 11.2438, 5.17921 11.4826, 4.87143 11.7524, 4.53119 11.9519, 4.15929 12.0822, 3.78738 12.2128, 3.39865 12.2778, 2.99349 12.2778, 2.6284 12.2778, 2.27212 12.2265, 1.92427 12.1239, 1.57641 12.0213, 1.26302 11.8742, 0.98329 11.6818, 0.703561 11.4895, 0.48034 11.2534, 0.312823 10.9733, 0.145708 10.6936, 0.0619497 10.3717, 0.0619497 10.0079, 0.0619497 9.73455, 0.153322 9.53056, 0.336067 9.39591, 0.518812 9.26125, 0.711176 9.19393, 0.913558 9.19353, 1.12516 9.19393, 1.32193 9.26125, 1.50467 9.39591, 1.68742 9.53056, 1.77879 9.73455, 1.77879 10.0079, 1.77879 10.1706, 1.74713 10.3064, 1.68301 10.4154, 1.61929 10.5244, 1.53794 10.6154, 1.43855 10.6879, 1.33956 10.7609, 1.22615 10.8054, 1.09871 10.8222, 1.03298 10.8398, 0.971267 10.8483, 0.913558 10.8478, 0.85665 10.8483, 0.847834 10.8527, 0.887108 10.8607, 1.02377 11.1003, 1.29227 11.3123, 1.69303 11.4959, 2.09379 11.6798, 2.527 11.7716, 2.99349 11.7712, 3.2139 11.7716, 3.41949 11.7171, 3.61105 11.6081, 3.80261 11.4991, 3.96252 11.3528, 4.08996 11.1685, 4.24866 10.9296, 4.35646 10.6731, 4.41337 10.3994, 4.47068 10.1261, 4.49913 9.84596, 4.49913 9.55902, 4.49913 9.26446, 4.47068 8.98152, 4.41337 8.70981, 4.35646 8.4385, 4.24866 8.18722, 4.08996 7.95599, 3.95771 7.76843, 3.797 7.61655, 3.60785 7.50113, 3.41869 7.38571, 3.2139 7.328, 2.99349 7.3276 L 2.03608 7.3276 C 1.90864 7.328, 1.84051 7.26829, 1.83169 7.14806 L 1.83169 7.07753 C 1.83169 7.02663, 1.84732 6.98616, 1.87778 6.9557, 1.91745 6.91763, 1.96795 6.89839, 2.02967 6.89799, 2.15751 6.88116, 2.28936 6.87274, 2.42561 6.87234, 2.55786 6.87274, 2.68811 6.86433, 2.81555 6.84669, 3.0532 6.82986, 3.25999 6.75652, 3.43592 6.62588, 3.61225 6.49563, 3.75973 6.32892, 3.87836 6.12573, 3.99738 5.92295, 4.08755 5.68891, 4.14927 5.42361, 4.21099 5.15871, 4.24184 4.88699, 4.24184 4.60887, 4.24184 4.40408, 4.2198 4.20971, 4.17572 4.02577, 4.13164 3.84222, 4.05028 3.68152, 3.93126 3.54446, 3.68479 3.26272, 3.3722 3.12366, 2.99349 3.12767, 2.58872 3.12807, 2.21802 3.20421, 1.88139 3.3557, 1.54475 3.50759, 1.31872 3.6711, 1.20411 3.84583, 1.17365 3.85064, 1.18888 3.85264, 1.25059 3.85224, 1.40929 3.85264, 1.55878 3.89953, 1.69944 3.9933, 1.91104 4.11754, 2.01644 4.32714, 2.01644 4.62169, 2.01644 4.87016, 1.93629 5.05731, 1.77559 5.18315, 1.61488 5.30939, 1.43534 5.37231, 1.23737 5.37191, 1.0438 5.37231, 0.862261 5.31059, 0.692741 5.18636, 0.523221 5.06252, 0.43826 4.87417, 0.43826 4.62169, 0.43826 4.3099, 0.513202 4.03458, 0.662684 3.79493, 0.812567 3.55568, 1.00493 3.35049, 1.24058 3.17937, 1.47622 3.00865, 1.74793 2.878, 2.05612 2.78823, 2.3643 2.69846, 2.67689 2.65357, 2.99349 2.65317, 3.33253 2.65357, 3.66075 2.69846, 3.97774 2.78823, 4.29474 2.878, 4.59411 3.01706, 4.87544 3.20461, 5.10467 3.36732, 5.29704 3.5673, 5.45333 3.80455, 5.60963 4.0418, 5.68777 4.3099, 5.68777 4.60887, 5.68777 4.90863, 5.63407 5.19077, 5.52627 5.45567, 5.41847 5.72097, 5.27539 5.96022, 5.09706 6.17382, 4.91872 6.38783, 4.70632 6.57578, 4.45986 6.73809, 4.21339 6.9008, 4.02824 7.00299, 3.90481 7.04547, 4.01061 7.05869, 4.19135 7.12201, 4.44663 7.23503, 4.70191 7.34844, 4.94597 7.49913, 5.17921 7.68668, 5.45253 7.92232, 5.67054 8.20325, 5.83325 8.53027, 5.99596 8.85729, 6.07731 9.20034, 6.07731 9.55902 Z" stroke="none" fill="#000000" />
			<rect />
		</svg>
	</g>
</svg>
