<?xml version="1.0"?>
<svg xmlns="http://www.w3.org/2000/svg" xmlns:xlink="http://www.w3.org/1999/xlink" width="287.5" height="296.666656">
	<defs>
		<marker id="CustomMarker-01" markerUnits="strokeWidth" markerWidth="15.000001" markerHeight="6" viewBox="-15 -3 15 6" orient="auto-start-reverse">
			<path d="M 0 -0 L -10 -2, -10 -0.5, -10 0.5, -10 2 Z" fill="#000000" stroke="#000000" stroke-linejoin="round" />
		</marker>
		<marker id="CustomMarker-02" markerUnits="strokeWidth" markerWidth="15.000001" markerHeight="6" viewBox="-15 -3 15 6" orient="auto-start-reverse">
			<path d="M 0 -0 L -10 -2, -10 -0.5, -10 0.5, -10 2 Z" fill="#000000" stroke="#000000" stroke-linejoin="round" />
		</marker>
	</defs>
	<path d="M 81.6002 -0 C 81.6002 15.4088, 45.0666 27.9001, -0 27.9001, -45.0666 27.9001, -81.6002 15.4088, -81.6002 -0, -81.6002 -15.4088, -45.0666 -27.9001, -0 -27.9001, 45.0666 -27.9001, 81.6002 -15.4088, 81.6002 -0 Z" stroke="none" fill="#934F90" fill-opacity="0.392156839" transform="matrix(0.833333 0 0 0.833333 137.75 61.9315)" />
	<path d="M 81.6002 -0 C 81.6002 15.4088, 45.0666 27.9001, -0 27.9001, -45.0666 27.9001, -81.6002 15.4088, -81.6002 -0, -81.6002 -15.4088, -45.0666 -27.9001, -0 -27.9001, 45.0666 -27.9001, 81.6002 -15.4088, 81.6002 -0 Z" fill="none" stroke="#000000" stroke-width="1.20000005" stroke-linecap="round" stroke-linejoin="round" transform="matrix(0.833333 0 0 0.833333 137.75 61.9315)" />
	<path d="M -2.13749e-006 -48.9001 C 61.138 -48.9001, 110.7 -27.0068, 110.7 -4.83885e-006, 110.7 27.0068, 61.138 48.9001, 2.13749e-006 48.9001, -61.138 48.9001, -110.7 27.0068, -110.7 4.83885e-006, -110.7 -27.0068, -61.138 -48.9001, -2.13749e-006 -48.9001 Z" stroke="none" fill="#934F90" fill-opacity="0.392156839" transform="matrix(0.833333 0 0 0.833333 139.5 61.9315)" />
	<path d="M -2.13749e-006 -48.9001 C 61.138 -48.9001, 110.7 -27.0068, 110.7 -4.83885e-006, 110.7 27.0068, 61.138 48.9001, 2.13749e-006 48.9001, -61.138 48.9001, -110.7 27.0068, -110.7 4.83885e-006, -110.7 -27.0068, -61.138 -48.9001, -2.13749e-006 -48.9001 Z" fill="none" stroke="#000000" stroke-width="1.20000005" stroke-linecap="round" stroke-linejoin="round" transform="matrix(0.833333 0 0 0.833333 139.5 61.9315)" />
	<path d="M 157.5 -0 C 157.5 35.9538, 86.9848 65.1001, -0 65.1001, -86.9848 65.1001, -157.5 35.9538, -157.5 -0, -157.5 -35.9538, -86.9848 -65.1001, -0 -65.1001, 86.9848 -65.1001, 157.5 -35.9538, 157.5 -0 Z" stroke="none" fill="#934F90" fill-opacity="0.392156839" transform="matrix(0.833333 0 0 0.833333 139.5 61.9315)" />
	<path d="M 157.5 -0 C 157.5 35.9538, 86.9848 65.1001, -0 65.1001, -86.9848 65.1001, -157.5 35.9538, -157.5 -0, -157.5 -35.9538, -86.9848 -65.1001, -0 -65.1001, 86.9848 -65.1001, 157.5 -35.9538, 157.5 -0 Z" fill="none" stroke="#000000" stroke-width="1.20000005" stroke-linecap="round" stroke-linejoin="round" transform="matrix(0.833333 0 0 0.833333 139.5 61.9315)" />
	<path d="M 0 -32.5499 L 0 32.5501" fill="none" stroke="#000000" stroke-width="0.600000024" stroke-linecap="round" stroke-linejoin="round" stroke-dasharray="2.103, 1.497" transform="matrix(0.833333 0 0 0.833333 137.75 89.0565)" />
	<path d="M 0 -101.4 L 0 101.4" fill="none" stroke="#000000" stroke-width="1.20000005" stroke-linecap="round" stroke-linejoin="round" transform="matrix(0.833333 0 0 0.833333 137.75 200.682)" />
	<path d="M -79.8001 130.5 L 79.8001 -130.5" fill="none" stroke="#000000" stroke-width="1.20000005" stroke-linecap="round" stroke-linejoin="round" transform="matrix(0.833333 0 0 0.833333 204.25 176.431)" />
	<path d="M -7.79618e-005 -68.5644 L 7.16728 -68.1523 C 14.7711 -67.2752, 22.1703 -65.0089, 29.027 -61.4568 L 35.275 -57.7605" fill="none" stroke="#000000" stroke-width="0.900000036" stroke-linecap="round" stroke-linejoin="round" marker-start="url(#CustomMarker-01)" marker-end="url(#CustomMarker-02)" transform="matrix(0.833333 0 -0 0.833333 137.75 285.181)" />
	<path d="M 0 0 L 3.66211e-005 -180.65" fill="none" stroke="#000000" stroke-width="0.600000024" stroke-linecap="round" stroke-linejoin="round" stroke-dasharray="3.303, 1.497, 0.006, 1.794" transform="matrix(0.833333 0 -0 0.833333 137.75 285.181)" />
	<path d="M 0 0 L 130.937 -214.4" fill="none" stroke="#000000" stroke-width="0.600000024" stroke-linecap="round" stroke-linejoin="round" stroke-dasharray="3.303, 1.497, 0.006, 1.794" transform="matrix(0.833333 0 -0 0.833333 137.75 285.181)" />
	<g transform="matrix(1 0 -0 1 154.655 195.612)">
		<svg width="45.0279007" height="59.909832">
			<defs />
			<path d="M 4.22911 5.50277 C 4.22911 5.98122, 4.05245 6.39159, 3.69852 6.73509, 3.34458 7.0786, 2.92134 7.25035, 2.42939 7.24974, 1.9313 7.25035, 1.50806 7.0786, 1.16087 6.73509, 0.813683 6.39159, 0.64009 5.98122, 0.64009 5.50277, 0.64009 5.0194, 0.817363 4.6121, 1.1713 4.28148, 1.52523 3.95147, 1.9448 3.78585, 2.42939 3.78524, 2.92134 3.78585, 3.34458 3.95269, 3.69852 4.28639, 4.05245 4.62008, 4.22911 5.02554, 4.22911 5.50277 Z M 5.31054 18.134 C 4.37388 18.0886, 3.51143 18.0653, 2.72259 18.0653, 1.8669 18.0653, 0.957219 18.0886, -0.00705081 18.134 L -0.00705081 16.8286, 1.42893 16.8286, 1.42893 10.567 C 1.42893 10.502, 1.41727 10.44, 1.39335 10.3812, 1.37004 10.3223, 1.34121 10.2861, 1.30747 10.2726, 1.22037 10.2407, 1.06886 10.2211, 0.852941 10.2143, 0.637023 10.2082, 0.370806 10.2045, 0.0536761 10.2039 L 0.0536761 8.89857, 4.02669 8.71209, 4.02669 16.8286, 5.31054 16.8286, 5.31054 18.134 Z" stroke="none" fill="#000000" />
			<path d="M 3.35402 0.880805 C 3.35402 1.2329, 3.29837 1.57847, 3.18707 1.91716, 3.07578 2.2562, 2.89097 2.55471, 2.63231 2.81303, 2.374 3.07134, 2.07583 3.25821, 1.73782 3.37363, 1.40016 3.48904, 1.0539 3.54641, 0.699061 3.54641, 0.397463 3.54641, 0.124719 3.48973, -0.118827 3.37637, -0.362029 3.26302, -0.553705 3.13283, -0.693512 2.98581 L -1.21976 3.48046, -1.90471 3.48046, -1.90471 -3.49409 C -1.90471 -3.54149, -1.91021 -3.57962, -1.92155 -3.60916, -1.93288 -3.63836, -1.948 -3.65485, -1.96723 -3.65897, -2.02357 -3.68439, -2.11528 -3.69985, -2.24169 -3.70534, -2.3681 -3.71084, -2.52165 -3.71359, -2.70302 -3.71393 L -2.70302 -4.43392, -0.438631 -4.53285, -0.438631 -1.42755 C -0.355502 -1.49316, -0.190619 -1.56908, 0.056705 -1.6553, 0.304029 -1.74118, 0.565094 -1.78446, 0.840585 -1.7848, 1.17653 -1.78446, 1.50802 -1.72297, 1.83435 -1.60034, 2.16068 -1.47736, 2.44098 -1.29153, 2.67491 -1.04283, 2.92429 -0.774894, 3.09982 -0.474326, 3.2015 -0.141125, 3.30318 0.192419, 3.35402 0.533177, 3.35402 0.880805 Z M 1.6784 0.880805 C 1.6784 0.577146, 1.66912 0.283105, 1.65023 -0.000974894, 1.63168 -0.284711, 1.57878 -0.516577, 1.49187 -0.696574, 1.41252 -0.846343, 1.30775 -0.964509, 1.17756 -1.05073, 1.04738 -1.13661, 0.904821 -1.17989, 0.750243 -1.18023, 0.520094 -1.17989, 0.304716 -1.12286, 0.104796 -1.00951, -0.0951247 -0.895808, -0.255542 -0.756688, -0.376456 -0.592148 L -0.376456 2.33177 C -0.263099 2.51177, -0.121231 2.65742, 0.0484607 2.76906, 0.218153 2.88104, 0.408798 2.93669, 0.620054 2.93634, 0.793869 2.93669, 0.954973 2.89375, 1.10405 2.80753, 1.25314 2.72165, 1.3713 2.59971, 1.45786 2.4417, 1.55989 2.26239, 1.62206 2.03361, 1.64473 1.75503, 1.6674 1.47679, 1.6784 1.18515, 1.6784 0.880805 Z" stroke="none" fill="#000000" transform="matrix(1.12 0 0 1 10.068 17.4711)" />
			<rect />
		</svg>
	</g>
</svg>
