<?xml version="1.0"?>
<svg xmlns="http://www.w3.org/2000/svg" xmlns:xlink="http://www.w3.org/1999/xlink" width="222.812256" height="238.348053">
	<defs>
		<marker id="CustomMarker-01" markerUnits="strokeWidth" markerWidth="15.000001" markerHeight="9" viewBox="-15 -4.5 15 9" orient="auto-start-reverse">
			<path d="M 0 -0 L -10 -3, -8 -0.5, -8 0.5, -10 3 Z" fill="#000000" stroke="#000000" stroke-linejoin="round" />
		</marker>
		<marker id="CustomMarker-02" markerUnits="strokeWidth" markerWidth="15.000001" markerHeight="9" viewBox="-15 -4.5 15 9" orient="auto-start-reverse">
			<path d="M 0 -0 L -10 -3, -8 -0.5, -8 0.5, -10 3 Z" fill="#000000" stroke="#000000" stroke-linejoin="round" />
		</marker>
		<marker id="CustomMarker-03" markerUnits="strokeWidth" markerWidth="15.000001" markerHeight="6" viewBox="-15 -3 15 6" orient="auto-start-reverse">
			<path d="M 0 -0 L -10 -2, -10 -0.5, -10 0.5, -10 2 Z" fill="#000000" stroke="#000000" stroke-linejoin="round" />
		</marker>
		<marker id="CustomMarker-04" markerUnits="strokeWidth" markerWidth="15.000001" markerHeight="6" viewBox="-15 -3 15 6" orient="auto-start-reverse">
			<path d="M 0 -0 L -10 -2, -10 -0.5, -10 0.5, -10 2 Z" fill="#000000" stroke="#000000" stroke-linejoin="round" />
		</marker>
		<marker id="CustomMarker-05" markerUnits="strokeWidth" markerWidth="15.000001" markerHeight="6" viewBox="-15 -3 15 6" orient="auto-start-reverse">
			<path d="M 0 -0 L -10 -2, -10 -0.5, -10 0.5, -10 2 Z" fill="#000000" stroke="#000000" stroke-linejoin="round" />
		</marker>
		<marker id="CustomMarker-06" markerUnits="strokeWidth" markerWidth="15.000001" markerHeight="6" viewBox="-15 -3 15 6" orient="auto-start-reverse">
			<path d="M 0 -0 L -10 -2, -10 -0.5, -10 0.5, -10 2 Z" fill="#000000" stroke="#000000" stroke-linejoin="round" />
		</marker>
		<marker id="CustomMarker-07" markerUnits="strokeWidth" markerWidth="15.000001" markerHeight="9" viewBox="-15 -4.5 15 9" orient="auto-start-reverse">
			<path d="M 0 -0 L -10 -3, -8 -0.5, -8 0.5, -10 3 Z" fill="#000000" stroke="#000000" stroke-linejoin="round" />
		</marker>
		<marker id="CustomMarker-08" markerUnits="strokeWidth" markerWidth="15.000001" markerHeight="9" viewBox="-15 -4.5 15 9" orient="auto-start-reverse">
			<path d="M 0 -0 L -10 -3, -8 -0.5, -8 0.5, -10 3 Z" fill="#000000" stroke="#000000" stroke-linejoin="round" />
		</marker>
		<marker id="CustomMarker-09" markerUnits="strokeWidth" markerWidth="15.000001" markerHeight="9" viewBox="-15 -4.5 15 9" orient="auto-start-reverse">
			<path d="M 0 -0 L -10 -3, -8 -0.5, -8 0.5, -10 3 Z" fill="#000000" stroke="#000000" stroke-linejoin="round" />
		</marker>
		<marker id="CustomMarker-10" markerUnits="strokeWidth" markerWidth="21" markerHeight="9" viewBox="-21 -4.5 21 9" orient="auto-start-reverse">
			<path d="M 0 -0 L -14 -3, -14 -0.5, -14 0.5, -14 3 Z" fill="#000000" stroke="#000000" stroke-linejoin="round" />
		</marker>
		<marker id="CustomMarker-11" markerUnits="strokeWidth" markerWidth="21" markerHeight="9" viewBox="-21 -4.5 21 9" orient="auto-start-reverse">
			<path d="M 0 -0 L -14 -3, -14 -0.5, -14 0.5, -14 3 Z" fill="#000000" stroke="#000000" stroke-linejoin="round" />
		</marker>
	</defs>
	<rect x="-79.708252" y="-166.774643" width="159.416504" height="333.549286" stroke="none" fill="#60D55B" fill-opacity="0.392156839" transform="matrix(0.5 0 0 0.5 128.118 108.727)" />
	<path d="M -79.7083 -166.775 L 79.7083 -166.775, 79.7083 166.775, -79.7083 166.775 Z" fill="none" stroke="#000000" stroke-width="2" stroke-linecap="round" stroke-linejoin="round" transform="matrix(0.5 0 0 0.5 128.118 108.727)" />
	<path d="M -79.7635 3.05176e-005 L 79.7635 -3.05176e-005" fill="none" stroke="#000000" stroke-width="2" stroke-linecap="round" stroke-linejoin="round" marker-end="url(#CustomMarker-01)" transform="matrix(0.5 0 0 0.5 48.3817 108.971)" />
	<path d="M -79.7084 -23.1955 L 79.7083 23.1955" fill="none" stroke="#000000" stroke-width="2" stroke-linecap="round" stroke-linejoin="round" marker-end="url(#CustomMarker-02)" transform="matrix(0.5 0 0 0.5 128.118 120.569)" />
	<g transform="matrix(1 0 -0 1 146.963 8)">
		<svg width="21.0837173" height="27.0062141">
			<defs />
			<path d="M 5.12887 12.0828 L 0.371724 12.0828 C 0.268673 12.0828, 0.18116 12.0501, 0.109188 11.9846, 0.0372152 11.9196, 0.00122884 11.8325, 0.00122884 11.7229 L 0.00122884 11.6051 C 0.00122884 11.5577, 0.0147237 11.4943, 0.0417135 11.4154 L 3.21546 6.61285, 2.74355 6.61285 C 2.51005 6.61326, 2.28104 6.63084, 2.05654 6.6656, 1.83203 6.70077, 1.64106 6.79441, 1.48362 6.94654, 1.31759 7.09948, 1.21413 7.30926, 1.17365 7.57507, 1.13357 7.84129, 1.10208 8.14227, 1.07918 8.47759 L 0.176662 8.47759, 0.371724 5.89966, 4.98043 5.89966 C 5.08389 5.90007, 5.1714 5.93279, 5.24337 5.99822, 5.31535 6.06365, 5.35133 6.15075, 5.35133 6.25953 L 5.35133 6.33804 C 5.35133 6.40838, 5.33129 6.46931, 5.2904 6.52125 L 2.15755 11.3107, 2.67608 11.3107 C 2.93248 11.3111, 3.17948 11.2841, 3.41748 11.2293, 3.65548 11.1749, 3.8579 11.0645, 4.02393 10.8985, 4.1049 10.8204, 4.17564 10.7202, 4.23616 10.5979, 4.29669 10.4761, 4.3429 10.3395, 4.37438 10.189, 4.40587 10.0385, 4.43041 9.88147, 4.4484 9.71789, 4.4664 9.55432, 4.48889 9.3613, 4.51588 9.13843 L 5.4049 9.13843 Z" stroke="none" fill="#000000" />
			<rect />
		</svg>
	</g>
	<path d="M 60.7302 -2.39455e-006 L 59.5513 11.9079, 58.1151 17.6291" fill="none" stroke="#000000" stroke-width="1.5" stroke-linecap="round" stroke-linejoin="round" marker-start="url(#CustomMarker-03)" marker-end="url(#CustomMarker-04)" transform="matrix(0.5 0 -0 0.5 88.2636 108.727)" />
	<path d="M 0 0 L 50.1519 0" fill="none" stroke="#000000" stroke-width="1" stroke-linecap="round" stroke-linejoin="round" stroke-dasharray="5.505, 2.495, 0.01, 2.99" transform="matrix(0.5 0 -0 0.5 88.2636 108.727)" />
	<path d="M 0 0 L 62.0729 18.8297" fill="none" stroke="#000000" stroke-width="1" stroke-linecap="round" stroke-linejoin="round" stroke-dasharray="5.505, 2.495, 0.01, 2.99" transform="matrix(0.5 0 -0 0.5 88.2636 108.727)" />
	<path d="M 47.7205 -70.189 L 57.5734 -62.8796 C 72.9132 -49.7111, 82.9528 -31.6823, 85.8871 -12.0366 L 86.7807 -3.2242e-005" fill="none" stroke="#000000" stroke-width="1.5" stroke-linecap="round" stroke-linejoin="round" marker-start="url(#CustomMarker-05)" marker-end="url(#CustomMarker-06)" transform="matrix(0.5 0 -0 0.5 88.2137 108.922)" />
	<path d="M 0 0 L 79.808 -117.384" fill="none" stroke="#000000" stroke-width="1" stroke-linecap="round" stroke-linejoin="round" stroke-dasharray="5.505, 2.495, 0.01, 2.99" transform="matrix(0.5 0 -0 0.5 88.2137 108.922)" />
	<path d="M 0 0 L 182.239 0" fill="none" stroke="#000000" stroke-width="1" stroke-linecap="round" stroke-linejoin="round" stroke-dasharray="5.505, 2.495, 0.01, 2.99" transform="matrix(0.5 0 -0 0.5 88.2137 108.922)" />
	<g transform="matrix(1 0 -0 1 204.756 96.7425)">
		<svg width="35.9860382" height="33.049736">
			<defs />
			<path d="M 5.53372 7.0316 C 5.53372 7.34157, 5.43271 7.57507, 5.2307 7.7321, 5.02868 7.88913, 4.80827 7.96765, 4.56986 7.96724, 4.33186 7.96765, 4.11185 7.88913, 3.90983 7.7321, 3.70782 7.57507, 3.6064 7.34157, 3.6064 7.0316, 3.6064 6.87947, 3.63585 6.74657, 3.69433 6.63288, 3.7528 6.51961, 3.7573 6.48689, 3.70741 6.53433, 3.65834 6.53474, 3.55161 6.5969, 3.38762 6.72121, 3.22364 6.84553, 3.08869 7.01892, 2.98319 7.24138, 2.87768 7.46384, 2.80039 7.72801, 2.75091 8.03308, 2.70143 8.33855, 2.67649 8.65671, 2.67649 8.98794 L 2.67649 11.2191, 3.87589 11.2191, 3.87589 12.0893 C 3.1439 12.059, 2.45689 12.0435, 1.81404 12.0435, 1.24398 12.0435, 0.637533 12.059, -0.00490495 12.0893 L -0.00490495 11.2191, 0.945052 11.2191, 0.945052 7.04468 C 0.945052 6.99725, 0.938509 6.95472, 0.925014 6.9175, 0.911519 6.8807, 0.893526 6.85739, 0.871035 6.84839, 0.808059 6.82713, 0.698055 6.81404, 0.541024 6.80955, 0.383993 6.80546, 0.202016 6.803, -0.00490495 6.80259 L -0.00490495 5.93238, 2.52845 5.80806, 2.52845 6.4689 C 2.50146 6.53474, 2.61514 6.44232, 2.86868 6.19123, 3.12263 5.94056, 3.46982 5.81501, 3.90983 5.8146, 4.09386 5.81501, 4.28278 5.83914, 4.4758 5.88699, 4.66882 5.93524, 4.8418 6.01048, 4.99474 6.11272, 5.14768 6.21536, 5.27568 6.34172, 5.37873 6.49221, 5.48219 6.6427, 5.53372 6.82263, 5.53372 7.0316 Z" stroke="none" fill="#000000" />
			<path d="M 2.06154 0.62018 C 2.06154 0.85239, 2.02398 1.08025, 1.94841 1.30376, 1.87307 1.52726, 1.74918 1.72283, 1.57674 1.89001, 1.40453 2.05741, 1.20575 2.17832, 0.98041 2.25275, 0.755299 2.32717, 0.523089 2.36427, 0.284009 2.36427, 0.0451583 2.36427, -0.186823 2.32717, -0.412163 2.25275, -0.637273 2.17832, -0.836049 2.05741, -1.00849 1.89001, -1.1807 1.72283, -1.30459 1.52726, -1.38016 1.30376, -1.45573 1.08025, -1.49352 0.85239, -1.49352 0.62018, -1.49352 0.373772, -1.45573 0.136294, -1.38016 -0.0922515, -1.30459 -0.320568, -1.18139 -0.526443, -1.01032 -0.709875, -0.844293 -0.883002, -0.646892 -1.0101, -0.417888 -1.09071, -0.188884 -1.17132, 0.0451583 -1.21162, 0.284009 -1.21185, 0.523089 -1.21162, 0.756673 -1.17063, 0.984303 -1.08888, 1.21193 -1.00689, 1.41002 -0.880712, 1.57857 -0.709875, 1.75215 -0.526443, 1.87604 -0.321255, 1.95024 -0.0940835, 2.02444 0.133088, 2.06154 0.371253, 2.06154 0.62018 Z M 0.940792 0.242781 C 0.940792 0.145226, 0.937128 0.0495019, 0.929571 -0.0446186, 0.922014 -0.13851, 0.911251 -0.223471, 0.897511 -0.299271, 0.88377 -0.374842, 0.86545 -0.43736, 0.84255 -0.486367, 0.789879 -0.588732, 0.712476 -0.667967, 0.610569 -0.724302, 0.508662 -0.780408, 0.399885 -0.808576, 0.284009 -0.808805, 0.168362 -0.808576, 0.0595855 -0.780408, -0.0423213 -0.724302, -0.144228 -0.667967, -0.221631 -0.588732, -0.274531 -0.486367, -0.296974 -0.43736, -0.315294 -0.374842, -0.329034 -0.299271, -0.342774 -0.223471, -0.354225 -0.13851, -0.363156 -0.0446186, -0.371858 0.0495019, -0.376438 0.145226, -0.376438 0.242781 L -0.376438 0.821703 C -0.376438 0.924526, -0.371858 1.02666, -0.363156 1.12788, -0.354225 1.22933, -0.342774 1.32024, -0.329034 1.40085, -0.315294 1.48146, -0.296974 1.54627, -0.274531 1.59482, -0.221631 1.69764, -0.145602 1.77825, -0.0462143 1.83688, 0.0531733 1.8955, 0.163324 1.92481, 0.284009 1.92459, 0.404923 1.92481, 0.514845 1.8955, 0.614233 1.83688, 0.71362 1.77825, 0.789879 1.69764, 0.84255 1.59482, 0.86545 1.54627, 0.88377 1.48146, 0.897511 1.40085, 0.911251 1.32024, 0.922014 1.22933, 0.929571 1.12788, 0.937128 1.02666, 0.940792 0.924526, 0.940792 0.821703 Z" stroke="none" fill="#000000" transform="matrix(1.12 0 0 1 7.8612 11.6474)" />
			<rect />
		</svg>
	</g>
	<g transform="matrix(1 0 -0 1 204.9 118.869)">
		<svg width="32.9720879" height="33.049736">
			<defs />
			<path d="M 5.53372 7.0316 C 5.53372 7.34157, 5.43271 7.57507, 5.2307 7.7321, 5.02868 7.88913, 4.80827 7.96765, 4.56986 7.96724, 4.33186 7.96765, 4.11185 7.88913, 3.90983 7.7321, 3.70782 7.57507, 3.6064 7.34157, 3.6064 7.0316, 3.6064 6.87947, 3.63585 6.74657, 3.69433 6.63288, 3.7528 6.51961, 3.7573 6.48689, 3.70741 6.53433, 3.65834 6.53474, 3.55161 6.5969, 3.38762 6.72121, 3.22364 6.84553, 3.08869 7.01892, 2.98319 7.24138, 2.87768 7.46384, 2.80039 7.72801, 2.75091 8.03308, 2.70143 8.33855, 2.67649 8.65671, 2.67649 8.98794 L 2.67649 11.2191, 3.87589 11.2191, 3.87589 12.0893 C 3.1439 12.059, 2.45689 12.0435, 1.81404 12.0435, 1.24398 12.0435, 0.637533 12.059, -0.00490495 12.0893 L -0.00490495 11.2191, 0.945052 11.2191, 0.945052 7.04468 C 0.945052 6.99725, 0.938509 6.95472, 0.925014 6.9175, 0.911519 6.8807, 0.893526 6.85739, 0.871035 6.84839, 0.808059 6.82713, 0.698055 6.81404, 0.541024 6.80955, 0.383993 6.80546, 0.202016 6.803, -0.00490495 6.80259 L -0.00490495 5.93238, 2.52845 5.80806, 2.52845 6.4689 C 2.50146 6.53474, 2.61514 6.44232, 2.86868 6.19123, 3.12263 5.94056, 3.46982 5.81501, 3.90983 5.8146, 4.09386 5.81501, 4.28278 5.83914, 4.4758 5.88699, 4.66882 5.93524, 4.8418 6.01048, 4.99474 6.11272, 5.14768 6.21536, 5.27568 6.34172, 5.37873 6.49221, 5.48219 6.6427, 5.53372 6.82263, 5.53372 7.0316 Z" stroke="none" fill="#000000" />
			<path d="M 1.92794 1.43727 C 1.87755 1.5939, 1.80473 1.72879, 1.70901 1.84237, 1.61351 1.95596, 1.50222 2.0526, 1.37512 2.13183, 1.24802 2.2113, 1.10902 2.26969, 0.958104 2.30748, 0.80719 2.34549, 0.653758 2.36427, 0.497577 2.36427, 0.253459 2.36427, 0.0139209 2.32603, -0.221266 2.24908, -0.456453 2.17214, -0.668511 2.04458, -0.85721 1.86596, -1.03583 1.69283, -1.16476 1.492, -1.244 1.26345, -1.32323 1.03513, -1.36308 0.802467, -1.36308 0.565219, -1.36308 0.333467, -1.32644 0.106295, -1.25362 -0.116068, -1.18056 -0.338202, -1.0585 -0.53858, -0.887438 -0.717203, -0.713853 -0.892849, -0.515536 -1.01926, -0.292944 -1.0962, -0.0703526 -1.17315, 0.157964 -1.21162, 0.392006 -1.21185, 0.600858 -1.21162, 0.808335 -1.1791, 1.01467 -1.11452, 1.221 -1.04972, 1.39962 -0.934299, 1.55054 -0.7685, 1.71176 -0.582549, 1.81618 -0.381025, 1.86381 -0.163701, 1.91168 0.053853, 1.93549 0.269804, 1.93549 0.484609, 1.93549 0.540944, 1.91534 0.588806, 1.87504 0.627737, 1.83473 0.666897, 1.78572 0.686362, 1.72779 0.686133 L -0.245999 0.686133 C -0.24096 0.835443, -0.230197 0.994143, -0.213709 1.16269, -0.197221 1.33124, -0.148901 1.47528, -0.0685205 1.59482, -0.000506401 1.70016, 0.0881181 1.78146, 0.197582 1.83871, 0.307046 1.89619, 0.42338 1.92481, 0.546584 1.92459, 0.755435 1.92481, 0.943677 1.87054, 1.11085 1.76176, 1.27825 1.65322, 1.39092 1.50826, 1.44863 1.32734, 1.4713 1.2275, 1.5368 1.17987, 1.64489 1.18445 L 1.77702 1.18445 C 1.88282 1.22132, 1.93549 1.28979, 1.93549 1.38963 Z M 1.06367 0.30507 C 1.06367 0.175912, 1.05177 0.0355327, 1.02795 -0.116068, 1.00413 -0.267439, 0.953066 -0.406674, 0.874976 -0.534, 0.822305 -0.61919, 0.753603 -0.686288, 0.66933 -0.735294, 0.585056 -0.784072, 0.492768 -0.808576, 0.392006 -0.808805, 0.293993 -0.808576, 0.200788 -0.779721, 0.112622 -0.72247, 0.0246841 -0.66499, -0.0458492 -0.586213, -0.098749 -0.486367, -0.156458 -0.378735, -0.194244 -0.250951, -0.211877 -0.103244, -0.22951 0.044693, -0.238441 0.180721, -0.238441 0.30507 L 1.06367 0.30507 Z" stroke="none" fill="#000000" transform="matrix(1.12 0 0 1 7.73222 11.6474)" />
			<rect />
		</svg>
	</g>
	<ellipse cx="702.52105712890625" cy="368.1060791015625" rx="5.25" ry="5.25" stroke="none" fill="#000000" transform="matrix(0.5 0 0 0.5 -305.094 -75.326)" />
	<path d="M 0 17.5 L 0 -17.5" fill="none" stroke="#000000" stroke-width="2" stroke-linecap="round" stroke-linejoin="round" transform="matrix(0.5 0 0 0.5 46.1667 109.833)" />
	<path d="M 0 17.5 L 0 -17.4999" fill="none" stroke="#000000" stroke-width="2" stroke-linecap="round" stroke-linejoin="round" transform="matrix(0.5 0 0 0.5 32 110.75)" />
	<ellipse cx="674.187744140625" cy="368.1060791015625" rx="5.25" ry="5.25" stroke="none" fill="#000000" transform="matrix(0.5 0 0 0.5 -305.094 -75.326)" />
	<path d="M -56.9482 83.6314 L 56.9482 -83.6314" fill="none" stroke="#000000" stroke-width="2" stroke-linecap="round" stroke-linejoin="round" stroke-dasharray="7.01, 4.99" transform="matrix(0.5 0 0 0.5 116.738 67.1554)" />
	<path d="M -79.7083 0 L 79.7083 0" fill="none" stroke="#000000" stroke-width="2" stroke-linecap="round" stroke-linejoin="round" marker-end="url(#CustomMarker-07)" transform="matrix(0.5 0 0 0.5 128.118 108.971)" />
	<ellipse cx="901.372802734375" cy="368.59420776367187" rx="5.25" ry="5.25" stroke="none" fill="#000000" transform="matrix(0.5 0 0 0.5 -305.094 -75.326)" />
	<path d="M -4.43158 15.2288 L 4.43158 -15.2287" fill="none" stroke="#000000" stroke-width="2" stroke-linecap="round" stroke-linejoin="round" transform="matrix(0.5 0 0 0.5 144.257 125.756)" />
	<path d="M -34.3314 0 L 34.3311 0" fill="none" stroke="#000000" stroke-width="2" stroke-linecap="round" stroke-linejoin="round" marker-end="url(#CustomMarker-08)" transform="matrix(0.5 0 0 0.5 185.138 108.971)" />
	<ellipse cx="981.89923095703125" cy="368.49533081054687" rx="5.25" ry="5.25" stroke="none" fill="#000000" transform="matrix(0.5 0 0 0.5 -305.094 -75.326)" />
	<path d="M -34.3314 0 L 34.3314 0" fill="none" stroke="#000000" stroke-width="2" stroke-linecap="round" stroke-linejoin="round" marker-end="url(#CustomMarker-09)" transform="matrix(0.5 0 0 0.5 185.856 132.167)" />
	<path d="M 0 11.6146 L 0 -11.6146" fill="none" stroke="#000000" stroke-width="2" stroke-linecap="round" stroke-linejoin="round" transform="matrix(0.5 0 0 0.5 185.856 131.564)" />
	<g transform="matrix(1 0 -0 1 171.039 87.4953)">
		<svg width="35.9860382" height="35.9036179">
			<defs />
			<path d="M 9.48853 3.51802 C 9.336 3.51843, 9.18102 3.53152, 9.02357 3.55728, 8.95651 3.56628, 8.90376 3.5765, 8.86532 3.58713, 8.82729 3.59817, 8.80807 3.5949, 8.80807 3.57691 L 8.80807 11.7229 C 8.80807 11.8235, 8.77453 11.9086, 8.70706 11.9781, 8.63999 12.048, 8.55207 12.0828, 8.44411 12.0828 L 8.20816 12.0828 C 8.08711 12.0828, 7.9906 12.037, 7.91863 11.9454 L 2.27082 4.42095, 2.27082 11.1602 C 2.27082 11.143, 2.29127 11.1377, 2.33175 11.1443, 2.37224 11.1508, 2.42826 11.1627, 2.50024 11.1798, 2.64868 11.1978, 2.80367 11.2089, 2.9652 11.213, 3.12713 11.2175, 3.3271 11.2195, 3.5651 11.2191 L 3.5651 12.0893 C 2.93166 12.059, 2.33871 12.0435, 1.78583 12.0435, 1.22436 12.0435, 0.628948 12.059, 4.88758e-006 12.0893 L 4.88758e-006 11.2191 C 0.247002 11.2195, 0.45147 11.2175, 0.613408 11.213, 0.775347 11.2089, 0.929924 11.1978, 1.07796 11.1798, 1.14584 11.1627, 1.19859 11.1508, 1.23663 11.1443, 1.27507 11.1377, 1.29388 11.143, 1.29388 11.1602 L 1.29388 3.51802, 4.88758e-006 3.51802, 4.88758e-006 2.65435, 3.1942 2.65435 C 3.32915 2.65476, 3.42811 2.70261, 3.49068 2.7983 L 7.83766 8.60191, 7.83766 3.57691 C 7.83766 3.5949, 7.81885 3.5994, 7.78041 3.5904, 7.74238 3.58182, 7.68963 3.57078, 7.62174 3.55728, 7.46471 3.53152, 7.30523 3.51843, 7.14329 3.51802 L 6.53684 3.51802, 6.53684 2.64781 C 7.17069 2.67889, 7.76364 2.69402, 8.31612 2.69361, 8.87799 2.69402, 9.47545 2.67889, 10.1089 2.64781 L 10.1089 3.51802 Z" stroke="none" fill="#000000" />
			<rect />
		</svg>
	</g>
	<g transform="matrix(1 0 -0 1 171.872 133.022)">
		<svg width="29.9581337" height="35.9036179">
			<defs />
			<path d="M 7.76794 12.0828 L -0.00224546 12.0828, -0.00224546 11.2191, 1.29163 11.2191, 1.29163 3.60308, -0.00224546 3.60308, -0.00224546 2.71978, 7.60641 2.71978, 8.05092 6.20064, 7.15453 6.20064 C 7.11896 5.94383, 7.08747 5.71932, 7.06048 5.52712, 7.03349 5.33533, 6.99546 5.15008, 6.94598 4.97097, 6.8965 4.79227, 6.83352 4.62746, 6.75705 4.47698, 6.68099 4.32649, 6.58407 4.19686, 6.46711 4.08726, 6.23361 3.8738, 5.95635 3.74007, 5.63493 3.68528, 5.31392 3.63089, 4.98718 3.60349, 4.6543 3.60308 L 3.49538 3.60308, 3.49538 6.79605, 3.69085 6.79605 C 3.87487 6.79646, 4.05112 6.7801, 4.2196 6.74739, 4.38809 6.71467, 4.52753 6.64065, 4.63754 6.52493, 4.74795 6.40961, 4.8142 6.24153, 4.83669 6.02112, 4.85918 5.80111, 4.87022 5.54021, 4.87022 5.23882 L 5.75966 5.23882, 5.75966 9.23003, 4.87022 9.23003 C 4.87022 8.93396, 4.85918 8.67429, 4.83669 8.45183, 4.8142 8.22937, 4.74795 8.06048, 4.63754 7.94475, 4.52753 7.82943, 4.38809 7.75296, 4.2196 7.71575, 4.05112 7.67894, 3.87487 7.66013, 3.69085 7.65972 L 3.49538 7.65972, 3.49538 11.2191, 4.76881 11.2191 C 5.11967 11.2195, 5.46113 11.1794, 5.7936 11.0985, 6.12606 11.0179, 6.42009 10.8641, 6.67608 10.6368, 6.80203 10.5194, 6.90999 10.3714, 6.99996 10.1923, 7.08992 10.0136, 7.16967 9.81727, 7.23918 9.60339, 7.3087 9.38993, 7.36595 9.16828, 7.41094 8.93928, 7.45592 8.71028, 7.50295 8.45633, 7.55243 8.17662 L 8.44186 8.17662 Z" stroke="none" fill="#000000" />
			<rect />
		</svg>
	</g>
	<path d="M -79.8081 0 L 79.8081 0" fill="none" stroke="#000000" stroke-width="1.5" stroke-linecap="round" stroke-linejoin="round" marker-start="url(#CustomMarker-10)" marker-end="url(#CustomMarker-11)" transform="matrix(0.5 0 -0 0.5 128.118 210.562)" />
	<path d="M -79.8081 -37.9565 L -79.8081 37.9565" fill="none" stroke="#000000" stroke-width="1" stroke-linecap="round" stroke-linejoin="round" transform="matrix(0.5 0 -0 0.5 128.118 210.562)" />
	<path d="M 79.8081 -37.9565 L 79.8081 37.9565" fill="none" stroke="#000000" stroke-width="1" stroke-linecap="round" stroke-linejoin="round" transform="matrix(0.5 0 -0 0.5 128.118 210.562)" />
	<g transform="matrix(1 0 -0 1 124.506 214.337)">
		<svg width="26.9441814" height="35.9036179">
			<defs />
			<path d="M 4.43982 12.1678 L 4.43982 11.7425 C 4.34985 11.817, 4.16706 11.9053, 3.89062 12.0075, 3.61418 12.1102, 3.31892 12.1613, 3.00445 12.1613, 2.60451 12.1613, 2.2103 12.0897, 1.82181 11.9458, 1.43332 11.8018, 1.09718 11.5794, 0.814194 11.278, 0.517716 10.9512, 0.307523 10.5926, 0.184024 10.2021, 0.0605259 9.81195, -0.00122333 9.4071, -0.00122333 8.98794, -0.00122333 8.5741, 0.0650242 8.16517, 0.197519 7.76155, 0.330014 7.35834, 0.550431 7.00379, 0.85795 6.69831, 1.16588 6.39325, 1.51879 6.16956, 1.91628 6.02766, 2.31376 5.88617, 2.72597 5.81501, 3.15249 5.8146, 3.44937 5.81501, 3.72909 5.86204, 3.99162 5.95569, 4.25457 6.04974, 4.43082 6.13112, 4.52079 6.20064 L 4.52079 3.77974 C 4.52079 3.72331, 4.51424 3.67873, 4.50075 3.64602, 4.48725 3.6133, 4.46476 3.59245, 4.43286 3.58345, 4.3703 3.55319, 4.26357 3.53479, 4.11308 3.52825, 3.96259 3.5217, 3.78184 3.51843, 3.57042 3.51802 L 3.57042 2.66089, 6.25958 2.54312, 6.25958 10.9574 C 6.25958 11.0146, 6.26653 11.0604, 6.27962 11.0952, 6.29311 11.1304, 6.3156 11.152, 6.34709 11.1602, 6.40557 11.1913, 6.51107 11.2089, 6.66402 11.213, 6.81696 11.2175, 7.00302 11.2195, 7.22303 11.2191 L 7.22303 12.0762 Z M 4.43982 7.18209 C 4.30528 6.9907, 4.1368 6.8349, 3.93437 6.71467, 3.73236 6.59485, 3.50295 6.53474, 3.24695 6.53433, 3.04044 6.53474, 2.85069 6.58708, 2.67771 6.69177, 2.50473 6.79646, 2.36856 6.93836, 2.2696 7.11666, 2.14855 7.33094, 2.07453 7.60574, 2.04754 7.94148, 2.02055 8.27762, 2.00706 8.62644, 2.00706 8.98794, 2.00706 9.35476, 2.01606 9.70481, 2.03405 10.0385, 2.05204 10.3722, 2.11706 10.6482, 2.22911 10.8658, 2.32398 11.0363, 2.44626 11.1737, 2.59674 11.2784, 2.74723 11.3831, 2.91449 11.4354, 3.09851 11.435, 3.3909 11.4354, 3.65384 11.3626, 3.88734 11.2162, 4.12126 11.0702, 4.30528 10.8793, 4.43982 10.6433 Z" stroke="none" fill="#000000" />
			<rect />
		</svg>
	</g>
	<g transform="matrix(1 0 -0 1 127.024 105)">
		<svg width="26.9441814" height="23.9844532">
			<defs />
			<path d="M 7.87426 6.84185 C 7.71273 7.4528, 7.48373 8.04208, 7.18684 8.60886, 6.89036 9.17605, 6.5399 9.6905, 6.13547 10.1526, 6.13547 10.3669, 6.13997 10.5742, 6.14896 10.7746, 6.15796 10.9754, 6.17841 11.1508, 6.20989 11.3013, 6.24138 11.4518, 6.28187 11.5642, 6.33094 11.6383, 6.38042 11.7127, 6.44544 11.7495, 6.52641 11.7491, 6.67485 11.7495, 6.81635 11.6906, 6.95129 11.5728, 7.08624 11.4551, 7.17375 11.3132, 7.21383 11.1471, 7.24082 11.0253, 7.31975 10.9643, 7.44979 10.9639 L 7.53076 10.9639 C 7.63422 10.9643, 7.69024 11.0167, 7.69924 11.121 L 7.69924 11.1668 C 7.66775 11.3066, 7.61172 11.4379, 7.53076 11.5597, 7.44979 11.682, 7.35205 11.79, 7.23755 11.8836, 7.12305 11.9773, 6.99832 12.0501, 6.86337 12.1024, 6.72883 12.1547, 6.58734 12.1809, 6.4389 12.1809, 6.04796 12.1809, 5.75148 12.0635, 5.54946 11.828, 5.34745 11.5925, 5.217 11.3459, 5.15852 11.0882, 4.76758 11.4072, 4.32061 11.6689, 3.81721 11.8738, 3.31422 12.0787, 2.79078 12.1809, 2.2469 12.1809, 1.85187 12.1809, 1.49241 12.1004, 1.16895 11.9392, 0.845478 11.7781, 0.589484 11.5467, 0.400556 11.2453, 0.198542 10.9533, 0.0725899 10.6155, 0.0231087 10.2311, 0.00511551 10.1223, -0.00388104 10.0046, -0.00388104 9.87779, -0.00388104 9.61648, 0.0345589 9.34617, 0.110621 9.06646, 0.21858 8.6612, 0.390742 8.2719, 0.626289 7.89895, 0.862244 7.526, 1.15545 7.18904, 1.5055 6.88765, 1.84737 6.60876, 2.21705 6.38752, 2.61453 6.22395, 3.01202 6.06037, 3.40869 5.97859, 3.80372 5.97818, 4.18116 5.97859, 4.51486 6.04974, 4.80438 6.19123, 5.09432 6.33314, 5.33927 6.52411, 5.53924 6.76374, 5.73921 7.00379, 5.88847 7.28391, 5.98743 7.60452, 6.0864 7.92512, 6.13547 8.26208, 6.13547 8.615 L 6.13547 9.47867 C 6.37388 9.16951, 6.61188 8.77489, 6.84988 8.2948, 7.08788 7.81512, 7.26985 7.32439, 7.39581 6.82222, 7.4228 6.70036, 7.50172 6.63738, 7.63176 6.63248 L 7.69924 6.63248 C 7.81619 6.63288, 7.87426 6.68523, 7.87426 6.78951 L 7.87426 6.84185 Z M 5.0706 10.6237 C 5.06651 10.5934, 5.06201 10.548, 5.05751 10.4867, 5.05302 10.4258, 5.05056 10.3644, 5.05056 10.3031 L 5.05056 8.83091 C 5.05056 8.51276, 5.0293 8.20892, 4.98677 7.91858, 4.94424 7.62864, 4.87431 7.3702, 4.7778 7.14324, 4.68129 6.91669, 4.54839 6.7388, 4.37991 6.60998, 4.21143 6.48158, 3.99265 6.41697, 3.72275 6.41656, 3.47125 6.41697, 3.2173 6.48362, 2.96131 6.61653, 2.70532 6.74984, 2.47631 6.93182, 2.27389 7.16246, 2.02239 7.44217, 1.83019 7.74642, 1.6977 8.07561, 1.5652 8.40521, 1.45397 8.74626, 1.36401 9.09917, 1.27445 9.44841, 1.20943 9.78455, 1.16854 10.1068, 1.15954 10.1902, 1.15504 10.2728, 1.15504 10.3554, 1.15504 10.5869, 1.19348 10.8093, 1.26995 11.0228, 1.35542 11.2412, 1.48792 11.417, 1.66744 11.5499, 1.84737 11.6832, 2.06288 11.7495, 2.31437 11.7491, 2.82227 11.7495, 3.31095 11.6493, 3.78041 11.4485, 4.24987 11.2481, 4.68007 10.9729, 5.0706 10.6237 Z" stroke="none" fill="#000000" />
			<rect />
		</svg>
	</g>
	<g transform="matrix(1 0 -0 1 135.759 72.0372)">
		<svg width="21.0837173" height="35.9036179">
			<defs />
			<path d="M 5.6975 3.93023 C 5.80545 4.34489, 5.85903 4.76814, 5.85903 5.19957, 5.85903 5.33533, 5.85453 5.46619, 5.84553 5.59214, 5.80096 6.16833, 5.70445 6.74616, 5.556 7.32603, 5.39447 7.91081, 5.19001 8.49027, 4.94301 9.0636, 4.69601 9.63733, 4.36764 10.1878, 3.9587 10.7153, 3.81966 10.8944, 3.66549 11.0715, 3.49701 11.2457, 3.32853 11.4203, 3.14778 11.5761, 2.95477 11.7135, 2.76175 11.8509, 2.56055 11.9634, 2.35159 12.0501, 2.14262 12.1376, 1.92343 12.1809, 1.69443 12.1809, 1.46092 12.1809, 1.25973 12.1363, 1.09125 12.0468, 0.922765 11.9576, 0.778001 11.8423, 0.656548 11.7004, 0.535503 11.5589, 0.435314 11.4007, 0.356798 11.226, 0.278282 11.0518, 0.214079 10.8727, 0.164598 10.6891, 0.0525499 10.2839, -0.00388324 9.86511, -0.00388324 9.43287, -0.00388324 9.29383, 0.00511336 9.15643, 0.0231065 9.02066, 0.0590928 8.45387, 0.155602 7.88055, 0.312633 7.29986, 0.461076 6.7159, 0.661046 6.13807, 0.912541 5.56638, 1.16445 4.9951, 1.49895 4.44304, 1.91689 3.9106, 2.05633 3.7323, 2.20928 3.55442, 2.3753 3.37776, 2.54133 3.2011, 2.71881 3.04407, 2.90733 2.90666, 3.09626 2.76926, 3.295 2.65721, 3.50397 2.5697, 3.71293 2.4826, 3.93417 2.43884, 4.16767 2.43843, 4.40158 2.43884, 4.60155 2.48382, 4.76758 2.57297, 4.9336 2.66253, 5.08082 2.77703, 5.20882 2.91648, 5.33722 3.05633, 5.43823 3.21541, 5.51225 3.39412, 5.58667 3.57323, 5.64842 3.75193, 5.6975 3.93023 Z M 4.78761 4.08072 C 4.76962 3.91101, 4.74713 3.75193, 4.72014 3.60349, 4.69315 3.45546, 4.65389 3.32664, 4.60237 3.21745, 4.55084 3.10868, 4.48459 3.02444, 4.40362 2.96555, 4.32265 2.90666, 4.2196 2.87722, 4.09365 2.87681, 3.83316 2.87722, 3.5927 2.99827, 3.3727 3.24036, 3.15269 3.48244, 2.93923 3.77156, 2.7323 4.10689, 2.43583 4.58698, 2.20682 5.08016, 2.04488 5.58601, 1.88295 6.09227, 1.74391 6.58054, 1.62695 7.05123 L 4.36968 7.05123 C 4.49114 6.55887, 4.60359 6.0571, 4.70665 5.54634, 4.77862 5.20202, 4.8146 4.86178, 4.8146 4.52564, 4.8146 4.37761, 4.80561 4.22957, 4.78761 4.08072 Z M 1.48546 7.58121 C 1.36441 8.07438, 1.2585 8.57165, 1.16853 9.073, 1.09697 9.43532, 1.06098 9.79764, 1.06098 10.1591, 1.06098 10.2949, 1.06548 10.4258, 1.07448 10.5517, 1.08348 10.7222, 1.10392 10.8817, 1.135 11.0298, 1.16649 11.1782, 1.2082 11.3058, 1.25973 11.4125, 1.31125 11.5197, 1.37995 11.6023, 1.46542 11.6612, 1.55089 11.72, 1.65435 11.7495, 1.7754 11.7491, 2.03139 11.7495, 2.27062 11.6297, 2.49308 11.3896, 2.71554 11.15, 2.92532 10.8617, 3.12325 10.5255, 3.41972 10.0373, 3.64873 9.54246, 3.81067 9.0407, 3.97261 8.53934, 4.11164 8.05271, 4.22819 7.58121 Z" stroke="none" fill="#000000" />
			<rect />
		</svg>
	</g>
</svg>
