<?xml version="1.0"?>
<svg xmlns="http://www.w3.org/2000/svg" xmlns:xlink="http://www.w3.org/1999/xlink" width="335.378235" height="316.218262">
	<defs>
		<marker id="CustomMarker-01" markerUnits="strokeWidth" markerWidth="21" markerHeight="12" viewBox="-21 -6 21 12" orient="auto-start-reverse">
			<path d="M 0 -0 L -14 -4, -14 -0.5, -14 0.5, -14 4 Z" fill="#000000" stroke="#000000" stroke-linejoin="round" />
		</marker>
		<marker id="CustomMarker-02" markerUnits="strokeWidth" markerWidth="21" markerHeight="12" viewBox="-21 -6 21 12" orient="auto-start-reverse">
			<path d="M 0 -0 L -14 -4, -14 -0.5, -14 0.5, -14 4 Z" fill="#000000" stroke="#000000" stroke-linejoin="round" />
		</marker>
		<marker id="CustomMarker-03" markerUnits="strokeWidth" markerWidth="15.000001" markerHeight="9" viewBox="-15 -4.5 15 9" orient="auto-start-reverse">
			<path d="M 0 -0 L -10 -3, -8 -0.5, -8 0.5, -10 3 Z" fill="#000000" stroke="#000000" stroke-linejoin="round" />
		</marker>
		<marker id="CustomMarker-04" markerUnits="strokeWidth" markerWidth="15.000001" markerHeight="9" viewBox="-15 -4.5 15 9" orient="auto-start-reverse">
			<path d="M 0 -0 L -10 -3, -8 -0.5, -8 0.5, -10 3 Z" fill="#000000" stroke="#000000" stroke-linejoin="round" />
		</marker>
	</defs>
	<path d="M -214.145 0 L 214.145 0" fill="none" stroke="#000000" stroke-width="1.04999995" stroke-linecap="round" stroke-linejoin="round" marker-end="url(#CustomMarker-01)" transform="matrix(0.714286 0 -0 0.714286 162.461 165.132)" />
	<path d="M 0 198.22 L 0 -198.22" fill="none" stroke="#000000" stroke-width="1.04999995" stroke-linecap="round" stroke-linejoin="round" marker-end="url(#CustomMarker-02)" transform="matrix(0.714286 0 -0 0.714286 162.461 165.132)" />
	<path d="M 149.1 -0 C 149.1 82.3456, 82.3456 149.1, -0 149.1, -82.3456 149.1, -149.1 82.3456, -149.1 -0, -149.1 -82.3456, -82.3456 -149.1, -0 -149.1, 82.3456 -149.1, 149.1 -82.3456, 149.1 -0 Z" stroke="none" fill="#5FFD11" fill-opacity="0.392156839" transform="matrix(0.714286 0 0 0.714286 162.461 165.132)" />
	<path d="M 149.1 -0 C 149.1 82.3456, 82.3456 149.1, -0 149.1, -82.3456 149.1, -149.1 82.3456, -149.1 -0, -149.1 -82.3456, -82.3456 -149.1, -0 -149.1, 82.3456 -149.1, 149.1 -82.3456, 149.1 -0 Z" fill="none" stroke="#000000" stroke-width="1.39999998" stroke-linecap="round" stroke-linejoin="round" transform="matrix(0.714286 0 0 0.714286 162.461 165.132)" />
	<path d="M -147.069 35.045 L 147.07 -35.045" fill="none" stroke="#000000" stroke-width="1.39999998" stroke-linecap="round" stroke-linejoin="round" marker-end="url(#CustomMarker-03)" transform="matrix(0.714286 0 0 0.714286 163.911 164.787)" />
	<path d="M -146.054 -34.8031 L 146.054 34.8031" fill="none" stroke="#000000" stroke-width="1.39999998" stroke-linecap="round" stroke-linejoin="round" marker-end="url(#CustomMarker-04)" transform="matrix(0.714286 0 0 0.714286 163.186 165.305)" />
	<g transform="matrix(1 0 -0 1 321.488 154.071)">
		<svg width="21.0837173" height="27.0062141">
			<defs />
			<path d="M 5.87763 10.5059 C 5.78767 10.7856, 5.65763 11.0265, 5.48669 11.2293, 5.31616 11.4322, 5.11742 11.6047, 4.89046 11.7462, 4.6635 11.8881, 4.41528 11.9924, 4.14579 12.0599, 3.8763 12.1278, 3.60232 12.1613, 3.32342 12.1613, 2.8875 12.1613, 2.45975 12.093, 2.03977 11.9556, 1.6198 11.8182, 1.24112 11.5904, 0.904159 11.2714, 0.58519 10.9623, 0.354959 10.6036, 0.213467 10.1955, 0.0719756 9.78782, 0.000820786 9.37234, 0.000820786 8.94869, 0.000820786 8.53484, 0.0662505 8.12918, 0.196292 7.7321, 0.326742 7.33544, 0.544705 6.97762, 0.85018 6.65865, 1.16015 6.34499, 1.51429 6.11926, 1.91178 5.98186, 2.30926 5.84446, 2.71697 5.77576, 3.1349 5.77535, 3.50785 5.77576, 3.87835 5.83382, 4.2468 5.94914, 4.61525 6.06487, 4.93422 6.27098, 5.20371 6.56705, 5.4916 6.8991, 5.67807 7.25897, 5.76313 7.64704, 5.8486 8.03553, 5.89113 8.42116, 5.89113 8.80474, 5.89113 8.90534, 5.85514 8.99081, 5.78317 9.06033, 5.7112 9.13025, 5.62368 9.16501, 5.52022 9.1646 L 1.99561 9.1646 C 2.0046 9.43123, 2.02382 9.71462, 2.05327 10.0156, 2.08271 10.3166, 2.169 10.5738, 2.31253 10.7873, 2.43399 10.9754, 2.59225 11.1205, 2.78772 11.2228, 2.98319 11.3254, 3.19093 11.3765, 3.41093 11.3761, 3.78388 11.3765, 4.12003 11.2796, 4.41855 11.0854, 4.71748 10.8915, 4.91868 10.6327, 5.02173 10.3096, 5.06222 10.1313, 5.17917 10.0463, 5.37219 10.0544 L 5.60814 10.0544 C 5.79707 10.1203, 5.89113 10.2426, 5.89113 10.4209 Z M 4.33431 8.48414 C 4.33431 8.2535, 4.31305 8.00282, 4.27052 7.7321, 4.22799 7.4618, 4.13679 7.21316, 3.99735 6.9858, 3.90329 6.83367, 3.78061 6.71385, 3.63012 6.62634, 3.47964 6.53924, 3.31483 6.49548, 3.1349 6.49507, 2.95988 6.49548, 2.79344 6.54701, 2.636 6.64924, 2.47897 6.75188, 2.35302 6.89256, 2.25855 7.07085, 2.1555 7.26305, 2.08803 7.49124, 2.05654 7.755, 2.02505 8.01918, 2.0091 8.26208, 2.0091 8.48414 L 4.33431 8.48414 Z" stroke="none" fill="#000000" />
			<rect />
		</svg>
	</g>
	<g transform="matrix(1 0 -0 1 160.012 7.99999)">
		<svg width="23.9302292" height="27.0062141">
			<defs />
			<path d="M 6.34914 9.04683 C 6.34914 9.46149, 6.28207 9.86838, 6.14712 10.2675, 6.01258 10.6666, 5.79135 11.0159, 5.48342 11.3144, 5.1759 11.6133, 4.82094 11.8292, 4.41855 11.9621, 4.01657 12.095, 3.60191 12.1613, 3.17498 12.1613, 2.74846 12.1613, 2.33421 12.095, 1.93181 11.9621, 1.52983 11.8292, 1.17487 11.6133, 0.866946 11.3144, 0.559427 11.0159, 0.338193 10.6666, 0.203244 10.2675, 0.0682952 9.86838, 0.000820816 9.46149, 0.000820816 9.04683, 0.000820816 8.60682, 0.0682952 8.18275, 0.203244 7.77463, 0.338193 7.36692, 0.5582 6.99929, 0.863675 6.67173, 1.16015 6.36258, 1.51266 6.13562, 1.92159 5.99167, 2.33053 5.84773, 2.74846 5.77576, 3.17498 5.77535, 3.60191 5.77576, 4.01902 5.84896, 4.4255 5.99495, 4.83198 6.14134, 5.18571 6.36667, 5.48669 6.67173, 5.79666 6.99929, 6.0179 7.3657, 6.15039 7.77136, 6.28289 8.17702, 6.34914 8.60232, 6.34914 9.04683 Z M 4.34781 8.3729 C 4.34781 8.1987, 4.34126 8.02776, 4.32777 7.85969, 4.31427 7.69203, 4.29505 7.54031, 4.27052 7.40495, 4.24598 7.27001, 4.21327 7.15837, 4.17237 7.07085, 4.07832 6.88806, 3.9401 6.74657, 3.75812 6.64597, 3.57614 6.54578, 3.3819 6.49548, 3.17498 6.49507, 2.96847 6.49548, 2.77422 6.54578, 2.59225 6.64597, 2.41027 6.74657, 2.27205 6.88806, 2.17758 7.07085, 2.13751 7.15837, 2.10479 7.27001, 2.08026 7.40495, 2.05572 7.54031, 2.03527 7.69203, 2.01933 7.85969, 2.00379 8.02776, 1.99561 8.1987, 1.99561 8.3729 L 1.99561 9.40669 C 1.99561 9.59031, 2.00379 9.77269, 2.01933 9.95344, 2.03527 10.1346, 2.05572 10.2969, 2.08026 10.4409, 2.10479 10.5848, 2.13751 10.7006, 2.17758 10.7873, 2.27205 10.9709, 2.40782 11.1148, 2.58529 11.2195, 2.76277 11.3242, 2.95947 11.3765, 3.17498 11.3761, 3.3909 11.3765, 3.58719 11.3242, 3.76466 11.2195, 3.94214 11.1148, 4.07832 10.9709, 4.17237 10.7873, 4.21327 10.7006, 4.24598 10.5848, 4.27052 10.4409, 4.29505 10.2969, 4.31427 10.1346, 4.32777 9.95344, 4.34126 9.77269, 4.34781 9.59031, 4.34781 9.40669 Z" stroke="none" fill="#000000" />
			<rect />
		</svg>
	</g>
	<g transform="matrix(1 0 -0 1 234.454 131.708)">
		<svg width="45.0279007" height="38.9253807">
			<defs />
			<path d="M 9.6607 12.0893 C 8.9197 12.059, 8.20734 12.0435, 7.52442 12.0435 L 7.51092 12.0435 C 6.75603 12.0435, 5.9631 12.059, 5.13174 12.0893 L 5.13174 11.2191, 6.22359 11.2191, 5.64413 9.64224, 2.79999 9.64224, 2.24056 11.1798, 2.24056 11.1733 C 2.24056 11.1344, 2.23606 11.1128, 2.22707 11.1079, 2.30395 11.1299, 2.37796 11.1496, 2.44953 11.1668, 2.57098 11.1847, 2.69448 11.1978, 2.82043 11.2064, 2.94638 11.2154, 3.11037 11.2195, 3.31238 11.2191 L 3.31238 12.0893 C 2.74192 12.059, 2.21398 12.0435, 1.72857 12.0435 L 1.52615 12.0435 C 1.06365 12.0435, 0.553702 12.059, -0.00326777 12.0893 L -0.00326777 11.2191, 0.555747 11.2191 C 0.695194 11.2195, 0.841184 11.2064, 0.994126 11.1798, 1.0526 11.1717, 1.10658 11.1606, 1.15566 11.1475, 1.20514 11.1344, 1.22967 11.1259, 1.22967 11.121 L 4.23535 2.7983 C 4.27134 2.7071, 4.33227 2.63104, 4.41773 2.5697, 4.5032 2.50877, 4.60216 2.4781, 4.71421 2.47769 L 4.96325 2.47769 C 5.06222 2.4781, 5.15464 2.50877, 5.23969 2.5697, 5.32516 2.63104, 5.38568 2.7071, 5.42167 2.7983 L 8.46783 11.2191, 9.6607 11.2191, 9.6607 12.0893 Z M 4.22881 5.70337 L 3.11691 8.77857, 5.3407 8.77857 Z" stroke="none" fill="#000000" />
			<path d="M 1.69796 2.28366 C 1.23514 2.26901, 0.784693 2.26168, 0.346838 2.26168, -0.0907886 2.26168, -0.541239 2.26901, -1.00429 2.28366 L -1.00429 1.96855, -0.743679 1.96855 C -0.660779 1.96878, -0.582689 1.96764, -0.509866 1.96512, -0.436813 1.96283, -0.367654 1.95665, -0.302159 1.9468, -0.236664 1.93718, -0.1801 1.92733, -0.132467 1.91726, -0.0921626 1.91016, -0.0587281 1.88772, -0.0323926 1.8497, -0.00582814 1.81192, 0.00722504 1.76978, 0.00722504 1.72306 L 0.00722504 -2.40634 C -0.118498 -2.34496, -0.273305 -2.29848, -0.456966 -2.26687, -0.640627 -2.23504, -0.841921 -2.21924, -1.06085 -2.21947 L -1.06085 -2.53091 C -0.758793 -2.53069, -0.480095 -2.56664, -0.224756 -2.63878, 0.0305834 -2.71068, 0.251343 -2.84579, 0.437523 -3.04388 L 0.554544 -3.04388 C 0.637444 -3.04365, 0.678893 -3.00335, 0.678893 -2.92297 L 0.678893 1.72306 C 0.678893 1.77207, 0.691489 1.81489, 0.716679 1.85153, 0.74187 1.88817, 0.77851 1.91016, 0.826143 1.91726, 0.866448 1.92733, 0.918203 1.93718, 0.98095 1.9468, 1.04393 1.95665, 1.11492 1.96283, 1.19415 1.96512, 1.27339 1.96764, 1.35079 1.96878, 1.42613 1.96855 L 1.69796 1.96855, 1.69796 2.28366 Z" stroke="none" fill="#000000" transform="matrix(1.12 0 0 1 12.0933 11.6474)" />
			<rect />
		</svg>
	</g>
	<g transform="matrix(1 0 -0 1 219.571 148.873)">
		<svg width="26.9441814" height="23.9844532">
			<defs />
			<path d="M 7.87426 6.84185 C 7.71273 7.4528, 7.48373 8.04208, 7.18684 8.60886, 6.89036 9.17605, 6.5399 9.6905, 6.13547 10.1526, 6.13547 10.3669, 6.13997 10.5742, 6.14896 10.7746, 6.15796 10.9754, 6.17841 11.1508, 6.20989 11.3013, 6.24138 11.4518, 6.28187 11.5642, 6.33094 11.6383, 6.38042 11.7127, 6.44544 11.7495, 6.52641 11.7491, 6.67485 11.7495, 6.81635 11.6906, 6.95129 11.5728, 7.08624 11.4551, 7.17375 11.3132, 7.21383 11.1471, 7.24082 11.0253, 7.31975 10.9643, 7.44979 10.9639 L 7.53076 10.9639 C 7.63422 10.9643, 7.69024 11.0167, 7.69924 11.121 L 7.69924 11.1668 C 7.66775 11.3066, 7.61172 11.4379, 7.53076 11.5597, 7.44979 11.682, 7.35205 11.79, 7.23755 11.8836, 7.12305 11.9773, 6.99832 12.0501, 6.86337 12.1024, 6.72883 12.1547, 6.58734 12.1809, 6.4389 12.1809, 6.04796 12.1809, 5.75148 12.0635, 5.54946 11.828, 5.34745 11.5925, 5.217 11.3459, 5.15852 11.0882, 4.76758 11.4072, 4.32061 11.6689, 3.81721 11.8738, 3.31422 12.0787, 2.79078 12.1809, 2.2469 12.1809, 1.85187 12.1809, 1.49241 12.1004, 1.16895 11.9392, 0.845478 11.7781, 0.589484 11.5467, 0.400556 11.2453, 0.198542 10.9533, 0.0725899 10.6155, 0.0231087 10.2311, 0.00511551 10.1223, -0.00388104 10.0046, -0.00388104 9.87779, -0.00388104 9.61648, 0.0345589 9.34617, 0.110621 9.06646, 0.21858 8.6612, 0.390742 8.2719, 0.626289 7.89895, 0.862244 7.526, 1.15545 7.18904, 1.5055 6.88765, 1.84737 6.60876, 2.21705 6.38752, 2.61453 6.22395, 3.01202 6.06037, 3.40869 5.97859, 3.80372 5.97818, 4.18116 5.97859, 4.51486 6.04974, 4.80438 6.19123, 5.09432 6.33314, 5.33927 6.52411, 5.53924 6.76374, 5.73921 7.00379, 5.88847 7.28391, 5.98743 7.60452, 6.0864 7.92512, 6.13547 8.26208, 6.13547 8.615 L 6.13547 9.47867 C 6.37388 9.16951, 6.61188 8.77489, 6.84988 8.2948, 7.08788 7.81512, 7.26985 7.32439, 7.39581 6.82222, 7.4228 6.70036, 7.50172 6.63738, 7.63176 6.63248 L 7.69924 6.63248 C 7.81619 6.63288, 7.87426 6.68523, 7.87426 6.78951 L 7.87426 6.84185 Z M 5.0706 10.6237 C 5.06651 10.5934, 5.06201 10.548, 5.05751 10.4867, 5.05302 10.4258, 5.05056 10.3644, 5.05056 10.3031 L 5.05056 8.83091 C 5.05056 8.51276, 5.0293 8.20892, 4.98677 7.91858, 4.94424 7.62864, 4.87431 7.3702, 4.7778 7.14324, 4.68129 6.91669, 4.54839 6.7388, 4.37991 6.60998, 4.21143 6.48158, 3.99265 6.41697, 3.72275 6.41656, 3.47125 6.41697, 3.2173 6.48362, 2.96131 6.61653, 2.70532 6.74984, 2.47631 6.93182, 2.27389 7.16246, 2.02239 7.44217, 1.83019 7.74642, 1.6977 8.07561, 1.5652 8.40521, 1.45397 8.74626, 1.36401 9.09917, 1.27445 9.44841, 1.20943 9.78455, 1.16854 10.1068, 1.15954 10.1902, 1.15504 10.2728, 1.15504 10.3554, 1.15504 10.5869, 1.19348 10.8093, 1.26995 11.0228, 1.35542 11.2412, 1.48792 11.417, 1.66744 11.5499, 1.84737 11.6832, 2.06288 11.7495, 2.31437 11.7491, 2.82227 11.7495, 3.31095 11.6493, 3.78041 11.4485, 4.24987 11.2481, 4.68007 10.9729, 5.0706 10.6237 Z" stroke="none" fill="#000000" />
			<rect />
		</svg>
	</g>
	<g transform="matrix(1 0 -0 1 219.571 162.445)">
		<svg width="26.9441814" height="23.9844532">
			<defs />
			<path d="M 7.87426 6.84185 C 7.71273 7.4528, 7.48373 8.04208, 7.18684 8.60886, 6.89036 9.17605, 6.5399 9.6905, 6.13547 10.1526, 6.13547 10.3669, 6.13997 10.5742, 6.14896 10.7746, 6.15796 10.9754, 6.17841 11.1508, 6.20989 11.3013, 6.24138 11.4518, 6.28187 11.5642, 6.33094 11.6383, 6.38042 11.7127, 6.44544 11.7495, 6.52641 11.7491, 6.67485 11.7495, 6.81635 11.6906, 6.95129 11.5728, 7.08624 11.4551, 7.17375 11.3132, 7.21383 11.1471, 7.24082 11.0253, 7.31975 10.9643, 7.44979 10.9639 L 7.53076 10.9639 C 7.63422 10.9643, 7.69024 11.0167, 7.69924 11.121 L 7.69924 11.1668 C 7.66775 11.3066, 7.61172 11.4379, 7.53076 11.5597, 7.44979 11.682, 7.35205 11.79, 7.23755 11.8836, 7.12305 11.9773, 6.99832 12.0501, 6.86337 12.1024, 6.72883 12.1547, 6.58734 12.1809, 6.4389 12.1809, 6.04796 12.1809, 5.75148 12.0635, 5.54946 11.828, 5.34745 11.5925, 5.217 11.3459, 5.15852 11.0882, 4.76758 11.4072, 4.32061 11.6689, 3.81721 11.8738, 3.31422 12.0787, 2.79078 12.1809, 2.2469 12.1809, 1.85187 12.1809, 1.49241 12.1004, 1.16895 11.9392, 0.845478 11.7781, 0.589484 11.5467, 0.400556 11.2453, 0.198542 10.9533, 0.0725899 10.6155, 0.0231087 10.2311, 0.00511551 10.1223, -0.00388104 10.0046, -0.00388104 9.87779, -0.00388104 9.61648, 0.0345589 9.34617, 0.110621 9.06646, 0.21858 8.6612, 0.390742 8.2719, 0.626289 7.89895, 0.862244 7.526, 1.15545 7.18904, 1.5055 6.88765, 1.84737 6.60876, 2.21705 6.38752, 2.61453 6.22395, 3.01202 6.06037, 3.40869 5.97859, 3.80372 5.97818, 4.18116 5.97859, 4.51486 6.04974, 4.80438 6.19123, 5.09432 6.33314, 5.33927 6.52411, 5.53924 6.76374, 5.73921 7.00379, 5.88847 7.28391, 5.98743 7.60452, 6.0864 7.92512, 6.13547 8.26208, 6.13547 8.615 L 6.13547 9.47867 C 6.37388 9.16951, 6.61188 8.77489, 6.84988 8.2948, 7.08788 7.81512, 7.26985 7.32439, 7.39581 6.82222, 7.4228 6.70036, 7.50172 6.63738, 7.63176 6.63248 L 7.69924 6.63248 C 7.81619 6.63288, 7.87426 6.68523, 7.87426 6.78951 L 7.87426 6.84185 Z M 5.0706 10.6237 C 5.06651 10.5934, 5.06201 10.548, 5.05751 10.4867, 5.05302 10.4258, 5.05056 10.3644, 5.05056 10.3031 L 5.05056 8.83091 C 5.05056 8.51276, 5.0293 8.20892, 4.98677 7.91858, 4.94424 7.62864, 4.87431 7.3702, 4.7778 7.14324, 4.68129 6.91669, 4.54839 6.7388, 4.37991 6.60998, 4.21143 6.48158, 3.99265 6.41697, 3.72275 6.41656, 3.47125 6.41697, 3.2173 6.48362, 2.96131 6.61653, 2.70532 6.74984, 2.47631 6.93182, 2.27389 7.16246, 2.02239 7.44217, 1.83019 7.74642, 1.6977 8.07561, 1.5652 8.40521, 1.45397 8.74626, 1.36401 9.09917, 1.27445 9.44841, 1.20943 9.78455, 1.16854 10.1068, 1.15954 10.1902, 1.15504 10.2728, 1.15504 10.3554, 1.15504 10.5869, 1.19348 10.8093, 1.26995 11.0228, 1.35542 11.2412, 1.48792 11.417, 1.66744 11.5499, 1.84737 11.6832, 2.06288 11.7495, 2.31437 11.7491, 2.82227 11.7495, 3.31095 11.6493, 3.78041 11.4485, 4.24987 11.2481, 4.68007 10.9729, 5.0706 10.6237 Z" stroke="none" fill="#000000" />
			<rect />
		</svg>
	</g>
	<g transform="matrix(1 0 -0 1 270.61 125.618)">
		<svg width="38.9999924" height="38.9253807">
			<defs />
			<path d="M 8.42244 5.38277 C 8.42244 5.75817, 8.3427 6.11722, 8.18321 6.4595, 8.02373 6.80218, 7.7935 7.09089, 7.49211 7.32603, 7.14615 7.59266, 6.76216 7.78036, 6.33973 7.88913, 5.91771 7.99832, 5.49078 8.05271, 5.05936 8.0523 L 3.49599 8.0523, 3.49599 11.2191, 4.78987 11.2191, 4.78987 12.0893 C 3.94542 12.059, 3.14799 12.0435, 2.39719 12.0435, 1.6337 12.0435, 0.834234 12.059, -0.00163051 12.0893 L -0.00163051 11.2191, 1.29224 11.2191, 1.29224 3.51802, -0.00163051 3.51802, -0.00163051 2.65435, 5.05936 2.65435 C 5.49078 2.65476, 5.91771 2.71037, 6.33973 2.82161, 6.76216 2.93284, 7.14615 3.12381, 7.49211 3.39371, 7.80699 3.63825, 8.04049 3.93309, 8.19344 4.27742, 8.34638 4.62215, 8.42244 4.9906, 8.42244 5.38277 Z M 6.07024 5.38277 C 6.07024 5.25232, 6.0682 5.11614, 6.0637 4.97424, 6.0592 4.83275, 6.05021 4.69535, 6.03671 4.56204, 6.02322 4.42913, 6.00195 4.31013, 5.97251 4.20544, 5.94347 4.10076, 5.90176 4.0202, 5.84778 3.96294, 5.69975 3.78465, 5.5055 3.66565, 5.26505 3.60676, 5.0246 3.54787, 4.77637 3.51843, 4.52038 3.51802 L 3.42852 3.51802, 3.42852 7.25406, 4.52038 7.25406 C 4.77637 7.25447, 5.0246 7.22502, 5.26505 7.16614, 5.5055 7.10725, 5.69975 6.98416, 5.84778 6.79605, 5.90176 6.73962, 5.94347 6.65906, 5.97251 6.55437, 6.00195 6.44968, 6.02322 6.33314, 6.03671 6.20432, 6.05021 6.07591, 6.0592 5.94056, 6.0637 5.79866, 6.0682 5.65716, 6.07024 5.51854, 6.07024 5.38277 Z" stroke="none" fill="#000000" />
			<path d="M 1.69796 2.28366 C 1.23514 2.26901, 0.784693 2.26168, 0.346838 2.26168, -0.0907886 2.26168, -0.541239 2.26901, -1.00429 2.28366 L -1.00429 1.96855, -0.743679 1.96855 C -0.660779 1.96878, -0.582689 1.96764, -0.509866 1.96512, -0.436813 1.96283, -0.367654 1.95665, -0.302159 1.9468, -0.236664 1.93718, -0.1801 1.92733, -0.132467 1.91726, -0.0921626 1.91016, -0.0587281 1.88772, -0.0323926 1.8497, -0.00582814 1.81192, 0.00722504 1.76978, 0.00722504 1.72306 L 0.00722504 -2.40634 C -0.118498 -2.34496, -0.273305 -2.29848, -0.456966 -2.26687, -0.640627 -2.23504, -0.841921 -2.21924, -1.06085 -2.21947 L -1.06085 -2.53091 C -0.758793 -2.53069, -0.480095 -2.56664, -0.224756 -2.63878, 0.0305834 -2.71068, 0.251343 -2.84579, 0.437523 -3.04388 L 0.554544 -3.04388 C 0.637444 -3.04365, 0.678893 -3.00335, 0.678893 -2.92297 L 0.678893 1.72306 C 0.678893 1.77207, 0.691489 1.81489, 0.716679 1.85153, 0.74187 1.88817, 0.77851 1.91016, 0.826143 1.91726, 0.866448 1.92733, 0.918203 1.93718, 0.98095 1.9468, 1.04393 1.95665, 1.11492 1.96283, 1.19415 1.96512, 1.27339 1.96764, 1.35079 1.96878, 1.42613 1.96855 L 1.69796 1.96855, 1.69796 2.28366 Z" stroke="none" fill="#000000" transform="matrix(1.12 0 0 1 9.78137 11.6474)" />
			<rect />
		</svg>
	</g>
	<g transform="matrix(1 0 -0 1 270.3 182.118)">
		<svg width="42.0139465" height="38.9253807">
			<defs />
			<path d="M 8.42244 5.38277 C 8.42244 5.75817, 8.3427 6.11722, 8.18321 6.4595, 8.02373 6.80218, 7.7935 7.09089, 7.49211 7.32603, 7.14615 7.59266, 6.76216 7.78036, 6.33973 7.88913, 5.91771 7.99832, 5.49078 8.05271, 5.05936 8.0523 L 3.49599 8.0523, 3.49599 11.2191, 4.78987 11.2191, 4.78987 12.0893 C 3.94542 12.059, 3.14799 12.0435, 2.39719 12.0435, 1.6337 12.0435, 0.834234 12.059, -0.00163051 12.0893 L -0.00163051 11.2191, 1.29224 11.2191, 1.29224 3.51802, -0.00163051 3.51802, -0.00163051 2.65435, 5.05936 2.65435 C 5.49078 2.65476, 5.91771 2.71037, 6.33973 2.82161, 6.76216 2.93284, 7.14615 3.12381, 7.49211 3.39371, 7.80699 3.63825, 8.04049 3.93309, 8.19344 4.27742, 8.34638 4.62215, 8.42244 4.9906, 8.42244 5.38277 Z M 6.07024 5.38277 C 6.07024 5.25232, 6.0682 5.11614, 6.0637 4.97424, 6.0592 4.83275, 6.05021 4.69535, 6.03671 4.56204, 6.02322 4.42913, 6.00195 4.31013, 5.97251 4.20544, 5.94347 4.10076, 5.90176 4.0202, 5.84778 3.96294, 5.69975 3.78465, 5.5055 3.66565, 5.26505 3.60676, 5.0246 3.54787, 4.77637 3.51843, 4.52038 3.51802 L 3.42852 3.51802, 3.42852 7.25406, 4.52038 7.25406 C 4.77637 7.25447, 5.0246 7.22502, 5.26505 7.16614, 5.5055 7.10725, 5.69975 6.98416, 5.84778 6.79605, 5.90176 6.73962, 5.94347 6.65906, 5.97251 6.55437, 6.00195 6.44968, 6.02322 6.33314, 6.03671 6.20432, 6.05021 6.07591, 6.0592 5.94056, 6.0637 5.79866, 6.0682 5.65716, 6.07024 5.51854, 6.07024 5.38277 Z" stroke="none" fill="#000000" />
			<path d="M 1.70805 2.28366 L -1.36381 2.28366, -1.36381 2.08214 C -1.36381 2.06771, -1.35625 2.04573, -1.34114 2.01619 L -0.107038 0.67514 C 0.0388373 0.514151, 0.186545 0.349268, 0.336313 0.180721, 0.486082 0.0121739, 0.620278 -0.160037, 0.738444 -0.335912, 0.85661 -0.511787, 0.95096 -0.693158, 1.02149 -0.880025, 1.09203 -1.06689, 1.12706 -1.26292, 1.12706 -1.46834, 1.12706 -1.64146, 1.10439 -1.80337, 1.05905 -1.9536, 1.01371 -2.10382, 0.948441 -2.23573, 0.862793 -2.34931, 0.777375 -2.4629, 0.67043 -2.5545, 0.542188 -2.62412, 0.413946 -2.69374, 0.265322 -2.72854, 0.0967753 -2.72877, -0.154671 -2.72854, -0.376805 -2.65343, -0.569397 -2.5032, -0.76176 -2.35298, -0.889544 -2.18741, -0.95252 -2.00695, -0.964887 -2.00192, -0.944734 -1.9994, -0.892063 -1.99963 L -0.827942 -1.99963 C -0.752371 -1.98222, -0.687105 -1.95589, -0.631686 -1.92062, -0.576267 -1.88512, -0.529779 -1.83635, -0.491994 -1.77406, -0.454208 -1.71177, -0.43543 -1.63665, -0.43543 -1.54895, -0.43543 -1.40215, -0.483063 -1.28971, -0.578786 -1.21162, -0.67451 -1.1333, -0.781455 -1.09437, -0.899621 -1.0946, -1.01275 -1.09437, -1.11855 -1.1333, -1.21656 -1.21162, -1.31458 -1.28971, -1.36381 -1.40215, -1.36381 -1.54895, -1.36381 -1.7539, -1.32351 -1.9481, -1.2429 -2.1313, -1.16229 -2.31451, -1.05305 -2.47321, -0.914735 -2.60763, -0.776416 -2.74183, -0.612908 -2.84808, -0.424209 -2.9264, -0.235509 -3.00449, -0.0353599 -3.04365, 0.176011 -3.04388, 0.437762 -3.04365, 0.677529 -3.00518, 0.895083 -2.92824, 1.11264 -2.85129, 1.29813 -2.74068, 1.45156 -2.59664, 1.605 -2.45237, 1.72522 -2.28565, 1.81201 -2.09649, 1.89881 -1.90711, 1.94209 -1.6978, 1.94209 -1.46834, 1.94209 -1.21414, 1.88438 -0.9801, 1.7685 -0.766439, 1.65286 -0.55255, 1.5095 -0.356522, 1.33843 -0.178357, 1.16737 3.67165e-005, 0.985539 0.167897, 0.792947 0.325451, 0.600584 0.483006, 0.426312 0.63621, 0.27036 0.785062 L -0.597793 1.60215, 0.538295 1.60215 C 0.696765 1.60238, 0.844702 1.60123, 0.981646 1.59871, 1.11882 1.59642, 1.23515 1.59138, 1.33088 1.58406, 1.4266 1.57673, 1.47561 1.57192, 1.4779 1.56917, 1.49805 1.55223, 1.51706 1.5181, 1.53469 1.46681, 1.55232 1.41551, 1.56858 1.35505, 1.5837 1.28544, 1.59881 1.21582, 1.61393 1.14506, 1.62904 1.07292, 1.64415 1.00101, 1.65789 0.922006, 1.67049 0.836359 L 1.94965 0.836359 Z" stroke="none" fill="#000000" transform="matrix(1.12 0 0 1 10.0832 11.6474)" />
			<rect />
		</svg>
	</g>
</svg>
