<?xml version="1.0"?>
<svg xmlns="http://www.w3.org/2000/svg" xmlns:xlink="http://www.w3.org/1999/xlink" width="335.37796" height="316.21817">
	<defs>
		<marker id="CustomMarker-01" markerUnits="strokeWidth" markerWidth="21" markerHeight="12" viewBox="-21 -6 21 12" orient="auto-start-reverse">
			<path d="M 0 -0 L -14 -4, -14 -0.5, -14 0.5, -14 4 Z" fill="#000000" stroke="#000000" stroke-linejoin="round" />
		</marker>
		<marker id="CustomMarker-02" markerUnits="strokeWidth" markerWidth="21" markerHeight="12" viewBox="-21 -6 21 12" orient="auto-start-reverse">
			<path d="M 0 -0 L -14 -4, -14 -0.5, -14 0.5, -14 4 Z" fill="#000000" stroke="#000000" stroke-linejoin="round" />
		</marker>
		<marker id="CustomMarker-03" markerUnits="strokeWidth" markerWidth="15.000001" markerHeight="9" viewBox="-15 -4.5 15 9" orient="auto-start-reverse">
			<path d="M 0 -0 L -10 -3, -8 -0.5, -8 0.5, -10 3 Z" fill="#000000" stroke="#000000" stroke-linejoin="round" />
		</marker>
		<marker id="CustomMarker-04" markerUnits="strokeWidth" markerWidth="15.000001" markerHeight="9" viewBox="-15 -4.5 15 9" orient="auto-start-reverse">
			<path d="M 0 -0 L -10 -3, -8 -0.5, -8 0.5, -10 3 Z" fill="#000000" stroke="#000000" stroke-linejoin="round" />
		</marker>
	</defs>
	<path d="M -214.145 0 L 214.145 0" fill="none" stroke="#000000" stroke-width="1.04999995" stroke-linecap="round" stroke-linejoin="round" marker-end="url(#CustomMarker-01)" transform="matrix(0.714286 0 -0 0.714286 162.461 165.132)" />
	<path d="M 0 198.22 L 0 -198.22" fill="none" stroke="#000000" stroke-width="1.04999995" stroke-linecap="round" stroke-linejoin="round" marker-end="url(#CustomMarker-02)" transform="matrix(0.714286 0 -0 0.714286 162.461 165.132)" />
	<path d="M 149.1 -0 C 149.1 82.3456, 82.3456 149.1, -0 149.1, -82.3456 149.1, -149.1 82.3456, -149.1 -0, -149.1 -82.3456, -82.3456 -149.1, -0 -149.1, 82.3456 -149.1, 149.1 -82.3456, 149.1 -0 Z" stroke="none" fill="#5FFD11" fill-opacity="0.392156839" transform="matrix(0.714286 0 0 0.714286 162.461 165.132)" />
	<path d="M 149.1 -0 C 149.1 82.3456, 82.3456 149.1, -0 149.1, -82.3456 149.1, -149.1 82.3456, -149.1 -0, -149.1 -82.3456, -82.3456 -149.1, -0 -149.1, 82.3456 -149.1, 149.1 -82.3456, 149.1 -0 Z" fill="none" stroke="#000000" stroke-width="1.39999998" stroke-linecap="round" stroke-linejoin="round" transform="matrix(0.714286 0 0 0.714286 162.461 165.132)" />
	<g transform="matrix(1 0 -0 1 321.488 154.071)">
		<svg width="21.0837173" height="27.0062141">
			<defs />
			<path d="M 5.87763 10.5059 C 5.78767 10.7856, 5.65763 11.0265, 5.48669 11.2293, 5.31616 11.4322, 5.11742 11.6047, 4.89046 11.7462, 4.6635 11.8881, 4.41528 11.9924, 4.14579 12.0599, 3.8763 12.1278, 3.60232 12.1613, 3.32342 12.1613, 2.8875 12.1613, 2.45975 12.093, 2.03977 11.9556, 1.6198 11.8182, 1.24112 11.5904, 0.904159 11.2714, 0.58519 10.9623, 0.354959 10.6036, 0.213467 10.1955, 0.0719756 9.78782, 0.000820786 9.37234, 0.000820786 8.94869, 0.000820786 8.53484, 0.0662505 8.12918, 0.196292 7.7321, 0.326742 7.33544, 0.544705 6.97762, 0.85018 6.65865, 1.16015 6.34499, 1.51429 6.11926, 1.91178 5.98186, 2.30926 5.84446, 2.71697 5.77576, 3.1349 5.77535, 3.50785 5.77576, 3.87835 5.83382, 4.2468 5.94914, 4.61525 6.06487, 4.93422 6.27098, 5.20371 6.56705, 5.4916 6.8991, 5.67807 7.25897, 5.76313 7.64704, 5.8486 8.03553, 5.89113 8.42116, 5.89113 8.80474, 5.89113 8.90534, 5.85514 8.99081, 5.78317 9.06033, 5.7112 9.13025, 5.62368 9.16501, 5.52022 9.1646 L 1.99561 9.1646 C 2.0046 9.43123, 2.02382 9.71462, 2.05327 10.0156, 2.08271 10.3166, 2.169 10.5738, 2.31253 10.7873, 2.43399 10.9754, 2.59225 11.1205, 2.78772 11.2228, 2.98319 11.3254, 3.19093 11.3765, 3.41093 11.3761, 3.78388 11.3765, 4.12003 11.2796, 4.41855 11.0854, 4.71748 10.8915, 4.91868 10.6327, 5.02173 10.3096, 5.06222 10.1313, 5.17917 10.0463, 5.37219 10.0544 L 5.60814 10.0544 C 5.79707 10.1203, 5.89113 10.2426, 5.89113 10.4209 Z M 4.33431 8.48414 C 4.33431 8.2535, 4.31305 8.00282, 4.27052 7.7321, 4.22799 7.4618, 4.13679 7.21316, 3.99735 6.9858, 3.90329 6.83367, 3.78061 6.71385, 3.63012 6.62634, 3.47964 6.53924, 3.31483 6.49548, 3.1349 6.49507, 2.95988 6.49548, 2.79344 6.54701, 2.636 6.64924, 2.47897 6.75188, 2.35302 6.89256, 2.25855 7.07085, 2.1555 7.26305, 2.08803 7.49124, 2.05654 7.755, 2.02505 8.01918, 2.0091 8.26208, 2.0091 8.48414 L 4.33431 8.48414 Z" stroke="none" fill="#000000" />
			<rect />
		</svg>
	</g>
	<g transform="matrix(1 0 -0 1 160.012 7.99999)">
		<svg width="23.9302292" height="27.0062141">
			<defs />
			<path d="M 6.34914 9.04683 C 6.34914 9.46149, 6.28207 9.86838, 6.14712 10.2675, 6.01258 10.6666, 5.79135 11.0159, 5.48342 11.3144, 5.1759 11.6133, 4.82094 11.8292, 4.41855 11.9621, 4.01657 12.095, 3.60191 12.1613, 3.17498 12.1613, 2.74846 12.1613, 2.33421 12.095, 1.93181 11.9621, 1.52983 11.8292, 1.17487 11.6133, 0.866946 11.3144, 0.559427 11.0159, 0.338193 10.6666, 0.203244 10.2675, 0.0682952 9.86838, 0.000820816 9.46149, 0.000820816 9.04683, 0.000820816 8.60682, 0.0682952 8.18275, 0.203244 7.77463, 0.338193 7.36692, 0.5582 6.99929, 0.863675 6.67173, 1.16015 6.36258, 1.51266 6.13562, 1.92159 5.99167, 2.33053 5.84773, 2.74846 5.77576, 3.17498 5.77535, 3.60191 5.77576, 4.01902 5.84896, 4.4255 5.99495, 4.83198 6.14134, 5.18571 6.36667, 5.48669 6.67173, 5.79666 6.99929, 6.0179 7.3657, 6.15039 7.77136, 6.28289 8.17702, 6.34914 8.60232, 6.34914 9.04683 Z M 4.34781 8.3729 C 4.34781 8.1987, 4.34126 8.02776, 4.32777 7.85969, 4.31427 7.69203, 4.29505 7.54031, 4.27052 7.40495, 4.24598 7.27001, 4.21327 7.15837, 4.17237 7.07085, 4.07832 6.88806, 3.9401 6.74657, 3.75812 6.64597, 3.57614 6.54578, 3.3819 6.49548, 3.17498 6.49507, 2.96847 6.49548, 2.77422 6.54578, 2.59225 6.64597, 2.41027 6.74657, 2.27205 6.88806, 2.17758 7.07085, 2.13751 7.15837, 2.10479 7.27001, 2.08026 7.40495, 2.05572 7.54031, 2.03527 7.69203, 2.01933 7.85969, 2.00379 8.02776, 1.99561 8.1987, 1.99561 8.3729 L 1.99561 9.40669 C 1.99561 9.59031, 2.00379 9.77269, 2.01933 9.95344, 2.03527 10.1346, 2.05572 10.2969, 2.08026 10.4409, 2.10479 10.5848, 2.13751 10.7006, 2.17758 10.7873, 2.27205 10.9709, 2.40782 11.1148, 2.58529 11.2195, 2.76277 11.3242, 2.95947 11.3765, 3.17498 11.3761, 3.3909 11.3765, 3.58719 11.3242, 3.76466 11.2195, 3.94214 11.1148, 4.07832 10.9709, 4.17237 10.7873, 4.21327 10.7006, 4.24598 10.5848, 4.27052 10.4409, 4.29505 10.2969, 4.31427 10.1346, 4.32777 9.95344, 4.34126 9.77269, 4.34781 9.59031, 4.34781 9.40669 Z" stroke="none" fill="#000000" />
			<rect />
		</svg>
	</g>
	<g transform="matrix(1 0 -0 1 293.155 114.064)">
		<svg width="29.9581337" height="35.9036179">
			<defs />
			<path d="M 8.42244 5.38277 C 8.42244 5.75817, 8.3427 6.11722, 8.18321 6.4595, 8.02373 6.80218, 7.7935 7.09089, 7.49211 7.32603, 7.14615 7.59266, 6.76216 7.78036, 6.33973 7.88913, 5.91771 7.99832, 5.49078 8.05271, 5.05936 8.0523 L 3.49599 8.0523, 3.49599 11.2191, 4.78987 11.2191, 4.78987 12.0893 C 3.94542 12.059, 3.14799 12.0435, 2.39719 12.0435, 1.6337 12.0435, 0.834234 12.059, -0.00163051 12.0893 L -0.00163051 11.2191, 1.29224 11.2191, 1.29224 3.51802, -0.00163051 3.51802, -0.00163051 2.65435, 5.05936 2.65435 C 5.49078 2.65476, 5.91771 2.71037, 6.33973 2.82161, 6.76216 2.93284, 7.14615 3.12381, 7.49211 3.39371, 7.80699 3.63825, 8.04049 3.93309, 8.19344 4.27742, 8.34638 4.62215, 8.42244 4.9906, 8.42244 5.38277 Z M 6.07024 5.38277 C 6.07024 5.25232, 6.0682 5.11614, 6.0637 4.97424, 6.0592 4.83275, 6.05021 4.69535, 6.03671 4.56204, 6.02322 4.42913, 6.00195 4.31013, 5.97251 4.20544, 5.94347 4.10076, 5.90176 4.0202, 5.84778 3.96294, 5.69975 3.78465, 5.5055 3.66565, 5.26505 3.60676, 5.0246 3.54787, 4.77637 3.51843, 4.52038 3.51802 L 3.42852 3.51802, 3.42852 7.25406, 4.52038 7.25406 C 4.77637 7.25447, 5.0246 7.22502, 5.26505 7.16614, 5.5055 7.10725, 5.69975 6.98416, 5.84778 6.79605, 5.90176 6.73962, 5.94347 6.65906, 5.97251 6.55437, 6.00195 6.44968, 6.02322 6.33314, 6.03671 6.20432, 6.05021 6.07591, 6.0592 5.94056, 6.0637 5.79866, 6.0682 5.65716, 6.07024 5.51854, 6.07024 5.38277 Z" stroke="none" fill="#000000" />
			<rect />
		</svg>
	</g>
	<path d="M 0 0 L 349.892 -120.577" fill="none" stroke="#000000" stroke-width="1.39999998" stroke-linecap="round" stroke-linejoin="round" transform="matrix(0.714286 0 0 0.714286 37.4995 208.195)" />
	<path d="M 55.7958 -0 C 55.7958 74.0516, 30.8152 134.082, -0 134.082, -30.8152 134.082, -55.7958 74.0516, -55.7958 -0, -55.7958 -74.0516, -30.8152 -134.082, -0 -134.082, 30.8152 -134.082, 55.7958 -74.0516, 55.7958 -0 Z" stroke="none" fill="#22D84D" fill-opacity="0.392156839" transform="matrix(0.714286 0 0 0.714286 162.461 165.132)" />
	<path d="M 55.7958 -0 C 55.7958 74.0516, 30.8152 134.082, -0 134.082, -30.8152 134.082, -55.7958 74.0516, -55.7958 -0, -55.7958 -74.0516, -30.8152 -134.082, -0 -134.082, 30.8152 -134.082, 55.7958 -74.0516, 55.7958 -0 Z" fill="none" stroke="#000000" stroke-width="1.39999998" stroke-linecap="round" stroke-linejoin="round" transform="matrix(0.714286 0 0 0.714286 162.461 165.132)" />
	<g transform="matrix(1 0 -0 1 165.563 82.4303)">
		<svg width="48.041851" height="41.9471397">
			<defs />
			<path d="M 9.6607 12.0893 C 8.9197 12.059, 8.20734 12.0435, 7.52442 12.0435 L 7.51092 12.0435 C 6.75603 12.0435, 5.9631 12.059, 5.13174 12.0893 L 5.13174 11.2191, 6.22359 11.2191, 5.64413 9.64224, 2.79999 9.64224, 2.24056 11.1798, 2.24056 11.1733 C 2.24056 11.1344, 2.23606 11.1128, 2.22707 11.1079, 2.30395 11.1299, 2.37796 11.1496, 2.44953 11.1668, 2.57098 11.1847, 2.69448 11.1978, 2.82043 11.2064, 2.94638 11.2154, 3.11037 11.2195, 3.31238 11.2191 L 3.31238 12.0893 C 2.74192 12.059, 2.21398 12.0435, 1.72857 12.0435 L 1.52615 12.0435 C 1.06365 12.0435, 0.553702 12.059, -0.00326777 12.0893 L -0.00326777 11.2191, 0.555747 11.2191 C 0.695194 11.2195, 0.841184 11.2064, 0.994126 11.1798, 1.0526 11.1717, 1.10658 11.1606, 1.15566 11.1475, 1.20514 11.1344, 1.22967 11.1259, 1.22967 11.121 L 4.23535 2.7983 C 4.27134 2.7071, 4.33227 2.63104, 4.41773 2.5697, 4.5032 2.50877, 4.60216 2.4781, 4.71421 2.47769 L 4.96325 2.47769 C 5.06222 2.4781, 5.15464 2.50877, 5.23969 2.5697, 5.32516 2.63104, 5.38568 2.7071, 5.42167 2.7983 L 8.46783 11.2191, 9.6607 11.2191, 9.6607 12.0893 Z M 4.22881 5.70337 L 3.11691 8.77857, 5.3407 8.77857 Z" stroke="none" fill="#000000" />
			<path d="M 2.062 0.62018 C 2.062 0.85239, 2.02445 1.08025, 1.94888 1.30376, 1.87353 1.52726, 1.74964 1.72283, 1.5772 1.89001, 1.40499 2.05741, 1.20622 2.17832, 0.981106 2.25275, 0.755995 2.32717, 0.524014 2.36427, 0.284934 2.36427, 0.0458542 2.36427, -0.186127 2.32717, -0.411238 2.25275, -0.636348 2.17832, -0.835124 2.05741, -1.00733 1.89001, -1.17955 1.72283, -1.30344 1.52726, -1.37901 1.30376, -1.45458 1.08025, -1.49237 0.85239, -1.49237 0.62018, -1.49237 0.373772, -1.45458 0.136294, -1.37901 -0.0922515, -1.30344 -0.320568, -1.18023 -0.526443, -1.0094 -0.709875, -0.843139 -0.883002, -0.645738 -1.0101, -0.416963 -1.09071, -0.187959 -1.17132, 0.0458542 -1.21162, 0.284934 -1.21185, 0.524014 -1.21162, 0.75714 -1.17063, 0.98477 -1.08888, 1.2124 -1.00689, 1.41049 -0.880712, 1.57904 -0.709875, 1.75262 -0.526443, 1.87651 -0.321255, 1.95071 -0.0940835, 2.02491 0.133088, 2.062 0.371253, 2.062 0.62018 Z M 0.941488 0.242781 C 0.941488 0.145226, 0.937824 0.0495019, 0.930267 -0.0446186, 0.92271 -0.13851, 0.911947 -0.223471, 0.897978 -0.299271, 0.884237 -0.374842, 0.865917 -0.43736, 0.843246 -0.486367, 0.790575 -0.588732, 0.713171 -0.667967, 0.611265 -0.724302, 0.509587 -0.780408, 0.40081 -0.808576, 0.284934 -0.808805, 0.169287 -0.808576, 0.0605104 -0.780408, -0.0413964 -0.724302, -0.143303 -0.667967, -0.220706 -0.588732, -0.273606 -0.486367, -0.296049 -0.43736, -0.314369 -0.374842, -0.328109 -0.299271, -0.341849 -0.223471, -0.3533 -0.13851, -0.362231 -0.0446186, -0.370933 0.0495019, -0.375513 0.145226, -0.375513 0.242781 L -0.375513 0.821703 C -0.375513 0.924526, -0.370933 1.02666, -0.362231 1.12788, -0.3533 1.22933, -0.341849 1.32024, -0.328109 1.40085, -0.314369 1.48146, -0.296049 1.54627, -0.273606 1.59482, -0.220706 1.69764, -0.144677 1.77825, -0.0452894 1.83688, 0.0540982 1.8955, 0.164249 1.92481, 0.284934 1.92459, 0.405848 1.92481, 0.51577 1.8955, 0.615158 1.83688, 0.714545 1.77825, 0.790575 1.69764, 0.843246 1.59482, 0.865917 1.54627, 0.884237 1.48146, 0.897978 1.40085, 0.911947 1.32024, 0.92271 1.22933, 0.930267 1.12788, 0.937824 1.02666, 0.941488 0.924526, 0.941488 0.821703 Z" stroke="none" fill="#000000" transform="matrix(1.12 0 0 1 12.5225 11.6474)" />
			<rect />
		</svg>
	</g>
	<g transform="matrix(1 0 -0 1 176.153 173.201)">
		<svg width="48.041851" height="41.9471397">
			<defs />
			<path d="M 9.66151 12.0893 C 8.92052 12.059, 8.20857 12.0435, 7.52564 12.0435 L 7.51215 12.0435 C 6.75766 12.0435, 5.96474 12.059, 5.13378 12.0893 L 5.13378 11.2191, 6.22523 11.2191, 5.64577 9.64224, 2.80244 9.64224, 2.24302 11.1798, 2.24302 11.1733 C 2.24302 11.1344, 2.23852 11.1128, 2.22952 11.1079, 2.30599 11.1299, 2.38001 11.1496, 2.45198 11.1668, 2.57344 11.1847, 2.69693 11.1978, 2.82248 11.2064, 2.94843 11.2154, 3.11241 11.2195, 3.31443 11.2191 L 3.31443 12.0893 C 2.74396 12.059, 2.21603 12.0435, 1.73103 12.0435 L 1.52901 12.0435 C 1.0661 12.0435, 0.556156 12.059, -0.000813752 12.0893 L -0.000813752 11.2191, 0.55861 11.2191 C 0.698057 11.2195, 0.844047 11.2064, 0.99658 11.1798, 1.05506 11.1717, 1.10904 11.1606, 1.15852 11.1475, 1.208 11.1344, 1.23254 11.1259, 1.23254 11.121 L 4.23739 2.7983 C 4.27338 2.7071, 4.33431 2.63104, 4.41937 2.5697, 4.50484 2.50877, 4.6038 2.4781, 4.71585 2.47769 L 4.9653 2.47769 C 5.06426 2.4781, 5.15627 2.50877, 5.24133 2.5697, 5.3268 2.63104, 5.38732 2.7071, 5.42331 2.7983 L 8.46865 11.2191, 9.66151 11.2191, 9.66151 12.0893 Z M 4.23085 5.70337 L 3.11896 8.77857, 5.34234 8.77857 Z" stroke="none" fill="#000000" />
			<path d="M 1.92474 1.43727 C 1.87436 1.5939, 1.80153 1.72879, 1.70581 1.84237, 1.61032 1.95596, 1.49902 2.0526, 1.37192 2.13183, 1.24506 2.2113, 1.10605 2.26969, 0.955136 2.30748, 0.804223 2.34549, 0.65079 2.36427, 0.494609 2.36427, 0.25072 2.36427, 0.0111822 2.32603, -0.224005 2.24908, -0.459192 2.17214, -0.671249 2.04458, -0.859949 1.86596, -1.03857 1.69283, -1.1675 1.492, -1.24674 1.26345, -1.32597 1.03513, -1.36559 0.802467, -1.36559 0.565219, -1.36559 0.333467, -1.32895 0.106295, -1.25613 -0.116068, -1.18307 -0.338202, -1.06101 -0.53858, -0.890177 -0.717203, -0.716592 -0.892849, -0.518504 -1.01926, -0.295912 -1.0962, -0.0733203 -1.17315, 0.154997 -1.21162, 0.389039 -1.21185, 0.59789 -1.21162, 0.805368 -1.1791, 1.0117 -1.11452, 1.21803 -1.04972, 1.39666 -0.934299, 1.54734 -0.7685, 1.70856 -0.582549, 1.81298 -0.381025, 1.86062 -0.163701, 1.90848 0.053853, 1.9323 0.269804, 1.9323 0.484609, 1.9323 0.540944, 1.91214 0.588806, 1.87184 0.627737, 1.83153 0.666897, 1.78253 0.686362, 1.72482 0.686133 L -0.248737 0.686133 C -0.243699 0.835443, -0.232936 0.994143, -0.216677 1.16269, -0.200188 1.33124, -0.151869 1.47528, -0.0712593 1.59482, -0.00324512 1.70016, 0.0853794 1.78146, 0.194843 1.83871, 0.304307 1.89619, 0.420412 1.92481, 0.543616 1.92459, 0.752468 1.92481, 0.940709 1.87054, 1.10788 1.76176, 1.27505 1.65322, 1.38772 1.50826, 1.44543 1.32734, 1.46833 1.2275, 1.5336 1.17987, 1.64169 1.18445 L 1.77383 1.18445 C 1.87962 1.22132, 1.9323 1.28979, 1.9323 1.38963 Z M 1.06071 0.30507 C 1.06071 0.175912, 1.0488 0.0355327, 1.02498 -0.116068, 1.00117 -0.267439, 0.950098 -0.406674, 0.872008 -0.534, 0.819337 -0.61919, 0.750636 -0.686288, 0.666362 -0.735294, 0.582089 -0.784072, 0.4898 -0.808576, 0.389039 -0.808805, 0.291025 -0.808576, 0.19782 -0.779721, 0.109883 -0.72247, 0.0219454 -0.66499, -0.0485879 -0.586213, -0.101488 -0.486367, -0.159197 -0.378735, -0.196982 -0.250951, -0.214616 -0.103244, -0.232249 0.044693, -0.24118 0.180721, -0.24118 0.30507 L 1.06071 0.30507 Z" stroke="none" fill="#000000" transform="matrix(1.12 0 0 1 12.3919 11.6474)" />
			<rect />
		</svg>
	</g>
	<path d="M 0 67.0411 L 0 -67.0411" fill="none" stroke="#000000" stroke-width="1.39999998" stroke-linecap="round" stroke-linejoin="round" marker-end="url(#CustomMarker-03)" transform="matrix(0.714286 0 0 0.714286 162.461 117.246)" />
	<path d="M -27.8978 0 L 27.8979 0" fill="none" stroke="#000000" stroke-width="1.39999998" stroke-linecap="round" stroke-linejoin="round" marker-end="url(#CustomMarker-04)" transform="matrix(0.714286 0 0 0.714286 182.388 165.132)" />
</svg>
