<?xml version="1.0"?>
<svg xmlns="http://www.w3.org/2000/svg" xmlns:xlink="http://www.w3.org/1999/xlink" width="311.25" height="257.916656">
	<defs>
		<marker id="CustomMarker-01" markerUnits="strokeWidth" markerWidth="15.000001" markerHeight="9" viewBox="-15 -4.5 15 9" orient="auto-start-reverse">
			<path d="M 0 -0 L -10 -3, -8 -0.5, -8 0.5, -10 3 Z" fill="#000000" stroke="#000000" stroke-linejoin="round" />
		</marker>
		<marker id="CustomMarker-02" markerUnits="strokeWidth" markerWidth="15.000001" markerHeight="9" viewBox="-15 -4.5 15 9" orient="auto-start-reverse">
			<path d="M 0 -0 L -10 -3, -8 -0.5, -8 0.5, -10 3 Z" fill="#000000" stroke="#000000" stroke-linejoin="round" />
		</marker>
		<marker id="CustomMarker-03" markerUnits="strokeWidth" markerWidth="15.000001" markerHeight="9" viewBox="-15 -4.5 15 9" orient="auto-start-reverse">
			<path d="M 0 -0 L -10 -3, -8 -0.5, -8 0.5, -10 3 Z" fill="#000000" stroke="#000000" stroke-linejoin="round" />
		</marker>
		<marker id="CustomMarker-04" markerUnits="strokeWidth" markerWidth="15.000001" markerHeight="9" viewBox="-15 -4.5 15 9" orient="auto-start-reverse">
			<path d="M 0 -0 L -10 -3, -8 -0.5, -8 0.5, -10 3 Z" fill="#000000" stroke="#000000" stroke-linejoin="round" />
		</marker>
		<marker id="CustomMarker-05" markerUnits="strokeWidth" markerWidth="15.000001" markerHeight="6" viewBox="-15 -3 15 6" orient="auto-start-reverse">
			<path d="M 0 -0 L -10 -2, -10 -0.5, -10 0.5, -10 2 Z" fill="#000000" stroke="#000000" stroke-linejoin="round" />
		</marker>
		<marker id="CustomMarker-06" markerUnits="strokeWidth" markerWidth="15.000001" markerHeight="6" viewBox="-15 -3 15 6" orient="auto-start-reverse">
			<path d="M 0 -0 L -10 -2, -10 -0.5, -10 0.5, -10 2 Z" fill="#000000" stroke="#000000" stroke-linejoin="round" />
		</marker>
		<marker id="CustomMarker-07" markerUnits="strokeWidth" markerWidth="15.000001" markerHeight="6" viewBox="-15 -3 15 6" orient="auto-start-reverse">
			<path d="M 0 -0 L -10 -2, -10 -0.5, -10 0.5, -10 2 Z" fill="#000000" stroke="#000000" stroke-linejoin="round" />
		</marker>
		<marker id="CustomMarker-08" markerUnits="strokeWidth" markerWidth="15.000001" markerHeight="6" viewBox="-15 -3 15 6" orient="auto-start-reverse">
			<path d="M 0 -0 L -10 -2, -10 -0.5, -10 0.5, -10 2 Z" fill="#000000" stroke="#000000" stroke-linejoin="round" />
		</marker>
		<marker id="CustomMarker-09" markerUnits="strokeWidth" markerWidth="15.000001" markerHeight="6" viewBox="-15 -3 15 6" orient="auto-start-reverse">
			<path d="M 0 -0 L -10 -2, -10 -0.5, -10 0.5, -10 2 Z" fill="#000000" stroke="#000000" stroke-linejoin="round" />
		</marker>
		<marker id="CustomMarker-10" markerUnits="strokeWidth" markerWidth="15.000001" markerHeight="6" viewBox="-15 -3 15 6" orient="auto-start-reverse">
			<path d="M 0 -0 L -10 -2, -10 -0.5, -10 0.5, -10 2 Z" fill="#000000" stroke="#000000" stroke-linejoin="round" />
		</marker>
	</defs>
	<rect x="-95.6500244" y="-198.375092" width="191.300049" height="396.750183" stroke="none" fill="#60D55B" fill-opacity="0.392156839" transform="matrix(0.416667 0 0 0.416667 200.395 129.417)" />
	<path d="M -95.65 -198.375 L 95.65 -198.375, 95.65 198.375, -95.65 198.375 Z" fill="none" stroke="#000000" stroke-width="2.4000001" stroke-linecap="round" stroke-linejoin="round" transform="matrix(0.416667 0 0 0.416667 200.395 129.417)" />
	<path d="M 0 0 L 625.15 -6.10352e-005" fill="none" stroke="#000000" stroke-width="2.4000001" stroke-linecap="round" stroke-linejoin="round" transform="matrix(0.416667 0 0 0.416667 16.0378 164.73)" />
	<path d="M -19.9216 88.2332 L 19.9216 -88.2333" fill="none" stroke="#000000" stroke-width="2.4000001" stroke-linecap="round" stroke-linejoin="round" marker-end="url(#CustomMarker-01)" transform="matrix(0.416667 0 0 0.416667 152.24 201.494)" />
	<path d="M -95.6503 105.13 L 95.65 -105.13" fill="none" stroke="#000000" stroke-width="2.4000001" stroke-linecap="round" stroke-linejoin="round" marker-end="url(#CustomMarker-02)" transform="matrix(0.416667 0 0 0.416667 200.395 120.926)" />
	<path d="M -95.6503 141.562 L 95.65 -141.563" fill="none" stroke="#000000" stroke-width="2.4000001" stroke-linecap="round" stroke-linejoin="round" marker-end="url(#CustomMarker-03)" transform="matrix(0.416667 0 0 0.416667 200.395 105.746)" />
	<ellipse cx="870.87269306182861" cy="337.72736835479736" rx="6.3000001907348633" ry="6.3000001907348633" stroke="none" fill="#000000" transform="matrix(0.416667 0 0 0.416667 -151.667 -31.6667)" />
	<ellipse cx="891.03895282745361" cy="315.56226825714111" rx="6.3000001907348633" ry="6.3000001907348633" stroke="none" fill="#000000" transform="matrix(0.416667 0 0 0.416667 -151.667 -31.6667)" />
	<path d="M -10.5544 -7.13132 L 10.5547 7.13141" fill="none" stroke="#000000" stroke-width="2.4000001" stroke-linecap="round" stroke-linejoin="round" transform="matrix(0.416667 0 0 0.416667 211.197 89.7587)" />
	<path d="M -10.5542 -7.13138 L 10.5546 7.13132" fill="none" stroke="#000000" stroke-width="2.4000001" stroke-linecap="round" stroke-linejoin="round" transform="matrix(0.416667 0 0 0.416667 216.553 81.0985)" />
	<path d="M 0 171.403 L 0 -171.403" fill="none" stroke="#000000" stroke-width="2.4000001" stroke-linecap="round" stroke-linejoin="round" marker-end="url(#CustomMarker-04)" transform="matrix(0.416667 0 0 0.416667 240.249 93.3119)" />
	<g transform="matrix(1 0 -0 1 236.728 5.59316)">
		<svg width="26.9441814" height="27.0062141">
			<defs />
			<path d="M 7.04248 12.0893 C 6.47202 12.059, 5.95308 12.0435, 5.48567 12.0435 L 5.47258 12.0435 C 4.9197 12.0435, 4.32879 12.059, 3.69985 12.0893 L 3.69985 11.2191, 4.21224 11.2191, 3.27537 9.89087, 2.25794 11.2387 C 2.26694 11.226, 2.27143 11.2085, 2.27143 11.1864, 2.27143 11.143, 2.26244 11.1193, 2.24444 11.1144, 2.28943 11.1365, 2.3295 11.1561, 2.36549 11.1733, 2.48694 11.2044, 2.67137 11.2195, 2.91837 11.2191 L 2.91837 12.0893 C 2.39248 12.059, 1.90503 12.0435, 1.45561 12.0435 L 1.33456 12.0435 C 0.94362 12.0435, 0.499107 12.059, 0.000205658 12.0893 L 0.000205658 11.2191 C 0.22921 11.2195, 0.413639 11.2175, 0.552678 11.213, 0.692125 11.2089, 0.831572 11.1978, 0.97061 11.1798, 1.03808 11.1627, 1.09983 11.1488, 1.15586 11.1377, 1.21229 11.1271, 1.24909 11.1103, 1.26709 11.0882 L 2.72944 9.13843, 1.05812 6.76334, 0.06768 6.76334, 0.06768 5.89312 C 0.391148 5.90662, 0.669633 5.91561, 0.903135 5.9197, 1.13705 5.9242, 1.373 5.92624, 1.611 5.92584 L 2.19046 5.92584 C 2.37449 5.92624, 2.55523 5.9242, 2.73271 5.9197, 2.91019 5.91561, 3.13388 5.90662, 3.40337 5.89312 L 3.40337 6.76334, 2.89138 6.76334, 3.67981 7.87564, 4.54225 6.73062 C 4.53326 6.74412, 4.52876 6.75925, 4.52876 6.77642, 4.52876 6.81159, 4.54021 6.83572, 4.5627 6.84839, 4.52221 6.84022, 4.47723 6.82713, 4.42775 6.80914, 4.30671 6.77887, 4.12677 6.76374, 3.88877 6.76334 L 3.88877 5.89312 C 4.19425 5.90662, 4.45719 5.91561, 4.6772 5.9197, 4.89721 5.9242, 5.11762 5.92624, 5.33763 5.92584 L 5.45909 5.92584 C 5.6611 5.92624, 5.86107 5.9242, 6.05859 5.9197, 6.25651 5.91561, 6.50351 5.90662, 6.79999 5.89312 L 6.79999 6.76334 C 6.57098 6.76374, 6.38573 6.7662, 6.24424 6.77029, 6.10275 6.77479, 5.96208 6.78542, 5.82263 6.80259, 5.76456 6.81159, 5.70731 6.82059, 5.65088 6.82917, 5.59485 6.83817, 5.56009 6.8533, 5.5466 6.87457 L 4.21878 8.62808, 6.03855 11.2191, 7.04248 11.2191, 7.04248 12.0893 Z" stroke="none" fill="#000000" />
			<rect />
		</svg>
	</g>
	<g transform="matrix(1 0 -0 1 242.324 37.8245)">
		<svg width="42.0139465" height="33.049736">
			<defs />
			<path d="M 7.04248 12.0893 C 6.47202 12.059, 5.95308 12.0435, 5.48567 12.0435 L 5.47258 12.0435 C 4.9197 12.0435, 4.32879 12.059, 3.69985 12.0893 L 3.69985 11.2191, 4.21224 11.2191, 3.27537 9.89087, 2.25794 11.2387 C 2.26694 11.226, 2.27143 11.2085, 2.27143 11.1864, 2.27143 11.143, 2.26244 11.1193, 2.24444 11.1144, 2.28943 11.1365, 2.3295 11.1561, 2.36549 11.1733, 2.48694 11.2044, 2.67137 11.2195, 2.91837 11.2191 L 2.91837 12.0893 C 2.39248 12.059, 1.90503 12.0435, 1.45561 12.0435 L 1.33456 12.0435 C 0.94362 12.0435, 0.499107 12.059, 0.000205658 12.0893 L 0.000205658 11.2191 C 0.22921 11.2195, 0.413639 11.2175, 0.552678 11.213, 0.692125 11.2089, 0.831572 11.1978, 0.97061 11.1798, 1.03808 11.1627, 1.09983 11.1488, 1.15586 11.1377, 1.21229 11.1271, 1.24909 11.1103, 1.26709 11.0882 L 2.72944 9.13843, 1.05812 6.76334, 0.06768 6.76334, 0.06768 5.89312 C 0.391148 5.90662, 0.669633 5.91561, 0.903135 5.9197, 1.13705 5.9242, 1.373 5.92624, 1.611 5.92584 L 2.19046 5.92584 C 2.37449 5.92624, 2.55523 5.9242, 2.73271 5.9197, 2.91019 5.91561, 3.13388 5.90662, 3.40337 5.89312 L 3.40337 6.76334, 2.89138 6.76334, 3.67981 7.87564, 4.54225 6.73062 C 4.53326 6.74412, 4.52876 6.75925, 4.52876 6.77642, 4.52876 6.81159, 4.54021 6.83572, 4.5627 6.84839, 4.52221 6.84022, 4.47723 6.82713, 4.42775 6.80914, 4.30671 6.77887, 4.12677 6.76374, 3.88877 6.76334 L 3.88877 5.89312 C 4.19425 5.90662, 4.45719 5.91561, 4.6772 5.9197, 4.89721 5.9242, 5.11762 5.92624, 5.33763 5.92584 L 5.45909 5.92584 C 5.6611 5.92624, 5.86107 5.9242, 6.05859 5.9197, 6.25651 5.91561, 6.50351 5.90662, 6.79999 5.89312 L 6.79999 6.76334 C 6.57098 6.76374, 6.38573 6.7662, 6.24424 6.77029, 6.10275 6.77479, 5.96208 6.78542, 5.82263 6.80259, 5.76456 6.81159, 5.70731 6.82059, 5.65088 6.82917, 5.59485 6.83817, 5.56009 6.8533, 5.5466 6.87457 L 4.21878 8.62808, 6.03855 11.2191, 7.04248 11.2191, 7.04248 12.0893 Z" stroke="none" fill="#000000" />
			<path d="M 2.062 0.62018 C 2.062 0.85239, 2.02445 1.08025, 1.94888 1.30376, 1.87353 1.52726, 1.74964 1.72283, 1.5772 1.89001, 1.40499 2.05741, 1.20622 2.17832, 0.981106 2.25275, 0.755995 2.32717, 0.524014 2.36427, 0.284934 2.36427, 0.0458542 2.36427, -0.186127 2.32717, -0.411238 2.25275, -0.636348 2.17832, -0.835124 2.05741, -1.00733 1.89001, -1.17955 1.72283, -1.30344 1.52726, -1.37901 1.30376, -1.45458 1.08025, -1.49237 0.85239, -1.49237 0.62018, -1.49237 0.373772, -1.45458 0.136294, -1.37901 -0.0922515, -1.30344 -0.320568, -1.18023 -0.526443, -1.0094 -0.709875, -0.843139 -0.883002, -0.645738 -1.0101, -0.416963 -1.09071, -0.187959 -1.17132, 0.0458542 -1.21162, 0.284934 -1.21185, 0.524014 -1.21162, 0.75714 -1.17063, 0.98477 -1.08888, 1.2124 -1.00689, 1.41049 -0.880712, 1.57904 -0.709875, 1.75262 -0.526443, 1.87651 -0.321255, 1.95071 -0.0940835, 2.02491 0.133088, 2.062 0.371253, 2.062 0.62018 Z M 0.941488 0.242781 C 0.941488 0.145226, 0.937824 0.0495019, 0.930267 -0.0446186, 0.92271 -0.13851, 0.911947 -0.223471, 0.897978 -0.299271, 0.884237 -0.374842, 0.865917 -0.43736, 0.843246 -0.486367, 0.790575 -0.588732, 0.713171 -0.667967, 0.611265 -0.724302, 0.509587 -0.780408, 0.40081 -0.808576, 0.284934 -0.808805, 0.169287 -0.808576, 0.0605104 -0.780408, -0.0413964 -0.724302, -0.143303 -0.667967, -0.220706 -0.588732, -0.273606 -0.486367, -0.296049 -0.43736, -0.314369 -0.374842, -0.328109 -0.299271, -0.341849 -0.223471, -0.3533 -0.13851, -0.362231 -0.0446186, -0.370933 0.0495019, -0.375513 0.145226, -0.375513 0.242781 L -0.375513 0.821703 C -0.375513 0.924526, -0.370933 1.02666, -0.362231 1.12788, -0.3533 1.22933, -0.341849 1.32024, -0.328109 1.40085, -0.314369 1.48146, -0.296049 1.54627, -0.273606 1.59482, -0.220706 1.69764, -0.144677 1.77825, -0.0452894 1.83688, 0.0540982 1.8955, 0.164249 1.92481, 0.284934 1.92459, 0.405848 1.92481, 0.51577 1.8955, 0.615158 1.83688, 0.714545 1.77825, 0.790575 1.69764, 0.843246 1.59482, 0.865917 1.54627, 0.884237 1.48146, 0.897978 1.40085, 0.911947 1.32024, 0.92271 1.22933, 0.930267 1.12788, 0.937824 1.02666, 0.941488 0.924526, 0.941488 0.821703 Z" stroke="none" fill="#000000" transform="matrix(1.12 0 0 1 9.90086 11.6474)" />
			<rect />
		</svg>
	</g>
	<g transform="matrix(1 0 -0 1 242.467 69.0745)">
		<svg width="38.9999924" height="33.049736">
			<defs />
			<path d="M 7.04248 12.0893 C 6.47202 12.059, 5.95308 12.0435, 5.48567 12.0435 L 5.47258 12.0435 C 4.9197 12.0435, 4.32879 12.059, 3.69985 12.0893 L 3.69985 11.2191, 4.21224 11.2191, 3.27537 9.89087, 2.25794 11.2387 C 2.26694 11.226, 2.27143 11.2085, 2.27143 11.1864, 2.27143 11.143, 2.26244 11.1193, 2.24444 11.1144, 2.28943 11.1365, 2.3295 11.1561, 2.36549 11.1733, 2.48694 11.2044, 2.67137 11.2195, 2.91837 11.2191 L 2.91837 12.0893 C 2.39248 12.059, 1.90503 12.0435, 1.45561 12.0435 L 1.33456 12.0435 C 0.94362 12.0435, 0.499107 12.059, 0.000205658 12.0893 L 0.000205658 11.2191 C 0.22921 11.2195, 0.413639 11.2175, 0.552678 11.213, 0.692125 11.2089, 0.831572 11.1978, 0.97061 11.1798, 1.03808 11.1627, 1.09983 11.1488, 1.15586 11.1377, 1.21229 11.1271, 1.24909 11.1103, 1.26709 11.0882 L 2.72944 9.13843, 1.05812 6.76334, 0.06768 6.76334, 0.06768 5.89312 C 0.391148 5.90662, 0.669633 5.91561, 0.903135 5.9197, 1.13705 5.9242, 1.373 5.92624, 1.611 5.92584 L 2.19046 5.92584 C 2.37449 5.92624, 2.55523 5.9242, 2.73271 5.9197, 2.91019 5.91561, 3.13388 5.90662, 3.40337 5.89312 L 3.40337 6.76334, 2.89138 6.76334, 3.67981 7.87564, 4.54225 6.73062 C 4.53326 6.74412, 4.52876 6.75925, 4.52876 6.77642, 4.52876 6.81159, 4.54021 6.83572, 4.5627 6.84839, 4.52221 6.84022, 4.47723 6.82713, 4.42775 6.80914, 4.30671 6.77887, 4.12677 6.76374, 3.88877 6.76334 L 3.88877 5.89312 C 4.19425 5.90662, 4.45719 5.91561, 4.6772 5.9197, 4.89721 5.9242, 5.11762 5.92624, 5.33763 5.92584 L 5.45909 5.92584 C 5.6611 5.92624, 5.86107 5.9242, 6.05859 5.9197, 6.25651 5.91561, 6.50351 5.90662, 6.79999 5.89312 L 6.79999 6.76334 C 6.57098 6.76374, 6.38573 6.7662, 6.24424 6.77029, 6.10275 6.77479, 5.96208 6.78542, 5.82263 6.80259, 5.76456 6.81159, 5.70731 6.82059, 5.65088 6.82917, 5.59485 6.83817, 5.56009 6.8533, 5.5466 6.87457 L 4.21878 8.62808, 6.03855 11.2191, 7.04248 11.2191, 7.04248 12.0893 Z" stroke="none" fill="#000000" />
			<path d="M 1.92474 1.43727 C 1.87436 1.5939, 1.80153 1.72879, 1.70581 1.84237, 1.61032 1.95596, 1.49902 2.0526, 1.37192 2.13183, 1.24506 2.2113, 1.10605 2.26969, 0.955136 2.30748, 0.804223 2.34549, 0.65079 2.36427, 0.494609 2.36427, 0.25072 2.36427, 0.0111822 2.32603, -0.224005 2.24908, -0.459192 2.17214, -0.671249 2.04458, -0.859949 1.86596, -1.03857 1.69283, -1.1675 1.492, -1.24674 1.26345, -1.32597 1.03513, -1.36559 0.802467, -1.36559 0.565219, -1.36559 0.333467, -1.32895 0.106295, -1.25613 -0.116068, -1.18307 -0.338202, -1.06101 -0.53858, -0.890177 -0.717203, -0.716592 -0.892849, -0.518504 -1.01926, -0.295912 -1.0962, -0.0733203 -1.17315, 0.154997 -1.21162, 0.389039 -1.21185, 0.59789 -1.21162, 0.805368 -1.1791, 1.0117 -1.11452, 1.21803 -1.04972, 1.39666 -0.934299, 1.54734 -0.7685, 1.70856 -0.582549, 1.81298 -0.381025, 1.86062 -0.163701, 1.90848 0.053853, 1.9323 0.269804, 1.9323 0.484609, 1.9323 0.540944, 1.91214 0.588806, 1.87184 0.627737, 1.83153 0.666897, 1.78253 0.686362, 1.72482 0.686133 L -0.248737 0.686133 C -0.243699 0.835443, -0.232936 0.994143, -0.216677 1.16269, -0.200188 1.33124, -0.151869 1.47528, -0.0712593 1.59482, -0.00324512 1.70016, 0.0853794 1.78146, 0.194843 1.83871, 0.304307 1.89619, 0.420412 1.92481, 0.543616 1.92459, 0.752468 1.92481, 0.940709 1.87054, 1.10788 1.76176, 1.27505 1.65322, 1.38772 1.50826, 1.44543 1.32734, 1.46833 1.2275, 1.5336 1.17987, 1.64169 1.18445 L 1.77383 1.18445 C 1.87962 1.22132, 1.9323 1.28979, 1.9323 1.38963 Z M 1.06071 0.30507 C 1.06071 0.175912, 1.0488 0.0355327, 1.02498 -0.116068, 1.00117 -0.267439, 0.950098 -0.406674, 0.872008 -0.534, 0.819337 -0.61919, 0.750636 -0.686288, 0.666362 -0.735294, 0.582089 -0.784072, 0.4898 -0.808576, 0.389039 -0.808805, 0.291025 -0.808576, 0.19782 -0.779721, 0.109883 -0.72247, 0.0219454 -0.66499, -0.0485879 -0.586213, -0.101488 -0.486367, -0.159197 -0.378735, -0.196982 -0.250951, -0.214616 -0.103244, -0.232249 0.044693, -0.24118 0.180721, -0.24118 0.30507 L 1.06071 0.30507 Z" stroke="none" fill="#000000" transform="matrix(1.12 0 0 1 9.77188 11.6474)" />
			<rect />
		</svg>
	</g>
	<path d="M -15.0102 71.3138 L -29.0114 66.8605 C -50.765 57.4321, -66.6275 37.8972, -71.391 14.6739 L -72.8763 3.34897e-005" fill="none" stroke="#000000" stroke-width="1.80000007" stroke-linecap="round" stroke-linejoin="round" marker-start="url(#CustomMarker-05)" marker-end="url(#CustomMarker-06)" transform="matrix(0.416667 0 -0 0.416667 160.541 164.73)" />
	<path d="M 0 0 L -19.9217 94.6482" fill="none" stroke="#000000" stroke-width="1.20000005" stroke-linecap="round" stroke-linejoin="round" stroke-dasharray="6.606, 2.994, 0.012, 3.588" transform="matrix(0.416667 0 -0 0.416667 160.541 164.73)" />
	<path d="M 0 0 L -127.636 -3.32919e-005" fill="none" stroke="#000000" stroke-width="1.20000005" stroke-linecap="round" stroke-linejoin="round" stroke-dasharray="6.606, 2.994, 0.012, 3.588" transform="matrix(0.416667 0 -0 0.416667 160.541 164.73)" />
	<g transform="matrix(1 0 -0 1 128.403 182.866)">
		<svg width="15.0558109" height="35.9036179">
			<defs />
			<path d="M 2.81941 3.66851 C 2.81941 3.98748, 2.70163 4.26106, 2.46568 4.49006, 2.22972 4.71907, 1.94756 4.83357, 1.61959 4.83316, 1.28753 4.83357, 1.00537 4.71907, 0.773911 4.49006, 0.542453 4.26106, 0.426725 3.98748, 0.426725 3.66851, 0.426725 3.34627, 0.544907 3.07474, 0.780863 2.85432, 1.01682 2.63431, 1.29653 2.5239, 1.61959 2.52349, 1.94756 2.5239, 2.22972 2.63513, 2.46568 2.85759, 2.70163 3.08005, 2.81941 3.35036, 2.81941 3.66851 Z M 3.54036 12.0893 C 2.91592 12.059, 2.34095 12.0435, 1.81506 12.0435, 1.2446 12.0435, 0.638144 12.059, -0.00470237 12.0893 L -0.00470237 11.2191, 0.952616 11.2191, 0.952616 7.04468 C 0.952616 7.00134, 0.944846 6.96003, 0.928897 6.92078, 0.913358 6.88152, 0.894138 6.85739, 0.871646 6.84839, 0.813578 6.82713, 0.712571 6.81404, 0.568625 6.80955, 0.42468 6.80546, 0.247202 6.803, 0.0357822 6.80259 L 0.0357822 5.93238, 2.68446 5.80806, 2.68446 11.2191, 3.54036 11.2191, 3.54036 12.0893 Z" stroke="none" fill="#000000" />
			<rect />
		</svg>
	</g>
	<path d="M 50.2002 -52.829 L 59.6295 -41.8968 C 65.427 -33.6452, 69.4506 -24.2756, 71.4419 -14.3897 L 72.8763 -0.000130858" fill="none" stroke="#000000" stroke-width="1.80000007" stroke-linecap="round" stroke-linejoin="round" marker-start="url(#CustomMarker-07)" marker-end="url(#CustomMarker-08)" transform="matrix(0.416667 0 -0 0.416667 160.541 164.73)" />
	<path d="M 0 0 L 39.7929 -41.8766" fill="none" stroke="#000000" stroke-width="1.20000005" stroke-linecap="round" stroke-linejoin="round" stroke-dasharray="6.606, 2.994, 0.012, 3.588" transform="matrix(0.416667 0 -0 0.416667 160.541 164.73)" />
	<path d="M 0 0 L 52.9546 -3.32919e-005" fill="none" stroke="#000000" stroke-width="1.20000005" stroke-linecap="round" stroke-linejoin="round" stroke-dasharray="6.606, 2.994, 0.012, 3.588" transform="matrix(0.416667 0 -0 0.416667 160.541 164.73)" />
	<path d="M 64.155 -94.2147 L 76.7332 -85.925 C 100.568 -67.989, 116.066 -42.3392, 120.023 -14.2823 L 121.025 -4.23235e-005" fill="none" stroke="#000000" stroke-width="1.80000007" stroke-linecap="round" stroke-linejoin="round" marker-start="url(#CustomMarker-09)" marker-end="url(#CustomMarker-10)" transform="matrix(0.416667 0 -0 0.416667 161.047 164.486)" />
	<path d="M 0 0 L 105.685 -155.204" fill="none" stroke="#000000" stroke-width="1.20000005" stroke-linecap="round" stroke-linejoin="round" stroke-dasharray="6.606, 2.994, 0.012, 3.588" transform="matrix(0.416667 0 -0 0.416667 161.047 164.486)" />
	<path d="M 0 0 L 254.153 0" fill="none" stroke="#000000" stroke-width="1.20000005" stroke-linecap="round" stroke-linejoin="round" stroke-dasharray="6.606, 2.994, 0.012, 3.588" transform="matrix(0.416667 0 -0 0.416667 161.047 164.486)" />
	<g transform="matrix(1 0 -0 1 207.856 129.643)">
		<svg width="29.9581337" height="41.9471397">
			<defs />
			<path d="M 2.81941 3.66851 C 2.81941 3.98748, 2.70163 4.26106, 2.46568 4.49006, 2.22972 4.71907, 1.94756 4.83357, 1.61959 4.83316, 1.28753 4.83357, 1.00537 4.71907, 0.773911 4.49006, 0.542453 4.26106, 0.426725 3.98748, 0.426725 3.66851, 0.426725 3.34627, 0.544907 3.07474, 0.780863 2.85432, 1.01682 2.63431, 1.29653 2.5239, 1.61959 2.52349, 1.94756 2.5239, 2.22972 2.63513, 2.46568 2.85759, 2.70163 3.08005, 2.81941 3.35036, 2.81941 3.66851 Z M 3.54036 12.0893 C 2.91592 12.059, 2.34095 12.0435, 1.81506 12.0435, 1.2446 12.0435, 0.638144 12.059, -0.00470237 12.0893 L -0.00470237 11.2191, 0.952616 11.2191, 0.952616 7.04468 C 0.952616 7.00134, 0.944846 6.96003, 0.928897 6.92078, 0.913358 6.88152, 0.894138 6.85739, 0.871646 6.84839, 0.813578 6.82713, 0.712571 6.81404, 0.568625 6.80955, 0.42468 6.80546, 0.247202 6.803, 0.0357822 6.80259 L 0.0357822 5.93238, 2.68446 5.80806, 2.68446 11.2191, 3.54036 11.2191, 3.54036 12.0893 Z" stroke="none" fill="#000000" />
			<path d="M 2.062 0.62018 C 2.062 0.85239, 2.02445 1.08025, 1.94888 1.30376, 1.87353 1.52726, 1.74964 1.72283, 1.5772 1.89001, 1.40499 2.05741, 1.20622 2.17832, 0.981106 2.25275, 0.755995 2.32717, 0.524014 2.36427, 0.284934 2.36427, 0.0458542 2.36427, -0.186127 2.32717, -0.411238 2.25275, -0.636348 2.17832, -0.835124 2.05741, -1.00733 1.89001, -1.17955 1.72283, -1.30344 1.52726, -1.37901 1.30376, -1.45458 1.08025, -1.49237 0.85239, -1.49237 0.62018, -1.49237 0.373772, -1.45458 0.136294, -1.37901 -0.0922515, -1.30344 -0.320568, -1.18023 -0.526443, -1.0094 -0.709875, -0.843139 -0.883002, -0.645738 -1.0101, -0.416963 -1.09071, -0.187959 -1.17132, 0.0458542 -1.21162, 0.284934 -1.21185, 0.524014 -1.21162, 0.75714 -1.17063, 0.98477 -1.08888, 1.2124 -1.00689, 1.41049 -0.880712, 1.57904 -0.709875, 1.75262 -0.526443, 1.87651 -0.321255, 1.95071 -0.0940835, 2.02491 0.133088, 2.062 0.371253, 2.062 0.62018 Z M 0.941488 0.242781 C 0.941488 0.145226, 0.937824 0.0495019, 0.930267 -0.0446186, 0.92271 -0.13851, 0.911947 -0.223471, 0.897978 -0.299271, 0.884237 -0.374842, 0.865917 -0.43736, 0.843246 -0.486367, 0.790575 -0.588732, 0.713171 -0.667967, 0.611265 -0.724302, 0.509587 -0.780408, 0.40081 -0.808576, 0.284934 -0.808805, 0.169287 -0.808576, 0.0605104 -0.780408, -0.0413964 -0.724302, -0.143303 -0.667967, -0.220706 -0.588732, -0.273606 -0.486367, -0.296049 -0.43736, -0.314369 -0.374842, -0.328109 -0.299271, -0.341849 -0.223471, -0.3533 -0.13851, -0.362231 -0.0446186, -0.370933 0.0495019, -0.375513 0.145226, -0.375513 0.242781 L -0.375513 0.821703 C -0.375513 0.924526, -0.370933 1.02666, -0.362231 1.12788, -0.3533 1.22933, -0.341849 1.32024, -0.328109 1.40085, -0.314369 1.48146, -0.296049 1.54627, -0.273606 1.59482, -0.220706 1.69764, -0.144677 1.77825, -0.0452894 1.83688, 0.0540982 1.8955, 0.164249 1.92481, 0.284934 1.92459, 0.405848 1.92481, 0.51577 1.8955, 0.615158 1.83688, 0.714545 1.77825, 0.790575 1.69764, 0.843246 1.59482, 0.865917 1.54627, 0.884237 1.48146, 0.897978 1.40085, 0.911947 1.32024, 0.92271 1.22933, 0.930267 1.12788, 0.937824 1.02666, 0.941488 0.924526, 0.941488 0.821703 Z" stroke="none" fill="#000000" transform="matrix(1.12 0 0 1 6.40364 11.6474)" />
			<rect />
		</svg>
	</g>
	<g transform="matrix(1 0 -0 1 191.261 142.143)">
		<svg width="29.9581337" height="41.9471397">
			<defs />
			<path d="M 2.81941 3.66851 C 2.81941 3.98748, 2.70163 4.26106, 2.46568 4.49006, 2.22972 4.71907, 1.94756 4.83357, 1.61959 4.83316, 1.28753 4.83357, 1.00537 4.71907, 0.773911 4.49006, 0.542453 4.26106, 0.426725 3.98748, 0.426725 3.66851, 0.426725 3.34627, 0.544907 3.07474, 0.780863 2.85432, 1.01682 2.63431, 1.29653 2.5239, 1.61959 2.52349, 1.94756 2.5239, 2.22972 2.63513, 2.46568 2.85759, 2.70163 3.08005, 2.81941 3.35036, 2.81941 3.66851 Z M 3.54036 12.0893 C 2.91592 12.059, 2.34095 12.0435, 1.81506 12.0435, 1.2446 12.0435, 0.638144 12.059, -0.00470237 12.0893 L -0.00470237 11.2191, 0.952616 11.2191, 0.952616 7.04468 C 0.952616 7.00134, 0.944846 6.96003, 0.928897 6.92078, 0.913358 6.88152, 0.894138 6.85739, 0.871646 6.84839, 0.813578 6.82713, 0.712571 6.81404, 0.568625 6.80955, 0.42468 6.80546, 0.247202 6.803, 0.0357822 6.80259 L 0.0357822 5.93238, 2.68446 5.80806, 2.68446 11.2191, 3.54036 11.2191, 3.54036 12.0893 Z" stroke="none" fill="#000000" />
			<path d="M 1.92474 1.43727 C 1.87436 1.5939, 1.80153 1.72879, 1.70581 1.84237, 1.61032 1.95596, 1.49902 2.0526, 1.37192 2.13183, 1.24506 2.2113, 1.10605 2.26969, 0.955136 2.30748, 0.804223 2.34549, 0.65079 2.36427, 0.494609 2.36427, 0.25072 2.36427, 0.0111822 2.32603, -0.224005 2.24908, -0.459192 2.17214, -0.671249 2.04458, -0.859949 1.86596, -1.03857 1.69283, -1.1675 1.492, -1.24674 1.26345, -1.32597 1.03513, -1.36559 0.802467, -1.36559 0.565219, -1.36559 0.333467, -1.32895 0.106295, -1.25613 -0.116068, -1.18307 -0.338202, -1.06101 -0.53858, -0.890177 -0.717203, -0.716592 -0.892849, -0.518504 -1.01926, -0.295912 -1.0962, -0.0733203 -1.17315, 0.154997 -1.21162, 0.389039 -1.21185, 0.59789 -1.21162, 0.805368 -1.1791, 1.0117 -1.11452, 1.21803 -1.04972, 1.39666 -0.934299, 1.54734 -0.7685, 1.70856 -0.582549, 1.81298 -0.381025, 1.86062 -0.163701, 1.90848 0.053853, 1.9323 0.269804, 1.9323 0.484609, 1.9323 0.540944, 1.91214 0.588806, 1.87184 0.627737, 1.83153 0.666897, 1.78253 0.686362, 1.72482 0.686133 L -0.248737 0.686133 C -0.243699 0.835443, -0.232936 0.994143, -0.216677 1.16269, -0.200188 1.33124, -0.151869 1.47528, -0.0712593 1.59482, -0.00324512 1.70016, 0.0853794 1.78146, 0.194843 1.83871, 0.304307 1.89619, 0.420412 1.92481, 0.543616 1.92459, 0.752468 1.92481, 0.940709 1.87054, 1.10788 1.76176, 1.27505 1.65322, 1.38772 1.50826, 1.44543 1.32734, 1.46833 1.2275, 1.5336 1.17987, 1.64169 1.18445 L 1.77383 1.18445 C 1.87962 1.22132, 1.9323 1.28979, 1.9323 1.38963 Z M 1.06071 0.30507 C 1.06071 0.175912, 1.0488 0.0355327, 1.02498 -0.116068, 1.00117 -0.267439, 0.950098 -0.406674, 0.872008 -0.534, 0.819337 -0.61919, 0.750636 -0.686288, 0.666362 -0.735294, 0.582089 -0.784072, 0.4898 -0.808576, 0.389039 -0.808805, 0.291025 -0.808576, 0.19782 -0.779721, 0.109883 -0.72247, 0.0219454 -0.66499, -0.0485879 -0.586213, -0.101488 -0.486367, -0.159197 -0.378735, -0.196982 -0.250951, -0.214616 -0.103244, -0.232249 0.044693, -0.24118 0.180721, -0.24118 0.30507 L 1.06071 0.30507 Z" stroke="none" fill="#000000" transform="matrix(1.12 0 0 1 6.27467 11.6474)" />
			<rect />
		</svg>
	</g>
</svg>
