<?xml version="1.0"?>
<svg xmlns="http://www.w3.org/2000/svg" xmlns:xlink="http://www.w3.org/1999/xlink" width="392.338074" height="426.011993">
	<defs>
		<marker id="CustomMarker-01" markerUnits="strokeWidth" markerWidth="15.000001" markerHeight="9" viewBox="-15 -4.5 15 9" orient="auto-start-reverse">
			<path d="M 0 -0 L -10 -3, -8 -0.5, -8 0.5, -10 3 Z" fill="#000000" stroke="#000000" stroke-linejoin="round" />
		</marker>
		<marker id="CustomMarker-02" markerUnits="strokeWidth" markerWidth="15.000001" markerHeight="9" viewBox="-15 -4.5 15 9" orient="auto-start-reverse">
			<path d="M 0 -0 L -10 -3, -8 -0.5, -8 0.5, -10 3 Z" fill="#000000" stroke="#000000" stroke-linejoin="round" />
		</marker>
		<marker id="CustomMarker-03" markerUnits="strokeWidth" markerWidth="15.000001" markerHeight="9" viewBox="-15 -4.5 15 9" orient="auto-start-reverse">
			<path d="M 0 -0 L -10 -3, -8 -0.5, -8 0.5, -10 3 Z" fill="#000000" stroke="#000000" stroke-linejoin="round" />
		</marker>
		<marker id="CustomMarker-04" markerUnits="strokeWidth" markerWidth="15.000001" markerHeight="9" viewBox="-15 -4.5 15 9" orient="auto-start-reverse">
			<path d="M 0 -0 L -10 -3, -8 -0.5, -8 0.5, -10 3 Z" fill="#000000" stroke="#000000" stroke-linejoin="round" />
		</marker>
		<marker id="CustomMarker-05" markerUnits="strokeWidth" markerWidth="15.000001" markerHeight="9" viewBox="-15 -4.5 15 9" orient="auto-start-reverse">
			<path d="M 0 -0 L -10 -3, -8 -0.5, -8 0.5, -10 3 Z" fill="#000000" stroke="#000000" stroke-linejoin="round" />
		</marker>
		<marker id="CustomMarker-06" markerUnits="strokeWidth" markerWidth="15.000001" markerHeight="9" viewBox="-15 -4.5 15 9" orient="auto-start-reverse">
			<path d="M 0 -0 L -10 -3, -8 -0.5, -8 0.5, -10 3 Z" fill="#000000" stroke="#000000" stroke-linejoin="round" />
		</marker>
		<marker id="CustomMarker-07" markerUnits="strokeWidth" markerWidth="15.000001" markerHeight="9" viewBox="-15 -4.5 15 9" orient="auto-start-reverse">
			<path d="M 0 -0 L -10 -3, -8 -0.5, -8 0.5, -10 3 Z" fill="#000000" stroke="#000000" stroke-linejoin="round" />
		</marker>
		<marker id="CustomMarker-08" markerUnits="strokeWidth" markerWidth="15.000001" markerHeight="9" viewBox="-15 -4.5 15 9" orient="auto-start-reverse">
			<path d="M 0 -0 L -10 -3, -8 -0.5, -8 0.5, -10 3 Z" fill="#000000" stroke="#000000" stroke-linejoin="round" />
		</marker>
		<marker id="CustomMarker-09" markerUnits="strokeWidth" markerWidth="15.000001" markerHeight="9" viewBox="-15 -4.5 15 9" orient="auto-start-reverse">
			<path d="M 0 -0 L -10 -3, -8 -0.5, -8 0.5, -10 3 Z" fill="#000000" stroke="#000000" stroke-linejoin="round" />
		</marker>
		<marker id="CustomMarker-10" markerUnits="strokeWidth" markerWidth="15.000001" markerHeight="9" viewBox="-15 -4.5 15 9" orient="auto-start-reverse">
			<path d="M 0 -0 L -10 -3, -8 -0.5, -8 0.5, -10 3 Z" fill="#000000" stroke="#000000" stroke-linejoin="round" />
		</marker>
		<marker id="CustomMarker-11" markerUnits="strokeWidth" markerWidth="15.000001" markerHeight="9" viewBox="-15 -4.5 15 9" orient="auto-start-reverse">
			<path d="M 0 -0 L -10 -3, -8 -0.5, -8 0.5, -10 3 Z" fill="#000000" stroke="#000000" stroke-linejoin="round" />
		</marker>
		<marker id="CustomMarker-12" markerUnits="strokeWidth" markerWidth="15.000001" markerHeight="9" viewBox="-15 -4.5 15 9" orient="auto-start-reverse">
			<path d="M 0 -0 L -10 -3, -8 -0.5, -8 0.5, -10 3 Z" fill="#000000" stroke="#000000" stroke-linejoin="round" />
		</marker>
		<marker id="CustomMarker-13" markerUnits="strokeWidth" markerWidth="15.000001" markerHeight="9" viewBox="-15 -4.5 15 9" orient="auto-start-reverse">
			<path d="M 0 -0 L -10 -3, -8 -0.5, -8 0.5, -10 3 Z" fill="#000000" stroke="#000000" stroke-linejoin="round" />
		</marker>
		<marker id="CustomMarker-14" markerUnits="strokeWidth" markerWidth="15.000001" markerHeight="9" viewBox="-15 -4.5 15 9" orient="auto-start-reverse">
			<path d="M 0 -0 L -10 -3, -8 -0.5, -8 0.5, -10 3 Z" fill="#000000" stroke="#000000" stroke-linejoin="round" />
		</marker>
		<marker id="CustomMarker-15" markerUnits="strokeWidth" markerWidth="15.000001" markerHeight="9" viewBox="-15 -4.5 15 9" orient="auto-start-reverse">
			<path d="M 0 -0 L -10 -3, -8 -0.5, -8 0.5, -10 3 Z" fill="#000000" stroke="#000000" stroke-linejoin="round" />
		</marker>
		<marker id="CustomMarker-16" markerUnits="strokeWidth" markerWidth="15.000001" markerHeight="9" viewBox="-15 -4.5 15 9" orient="auto-start-reverse">
			<path d="M 0 -0 L -10 -3, -8 -0.5, -8 0.5, -10 3 Z" fill="#000000" stroke="#000000" stroke-linejoin="round" />
		</marker>
		<marker id="CustomMarker-17" markerUnits="strokeWidth" markerWidth="15.000001" markerHeight="9" viewBox="-15 -4.5 15 9" orient="auto-start-reverse">
			<path d="M 0 -0 L -10 -3, -8 -0.5, -8 0.5, -10 3 Z" fill="#000000" stroke="#000000" stroke-linejoin="round" />
		</marker>
		<marker id="CustomMarker-18" markerUnits="strokeWidth" markerWidth="15.000001" markerHeight="9" viewBox="-15 -4.5 15 9" orient="auto-start-reverse">
			<path d="M 0 -0 L -10 -3, -8 -0.5, -8 0.5, -10 3 Z" fill="#000000" stroke="#000000" stroke-linejoin="round" />
		</marker>
		<marker id="CustomMarker-19" markerUnits="strokeWidth" markerWidth="15.000001" markerHeight="9" viewBox="-15 -4.5 15 9" orient="auto-start-reverse">
			<path d="M 0 -0 L -10 -3, -8 -0.5, -8 0.5, -10 3 Z" fill="#000000" stroke="#000000" stroke-linejoin="round" />
		</marker>
		<marker id="CustomMarker-20" markerUnits="strokeWidth" markerWidth="15.000001" markerHeight="9" viewBox="-15 -4.5 15 9" orient="auto-start-reverse">
			<path d="M 0 -0 L -10 -3, -8 -0.5, -8 0.5, -10 3 Z" fill="#000000" stroke="#000000" stroke-linejoin="round" />
		</marker>
	</defs>
	<rect x="-39.8547363" y="-82.6561584" width="79.7094727" height="165.312317" stroke="none" fill="#60D55B" fill-opacity="0.392156839" transform="matrix(1 0 0 1 106.868 91.8364)" />
	<path d="M -39.8547 -82.6562 L 39.8547 -82.6562, 39.8547 82.6562, -39.8547 82.6562 Z" fill="none" stroke="#000000" stroke-width="1" stroke-linecap="round" stroke-linejoin="round" transform="matrix(1 0 0 1 106.868 91.8364)" />
	<path d="M -39.8542 -16.5163 L 39.8547 16.5167" fill="none" stroke="#000000" stroke-width="0.5" stroke-linecap="round" stroke-linejoin="round" stroke-dasharray="1.7525, 1.2475" transform="matrix(1 0 0 1 106.868 157.976)" />
	<path d="M -39.8542 -16.5164 L 39.8547 16.5165" fill="none" stroke="#000000" stroke-width="0.5" stroke-linecap="round" stroke-linejoin="round" stroke-dasharray="1.7525, 1.2475" transform="matrix(1 0 0 1 106.868 104.138)" />
	<path d="M -39.8542 -16.5167 L 39.8547 16.5164" fill="none" stroke="#000000" stroke-width="0.5" stroke-linecap="round" stroke-linejoin="round" stroke-dasharray="1.7525, 1.2475" transform="matrix(1 0 0 1 106.868 56.9957)" />
	<g transform="matrix(1 0 -0 1 86.4437 188.276)">
		<svg width="129.083694" height="47.9906693">
			<defs />
			<path d="M 3.22039 10.9888 C 3.25997 9.91639, 3.27796 8.81521, 3.27796 7.68164, 3.27796 6.55167, 3.25997 5.48288, 3.22039 4.48246, 2.50786 5.17699, 1.57941 5.86793, 0.431445 6.55527 L 0.31269 6.38254 C 1.57941 5.4253, 2.61941 4.3709, 3.42911 3.21934, 4.2388 2.06777, 4.78219 1.14653, 5.05929 0.451989 L 6.24324 1.25808, 5.64946 1.4884, 5.11686 2.17933, 8.55716 2.17933, 9.15093 1.54597, 10.1585 2.5248 C 9.80588 2.60397, 9.46761 2.7983, 9.15093 3.10418, 8.83425 3.41366, 8.24048 4.02543, 7.36961 4.94308 L 10.2773 4.94308, 10.8711 4.3673, 11.6988 5.1734, 11.1662 5.51886 C 11.1662 7.86517, 11.1878 9.3802, 11.2273 10.0675 L 10.3349 10.4706, 10.3349 5.28855, 4.10925 5.28855, 4.10925 10.5857 Z M 7.01334 4.94308 L 8.61473 2.5248, 4.99811 2.5248 C 4.36475 3.25892, 3.75298 3.92827, 3.15921 4.54004 L 4.04807 4.94308 Z M 7.60712 7.41894 C 7.52795 9.76525, 6.88739 11.3379, 5.68185 12.1439, 4.47631 12.95, 2.70578 13.5798, 0.373867 14.0404 L 0.373867 13.8101 C 2.90371 13.0832, 4.54468 12.3383, 5.2968 11.5682, 6.04891 10.8017, 6.47355 9.8984, 6.57071 8.86199, 6.67147 7.82559, 6.71826 6.96192, 6.71826 6.26738 L 8.08214 6.95832 Z M 7.84463 10.9888 L 7.9058 10.7585 C 9.09335 11.032, 10.0722 11.2911, 10.8423 11.5394, 11.6124 11.7913, 12.127 12.0576, 12.3825 12.3455, 12.6416 12.6334, 12.7676 12.8709, 12.7676 13.0616, 12.7676 13.1408, 12.7388 13.2559, 12.6812 13.4071, 12.6236 13.5618, 12.5516 13.6374, 12.4725 13.6374, 12.3141 13.6374, 11.9795 13.4071, 11.4613 12.9464, 10.7919 12.2987, 9.58637 11.6437, 7.84463 10.9888 Z" stroke="none" fill="#000000" />
			<path d="M 14.7306 13.8101 C 14.7702 12.6586, 14.7882 11.5106, 14.7882 10.359, 14.7882 9.20746, 14.7702 8.07389, 14.7306 6.95832 L 15.6195 7.47652, 18.5272 7.47652, 19.0598 6.95832, 19.9487 7.70683, 19.4161 8.0523 C 19.4161 10.9348, 19.4377 12.6406, 19.4736 13.1768 L 18.646 13.6374, 18.646 12.7161, 15.5619 12.7161, 15.5619 13.4071 Z M 15.5619 7.82199 L 15.5619 9.8948, 18.646 9.8948, 18.646 7.82199 Z M 15.5619 10.2403 L 15.5619 12.3707, 18.646 12.3707, 18.646 10.2403 Z M 18.1098 3.61879 L 18.1098 5.28855, 23.4501 5.28855, 23.4501 3.61879 Z M 24.2202 1.89144 C 24.2202 4.23775, 24.2418 5.59803, 24.2778 5.97949 L 23.4501 6.38254, 23.4501 5.63402, 18.1098 5.63402, 18.1098 6.2098, 17.2821 6.55527 C 17.3217 5.63762, 17.3397 4.68038, 17.3397 3.67996, 17.3397 2.68314, 17.3217 1.7403, 17.2821 0.855036 L 18.1709 1.31566, 23.3314 1.31566, 23.864 0.73988, 24.814 1.4884 Z M 18.1098 1.66113 L 18.1098 3.27332, 23.4501 3.27332, 23.4501 1.66113 Z M 26.2355 8.0523 C 26.2355 10.8592, 26.2571 12.601, 26.2966 13.2919 L 25.4654 13.695, 25.4654 12.7161, 22.1438 12.7161, 22.1438 13.4071, 21.3125 13.8101 C 21.3557 12.583, 21.3737 11.4458, 21.3737 10.3878, 21.3737 9.33341, 21.3557 8.18905, 21.3125 6.95832 L 22.2014 7.47652, 25.3466 7.47652, 25.8792 6.95832, 26.7681 7.70683 Z M 22.1438 7.82199 L 22.1438 9.8948, 25.4654 9.8948, 25.4654 7.82199 Z M 22.1438 10.2403 L 22.1438 12.3707, 25.4654 12.3707, 25.4654 10.2403 Z" stroke="none" fill="#000000" />
			<path d="M 29.5588 13.9253 C 29.602 12.6981, 29.6199 11.7409, 29.6199 11.0464 L 29.6199 5.11582 C 28.9866 6.11624, 28.2165 7.05908, 27.306 7.93714 L 27.1261 7.76441 C 28.0366 6.65603, 28.8175 5.32094, 29.4688 3.76633, 30.1238 2.21172, 30.5088 1.12853, 30.6276 0.509567 L 31.8727 1.31566, 31.3977 1.54597 C 30.7643 2.81629, 30.2713 3.81311, 29.915 4.54004 L 30.8651 5.05824, 30.3901 5.46129, 30.3901 13.4646 Z M 36.2594 11.2191 C 36.2594 11.9532, 36.281 12.6981, 36.3206 13.4646 L 35.3706 13.8677 C 35.4137 12.6406, 35.4317 11.8165, 35.4317 11.3918 L 35.4317 10.6433, 34.4817 10.6433 C 33.9707 10.6469, 33.4957 10.7045, 33.0566 10.8161 L 32.524 10.2978, 35.4317 10.2978, 35.4317 4.77035 C 34.838 6.19541, 34.147 7.42254, 33.3553 8.45895, 32.5636 9.49535, 31.7144 10.359, 30.8039 11.0464 L 30.6276 10.8736 C 31.3797 10.1863, 32.1426 9.20746, 32.9127 7.94074, 33.6828 6.67402, 34.2658 5.46488, 34.658 4.30972 L 33.3553 4.30972 C 32.8443 4.31332, 32.3693 4.3709, 31.9303 4.48246 L 31.3977 3.96425, 35.4317 3.96425, 35.4317 2.23691 C 35.4317 1.85546, 35.4137 1.30127, 35.3706 0.567145 L 36.7956 1.2005, 36.2594 1.60355, 36.2594 3.96425, 38.9296 3.96425, 39.6997 3.21574, 40.8261 4.30972, 36.7956 4.30972 C 37.3498 5.92551, 38.03 7.22102, 38.8396 8.19984, 39.6529 9.17867, 40.3943 9.78324, 41.0636 10.01 L 41.0636 10.2403 C 40.4338 10.2439, 40.02 10.4166, 39.8185 10.7585, 39.2643 10.341, 38.6633 9.51694, 38.012 8.28621, 37.3606 7.05908, 36.8568 5.73478, 36.4969 4.30972 L 36.2594 4.30972, 36.2594 10.2978, 37.447 10.2978, 38.1595 9.60691, 39.2247 10.6433, 36.2594 10.6433 Z" stroke="none" fill="#000000" />
			<rect />
		</svg>
	</g>
	<path d="M -29.8349 0 L 29.8347 0" fill="none" stroke="#000000" stroke-width="1" stroke-linecap="round" stroke-linejoin="round" marker-end="url(#CustomMarker-01)" transform="matrix(1 0 0 1 38.335 87.6219)" />
	<path d="M -29.8349 0 L 29.8347 0" fill="none" stroke="#000000" stroke-width="1" stroke-linecap="round" stroke-linejoin="round" marker-end="url(#CustomMarker-02)" transform="matrix(1 0 0 1 38.335 40.479)" />
	<path d="M -29.8349 0 L 29.8347 0" fill="none" stroke="#000000" stroke-width="1" stroke-linecap="round" stroke-linejoin="round" marker-end="url(#CustomMarker-03)" transform="matrix(1 0 0 1 38.335 141.46)" />
	<ellipse cx="681.371337890625" cy="263.61590576171875" rx="2.625" ry="2.625" stroke="none" fill="#000000" transform="matrix(1 0 0 1 -636.831 -175.994)" />
	<path d="M 0 5.44647 L 0 -5.44647" fill="none" stroke="#000000" stroke-width="1" stroke-linecap="round" stroke-linejoin="round" transform="matrix(1 0 0 1 44.5404 87.6219)" />
	<path d="M 23.05 -47.1429 C 35.4058 -41.1017, 35.1023 -15.0977, 22.3722 10.9386, 9.64201 36.9749, -10.6942 53.1841, -23.05 47.1429, -35.4058 41.1017, -35.1023 15.0977, -22.3722 -10.9386, -9.64202 -36.9749, 10.6942 -53.1842, 23.05 -47.1429 Z" stroke="none" fill="#3724C8" fill-opacity="0.392156839" transform="matrix(1 0 0 1 67.0136 87.6219)" />
	<path d="M 23.05 -47.1429 C 35.4058 -41.1017, 35.1023 -15.0977, 22.3722 10.9386, 9.64201 36.9749, -10.6942 53.1841, -23.05 47.1429, -35.4058 41.1017, -35.1023 15.0977, -22.3722 -10.9386, -9.64202 -36.9749, 10.6942 -53.1842, 23.05 -47.1429 Z" fill="none" stroke="#000000" stroke-width="1" stroke-linecap="round" stroke-linejoin="round" transform="matrix(1 0 0 1 67.0136 87.6219)" />
	<path d="M 0 -83.3364 L 0 83.3369" fill="none" stroke="#000000" stroke-width="1" stroke-linecap="round" stroke-linejoin="round" transform="matrix(1 0 0 1 99.4502 91.8364)" />
	<path d="M -39.8545 36.7996 L 39.8547 -36.7999" fill="none" stroke="#000000" stroke-width="1" stroke-linecap="round" stroke-linejoin="round" marker-end="url(#CustomMarker-04)" transform="matrix(1 0 0 1 106.868 50.8223)" />
	<path d="M -24.6716 0 L 24.6716 0" fill="none" stroke="#000000" stroke-width="1" stroke-linecap="round" stroke-linejoin="round" marker-end="url(#CustomMarker-05)" transform="matrix(1 0 0 1 171.094 14.0224)" />
	<path d="M -2.55865 -2.7713 L 2.55914 2.77145" fill="none" stroke="#000000" stroke-width="1" stroke-linecap="round" stroke-linejoin="round" transform="matrix(1 0 0 1 117.68 40.4299)" />
	<path d="M 0 -4.47783 L 0 4.47781" fill="none" stroke="#000000" stroke-width="1" stroke-linecap="round" stroke-linejoin="round" transform="matrix(1 0 0 1 162.929 14.0224)" />
	<rect x="-39.854187" y="-82.6561584" width="79.708374" height="165.312317" stroke="none" fill="#60D55B" fill-opacity="0.392156839" transform="matrix(1 0 0 1 295.06 91.8364)" />
	<path d="M -39.8542 -82.6562 L 39.8542 -82.6562, 39.8542 82.6562, -39.8542 82.6562 Z" fill="none" stroke="#000000" stroke-width="1" stroke-linecap="round" stroke-linejoin="round" transform="matrix(1 0 0 1 295.06 91.8364)" />
	<path d="M -39.8546 7.98804 L 39.8542 -7.98767" fill="none" stroke="#000000" stroke-width="0.5" stroke-linecap="round" stroke-linejoin="round" stroke-dasharray="1.7525, 1.2475" transform="matrix(1 0 0 1 295.06 133.472)" />
	<path d="M -39.8546 7.98796 L 39.8542 -7.98795" fill="none" stroke="#000000" stroke-width="0.5" stroke-linecap="round" stroke-linejoin="round" stroke-dasharray="1.7525, 1.2475" transform="matrix(1 0 0 1 295.06 79.6339)" />
	<path d="M -39.8546 7.98766 L 39.8542 -7.98799" fill="none" stroke="#000000" stroke-width="0.5" stroke-linecap="round" stroke-linejoin="round" stroke-dasharray="1.7525, 1.2475" transform="matrix(1 0 0 1 295.06 32.4913)" />
	<g transform="matrix(1 0 -0 1 274.636 188.276)">
		<svg width="129.083694" height="47.9906693">
			<defs />
			<path d="M 3.22039 10.9888 C 3.25997 9.91639, 3.27796 8.81521, 3.27796 7.68164, 3.27796 6.55167, 3.25997 5.48288, 3.22039 4.48246, 2.50786 5.17699, 1.57941 5.86793, 0.431445 6.55527 L 0.31269 6.38254 C 1.57941 5.4253, 2.61941 4.3709, 3.42911 3.21934, 4.2388 2.06777, 4.78219 1.14653, 5.05929 0.451989 L 6.24324 1.25808, 5.64946 1.4884, 5.11686 2.17933, 8.55716 2.17933, 9.15093 1.54597, 10.1585 2.5248 C 9.80588 2.60397, 9.46761 2.7983, 9.15093 3.10418, 8.83425 3.41366, 8.24048 4.02543, 7.36961 4.94308 L 10.2773 4.94308, 10.8711 4.3673, 11.6988 5.1734, 11.1662 5.51886 C 11.1662 7.86517, 11.1878 9.3802, 11.2273 10.0675 L 10.3349 10.4706, 10.3349 5.28855, 4.10925 5.28855, 4.10925 10.5857 Z M 7.01334 4.94308 L 8.61473 2.5248, 4.99811 2.5248 C 4.36475 3.25892, 3.75298 3.92827, 3.15921 4.54004 L 4.04807 4.94308 Z M 7.60712 7.41894 C 7.52795 9.76525, 6.88739 11.3379, 5.68185 12.1439, 4.47631 12.95, 2.70578 13.5798, 0.373867 14.0404 L 0.373867 13.8101 C 2.90371 13.0832, 4.54468 12.3383, 5.2968 11.5682, 6.04891 10.8017, 6.47355 9.8984, 6.57071 8.86199, 6.67147 7.82559, 6.71826 6.96192, 6.71826 6.26738 L 8.08214 6.95832 Z M 7.84463 10.9888 L 7.9058 10.7585 C 9.09335 11.032, 10.0722 11.2911, 10.8423 11.5394, 11.6124 11.7913, 12.127 12.0576, 12.3825 12.3455, 12.6416 12.6334, 12.7676 12.8709, 12.7676 13.0616, 12.7676 13.1408, 12.7388 13.2559, 12.6812 13.4071, 12.6236 13.5618, 12.5516 13.6374, 12.4725 13.6374, 12.3141 13.6374, 11.9795 13.4071, 11.4613 12.9464, 10.7919 12.2987, 9.58637 11.6437, 7.84463 10.9888 Z" stroke="none" fill="#000000" />
			<path d="M 14.7306 13.8101 C 14.7702 12.6586, 14.7882 11.5106, 14.7882 10.359, 14.7882 9.20746, 14.7702 8.07389, 14.7306 6.95832 L 15.6195 7.47652, 18.5272 7.47652, 19.0598 6.95832, 19.9487 7.70683, 19.4161 8.0523 C 19.4161 10.9348, 19.4377 12.6406, 19.4736 13.1768 L 18.646 13.6374, 18.646 12.7161, 15.5619 12.7161, 15.5619 13.4071 Z M 15.5619 7.82199 L 15.5619 9.8948, 18.646 9.8948, 18.646 7.82199 Z M 15.5619 10.2403 L 15.5619 12.3707, 18.646 12.3707, 18.646 10.2403 Z M 18.1098 3.61879 L 18.1098 5.28855, 23.4501 5.28855, 23.4501 3.61879 Z M 24.2202 1.89144 C 24.2202 4.23775, 24.2418 5.59803, 24.2778 5.97949 L 23.4501 6.38254, 23.4501 5.63402, 18.1098 5.63402, 18.1098 6.2098, 17.2821 6.55527 C 17.3217 5.63762, 17.3397 4.68038, 17.3397 3.67996, 17.3397 2.68314, 17.3217 1.7403, 17.2821 0.855036 L 18.1709 1.31566, 23.3314 1.31566, 23.864 0.73988, 24.814 1.4884 Z M 18.1098 1.66113 L 18.1098 3.27332, 23.4501 3.27332, 23.4501 1.66113 Z M 26.2355 8.0523 C 26.2355 10.8592, 26.2571 12.601, 26.2966 13.2919 L 25.4654 13.695, 25.4654 12.7161, 22.1438 12.7161, 22.1438 13.4071, 21.3125 13.8101 C 21.3557 12.583, 21.3737 11.4458, 21.3737 10.3878, 21.3737 9.33341, 21.3557 8.18905, 21.3125 6.95832 L 22.2014 7.47652, 25.3466 7.47652, 25.8792 6.95832, 26.7681 7.70683 Z M 22.1438 7.82199 L 22.1438 9.8948, 25.4654 9.8948, 25.4654 7.82199 Z M 22.1438 10.2403 L 22.1438 12.3707, 25.4654 12.3707, 25.4654 10.2403 Z" stroke="none" fill="#000000" />
			<path d="M 29.5588 13.9253 C 29.602 12.6981, 29.6199 11.7409, 29.6199 11.0464 L 29.6199 5.11582 C 28.9866 6.11624, 28.2165 7.05908, 27.306 7.93714 L 27.1261 7.76441 C 28.0366 6.65603, 28.8175 5.32094, 29.4688 3.76633, 30.1238 2.21172, 30.5088 1.12853, 30.6276 0.509567 L 31.8727 1.31566, 31.3977 1.54597 C 30.7643 2.81629, 30.2713 3.81311, 29.915 4.54004 L 30.8651 5.05824, 30.3901 5.46129, 30.3901 13.4646 Z M 36.2594 11.2191 C 36.2594 11.9532, 36.281 12.6981, 36.3206 13.4646 L 35.3706 13.8677 C 35.4137 12.6406, 35.4317 11.8165, 35.4317 11.3918 L 35.4317 10.6433, 34.4817 10.6433 C 33.9707 10.6469, 33.4957 10.7045, 33.0566 10.8161 L 32.524 10.2978, 35.4317 10.2978, 35.4317 4.77035 C 34.838 6.19541, 34.147 7.42254, 33.3553 8.45895, 32.5636 9.49535, 31.7144 10.359, 30.8039 11.0464 L 30.6276 10.8736 C 31.3797 10.1863, 32.1426 9.20746, 32.9127 7.94074, 33.6828 6.67402, 34.2658 5.46488, 34.658 4.30972 L 33.3553 4.30972 C 32.8443 4.31332, 32.3693 4.3709, 31.9303 4.48246 L 31.3977 3.96425, 35.4317 3.96425, 35.4317 2.23691 C 35.4317 1.85546, 35.4137 1.30127, 35.3706 0.567145 L 36.7956 1.2005, 36.2594 1.60355, 36.2594 3.96425, 38.9296 3.96425, 39.6997 3.21574, 40.8261 4.30972, 36.7956 4.30972 C 37.3498 5.92551, 38.03 7.22102, 38.8396 8.19984, 39.6529 9.17867, 40.3943 9.78324, 41.0636 10.01 L 41.0636 10.2403 C 40.4338 10.2439, 40.02 10.4166, 39.8185 10.7585, 39.2643 10.341, 38.6633 9.51694, 38.012 8.28621, 37.3606 7.05908, 36.8568 5.73478, 36.4969 4.30972 L 36.2594 4.30972, 36.2594 10.2978, 37.447 10.2978, 38.1595 9.60691, 39.2247 10.6433, 36.2594 10.6433 Z" stroke="none" fill="#000000" />
			<rect />
		</svg>
	</g>
	<path d="M -29.8347 0 L 29.8345 0" fill="none" stroke="#000000" stroke-width="1" stroke-linecap="round" stroke-linejoin="round" marker-end="url(#CustomMarker-06)" transform="matrix(1 0 0 1 226.527 87.6219)" />
	<path d="M -29.8347 0 L 29.8345 0" fill="none" stroke="#000000" stroke-width="1" stroke-linecap="round" stroke-linejoin="round" marker-end="url(#CustomMarker-07)" transform="matrix(1 0 0 1 226.527 40.479)" />
	<path d="M -29.8347 0 L 29.8345 0" fill="none" stroke="#000000" stroke-width="1" stroke-linecap="round" stroke-linejoin="round" marker-end="url(#CustomMarker-08)" transform="matrix(1 0 0 1 226.527 141.46)" />
	<ellipse cx="869.56304931640625" cy="263.61590576171875" rx="2.625" ry="2.625" stroke="none" fill="#000000" transform="matrix(1 0 0 1 -636.831 -175.994)" />
	<path d="M 0 5.44647 L 0 -5.44647" fill="none" stroke="#000000" stroke-width="1" stroke-linecap="round" stroke-linejoin="round" transform="matrix(1 0 0 1 232.732 87.6219)" />
	<path d="M -22.4731 -55.1306 C -8.91345 -60.6579, 12.1404 -40.456, 24.5519 -10.0082, 36.9634 20.4396, 36.0327 49.6032, 22.4731 55.1306, 8.91345 60.6579, -12.1404 40.456, -24.5519 10.0082, -36.9634 -20.4396, -36.0327 -49.6032, -22.4731 -55.1306 Z" stroke="none" fill="#3724C8" fill-opacity="0.392156839" transform="matrix(1 0 0 1 255.205 87.6219)" />
	<path d="M -22.4731 -55.1306 C -8.91345 -60.6579, 12.1404 -40.456, 24.5519 -10.0082, 36.9634 20.4396, 36.0327 49.6032, 22.4731 55.1306, 8.91345 60.6579, -12.1404 40.456, -24.5519 10.0082, -36.9634 -20.4396, -36.0327 -49.6032, -22.4731 -55.1306 Z" fill="none" stroke="#000000" stroke-width="1" stroke-linecap="round" stroke-linejoin="round" transform="matrix(1 0 0 1 255.205 87.6219)" />
	<path d="M 0 -83.3364 L 0 83.3369" fill="none" stroke="#000000" stroke-width="1" stroke-linecap="round" stroke-linejoin="round" transform="matrix(1 0 0 1 289.565 91.8364)" />
	<path d="M -39.8547 -35.1771 L 39.8542 35.1772" fill="none" stroke="#000000" stroke-width="1" stroke-linecap="round" stroke-linejoin="round" marker-end="url(#CustomMarker-09)" transform="matrix(1 0 0 1 295.06 122.799)" />
	<path d="M -24.6716 0 L 24.6718 0" fill="none" stroke="#000000" stroke-width="1" stroke-linecap="round" stroke-linejoin="round" marker-end="url(#CustomMarker-10)" transform="matrix(1 0 0 1 359.166 157.976)" />
	<path d="M 3.60669 -4.08679 L -3.60718 4.08679" fill="none" stroke="#000000" stroke-width="1" stroke-linecap="round" stroke-linejoin="round" transform="matrix(1 0 0 1 309.479 135.38)" />
	<path d="M 0 -4.47769 L 0 4.47803" fill="none" stroke="#000000" stroke-width="1" stroke-linecap="round" stroke-linejoin="round" transform="matrix(1 0 0 1 351.002 157.976)" />
	<rect x="-39.8547363" y="-82.6561279" width="79.7094727" height="165.312256" stroke="none" fill="#60D55B" fill-opacity="0.392156839" transform="matrix(1 0 0 1 295.06 304.33)" />
	<path d="M -39.8547 -82.6561 L 39.8547 -82.6561, 39.8547 82.6561, -39.8547 82.6561 Z" fill="none" stroke="#000000" stroke-width="1" stroke-linecap="round" stroke-linejoin="round" transform="matrix(1 0 0 1 295.06 304.33)" />
	<path d="M -39.8541 7.98767 L 39.8547 -7.98798" fill="none" stroke="#000000" stroke-width="0.5" stroke-linecap="round" stroke-linejoin="round" stroke-dasharray="1.7525, 1.2475" transform="matrix(1 0 0 1 295.06 345.966)" />
	<path d="M -39.8541 7.98767 L 39.8547 -7.98819" fill="none" stroke="#000000" stroke-width="0.5" stroke-linecap="round" stroke-linejoin="round" stroke-dasharray="1.7525, 1.2475" transform="matrix(1 0 0 1 295.06 292.128)" />
	<path d="M -39.8541 7.98767 L 39.8547 -7.98782" fill="none" stroke="#000000" stroke-width="0.5" stroke-linecap="round" stroke-linejoin="round" stroke-dasharray="1.7525, 1.2475" transform="matrix(1 0 0 1 295.06 244.985)" />
	<g transform="matrix(1 0 -0 1 274.636 400.77)">
		<svg width="129.083694" height="44.9689064">
			<defs />
			<path d="M 2.9217 6.26738 C 2.9217 6.00108, 2.90371 5.54046, 2.86412 4.8855 L 4.34676 5.57644, 3.75298 5.97949, 3.75298 12.4858, 6.71826 12.4858, 6.71826 2.17933, 3.10163 2.17933 C 2.59062 2.18293, 2.1156 2.24051, 1.67657 2.35207 L 1.14397 1.83386, 11.1662 1.83386, 12.055 0.970192, 13.3002 2.17933, 7.54954 2.17933, 7.54954 6.728, 10.4536 6.728, 11.2849 5.92191, 12.4725 7.07347, 7.54954 7.07347, 7.54954 12.4858, 11.1662 12.4858, 12.1162 11.5646, 13.4189 12.8313, 1.97526 12.8313 C 1.46065 12.8313, 0.985635 12.8889, 0.5502 13.004 L 0.0176025 12.4858, 2.9217 12.4858 Z" stroke="none" fill="#000000" />
			<path d="M 14.7306 13.8101 C 14.7702 12.6586, 14.7882 11.5106, 14.7882 10.359, 14.7882 9.20746, 14.7702 8.07389, 14.7306 6.95832 L 15.6195 7.47652, 18.5272 7.47652, 19.0598 6.95832, 19.9487 7.70683, 19.4161 8.0523 C 19.4161 10.9348, 19.4377 12.6406, 19.4736 13.1768 L 18.646 13.6374, 18.646 12.7161, 15.5619 12.7161, 15.5619 13.4071 Z M 15.5619 7.82199 L 15.5619 9.8948, 18.646 9.8948, 18.646 7.82199 Z M 15.5619 10.2403 L 15.5619 12.3707, 18.646 12.3707, 18.646 10.2403 Z M 18.1098 3.61879 L 18.1098 5.28855, 23.4501 5.28855, 23.4501 3.61879 Z M 24.2202 1.89144 C 24.2202 4.23775, 24.2418 5.59803, 24.2778 5.97949 L 23.4501 6.38254, 23.4501 5.63402, 18.1098 5.63402, 18.1098 6.2098, 17.2821 6.55527 C 17.3217 5.63762, 17.3397 4.68038, 17.3397 3.67996, 17.3397 2.68314, 17.3217 1.7403, 17.2821 0.855036 L 18.1709 1.31566, 23.3314 1.31566, 23.864 0.73988, 24.814 1.4884 Z M 18.1098 1.66113 L 18.1098 3.27332, 23.4501 3.27332, 23.4501 1.66113 Z M 26.2355 8.0523 C 26.2355 10.8592, 26.2571 12.601, 26.2966 13.2919 L 25.4654 13.695, 25.4654 12.7161, 22.1438 12.7161, 22.1438 13.4071, 21.3125 13.8101 C 21.3557 12.583, 21.3737 11.4458, 21.3737 10.3878, 21.3737 9.33341, 21.3557 8.18905, 21.3125 6.95832 L 22.2014 7.47652, 25.3466 7.47652, 25.8792 6.95832, 26.7681 7.70683 Z M 22.1438 7.82199 L 22.1438 9.8948, 25.4654 9.8948, 25.4654 7.82199 Z M 22.1438 10.2403 L 22.1438 12.3707, 25.4654 12.3707, 25.4654 10.2403 Z" stroke="none" fill="#000000" />
			<path d="M 29.5588 13.9253 C 29.602 12.6981, 29.6199 11.7409, 29.6199 11.0464 L 29.6199 5.11582 C 28.9866 6.11624, 28.2165 7.05908, 27.306 7.93714 L 27.1261 7.76441 C 28.0366 6.65603, 28.8175 5.32094, 29.4688 3.76633, 30.1238 2.21172, 30.5088 1.12853, 30.6276 0.509567 L 31.8727 1.31566, 31.3977 1.54597 C 30.7643 2.81629, 30.2713 3.81311, 29.915 4.54004 L 30.8651 5.05824, 30.3901 5.46129, 30.3901 13.4646 Z M 36.2594 11.2191 C 36.2594 11.9532, 36.281 12.6981, 36.3206 13.4646 L 35.3706 13.8677 C 35.4137 12.6406, 35.4317 11.8165, 35.4317 11.3918 L 35.4317 10.6433, 34.4817 10.6433 C 33.9707 10.6469, 33.4957 10.7045, 33.0566 10.8161 L 32.524 10.2978, 35.4317 10.2978, 35.4317 4.77035 C 34.838 6.19541, 34.147 7.42254, 33.3553 8.45895, 32.5636 9.49535, 31.7144 10.359, 30.8039 11.0464 L 30.6276 10.8736 C 31.3797 10.1863, 32.1426 9.20746, 32.9127 7.94074, 33.6828 6.67402, 34.2658 5.46488, 34.658 4.30972 L 33.3553 4.30972 C 32.8443 4.31332, 32.3693 4.3709, 31.9303 4.48246 L 31.3977 3.96425, 35.4317 3.96425, 35.4317 2.23691 C 35.4317 1.85546, 35.4137 1.30127, 35.3706 0.567145 L 36.7956 1.2005, 36.2594 1.60355, 36.2594 3.96425, 38.9296 3.96425, 39.6997 3.21574, 40.8261 4.30972, 36.7956 4.30972 C 37.3498 5.92551, 38.03 7.22102, 38.8396 8.19984, 39.6529 9.17867, 40.3943 9.78324, 41.0636 10.01 L 41.0636 10.2403 C 40.4338 10.2439, 40.02 10.4166, 39.8185 10.7585, 39.2643 10.341, 38.6633 9.51694, 38.012 8.28621, 37.3606 7.05908, 36.8568 5.73478, 36.4969 4.30972 L 36.2594 4.30972, 36.2594 10.2978, 37.447 10.2978, 38.1595 9.60691, 39.2247 10.6433, 36.2594 10.6433 Z" stroke="none" fill="#000000" />
			<rect />
		</svg>
	</g>
	<path d="M -29.835 0 L 29.8347 0" fill="none" stroke="#000000" stroke-width="1" stroke-linecap="round" stroke-linejoin="round" marker-end="url(#CustomMarker-11)" transform="matrix(1 0 0 1 226.527 300.115)" />
	<path d="M -29.835 0 L 29.8347 0" fill="none" stroke="#000000" stroke-width="1" stroke-linecap="round" stroke-linejoin="round" marker-end="url(#CustomMarker-12)" transform="matrix(1 0 0 1 226.527 252.972)" />
	<path d="M -29.835 0 L 29.8347 0" fill="none" stroke="#000000" stroke-width="1" stroke-linecap="round" stroke-linejoin="round" marker-end="url(#CustomMarker-13)" transform="matrix(1 0 0 1 226.527 353.953)" />
	<ellipse cx="869.56341552734375" cy="476.10931396484375" rx="2.625" ry="2.625" stroke="none" fill="#000000" transform="matrix(1 0 0 1 -636.831 -175.994)" />
	<path d="M 0 5.4465 L 0 -5.44617" fill="none" stroke="#000000" stroke-width="1" stroke-linecap="round" stroke-linejoin="round" transform="matrix(1 0 0 1 232.732 300.115)" />
	<path d="M -9.10901 -21.7554 C 20.372 -34.0991, 48.3493 -34.3655, 53.3801 -22.3503, 58.4108 -10.3352, 38.59 9.41163, 9.10901 21.7554, -20.372 34.0991, -48.3493 34.3655, -53.3801 22.3503, -58.4108 10.3352, -38.59 -9.41163, -9.10901 -21.7554 Z" stroke="none" fill="#3724C8" fill-opacity="0.392156839" transform="matrix(1 0 0 1 255.206 300.115)" />
	<path d="M -9.10901 -21.7554 C 20.372 -34.0991, 48.3493 -34.3655, 53.3801 -22.3503, 58.4108 -10.3352, 38.59 9.41163, 9.10901 21.7554, -20.372 34.0991, -48.3493 34.3655, -53.3801 22.3503, -58.4108 10.3352, -38.59 -9.41163, -9.10901 -21.7554 Z" fill="none" stroke="#000000" stroke-width="1" stroke-linecap="round" stroke-linejoin="round" transform="matrix(1 0 0 1 255.206 300.115)" />
	<path d="M 0 -83.3362 L 0 83.3368" fill="none" stroke="#000000" stroke-width="1" stroke-linecap="round" stroke-linejoin="round" transform="matrix(1 0 0 1 309.479 301.347)" />
	<path d="M -39.8547 14.697 L 39.8546 -14.6971" fill="none" stroke="#000000" stroke-width="1" stroke-linecap="round" stroke-linejoin="round" marker-end="url(#CustomMarker-14)" transform="matrix(1 0 0 1 295.06 285.418)" />
	<path d="M -24.6716 0 L 24.6716 0" fill="none" stroke="#000000" stroke-width="1" stroke-linecap="round" stroke-linejoin="round" marker-end="url(#CustomMarker-15)" transform="matrix(1 0 0 1 359.166 270.721)" />
	<path d="M 2.26495 6.14154 L -2.26483 -6.14148" fill="none" stroke="#000000" stroke-width="1" stroke-linecap="round" stroke-linejoin="round" transform="matrix(1 0 0 1 317.832 277.998)" />
	<path d="M 0 -4.47815 L 0 4.47754" fill="none" stroke="#000000" stroke-width="1" stroke-linecap="round" stroke-linejoin="round" transform="matrix(1 0 0 1 351.002 270.721)" />
	<rect x="-39.8547363" y="-82.6562195" width="79.7094727" height="165.312439" stroke="none" fill="#60D55B" fill-opacity="0.392156839" transform="matrix(1 0 0 1 106.868 305.562)" />
	<path d="M -39.8547 -82.6562 L 39.8547 -82.6562, 39.8547 82.6562, -39.8547 82.6562 Z" fill="none" stroke="#000000" stroke-width="1" stroke-linecap="round" stroke-linejoin="round" transform="matrix(1 0 0 1 106.868 305.562)" />
	<path d="M -39.8542 -16.5164 L 39.8547 16.5167" fill="none" stroke="#000000" stroke-width="0.5" stroke-linecap="round" stroke-linejoin="round" stroke-dasharray="1.7525, 1.2475" transform="matrix(1 0 0 1 106.868 371.702)" />
	<path d="M -39.8542 -16.5164 L 39.8547 16.5165" fill="none" stroke="#000000" stroke-width="0.5" stroke-linecap="round" stroke-linejoin="round" stroke-dasharray="1.7525, 1.2475" transform="matrix(1 0 0 1 106.868 317.864)" />
	<path d="M -39.8542 -16.5168 L 39.8547 16.5164" fill="none" stroke="#000000" stroke-width="0.5" stroke-linecap="round" stroke-linejoin="round" stroke-dasharray="1.7525, 1.2475" transform="matrix(1 0 0 1 106.868 270.721)" />
	<g transform="matrix(1 0 -0 1 86.4437 402.001)">
		<svg width="129.083694" height="44.9689064">
			<defs />
			<path d="M 2.9217 6.26738 C 2.9217 6.00108, 2.90371 5.54046, 2.86412 4.8855 L 4.34676 5.57644, 3.75298 5.97949, 3.75298 12.4858, 6.71826 12.4858, 6.71826 2.17933, 3.10163 2.17933 C 2.59062 2.18293, 2.1156 2.24051, 1.67657 2.35207 L 1.14397 1.83386, 11.1662 1.83386, 12.055 0.970192, 13.3002 2.17933, 7.54954 2.17933, 7.54954 6.728, 10.4536 6.728, 11.2849 5.92191, 12.4725 7.07347, 7.54954 7.07347, 7.54954 12.4858, 11.1662 12.4858, 12.1162 11.5646, 13.4189 12.8313, 1.97526 12.8313 C 1.46065 12.8313, 0.985635 12.8889, 0.5502 13.004 L 0.0176025 12.4858, 2.9217 12.4858 Z" stroke="none" fill="#000000" />
			<path d="M 14.7306 13.8101 C 14.7702 12.6586, 14.7882 11.5106, 14.7882 10.359, 14.7882 9.20746, 14.7702 8.07389, 14.7306 6.95832 L 15.6195 7.47652, 18.5272 7.47652, 19.0598 6.95832, 19.9487 7.70683, 19.4161 8.0523 C 19.4161 10.9348, 19.4377 12.6406, 19.4736 13.1768 L 18.646 13.6374, 18.646 12.7161, 15.5619 12.7161, 15.5619 13.4071 Z M 15.5619 7.82199 L 15.5619 9.8948, 18.646 9.8948, 18.646 7.82199 Z M 15.5619 10.2403 L 15.5619 12.3707, 18.646 12.3707, 18.646 10.2403 Z M 18.1098 3.61879 L 18.1098 5.28855, 23.4501 5.28855, 23.4501 3.61879 Z M 24.2202 1.89144 C 24.2202 4.23775, 24.2418 5.59803, 24.2778 5.97949 L 23.4501 6.38254, 23.4501 5.63402, 18.1098 5.63402, 18.1098 6.2098, 17.2821 6.55527 C 17.3217 5.63762, 17.3397 4.68038, 17.3397 3.67996, 17.3397 2.68314, 17.3217 1.7403, 17.2821 0.855036 L 18.1709 1.31566, 23.3314 1.31566, 23.864 0.73988, 24.814 1.4884 Z M 18.1098 1.66113 L 18.1098 3.27332, 23.4501 3.27332, 23.4501 1.66113 Z M 26.2355 8.0523 C 26.2355 10.8592, 26.2571 12.601, 26.2966 13.2919 L 25.4654 13.695, 25.4654 12.7161, 22.1438 12.7161, 22.1438 13.4071, 21.3125 13.8101 C 21.3557 12.583, 21.3737 11.4458, 21.3737 10.3878, 21.3737 9.33341, 21.3557 8.18905, 21.3125 6.95832 L 22.2014 7.47652, 25.3466 7.47652, 25.8792 6.95832, 26.7681 7.70683 Z M 22.1438 7.82199 L 22.1438 9.8948, 25.4654 9.8948, 25.4654 7.82199 Z M 22.1438 10.2403 L 22.1438 12.3707, 25.4654 12.3707, 25.4654 10.2403 Z" stroke="none" fill="#000000" />
			<path d="M 29.5588 13.9253 C 29.602 12.6981, 29.6199 11.7409, 29.6199 11.0464 L 29.6199 5.11582 C 28.9866 6.11624, 28.2165 7.05908, 27.306 7.93714 L 27.1261 7.76441 C 28.0366 6.65603, 28.8175 5.32094, 29.4688 3.76633, 30.1238 2.21172, 30.5088 1.12853, 30.6276 0.509567 L 31.8727 1.31566, 31.3977 1.54597 C 30.7643 2.81629, 30.2713 3.81311, 29.915 4.54004 L 30.8651 5.05824, 30.3901 5.46129, 30.3901 13.4646 Z M 36.2594 11.2191 C 36.2594 11.9532, 36.281 12.6981, 36.3206 13.4646 L 35.3706 13.8677 C 35.4137 12.6406, 35.4317 11.8165, 35.4317 11.3918 L 35.4317 10.6433, 34.4817 10.6433 C 33.9707 10.6469, 33.4957 10.7045, 33.0566 10.8161 L 32.524 10.2978, 35.4317 10.2978, 35.4317 4.77035 C 34.838 6.19541, 34.147 7.42254, 33.3553 8.45895, 32.5636 9.49535, 31.7144 10.359, 30.8039 11.0464 L 30.6276 10.8736 C 31.3797 10.1863, 32.1426 9.20746, 32.9127 7.94074, 33.6828 6.67402, 34.2658 5.46488, 34.658 4.30972 L 33.3553 4.30972 C 32.8443 4.31332, 32.3693 4.3709, 31.9303 4.48246 L 31.3977 3.96425, 35.4317 3.96425, 35.4317 2.23691 C 35.4317 1.85546, 35.4137 1.30127, 35.3706 0.567145 L 36.7956 1.2005, 36.2594 1.60355, 36.2594 3.96425, 38.9296 3.96425, 39.6997 3.21574, 40.8261 4.30972, 36.7956 4.30972 C 37.3498 5.92551, 38.03 7.22102, 38.8396 8.19984, 39.6529 9.17867, 40.3943 9.78324, 41.0636 10.01 L 41.0636 10.2403 C 40.4338 10.2439, 40.02 10.4166, 39.8185 10.7585, 39.2643 10.341, 38.6633 9.51694, 38.012 8.28621, 37.3606 7.05908, 36.8568 5.73478, 36.4969 4.30972 L 36.2594 4.30972, 36.2594 10.2978, 37.447 10.2978, 38.1595 9.60691, 39.2247 10.6433, 36.2594 10.6433 Z" stroke="none" fill="#000000" />
			<rect />
		</svg>
	</g>
	<path d="M -29.8349 0 L 29.8347 0" fill="none" stroke="#000000" stroke-width="1" stroke-linecap="round" stroke-linejoin="round" marker-end="url(#CustomMarker-16)" transform="matrix(1 0 0 1 38.335 301.347)" />
	<path d="M -29.8349 0 L 29.8347 0" fill="none" stroke="#000000" stroke-width="1" stroke-linecap="round" stroke-linejoin="round" marker-end="url(#CustomMarker-17)" transform="matrix(1 0 0 1 38.335 254.204)" />
	<path d="M -29.8349 0 L 29.8347 0" fill="none" stroke="#000000" stroke-width="1" stroke-linecap="round" stroke-linejoin="round" marker-end="url(#CustomMarker-18)" transform="matrix(1 0 0 1 38.335 355.185)" />
	<ellipse cx="681.371337890625" cy="477.34133911132812" rx="2.625" ry="2.625" stroke="none" fill="#000000" transform="matrix(1 0 0 1 -636.831 -175.994)" />
	<path d="M 0 5.44641 L 0 -5.4465" fill="none" stroke="#000000" stroke-width="1" stroke-linecap="round" stroke-linejoin="round" transform="matrix(1 0 0 1 44.5404 301.347)" />
	<path d="M 11.5956 -22.9874 C 39.9274 -8.69594, 57.7033 13.1814, 51.2992 25.877, 44.8952 38.5726, 16.7362 37.2789, -11.5956 22.9874, -39.9274 8.69594, -57.7033 -13.1814, -51.2992 -25.877, -44.8952 -38.5726, -16.7362 -37.2789, 11.5956 -22.9874 Z" stroke="none" fill="#3724C8" fill-opacity="0.392156839" transform="matrix(1 0 0 1 67.0136 301.347)" />
	<path d="M 11.5956 -22.9874 C 39.9274 -8.69594, 57.7033 13.1814, 51.2992 25.877, 44.8952 38.5726, 16.7362 37.2789, -11.5956 22.9874, -39.9274 8.69594, -57.7033 -13.1814, -51.2992 -25.877, -44.8952 -38.5726, -16.7362 -37.2789, 11.5956 -22.9874 Z" fill="none" stroke="#000000" stroke-width="1" stroke-linecap="round" stroke-linejoin="round" transform="matrix(1 0 0 1 67.0136 301.347)" />
	<path d="M 0 -83.3364 L 0 83.3369" fill="none" stroke="#000000" stroke-width="1" stroke-linecap="round" stroke-linejoin="round" transform="matrix(1 0 0 1 120.239 312.032)" />
	<path d="M -39.8547 -13.9474 L 39.8544 13.9475" fill="none" stroke="#000000" stroke-width="1" stroke-linecap="round" stroke-linejoin="round" marker-end="url(#CustomMarker-19)" transform="matrix(1 0 0 1 106.868 315.295)" />
	<path d="M -24.6716 0 L 24.6716 0" fill="none" stroke="#000000" stroke-width="1" stroke-linecap="round" stroke-linejoin="round" marker-end="url(#CustomMarker-20)" transform="matrix(1 0 0 1 171.29 329.242)" />
	<path d="M 1.99097 -5.68936 L -1.99109 5.68918" fill="none" stroke="#000000" stroke-width="1" stroke-linecap="round" stroke-linejoin="round" transform="matrix(1 0 0 1 132.717 323.553)" />
	<path d="M 0 -4.47772 L 0 4.47778" fill="none" stroke="#000000" stroke-width="1" stroke-linecap="round" stroke-linejoin="round" transform="matrix(1 0 0 1 163.125 329.242)" />
</svg>
