<?xml version="1.0"?>
<svg xmlns="http://www.w3.org/2000/svg" xmlns:xlink="http://www.w3.org/1999/xlink" width="412.083313" height="138.75">
	<defs>
		<marker id="CustomMarker-01" markerUnits="strokeWidth" markerWidth="15.000001" markerHeight="9" viewBox="-15 -4.5 15 9" orient="auto-start-reverse">
			<path d="M 0 -0 L -10 -3, -8 -0.5, -8 0.5, -10 3 Z" fill="#000000" stroke="#000000" stroke-linejoin="round" />
		</marker>
		<marker id="CustomMarker-02" markerUnits="strokeWidth" markerWidth="15.000001" markerHeight="9" viewBox="-15 -4.5 15 9" orient="auto-start-reverse">
			<path d="M 0 -0 L -10 -3, -8 -0.5, -8 0.5, -10 3 Z" fill="#FF1E00" stroke="#FF1E00" stroke-linejoin="round" />
		</marker>
		<marker id="CustomMarker-03" markerUnits="strokeWidth" markerWidth="15.000001" markerHeight="9" viewBox="-15 -4.5 15 9" orient="auto-start-reverse">
			<path d="M 0 -0 L -10 -3, -8 -0.5, -8 0.5, -10 3 Z" fill="#000000" stroke="#000000" stroke-linejoin="round" />
		</marker>
		<marker id="CustomMarker-04" markerUnits="strokeWidth" markerWidth="15.000001" markerHeight="9" viewBox="-15 -4.5 15 9" orient="auto-start-reverse">
			<path d="M 0 -0 L -10 -3, -8 -0.5, -8 0.5, -10 3 Z" fill="#FF1E00" stroke="#FF1E00" stroke-linejoin="round" />
		</marker>
		<marker id="CustomMarker-05" markerUnits="strokeWidth" markerWidth="15.000001" markerHeight="9" viewBox="-15 -4.5 15 9" orient="auto-start-reverse">
			<path d="M 0 -0 L -10 -3, -8 -0.5, -8 0.5, -10 3 Z" fill="#0EE500" stroke="#0EE500" stroke-linejoin="round" />
		</marker>
		<marker id="CustomMarker-06" markerUnits="strokeWidth" markerWidth="15.000001" markerHeight="9" viewBox="-15 -4.5 15 9" orient="auto-start-reverse">
			<path d="M 0 -0 L -10 -3, -8 -0.5, -8 0.5, -10 3 Z" fill="#000000" stroke="#000000" stroke-linejoin="round" />
		</marker>
		<marker id="CustomMarker-07" markerUnits="strokeWidth" markerWidth="15.000001" markerHeight="9" viewBox="-15 -4.5 15 9" orient="auto-start-reverse">
			<path d="M 0 -0 L -10 -3, -8 -0.5, -8 0.5, -10 3 Z" fill="#000000" stroke="#000000" stroke-linejoin="round" />
		</marker>
		<marker id="CustomMarker-08" markerUnits="strokeWidth" markerWidth="15.000001" markerHeight="9" viewBox="-15 -4.5 15 9" orient="auto-start-reverse">
			<path d="M 0 -0 L -10 -3, -8 -0.5, -8 0.5, -10 3 Z" fill="#FF1E00" stroke="#FF1E00" stroke-linejoin="round" />
		</marker>
		<marker id="CustomMarker-09" markerUnits="strokeWidth" markerWidth="15.000001" markerHeight="9" viewBox="-15 -4.5 15 9" orient="auto-start-reverse">
			<path d="M 0 -0 L -10 -3, -8 -0.5, -8 0.5, -10 3 Z" fill="#0EE500" stroke="#0EE500" stroke-linejoin="round" />
		</marker>
		<marker id="CustomMarker-10" markerUnits="strokeWidth" markerWidth="15.000001" markerHeight="9" viewBox="-15 -4.5 15 9" orient="auto-start-reverse">
			<path d="M 0 -0 L -10 -3, -8 -0.5, -8 0.5, -10 3 Z" fill="#FF1E00" stroke="#FF1E00" stroke-linejoin="round" />
		</marker>
		<marker id="CustomMarker-11" markerUnits="strokeWidth" markerWidth="15.000001" markerHeight="9" viewBox="-15 -4.5 15 9" orient="auto-start-reverse">
			<path d="M 0 -0 L -10 -3, -8 -0.5, -8 0.5, -10 3 Z" fill="#000000" stroke="#000000" stroke-linejoin="round" />
		</marker>
		<marker id="CustomMarker-12" markerUnits="strokeWidth" markerWidth="15.000001" markerHeight="9" viewBox="-15 -4.5 15 9" orient="auto-start-reverse">
			<path d="M 0 -0 L -10 -3, -8 -0.5, -8 0.5, -10 3 Z" fill="#000000" stroke="#000000" stroke-linejoin="round" />
		</marker>
		<marker id="CustomMarker-13" markerUnits="strokeWidth" markerWidth="15.000001" markerHeight="9" viewBox="-15 -4.5 15 9" orient="auto-start-reverse">
			<path d="M 0 -0 L -10 -3, -8 -0.5, -8 0.5, -10 3 Z" fill="#FF1E00" stroke="#FF1E00" stroke-linejoin="round" />
		</marker>
		<marker id="CustomMarker-14" markerUnits="strokeWidth" markerWidth="15.000001" markerHeight="9" viewBox="-15 -4.5 15 9" orient="auto-start-reverse">
			<path d="M 0 -0 L -10 -3, -8 -0.5, -8 0.5, -10 3 Z" fill="#0EE500" stroke="#0EE500" stroke-linejoin="round" />
		</marker>
		<marker id="CustomMarker-15" markerUnits="strokeWidth" markerWidth="15.000001" markerHeight="9" viewBox="-15 -4.5 15 9" orient="auto-start-reverse">
			<path d="M 0 -0 L -10 -3, -8 -0.5, -8 0.5, -10 3 Z" fill="#FF1E00" stroke="#FF1E00" stroke-linejoin="round" />
		</marker>
	</defs>
	<path d="M 0 0 L 266.025 0" fill="none" stroke="#000000" stroke-width="2.4000001" stroke-linecap="round" stroke-linejoin="round" marker-end="url(#CustomMarker-01)" transform="matrix(0.416667 0 0 0.416667 8.5186 82.1524)" />
	<path d="M 0 0 L 0 -75.0252" fill="none" stroke="#FF1E00" stroke-width="2.4000001" stroke-linecap="round" stroke-linejoin="round" marker-end="url(#CustomMarker-02)" transform="matrix(0.416667 0 0 0.416667 8.5186 81.6941)" />
	<path d="M 0 0 L 162.525 115.875" fill="none" stroke="#000000" stroke-width="2.4000001" stroke-linecap="round" stroke-linejoin="round" marker-end="url(#CustomMarker-03)" transform="matrix(0.416667 0 0 0.416667 8.5186 82.1524)" />
	<path d="M 0 0 L 0 -75.0251" fill="none" stroke="#FF1E00" stroke-width="2.4000001" stroke-linecap="round" stroke-linejoin="round" marker-end="url(#CustomMarker-04)" transform="matrix(0.416667 0 0 0.416667 76.2374 130.283)" />
	<path d="M 0 0 L 162.525 40.4875" fill="none" stroke="#0EE500" stroke-width="2.4000001" stroke-linecap="round" stroke-linejoin="round" marker-end="url(#CustomMarker-05)" transform="matrix(0.416667 0 0 0.416667 8.5186 82.1524)" />
	<g transform="matrix(1 0 -0 1 122.687 73.6888)">
		<svg width="32.9720879" height="35.9036179">
			<defs />
			<path d="M 9.91219 3.51802 C 9.67419 3.51843, 9.47422 3.52089, 9.31228 3.52497, 9.15075 3.52947, 8.99577 3.5401, 8.84732 3.55728, 8.78026 3.57527, 8.72505 3.58836, 8.68252 3.59695, 8.63999 3.60594, 8.61832 3.59899, 8.61832 3.57691 L 8.61832 8.89634 C 8.61832 9.33718, 8.5488 9.76942, 8.40935 10.1923, 8.27032 10.6155, 8.03436 10.9885, 7.70149 11.3107, 7.37352 11.6383, 6.9973 11.8738, 6.57282 12.0173, 6.14835 12.1613, 5.7112 12.2333, 5.26178 12.2333, 4.75429 12.2333, 4.25212 12.1658, 3.75567 12.0304, 3.25922 11.8955, 2.81103 11.6624, 2.41109 11.3303, 2.03855 11.0298, 1.75884 10.6666, 1.57236 10.2413, 1.38589 9.81604, 1.29265 9.36785, 1.29265 8.89634 L 1.29265 3.51802, -0.00122249 3.51802, -0.00122249 2.64781 C 0.834642 2.67889, 1.63411 2.69402, 2.39759 2.69361, 3.15249 2.69402, 3.95032 2.67889, 4.79027 2.64781 L 4.79027 3.51802, 3.4964 3.51802, 3.4964 8.89634 C 3.4964 9.26766, 3.51358 9.60993, 3.54711 9.924, 3.58064 10.2381, 3.68738 10.5149, 3.8669 10.7545, 4.01984 10.9512, 4.22185 11.1017, 4.47335 11.2064, 4.72525 11.3111, 4.98779 11.3635, 5.26178 11.363, 5.59874 11.3635, 5.92139 11.3103, 6.22891 11.2031, 6.53684 11.0964, 6.79856 10.9361, 7.01407 10.7218, 7.23898 10.4953, 7.39969 10.2229, 7.4962 9.90437, 7.59271 9.58622, 7.64096 9.25007, 7.64096 8.89634 L 7.64096 3.57691 C 7.64096 3.5949, 7.62215 3.5994, 7.58371 3.5904, 7.54568 3.58182, 7.49293 3.57078, 7.42546 3.55728, 7.26842 3.53152, 7.10853 3.51843, 6.94659 3.51802 L 6.34709 3.51802, 6.34709 2.64781 C 6.98053 2.67889, 7.57594 2.69402, 8.13291 2.69361, 8.68579 2.69402, 9.27875 2.67889, 9.91219 2.64781 L 9.91219 3.51802 Z" stroke="none" fill="#000000" />
			<rect />
		</svg>
	</g>
	<g transform="matrix(1 0 -0 1 12.6657 59.3556)">
		<svg width="32.9720879" height="41.9471397">
			<defs />
			<path d="M 4.92706 12.0893 C 4.07361 12.059, 3.25574 12.0435, 2.47386 12.0435, 1.69238 12.0435, 0.867967 12.059, 0.00061515 12.0893 L 0.00061515 11.2191, 1.36891 11.2191, 1.36891 3.51802, 0.00061515 3.51802, 0.00061515 2.64781 C 0.863469 2.67889, 1.68788 2.69402, 2.47386 2.69361, 3.25574 2.69402, 4.07361 2.67889, 4.92706 2.64781 L 4.92706 3.51802, 3.55917 3.51802, 3.55917 11.2191, 4.92706 11.2191, 4.92706 12.0893 Z" stroke="none" fill="#FF1E00" />
			<path d="M 1.85358 1.38597 C 1.83114 1.5449, 1.77962 1.68482, 1.69901 1.80573, 1.6184 1.92665, 1.51718 2.02741, 1.39512 2.10802, 1.27329 2.18863, 1.13543 2.2516, 0.981995 2.29649, 0.828562 2.34183, 0.668717 2.36427, 0.50246 2.36427, 0.268647 2.36427, 0.0417045 2.3242, -0.178597 2.24359, -0.39867 2.16298, -0.593094 2.0384, -0.761641 1.86962, -0.935226 1.69146, -1.05706 1.492, -1.12759 1.27078, -1.19812 1.04979, -1.23339 0.821932, -1.23339 0.587203, -1.23339 0.355451, -1.19744 0.12576, -1.12576 -0.101412, -1.05408 -0.328583, -0.932707 -0.531252, -0.761641 -0.709875, -0.595613 -0.883002, -0.401876 -1.0101, -0.180429 -1.09071, 0.0410175 -1.17132, 0.268647 -1.21162, 0.50246 -1.21185, 0.633451 -1.21162, 0.772456 -1.20063, 0.919706 -1.17865, 1.06695 -1.15666, 1.2023 -1.11819, 1.3255 -1.06323, 1.4487 -1.00827, 1.55313 -0.932467, 1.63855 -0.836056, 1.7242 -0.739416, 1.76679 -0.611861, 1.76679 -0.453391, 1.76679 -0.277287, 1.70977 -0.144693, 1.59527 -0.0556109, 1.48076 0.0337007, 1.35321 0.0781274, 1.21214 0.0778985, 1.07886 0.0781274, 0.954285 0.0337007, 0.838409 -0.0556109, 0.722762 -0.144693, 0.664824 -0.277287, 0.664824 -0.453391, 0.664824 -0.543618, 0.681312 -0.621708, 0.71406 -0.687662, 0.746807 -0.753615, 0.756884 -0.780408, 0.744059 -0.7685, 0.706503 -0.775599, 0.625893 -0.779263, 0.50246 -0.779492, 0.404447 -0.779263, 0.315364 -0.749264, 0.234755 -0.689494, 0.154145 -0.629495, 0.0886503 -0.552091, 0.0382695 -0.457055, -0.0345538 -0.32011, -0.0773774 -0.161182, -0.0899726 0.0195024, -0.102339 0.200416, -0.108751 0.389573, -0.108751 0.587203, -0.108751 0.775444, -0.0991328 0.957044, -0.0803545 1.13155, -0.0615761 1.30628, -0.00936329 1.46429, 0.0760552 1.60581, 0.136512 1.70612, 0.214602 1.78444, 0.310097 1.84054, 0.405821 1.89688, 0.508873 1.92481, 0.619481 1.92459, 0.818257 1.92481, 0.977414 1.87123, 1.09695 1.7636, 1.21649 1.65619, 1.30397 1.51329, 1.35916 1.33467, 1.38435 1.25429, 1.43863 1.21399, 1.52153 1.21376 L 1.71778 1.21376 C 1.80343 1.24811, 1.84855 1.30559, 1.85358 1.38597 Z" stroke="none" fill="#FF1E00" transform="matrix(1.12 0 0 1 7.52482 11.6474)" />
			<rect />
		</svg>
	</g>
	<g transform="matrix(1 0 -0 1 80.1657 108.856)">
		<svg width="32.9720879" height="41.9471397">
			<defs />
			<path d="M 4.92706 12.0893 C 4.07361 12.059, 3.25574 12.0435, 2.47386 12.0435, 1.69238 12.0435, 0.867967 12.059, 0.00061515 12.0893 L 0.00061515 11.2191, 1.36891 11.2191, 1.36891 3.51802, 0.00061515 3.51802, 0.00061515 2.64781 C 0.863469 2.67889, 1.68788 2.69402, 2.47386 2.69361, 3.25574 2.69402, 4.07361 2.67889, 4.92706 2.64781 L 4.92706 3.51802, 3.55917 3.51802, 3.55917 11.2191, 4.92706 11.2191, 4.92706 12.0893 Z" stroke="none" fill="#FF1E00" />
			<path d="M 1.85358 1.38597 C 1.83114 1.5449, 1.77962 1.68482, 1.69901 1.80573, 1.6184 1.92665, 1.51718 2.02741, 1.39512 2.10802, 1.27329 2.18863, 1.13543 2.2516, 0.981995 2.29649, 0.828562 2.34183, 0.668717 2.36427, 0.50246 2.36427, 0.268647 2.36427, 0.0417045 2.3242, -0.178597 2.24359, -0.39867 2.16298, -0.593094 2.0384, -0.761641 1.86962, -0.935226 1.69146, -1.05706 1.492, -1.12759 1.27078, -1.19812 1.04979, -1.23339 0.821932, -1.23339 0.587203, -1.23339 0.355451, -1.19744 0.12576, -1.12576 -0.101412, -1.05408 -0.328583, -0.932707 -0.531252, -0.761641 -0.709875, -0.595613 -0.883002, -0.401876 -1.0101, -0.180429 -1.09071, 0.0410175 -1.17132, 0.268647 -1.21162, 0.50246 -1.21185, 0.633451 -1.21162, 0.772456 -1.20063, 0.919706 -1.17865, 1.06695 -1.15666, 1.2023 -1.11819, 1.3255 -1.06323, 1.4487 -1.00827, 1.55313 -0.932467, 1.63855 -0.836056, 1.7242 -0.739416, 1.76679 -0.611861, 1.76679 -0.453391, 1.76679 -0.277287, 1.70977 -0.144693, 1.59527 -0.0556109, 1.48076 0.0337007, 1.35321 0.0781274, 1.21214 0.0778985, 1.07886 0.0781274, 0.954285 0.0337007, 0.838409 -0.0556109, 0.722762 -0.144693, 0.664824 -0.277287, 0.664824 -0.453391, 0.664824 -0.543618, 0.681312 -0.621708, 0.71406 -0.687662, 0.746807 -0.753615, 0.756884 -0.780408, 0.744059 -0.7685, 0.706503 -0.775599, 0.625893 -0.779263, 0.50246 -0.779492, 0.404447 -0.779263, 0.315364 -0.749264, 0.234755 -0.689494, 0.154145 -0.629495, 0.0886503 -0.552091, 0.0382695 -0.457055, -0.0345538 -0.32011, -0.0773774 -0.161182, -0.0899726 0.0195024, -0.102339 0.200416, -0.108751 0.389573, -0.108751 0.587203, -0.108751 0.775444, -0.0991328 0.957044, -0.0803545 1.13155, -0.0615761 1.30628, -0.00936329 1.46429, 0.0760552 1.60581, 0.136512 1.70612, 0.214602 1.78444, 0.310097 1.84054, 0.405821 1.89688, 0.508873 1.92481, 0.619481 1.92459, 0.818257 1.92481, 0.977414 1.87123, 1.09695 1.7636, 1.21649 1.65619, 1.30397 1.51329, 1.35916 1.33467, 1.38435 1.25429, 1.43863 1.21399, 1.52153 1.21376 L 1.71778 1.21376 C 1.80343 1.24811, 1.84855 1.30559, 1.85358 1.38597 Z" stroke="none" fill="#FF1E00" transform="matrix(1.12 0 0 1 7.52482 11.6474)" />
			<rect />
		</svg>
	</g>
	<g transform="matrix(1 0 -0 1 35.801 108.856)">
		<svg width="35.9860382" height="38.9253807">
			<defs />
			<path d="M 4.92706 12.0893 C 4.07361 12.059, 3.25574 12.0435, 2.47386 12.0435, 1.69238 12.0435, 0.867967 12.059, 0.00061515 12.0893 L 0.00061515 11.2191, 1.36891 11.2191, 1.36891 3.51802, 0.00061515 3.51802, 0.00061515 2.64781 C 0.863469 2.67889, 1.68788 2.69402, 2.47386 2.69361, 3.25574 2.69402, 4.07361 2.67889, 4.92706 2.64781 L 4.92706 3.51802, 3.55917 3.51802, 3.55917 11.2191, 4.92706 11.2191, 4.92706 12.0893 Z" stroke="none" fill="#000000" />
			<path d="M 2.10017 2.3203 L -1.8355 2.3203, -1.8355 1.83665, -1.11093 1.83665, -1.11093 -2.47595, -1.8355 -2.47595, -1.8355 -2.96327 C -1.36741 -2.94587, -0.919709 -2.9374, -0.492158 -2.93762, -0.00667024 -2.9374, 0.502863 -2.94587, 1.03598 -2.96327 L 1.03598 -2.47595, 0.122946 -2.47595, 0.122946 1.83665, 0.609579 1.83665 C 0.775836 1.83688, 0.930414 1.80276, 1.07377 1.73428, 1.21713 1.66604, 1.3417 1.5694, 1.44728 1.44459, 1.58834 1.2788, 1.68269 1.08529, 1.73032 0.864069, 1.77819 0.64308, 1.81712 0.39942, 1.84735 0.132859 L 2.34909 0.132859 Z" stroke="none" fill="#000000" transform="matrix(1.12 0 0 1 8.12684 11.6474)" />
			<rect />
		</svg>
	</g>
	<g transform="matrix(1 0 -0 1 52.6804 94.647)">
		<svg width="18.0697632" height="35.9036179">
			<defs />
			<path d="M 4.92706 12.0893 C 4.07361 12.059, 3.25574 12.0435, 2.47386 12.0435, 1.69238 12.0435, 0.867967 12.059, 0.00061515 12.0893 L 0.00061515 11.2191, 1.36891 11.2191, 1.36891 3.51802, 0.00061515 3.51802, 0.00061515 2.64781 C 0.863469 2.67889, 1.68788 2.69402, 2.47386 2.69361, 3.25574 2.69402, 4.07361 2.67889, 4.92706 2.64781 L 4.92706 3.51802, 3.55917 3.51802, 3.55917 11.2191, 4.92706 11.2191, 4.92706 12.0893 Z" stroke="none" fill="#0EE500" />
			<rect />
		</svg>
	</g>
	<path d="M 0 0 L 266.025 0" fill="none" stroke="#000000" stroke-width="2.4000001" stroke-linecap="round" stroke-linejoin="round" marker-end="url(#CustomMarker-06)" transform="matrix(0.416667 0 0 0.416667 146.603 81.6941)" />
	<path d="M 0 0 L 162.525 115.875" fill="none" stroke="#000000" stroke-width="2.4000001" stroke-linecap="round" stroke-linejoin="round" marker-end="url(#CustomMarker-07)" transform="matrix(0.416667 0 0 0.416667 146.603 81.6941)" />
	<path d="M 0 0 L 0 -114.413" fill="none" stroke="#FF1E00" stroke-width="2.4000001" stroke-linecap="round" stroke-linejoin="round" marker-end="url(#CustomMarker-08)" transform="matrix(0.416667 0 0 0.416667 214.322 129.824)" />
	<path d="M 0 0 L 162.525 1.09976" fill="none" stroke="#0EE500" stroke-width="2.4000001" stroke-linecap="round" stroke-linejoin="round" marker-end="url(#CustomMarker-09)" transform="matrix(0.416667 0 0 0.416667 146.603 81.6941)" />
	<g transform="matrix(1 0 -0 1 260.771 73.2305)">
		<svg width="32.9720879" height="35.9036179">
			<defs />
			<path d="M 9.91219 3.51802 C 9.67419 3.51843, 9.47422 3.52089, 9.31228 3.52497, 9.15075 3.52947, 8.99577 3.5401, 8.84732 3.55728, 8.78026 3.57527, 8.72505 3.58836, 8.68252 3.59695, 8.63999 3.60594, 8.61832 3.59899, 8.61832 3.57691 L 8.61832 8.89634 C 8.61832 9.33718, 8.5488 9.76942, 8.40935 10.1923, 8.27032 10.6155, 8.03436 10.9885, 7.70149 11.3107, 7.37352 11.6383, 6.9973 11.8738, 6.57282 12.0173, 6.14835 12.1613, 5.7112 12.2333, 5.26178 12.2333, 4.75429 12.2333, 4.25212 12.1658, 3.75567 12.0304, 3.25922 11.8955, 2.81103 11.6624, 2.41109 11.3303, 2.03855 11.0298, 1.75884 10.6666, 1.57236 10.2413, 1.38589 9.81604, 1.29265 9.36785, 1.29265 8.89634 L 1.29265 3.51802, -0.00122249 3.51802, -0.00122249 2.64781 C 0.834642 2.67889, 1.63411 2.69402, 2.39759 2.69361, 3.15249 2.69402, 3.95032 2.67889, 4.79027 2.64781 L 4.79027 3.51802, 3.4964 3.51802, 3.4964 8.89634 C 3.4964 9.26766, 3.51358 9.60993, 3.54711 9.924, 3.58064 10.2381, 3.68738 10.5149, 3.8669 10.7545, 4.01984 10.9512, 4.22185 11.1017, 4.47335 11.2064, 4.72525 11.3111, 4.98779 11.3635, 5.26178 11.363, 5.59874 11.3635, 5.92139 11.3103, 6.22891 11.2031, 6.53684 11.0964, 6.79856 10.9361, 7.01407 10.7218, 7.23898 10.4953, 7.39969 10.2229, 7.4962 9.90437, 7.59271 9.58622, 7.64096 9.25007, 7.64096 8.89634 L 7.64096 3.57691 C 7.64096 3.5949, 7.62215 3.5994, 7.58371 3.5904, 7.54568 3.58182, 7.49293 3.57078, 7.42546 3.55728, 7.26842 3.53152, 7.10853 3.51843, 6.94659 3.51802 L 6.34709 3.51802, 6.34709 2.64781 C 6.98053 2.67889, 7.57594 2.69402, 8.13291 2.69361, 8.68579 2.69402, 9.27875 2.67889, 9.91219 2.64781 L 9.91219 3.51802 Z" stroke="none" fill="#000000" />
			<rect />
		</svg>
	</g>
	<g transform="matrix(1 0 -0 1 218.25 108.397)">
		<svg width="32.9720879" height="41.9471397">
			<defs />
			<path d="M 4.92706 12.0893 C 4.07361 12.059, 3.25574 12.0435, 2.47386 12.0435, 1.69238 12.0435, 0.867967 12.059, 0.00061515 12.0893 L 0.00061515 11.2191, 1.36891 11.2191, 1.36891 3.51802, 0.00061515 3.51802, 0.00061515 2.64781 C 0.863469 2.67889, 1.68788 2.69402, 2.47386 2.69361, 3.25574 2.69402, 4.07361 2.67889, 4.92706 2.64781 L 4.92706 3.51802, 3.55917 3.51802, 3.55917 11.2191, 4.92706 11.2191, 4.92706 12.0893 Z" stroke="none" fill="#FF1E00" />
			<path d="M 1.85358 1.38597 C 1.83114 1.5449, 1.77962 1.68482, 1.69901 1.80573, 1.6184 1.92665, 1.51718 2.02741, 1.39512 2.10802, 1.27329 2.18863, 1.13543 2.2516, 0.981995 2.29649, 0.828562 2.34183, 0.668717 2.36427, 0.50246 2.36427, 0.268647 2.36427, 0.0417045 2.3242, -0.178597 2.24359, -0.39867 2.16298, -0.593094 2.0384, -0.761641 1.86962, -0.935226 1.69146, -1.05706 1.492, -1.12759 1.27078, -1.19812 1.04979, -1.23339 0.821932, -1.23339 0.587203, -1.23339 0.355451, -1.19744 0.12576, -1.12576 -0.101412, -1.05408 -0.328583, -0.932707 -0.531252, -0.761641 -0.709875, -0.595613 -0.883002, -0.401876 -1.0101, -0.180429 -1.09071, 0.0410175 -1.17132, 0.268647 -1.21162, 0.50246 -1.21185, 0.633451 -1.21162, 0.772456 -1.20063, 0.919706 -1.17865, 1.06695 -1.15666, 1.2023 -1.11819, 1.3255 -1.06323, 1.4487 -1.00827, 1.55313 -0.932467, 1.63855 -0.836056, 1.7242 -0.739416, 1.76679 -0.611861, 1.76679 -0.453391, 1.76679 -0.277287, 1.70977 -0.144693, 1.59527 -0.0556109, 1.48076 0.0337007, 1.35321 0.0781274, 1.21214 0.0778985, 1.07886 0.0781274, 0.954285 0.0337007, 0.838409 -0.0556109, 0.722762 -0.144693, 0.664824 -0.277287, 0.664824 -0.453391, 0.664824 -0.543618, 0.681312 -0.621708, 0.71406 -0.687662, 0.746807 -0.753615, 0.756884 -0.780408, 0.744059 -0.7685, 0.706503 -0.775599, 0.625893 -0.779263, 0.50246 -0.779492, 0.404447 -0.779263, 0.315364 -0.749264, 0.234755 -0.689494, 0.154145 -0.629495, 0.0886503 -0.552091, 0.0382695 -0.457055, -0.0345538 -0.32011, -0.0773774 -0.161182, -0.0899726 0.0195024, -0.102339 0.200416, -0.108751 0.389573, -0.108751 0.587203, -0.108751 0.775444, -0.0991328 0.957044, -0.0803545 1.13155, -0.0615761 1.30628, -0.00936329 1.46429, 0.0760552 1.60581, 0.136512 1.70612, 0.214602 1.78444, 0.310097 1.84054, 0.405821 1.89688, 0.508873 1.92481, 0.619481 1.92459, 0.818257 1.92481, 0.977414 1.87123, 1.09695 1.7636, 1.21649 1.65619, 1.30397 1.51329, 1.35916 1.33467, 1.38435 1.25429, 1.43863 1.21399, 1.52153 1.21376 L 1.71778 1.21376 C 1.80343 1.24811, 1.84855 1.30559, 1.85358 1.38597 Z" stroke="none" fill="#FF1E00" transform="matrix(1.12 0 0 1 7.52482 11.6474)" />
			<rect />
		</svg>
	</g>
	<g transform="matrix(1 0 -0 1 173.885 108.397)">
		<svg width="35.9860382" height="38.9253807">
			<defs />
			<path d="M 4.92706 12.0893 C 4.07361 12.059, 3.25574 12.0435, 2.47386 12.0435, 1.69238 12.0435, 0.867967 12.059, 0.00061515 12.0893 L 0.00061515 11.2191, 1.36891 11.2191, 1.36891 3.51802, 0.00061515 3.51802, 0.00061515 2.64781 C 0.863469 2.67889, 1.68788 2.69402, 2.47386 2.69361, 3.25574 2.69402, 4.07361 2.67889, 4.92706 2.64781 L 4.92706 3.51802, 3.55917 3.51802, 3.55917 11.2191, 4.92706 11.2191, 4.92706 12.0893 Z" stroke="none" fill="#000000" />
			<path d="M 2.10017 2.3203 L -1.8355 2.3203, -1.8355 1.83665, -1.11093 1.83665, -1.11093 -2.47595, -1.8355 -2.47595, -1.8355 -2.96327 C -1.36741 -2.94587, -0.919709 -2.9374, -0.492158 -2.93762, -0.00667024 -2.9374, 0.502863 -2.94587, 1.03598 -2.96327 L 1.03598 -2.47595, 0.122946 -2.47595, 0.122946 1.83665, 0.609579 1.83665 C 0.775836 1.83688, 0.930414 1.80276, 1.07377 1.73428, 1.21713 1.66604, 1.3417 1.5694, 1.44728 1.44459, 1.58834 1.2788, 1.68269 1.08529, 1.73032 0.864069, 1.77819 0.64308, 1.81712 0.39942, 1.84735 0.132859 L 2.34909 0.132859 Z" stroke="none" fill="#000000" transform="matrix(1.12 0 0 1 8.12684 11.6474)" />
			<rect />
		</svg>
	</g>
	<g transform="matrix(1 0 -0 1 187.515 82.6888)">
		<svg width="18.0697632" height="35.9036179">
			<defs />
			<path d="M 4.92706 12.0893 C 4.07361 12.059, 3.25574 12.0435, 2.47386 12.0435, 1.69238 12.0435, 0.867967 12.059, 0.00061515 12.0893 L 0.00061515 11.2191, 1.36891 11.2191, 1.36891 3.51802, 0.00061515 3.51802, 0.00061515 2.64781 C 0.863469 2.67889, 1.68788 2.69402, 2.47386 2.69361, 3.25574 2.69402, 4.07361 2.67889, 4.92706 2.64781 L 4.92706 3.51802, 3.55917 3.51802, 3.55917 11.2191, 4.92706 11.2191, 4.92706 12.0893 Z" stroke="none" fill="#0EE500" />
			<rect />
		</svg>
	</g>
	<path d="M 0 0 L 0 -114.413" fill="none" stroke="#FF1E00" stroke-width="2.4000001" stroke-linecap="round" stroke-linejoin="round" marker-end="url(#CustomMarker-10)" transform="matrix(0.416667 0 0 0.416667 146.603 81.4883)" />
	<g transform="matrix(1 0 -0 1 150.531 60.0614)">
		<svg width="32.9720879" height="41.9471397">
			<defs />
			<path d="M 4.92706 12.0893 C 4.07361 12.059, 3.25574 12.0435, 2.47386 12.0435, 1.69238 12.0435, 0.867967 12.059, 0.00061515 12.0893 L 0.00061515 11.2191, 1.36891 11.2191, 1.36891 3.51802, 0.00061515 3.51802, 0.00061515 2.64781 C 0.863469 2.67889, 1.68788 2.69402, 2.47386 2.69361, 3.25574 2.69402, 4.07361 2.67889, 4.92706 2.64781 L 4.92706 3.51802, 3.55917 3.51802, 3.55917 11.2191, 4.92706 11.2191, 4.92706 12.0893 Z" stroke="none" fill="#FF1E00" />
			<path d="M 1.85358 1.38597 C 1.83114 1.5449, 1.77962 1.68482, 1.69901 1.80573, 1.6184 1.92665, 1.51718 2.02741, 1.39512 2.10802, 1.27329 2.18863, 1.13543 2.2516, 0.981995 2.29649, 0.828562 2.34183, 0.668717 2.36427, 0.50246 2.36427, 0.268647 2.36427, 0.0417045 2.3242, -0.178597 2.24359, -0.39867 2.16298, -0.593094 2.0384, -0.761641 1.86962, -0.935226 1.69146, -1.05706 1.492, -1.12759 1.27078, -1.19812 1.04979, -1.23339 0.821932, -1.23339 0.587203, -1.23339 0.355451, -1.19744 0.12576, -1.12576 -0.101412, -1.05408 -0.328583, -0.932707 -0.531252, -0.761641 -0.709875, -0.595613 -0.883002, -0.401876 -1.0101, -0.180429 -1.09071, 0.0410175 -1.17132, 0.268647 -1.21162, 0.50246 -1.21185, 0.633451 -1.21162, 0.772456 -1.20063, 0.919706 -1.17865, 1.06695 -1.15666, 1.2023 -1.11819, 1.3255 -1.06323, 1.4487 -1.00827, 1.55313 -0.932467, 1.63855 -0.836056, 1.7242 -0.739416, 1.76679 -0.611861, 1.76679 -0.453391, 1.76679 -0.277287, 1.70977 -0.144693, 1.59527 -0.0556109, 1.48076 0.0337007, 1.35321 0.0781274, 1.21214 0.0778985, 1.07886 0.0781274, 0.954285 0.0337007, 0.838409 -0.0556109, 0.722762 -0.144693, 0.664824 -0.277287, 0.664824 -0.453391, 0.664824 -0.543618, 0.681312 -0.621708, 0.71406 -0.687662, 0.746807 -0.753615, 0.756884 -0.780408, 0.744059 -0.7685, 0.706503 -0.775599, 0.625893 -0.779263, 0.50246 -0.779492, 0.404447 -0.779263, 0.315364 -0.749264, 0.234755 -0.689494, 0.154145 -0.629495, 0.0886503 -0.552091, 0.0382695 -0.457055, -0.0345538 -0.32011, -0.0773774 -0.161182, -0.0899726 0.0195024, -0.102339 0.200416, -0.108751 0.389573, -0.108751 0.587203, -0.108751 0.775444, -0.0991328 0.957044, -0.0803545 1.13155, -0.0615761 1.30628, -0.00936329 1.46429, 0.0760552 1.60581, 0.136512 1.70612, 0.214602 1.78444, 0.310097 1.84054, 0.405821 1.89688, 0.508873 1.92481, 0.619481 1.92459, 0.818257 1.92481, 0.977414 1.87123, 1.09695 1.7636, 1.21649 1.65619, 1.30397 1.51329, 1.35916 1.33467, 1.38435 1.25429, 1.43863 1.21399, 1.52153 1.21376 L 1.71778 1.21376 C 1.80343 1.24811, 1.84855 1.30559, 1.85358 1.38597 Z" stroke="none" fill="#FF1E00" transform="matrix(1.12 0 0 1 7.52482 11.6474)" />
			<rect />
		</svg>
	</g>
	<path d="M 0 0 L 266.025 0" fill="none" stroke="#000000" stroke-width="2.4000001" stroke-linecap="round" stroke-linejoin="round" marker-end="url(#CustomMarker-11)" transform="matrix(0.416667 0 0 0.416667 280.4 82.1524)" />
	<path d="M 0 0 L 162.525 115.875" fill="none" stroke="#000000" stroke-width="2.4000001" stroke-linecap="round" stroke-linejoin="round" marker-end="url(#CustomMarker-12)" transform="matrix(0.416667 0 0 0.416667 280.4 82.1524)" />
	<path d="M 0 0 L 0 -181.213" fill="none" stroke="#FF1E00" stroke-width="2.4000001" stroke-linecap="round" stroke-linejoin="round" marker-end="url(#CustomMarker-13)" transform="matrix(0.416667 0 0 0.416667 348.118 130.283)" />
	<path d="M 0 0 L 162.525 -65.7" fill="none" stroke="#0EE500" stroke-width="2.4000001" stroke-linecap="round" stroke-linejoin="round" marker-end="url(#CustomMarker-14)" transform="matrix(0.416667 0 0 0.416667 280.4 82.1524)" />
	<g transform="matrix(1 0 -0 1 394.568 73.6888)">
		<svg width="32.9720879" height="35.9036179">
			<defs />
			<path d="M 9.91219 3.51802 C 9.67419 3.51843, 9.47422 3.52089, 9.31228 3.52497, 9.15075 3.52947, 8.99577 3.5401, 8.84732 3.55728, 8.78026 3.57527, 8.72505 3.58836, 8.68252 3.59695, 8.63999 3.60594, 8.61832 3.59899, 8.61832 3.57691 L 8.61832 8.89634 C 8.61832 9.33718, 8.5488 9.76942, 8.40935 10.1923, 8.27032 10.6155, 8.03436 10.9885, 7.70149 11.3107, 7.37352 11.6383, 6.9973 11.8738, 6.57282 12.0173, 6.14835 12.1613, 5.7112 12.2333, 5.26178 12.2333, 4.75429 12.2333, 4.25212 12.1658, 3.75567 12.0304, 3.25922 11.8955, 2.81103 11.6624, 2.41109 11.3303, 2.03855 11.0298, 1.75884 10.6666, 1.57236 10.2413, 1.38589 9.81604, 1.29265 9.36785, 1.29265 8.89634 L 1.29265 3.51802, -0.00122249 3.51802, -0.00122249 2.64781 C 0.834642 2.67889, 1.63411 2.69402, 2.39759 2.69361, 3.15249 2.69402, 3.95032 2.67889, 4.79027 2.64781 L 4.79027 3.51802, 3.4964 3.51802, 3.4964 8.89634 C 3.4964 9.26766, 3.51358 9.60993, 3.54711 9.924, 3.58064 10.2381, 3.68738 10.5149, 3.8669 10.7545, 4.01984 10.9512, 4.22185 11.1017, 4.47335 11.2064, 4.72525 11.3111, 4.98779 11.3635, 5.26178 11.363, 5.59874 11.3635, 5.92139 11.3103, 6.22891 11.2031, 6.53684 11.0964, 6.79856 10.9361, 7.01407 10.7218, 7.23898 10.4953, 7.39969 10.2229, 7.4962 9.90437, 7.59271 9.58622, 7.64096 9.25007, 7.64096 8.89634 L 7.64096 3.57691 C 7.64096 3.5949, 7.62215 3.5994, 7.58371 3.5904, 7.54568 3.58182, 7.49293 3.57078, 7.42546 3.55728, 7.26842 3.53152, 7.10853 3.51843, 6.94659 3.51802 L 6.34709 3.51802, 6.34709 2.64781 C 6.98053 2.67889, 7.57594 2.69402, 8.13291 2.69361, 8.68579 2.69402, 9.27875 2.67889, 9.91219 2.64781 L 9.91219 3.51802 Z" stroke="none" fill="#000000" />
			<rect />
		</svg>
	</g>
	<g transform="matrix(1 0 -0 1 352.047 108.856)">
		<svg width="32.9720879" height="41.9471397">
			<defs />
			<path d="M 4.92706 12.0893 C 4.07361 12.059, 3.25574 12.0435, 2.47386 12.0435, 1.69238 12.0435, 0.867967 12.059, 0.00061515 12.0893 L 0.00061515 11.2191, 1.36891 11.2191, 1.36891 3.51802, 0.00061515 3.51802, 0.00061515 2.64781 C 0.863469 2.67889, 1.68788 2.69402, 2.47386 2.69361, 3.25574 2.69402, 4.07361 2.67889, 4.92706 2.64781 L 4.92706 3.51802, 3.55917 3.51802, 3.55917 11.2191, 4.92706 11.2191, 4.92706 12.0893 Z" stroke="none" fill="#FF1E00" />
			<path d="M 1.85358 1.38597 C 1.83114 1.5449, 1.77962 1.68482, 1.69901 1.80573, 1.6184 1.92665, 1.51718 2.02741, 1.39512 2.10802, 1.27329 2.18863, 1.13543 2.2516, 0.981995 2.29649, 0.828562 2.34183, 0.668717 2.36427, 0.50246 2.36427, 0.268647 2.36427, 0.0417045 2.3242, -0.178597 2.24359, -0.39867 2.16298, -0.593094 2.0384, -0.761641 1.86962, -0.935226 1.69146, -1.05706 1.492, -1.12759 1.27078, -1.19812 1.04979, -1.23339 0.821932, -1.23339 0.587203, -1.23339 0.355451, -1.19744 0.12576, -1.12576 -0.101412, -1.05408 -0.328583, -0.932707 -0.531252, -0.761641 -0.709875, -0.595613 -0.883002, -0.401876 -1.0101, -0.180429 -1.09071, 0.0410175 -1.17132, 0.268647 -1.21162, 0.50246 -1.21185, 0.633451 -1.21162, 0.772456 -1.20063, 0.919706 -1.17865, 1.06695 -1.15666, 1.2023 -1.11819, 1.3255 -1.06323, 1.4487 -1.00827, 1.55313 -0.932467, 1.63855 -0.836056, 1.7242 -0.739416, 1.76679 -0.611861, 1.76679 -0.453391, 1.76679 -0.277287, 1.70977 -0.144693, 1.59527 -0.0556109, 1.48076 0.0337007, 1.35321 0.0781274, 1.21214 0.0778985, 1.07886 0.0781274, 0.954285 0.0337007, 0.838409 -0.0556109, 0.722762 -0.144693, 0.664824 -0.277287, 0.664824 -0.453391, 0.664824 -0.543618, 0.681312 -0.621708, 0.71406 -0.687662, 0.746807 -0.753615, 0.756884 -0.780408, 0.744059 -0.7685, 0.706503 -0.775599, 0.625893 -0.779263, 0.50246 -0.779492, 0.404447 -0.779263, 0.315364 -0.749264, 0.234755 -0.689494, 0.154145 -0.629495, 0.0886503 -0.552091, 0.0382695 -0.457055, -0.0345538 -0.32011, -0.0773774 -0.161182, -0.0899726 0.0195024, -0.102339 0.200416, -0.108751 0.389573, -0.108751 0.587203, -0.108751 0.775444, -0.0991328 0.957044, -0.0803545 1.13155, -0.0615761 1.30628, -0.00936329 1.46429, 0.0760552 1.60581, 0.136512 1.70612, 0.214602 1.78444, 0.310097 1.84054, 0.405821 1.89688, 0.508873 1.92481, 0.619481 1.92459, 0.818257 1.92481, 0.977414 1.87123, 1.09695 1.7636, 1.21649 1.65619, 1.30397 1.51329, 1.35916 1.33467, 1.38435 1.25429, 1.43863 1.21399, 1.52153 1.21376 L 1.71778 1.21376 C 1.80343 1.24811, 1.84855 1.30559, 1.85358 1.38597 Z" stroke="none" fill="#FF1E00" transform="matrix(1.12 0 0 1 7.52482 11.6474)" />
			<rect />
		</svg>
	</g>
	<g transform="matrix(1 0 -0 1 307.682 108.856)">
		<svg width="35.9860382" height="38.9253807">
			<defs />
			<path d="M 4.92706 12.0893 C 4.07361 12.059, 3.25574 12.0435, 2.47386 12.0435, 1.69238 12.0435, 0.867967 12.059, 0.00061515 12.0893 L 0.00061515 11.2191, 1.36891 11.2191, 1.36891 3.51802, 0.00061515 3.51802, 0.00061515 2.64781 C 0.863469 2.67889, 1.68788 2.69402, 2.47386 2.69361, 3.25574 2.69402, 4.07361 2.67889, 4.92706 2.64781 L 4.92706 3.51802, 3.55917 3.51802, 3.55917 11.2191, 4.92706 11.2191, 4.92706 12.0893 Z" stroke="none" fill="#000000" />
			<path d="M 2.10017 2.3203 L -1.8355 2.3203, -1.8355 1.83665, -1.11093 1.83665, -1.11093 -2.47595, -1.8355 -2.47595, -1.8355 -2.96327 C -1.36741 -2.94587, -0.919709 -2.9374, -0.492158 -2.93762, -0.00667024 -2.9374, 0.502863 -2.94587, 1.03598 -2.96327 L 1.03598 -2.47595, 0.122946 -2.47595, 0.122946 1.83665, 0.609579 1.83665 C 0.775836 1.83688, 0.930414 1.80276, 1.07377 1.73428, 1.21713 1.66604, 1.3417 1.5694, 1.44728 1.44459, 1.58834 1.2788, 1.68269 1.08529, 1.73032 0.864069, 1.77819 0.64308, 1.81712 0.39942, 1.84735 0.132859 L 2.34909 0.132859 Z" stroke="none" fill="#000000" transform="matrix(1.12 0 0 1 8.12684 11.6474)" />
			<rect />
		</svg>
	</g>
	<g transform="matrix(1 0 -0 1 321.311 83.147)">
		<svg width="18.0697632" height="35.9036179">
			<defs />
			<path d="M 4.92706 12.0893 C 4.07361 12.059, 3.25574 12.0435, 2.47386 12.0435, 1.69238 12.0435, 0.867967 12.059, 0.00061515 12.0893 L 0.00061515 11.2191, 1.36891 11.2191, 1.36891 3.51802, 0.00061515 3.51802, 0.00061515 2.64781 C 0.863469 2.67889, 1.68788 2.69402, 2.47386 2.69361, 3.25574 2.69402, 4.07361 2.67889, 4.92706 2.64781 L 4.92706 3.51802, 3.55917 3.51802, 3.55917 11.2191, 4.92706 11.2191, 4.92706 12.0893 Z" stroke="none" fill="#0EE500" />
			<rect />
		</svg>
	</g>
	<path d="M 0 0 L 0 -181.213" fill="none" stroke="#FF1E00" stroke-width="2.4000001" stroke-linecap="round" stroke-linejoin="round" marker-end="url(#CustomMarker-15)" transform="matrix(0.416667 0 0 0.416667 280.4 80.905)" />
	<g transform="matrix(1 0 -0 1 284.328 59.478)">
		<svg width="32.9720879" height="41.9471397">
			<defs />
			<path d="M 4.92706 12.0893 C 4.07361 12.059, 3.25574 12.0435, 2.47386 12.0435, 1.69238 12.0435, 0.867967 12.059, 0.00061515 12.0893 L 0.00061515 11.2191, 1.36891 11.2191, 1.36891 3.51802, 0.00061515 3.51802, 0.00061515 2.64781 C 0.863469 2.67889, 1.68788 2.69402, 2.47386 2.69361, 3.25574 2.69402, 4.07361 2.67889, 4.92706 2.64781 L 4.92706 3.51802, 3.55917 3.51802, 3.55917 11.2191, 4.92706 11.2191, 4.92706 12.0893 Z" stroke="none" fill="#FF1E00" />
			<path d="M 1.85358 1.38597 C 1.83114 1.5449, 1.77962 1.68482, 1.69901 1.80573, 1.6184 1.92665, 1.51718 2.02741, 1.39512 2.10802, 1.27329 2.18863, 1.13543 2.2516, 0.981995 2.29649, 0.828562 2.34183, 0.668717 2.36427, 0.50246 2.36427, 0.268647 2.36427, 0.0417045 2.3242, -0.178597 2.24359, -0.39867 2.16298, -0.593094 2.0384, -0.761641 1.86962, -0.935226 1.69146, -1.05706 1.492, -1.12759 1.27078, -1.19812 1.04979, -1.23339 0.821932, -1.23339 0.587203, -1.23339 0.355451, -1.19744 0.12576, -1.12576 -0.101412, -1.05408 -0.328583, -0.932707 -0.531252, -0.761641 -0.709875, -0.595613 -0.883002, -0.401876 -1.0101, -0.180429 -1.09071, 0.0410175 -1.17132, 0.268647 -1.21162, 0.50246 -1.21185, 0.633451 -1.21162, 0.772456 -1.20063, 0.919706 -1.17865, 1.06695 -1.15666, 1.2023 -1.11819, 1.3255 -1.06323, 1.4487 -1.00827, 1.55313 -0.932467, 1.63855 -0.836056, 1.7242 -0.739416, 1.76679 -0.611861, 1.76679 -0.453391, 1.76679 -0.277287, 1.70977 -0.144693, 1.59527 -0.0556109, 1.48076 0.0337007, 1.35321 0.0781274, 1.21214 0.0778985, 1.07886 0.0781274, 0.954285 0.0337007, 0.838409 -0.0556109, 0.722762 -0.144693, 0.664824 -0.277287, 0.664824 -0.453391, 0.664824 -0.543618, 0.681312 -0.621708, 0.71406 -0.687662, 0.746807 -0.753615, 0.756884 -0.780408, 0.744059 -0.7685, 0.706503 -0.775599, 0.625893 -0.779263, 0.50246 -0.779492, 0.404447 -0.779263, 0.315364 -0.749264, 0.234755 -0.689494, 0.154145 -0.629495, 0.0886503 -0.552091, 0.0382695 -0.457055, -0.0345538 -0.32011, -0.0773774 -0.161182, -0.0899726 0.0195024, -0.102339 0.200416, -0.108751 0.389573, -0.108751 0.587203, -0.108751 0.775444, -0.0991328 0.957044, -0.0803545 1.13155, -0.0615761 1.30628, -0.00936329 1.46429, 0.0760552 1.60581, 0.136512 1.70612, 0.214602 1.78444, 0.310097 1.84054, 0.405821 1.89688, 0.508873 1.92481, 0.619481 1.92459, 0.818257 1.92481, 0.977414 1.87123, 1.09695 1.7636, 1.21649 1.65619, 1.30397 1.51329, 1.35916 1.33467, 1.38435 1.25429, 1.43863 1.21399, 1.52153 1.21376 L 1.71778 1.21376 C 1.80343 1.24811, 1.84855 1.30559, 1.85358 1.38597 Z" stroke="none" fill="#FF1E00" transform="matrix(1.12 0 0 1 7.52482 11.6474)" />
			<rect />
		</svg>
	</g>
</svg>
