<?xml version="1.0"?>
<svg xmlns="http://www.w3.org/2000/svg" xmlns:xlink="http://www.w3.org/1999/xlink" width="247.103989" height="153.576782">
	<defs>
		<marker id="CustomMarker-01" markerUnits="strokeWidth" markerWidth="15.000001" markerHeight="9" viewBox="-15 -4.5 15 9" orient="auto-start-reverse">
			<path d="M 0 -0 L -10 -3, -8 -0.5, -8 0.5, -10 3 Z" fill="#000000" stroke="#000000" stroke-linejoin="round" />
		</marker>
		<marker id="CustomMarker-02" markerUnits="strokeWidth" markerWidth="15.000001" markerHeight="9" viewBox="-15 -4.5 15 9" orient="auto-start-reverse">
			<path d="M 0 -0 L -10 -3, -8 -0.5, -8 0.5, -10 3 Z" fill="#000000" stroke="#000000" stroke-linejoin="round" />
		</marker>
	</defs>
	<ellipse cx="495.87692260742187" cy="429.49197387695312" rx="7.875" ry="7.875" stroke="none" fill="#000000" transform="matrix(0.333333 0 0 0.333333 -154.115 -52.8783)" />
	<path d="M 0 0 C 65.3571 -103.821, 14.8907 -349.179, -217.5 -349.179" fill="none" stroke="#000000" stroke-width="3" stroke-linecap="round" stroke-linejoin="round" transform="matrix(0.333333 0 0 0.333333 97.7491 124.893)" />
	<path d="M 0 0 L 259.714 -110.464" fill="none" stroke="#000000" stroke-width="3" stroke-linecap="round" stroke-linejoin="round" marker-end="url(#CustomMarker-01)" transform="matrix(0.333333 0 0 0.333333 11.1776 90.2857)" />
	<g transform="matrix(1 0 -0 1 7.99999 70.6375)">
		<svg width="23.9302292" height="35.9036179">
			<defs />
			<path d="M 6.35547 9.21695 C 6.35547 9.60135, 6.30067 9.98411, 6.19026 10.3656, 6.08026 10.7476, 5.88356 11.0886, 5.60058 11.3892, 5.34458 11.6775, 5.03584 11.8902, 4.67393 12.0272, 4.31243 12.1646, 3.94071 12.2333, 3.55876 12.2333, 2.57486 12.2333, 1.79543 12.0173, 1.22006 11.5855 L 0.647142 12.1417 C 0.589073 12.194, 0.5171 12.2247, 0.431633 12.2333 L 0.310179 12.2333 C 0.234117 12.2333, 0.163371 12.2038, 0.0979413 12.1449, 0.0329206 12.086, 0.000205755 12.0132, 0.000205755 11.9257 L 0.000205755 9.11226 C 0.000205755 9.03865, 0.0316938 8.96872, 0.0946699 8.90329, 0.157646 8.83786, 0.229619 8.80515, 0.310179 8.80474 L 0.586619 8.80474 C 0.66309 8.80515, 0.735063 8.83786, 0.802537 8.90329, 0.870012 8.96872, 0.903544 9.03865, 0.903544 9.11226, 0.903544 9.83689, 1.144 10.393, 1.6245 10.7811, 2.10541 11.1696, 2.74989 11.3635, 3.55876 11.363, 3.92721 11.3635, 4.21715 11.2391, 4.42816 10.9901, 4.54961 10.8511, 4.63713 10.6887, 4.6911 10.5031, 4.74508 10.3178, 4.77167 10.1182, 4.77167 9.90396, 4.77167 9.55964, 4.68538 9.25457, 4.5124 8.98835, 4.33942 8.72254, 4.10469 8.54997, 3.8078 8.47105 L 2.14998 8.07193 C 1.82692 8.00241, 1.53371 7.87728, 1.27077 7.69612, 1.00823 7.51537, 0.783317 7.30477, 0.596843 7.06472, 0.410368 6.82508, 0.264378 6.5556, 0.158873 6.25666, 0.0533674 5.95814, 0.000205755 5.64939, 0.000205755 5.33042, 0.000205755 4.95993, 0.0578657 4.5972, 0.172368 4.24143, 0.28687 3.88606, 0.483568 3.56628, 0.761644 3.28248, 1.03154 3.00808, 1.34479 2.81097, 1.7022 2.69075, 2.0596 2.57093, 2.42438 2.51081, 2.79692 2.51041, 3.63728 2.51081, 4.29771 2.71814, 4.77862 3.13199 L 5.33109 2.59546 C 5.39406 2.53903, 5.47054 2.51081, 5.56009 2.51041 L 5.66805 2.51041 C 5.74452 2.51081, 5.8165 2.53944, 5.88356 2.59587, 5.95104 2.65271, 5.98457 2.72469, 5.98457 2.81138 L 5.98457 5.62486 C 5.98457 5.69929, 5.95104 5.76921, 5.88356 5.83464, 5.8165 5.90007, 5.74452 5.93279, 5.66805 5.93238 L 5.39161 5.93238 C 5.20759 5.93279, 5.10209 5.83914, 5.0751 5.65103, 5.00762 4.91863, 4.78189 4.34734, 4.39749 3.93718, 4.0135 3.52743, 3.47984 3.32214, 2.79692 3.32173, 2.62639 3.32214, 2.46363 3.34954, 2.30865 3.40393, 2.15366 3.45873, 2.02444 3.54256, 1.92098 3.65543, 1.80443 3.77811, 1.72019 3.92205, 1.66825 4.08767, 1.61673 4.2537, 1.59056 4.4324, 1.59056 4.62378, 1.59056 4.92967, 1.67725 5.19997, 1.85023 5.43552, 2.02321 5.67107, 2.2514 5.8236, 2.53438 5.89312 L 4.17871 6.29224 C 4.52017 6.37117, 4.82442 6.50652, 5.09186 6.69831, 5.35931 6.89051, 5.58586 7.11706, 5.77233 7.37878, 5.95881 7.6405, 6.10275 7.92839, 6.20376 8.24245, 6.30517 8.55652, 6.35547 8.88162, 6.35547 9.21695 Z" stroke="none" fill="#000000" />
			<rect />
		</svg>
	</g>
	<g transform="matrix(1 0 -0 1 93.4808 129.566)">
		<svg width="29.9581337" height="35.9036179">
			<defs />
			<path d="M 8.15234 11.8341 C 8.12535 11.9564, 8.05133 12.0173, 7.93028 12.0173 L 0.215307 12.0173 C 0.166235 12.0173, 0.1143 12.0002, 0.0603205 11.965, 0.0202448 11.9216, -0.000201941 11.8673, -0.000201941 11.8014, -0.000201941 11.7409, 0.0157465 11.6951, 0.0468256 11.664 L 3.37515 7.90181, 0.0398737 3.17125 C 0.0132929 3.1324, -0.000201941 3.09314, -0.000201941 3.05347 L -0.000201941 2.94878 C -0.000201941 2.80525, 0.0717707 2.73328, 0.215307 2.73287 L 7.93028 2.73287 C 8.04724 2.73328, 8.12126 2.79216, 8.15234 2.90953 L 8.53633 5.65757 C 8.53633 5.77576, 8.46926 5.84977, 8.33431 5.88003 L 8.27379 5.88003 C 8.15683 5.88044, 8.08527 5.81951, 8.05828 5.69683, 8.0043 5.29607, 7.91352 4.91781, 7.78552 4.56204, 7.65752 4.20667, 7.45428 3.91755, 7.17539 3.69468, 7.04085 3.5904, 6.8691 3.51107, 6.66013 3.45627, 6.45157 3.40189, 6.21889 3.35936, 5.9629 3.32869, 5.7069 3.29842, 5.437 3.28084, 5.15402 3.27634, 4.87104 3.27225, 4.59255 3.2698, 4.31857 3.26939 L 1.65721 3.26939, 4.46701 7.24752 C 4.503 7.28268, 4.52058 7.32848, 4.52058 7.38492, 4.52058 7.42458, 4.503 7.46834, 4.46701 7.51578 L 1.0708 11.3369, 4.20406 11.3369 C 4.48705 11.3373, 4.77576 11.3352, 5.06978 11.3307, 5.36421 11.3266, 5.64597 11.3091, 5.91546 11.2784, 6.18536 11.2481, 6.42908 11.2044, 6.64664 11.1475, 6.8646 11.0911, 7.04085 11.0101, 7.17539 10.905, 7.45837 10.683, 7.66161 10.3975, 7.78511 10.0483, 7.90861 9.69949, 7.9998 9.32654, 8.05828 8.92906, 8.05828 8.80311, 8.13025 8.73972, 8.27379 8.73931 L 8.33431 8.73931 C 8.46476 8.76589, 8.53224 8.83582, 8.53633 8.94869 Z" stroke="none" fill="#000000" />
			<rect />
		</svg>
	</g>
	<ellipse cx="1167.019775390625" cy="429.49197387695312" rx="7.875" ry="7.875" stroke="none" fill="#000000" transform="matrix(0.333333 0 0 0.333333 -154.115 -52.8783)" />
	<path d="M 0 0 L 411.429 110.464" fill="none" stroke="#000000" stroke-width="3" stroke-linecap="round" stroke-linejoin="round" marker-end="url(#CustomMarker-02)" transform="matrix(0.333333 0 0 0.333333 97.7491 53.4643)" />
	<g transform="matrix(1 0 -0 1 230.68 70.6375)">
		<svg width="29.9581337" height="35.9036179">
			<defs />
			<path d="M 8.42244 5.38277 C 8.42244 5.75817, 8.3427 6.11722, 8.18321 6.4595, 8.02373 6.80218, 7.7935 7.09089, 7.49211 7.32603, 7.14615 7.59266, 6.76216 7.78036, 6.33973 7.88913, 5.91771 7.99832, 5.49078 8.05271, 5.05936 8.0523 L 3.49599 8.0523, 3.49599 11.2191, 4.78987 11.2191, 4.78987 12.0893 C 3.94542 12.059, 3.14799 12.0435, 2.39719 12.0435, 1.6337 12.0435, 0.834234 12.059, -0.00163051 12.0893 L -0.00163051 11.2191, 1.29224 11.2191, 1.29224 3.51802, -0.00163051 3.51802, -0.00163051 2.65435, 5.05936 2.65435 C 5.49078 2.65476, 5.91771 2.71037, 6.33973 2.82161, 6.76216 2.93284, 7.14615 3.12381, 7.49211 3.39371, 7.80699 3.63825, 8.04049 3.93309, 8.19344 4.27742, 8.34638 4.62215, 8.42244 4.9906, 8.42244 5.38277 Z M 6.07024 5.38277 C 6.07024 5.25232, 6.0682 5.11614, 6.0637 4.97424, 6.0592 4.83275, 6.05021 4.69535, 6.03671 4.56204, 6.02322 4.42913, 6.00195 4.31013, 5.97251 4.20544, 5.94347 4.10076, 5.90176 4.0202, 5.84778 3.96294, 5.69975 3.78465, 5.5055 3.66565, 5.26505 3.60676, 5.0246 3.54787, 4.77637 3.51843, 4.52038 3.51802 L 3.42852 3.51802, 3.42852 7.25406, 4.52038 7.25406 C 4.77637 7.25447, 5.0246 7.22502, 5.26505 7.16614, 5.5055 7.10725, 5.69975 6.98416, 5.84778 6.79605, 5.90176 6.73962, 5.94347 6.65906, 5.97251 6.55437, 6.00195 6.44968, 6.02322 6.33314, 6.03671 6.20432, 6.05021 6.07591, 6.0592 5.94056, 6.0637 5.79866, 6.0682 5.65716, 6.07024 5.51854, 6.07024 5.38277 Z" stroke="none" fill="#000000" />
			<rect />
		</svg>
	</g>
	<path d="M -335.572 0 L 335.571 0" fill="none" stroke="#000000" stroke-width="1.5" stroke-linecap="round" stroke-linejoin="round" stroke-dasharray="5.2575, 3.7425" transform="matrix(0.333333 0 0 0.333333 123.035 90.2857)" />
	<g transform="matrix(1 0 -0 1 48.8976 55.2804)">
		<svg width="35.9860382" height="35.9036179">
			<defs />
			<path d="M 10.1993 10.6368 C 10.1993 10.838, 10.1657 11.0343, 10.0983 11.226, 10.0312 11.4182, 9.931 11.5871, 9.79851 11.7331, 9.66601 11.8795, 9.51103 11.9989, 9.33355 12.0926, 9.15607 12.1866, 8.95528 12.2333, 8.73037 12.2333, 8.35742 12.2333, 7.98815 12.205, 7.62175 12.1482, 7.25575 12.0918, 6.92778 11.9936, 6.63785 11.8542, 6.34832 11.7147, 6.11114 11.5172, 5.92671 11.262, 5.74269 11.0069, 5.65027 10.6785, 5.65027 10.2769 L 5.65027 9.11226 C 5.65027 8.72009, 5.55294 8.3909, 5.35747 8.12468, 5.162 7.85887, 4.91377 7.72556, 4.61239 7.72515 L 3.42648 7.72515, 3.42648 11.2191, 4.72035 11.2191, 4.72035 12.0893 C 3.89389 12.059, 3.10751 12.0435, 2.36161 12.0435, 1.60671 12.0435, 0.818285 12.059, -0.00367531 12.0893 L -0.00367531 11.2191, 1.2902 11.2191, 1.2902 3.51802, -0.00367531 3.51802, -0.00367531 2.65435, 4.61239 2.65435 C 5.12029 2.65476, 5.61264 2.70506, 6.08865 2.80525, 6.56465 2.90585, 7.01161 3.09109, 7.42955 3.36099, 7.75751 3.57527, 8.02046 3.84681, 8.21797 4.176, 8.4159 4.5056, 8.51445 4.86833, 8.51445 5.265, 8.51445 5.63631, 8.41467 5.97981, 8.2147 6.29592, 8.01514 6.61244, 7.75342 6.86843, 7.42955 7.06431, 7.09258 7.27859, 6.83659 7.407, 6.66116 7.45035, 6.83209 7.52068, 7.05905 7.69612, 7.34203 7.97746, 7.62502 8.25881, 7.79595 8.62399, 7.85402 9.073 L 8.00901 10.2246 C 8.06789 10.6654, 8.14641 10.9905, 8.24537 11.1999, 8.34433 11.4093, 8.50586 11.5139, 8.73037 11.5135, 8.89231 11.5139, 9.0293 11.4334, 9.14135 11.2718, 9.25381 11.1107, 9.30983 10.8989, 9.30983 10.6368, 9.30983 10.537, 9.34377 10.4519, 9.41084 10.382, 9.47831 10.3125, 9.56828 10.2773, 9.68033 10.2769 L 9.82877 10.2769 C 9.93223 10.2773, 10.0197 10.3125, 10.0917 10.382, 10.1637 10.4519, 10.1993 10.537, 10.1993 10.6368 Z M 6.16266 5.265 C 6.16266 5.01227, 6.15039 4.7616, 6.12586 4.51296, 6.10132 4.26433, 6.01913 4.07458, 5.87968 3.94332, 5.68666 3.75602, 5.4552 3.63866, 5.18531 3.5904, 4.91582 3.54256, 4.63733 3.51843, 4.34985 3.51802 L 3.42648 3.51802, 3.42648 7.01197, 4.34985 7.01197 C 4.63733 7.01238, 4.91582 6.98621, 5.18531 6.93386, 5.4552 6.88152, 5.68666 6.7617, 5.87968 6.57359, 6.01913 6.44314, 6.10132 6.25339, 6.12586 6.00476, 6.15039 5.75613, 6.16266 5.50954, 6.16266 5.265 Z" stroke="none" fill="#000000" />
			<rect />
		</svg>
	</g>
	<g transform="matrix(1 0 -0 1 166.229 55.2804)">
		<svg width="21.0837173" height="27.0062141">
			<defs />
			<path d="M 5.53985 7.0316 C 5.53985 7.34157, 5.43884 7.57507, 5.23683 7.7321, 5.03482 7.88913, 4.8144 7.96765, 4.5764 7.96724, 4.3384 7.96765, 4.11798 7.88913, 3.91597 7.7321, 3.71395 7.57507, 3.61254 7.34157, 3.61254 7.0316, 3.61254 6.87947, 3.64198 6.74657, 3.70046 6.63288, 3.75894 6.51961, 3.76344 6.48689, 3.71355 6.53433, 3.66447 6.53474, 3.55774 6.5969, 3.39376 6.72121, 3.22977 6.84553, 3.09483 7.01892, 2.98932 7.24138, 2.88382 7.46384, 2.80612 7.72801, 2.75664 8.03308, 2.70756 8.33855, 2.68262 8.65671, 2.68262 8.98794 L 2.68262 11.2191, 3.88203 11.2191, 3.88203 12.0893 C 3.15003 12.059, 2.46261 12.0435, 1.81977 12.0435, 1.24971 12.0435, 0.643258 12.059, 0.000411123 12.0893 L 0.000411123 11.2191, 0.950777 11.2191, 0.950777 7.04468 C 0.950777 6.99725, 0.944234 6.95472, 0.930739 6.9175, 0.917245 6.8807, 0.899251 6.85739, 0.876351 6.84839, 0.813784 6.82713, 0.70378 6.81404, 0.54634 6.80955, 0.389309 6.80546, 0.207332 6.803, 0.000411123 6.80259 L 0.000411123 5.93238, 2.53418 5.80806, 2.53418 6.4689 C 2.50719 6.53474, 2.62087 6.44232, 2.87482 6.19123, 3.12877 5.94056, 3.47595 5.81501, 3.91597 5.8146, 4.09999 5.81501, 4.28892 5.83914, 4.48194 5.88699, 4.67536 5.93524, 4.84834 6.01048, 5.00087 6.11272, 5.15382 6.21536, 5.28181 6.34172, 5.38486 6.49221, 5.48833 6.6427, 5.53985 6.82263, 5.53985 7.0316 Z" stroke="none" fill="#000000" />
			<rect />
		</svg>
	</g>
	<g transform="matrix(1 0 -0 1 98.1534 25.7831)">
		<svg width="32.9720879" height="41.9471397">
			<defs />
			<path d="M 9.11559 11.965 C 9.11559 12.2574, 9.0886 12.5604, 9.03462 12.8745, 8.98064 13.1885, 8.88658 13.4797, 8.75163 13.748, 8.61668 14.0162, 8.43389 14.2387, 8.20243 14.4153, 7.97097 14.592, 7.68227 14.6803, 7.33631 14.6803, 6.95027 14.6803, 6.64357 14.5953, 6.41661 14.4252, 6.18965 14.255, 6.01872 14.0383, 5.90421 13.7741, 5.78971 13.5104, 5.70793 13.2245, 5.65844 12.917, 5.60896 12.6095, 5.56848 12.349, 5.53699 12.1351, 5.25401 12.1965, 4.915 12.2292, 4.51915 12.2333, 3.8992 12.2333, 3.30298 12.1245, 2.73006 11.9065, 2.15755 11.6886, 1.65742 11.359, 1.23049 10.9181, 0.785978 10.4429, 0.469462 9.9011, 0.280534 9.2926, 0.0916054 8.6841, -0.0028587 8.0613, -0.0028587 7.42417, -0.0028587 6.77029, 0.0895607 6.1348, 0.273582 5.51731, 0.458012 4.90022, 0.776981 4.34734, 1.23049 3.85826, 1.65292 3.40066, 2.15182 3.06165, 2.72679 2.84123, 3.30175 2.62123, 3.8992 2.51081, 4.51915 2.51041, 5.13951 2.51081, 5.73696 2.62123, 6.31192 2.84123, 6.88689 3.06165, 7.38579 3.40066, 7.80822 3.85826, 8.26214 4.34734, 8.58111 4.899, 8.76513 5.51404, 8.94915 6.12908, 9.04116 6.76579, 9.04116 7.42417, 9.04116 8.0613, 8.9471 8.68329, 8.75817 9.28933, 8.56966 9.89578, 8.25314 10.4388, 7.80822 10.9181, 7.42177 11.3242, 7.02184 11.6121, 6.6084 11.7818, 6.69387 11.9261, 6.80714 12.0664, 6.94864 12.2038, 7.09013 12.3412, 7.26433 12.4099, 7.47126 12.4099, 7.75424 12.4099, 7.97547 12.3653, 8.13496 12.2758, 8.29444 12.1866, 8.37418 12.0828, 8.37418 11.965, 8.37418 11.8652, 8.40813 11.7802, 8.47519 11.7102, 8.54267 11.6407, 8.63263 11.6055, 8.74468 11.6051, 8.84814 11.6055, 8.93565 11.6407, 9.00763 11.7102, 9.0796 11.7802, 9.11559 11.8652, 9.11559 11.965 Z M 6.75685 7.42417 C 6.75685 6.89256, 6.72986 6.36258, 6.67588 5.83464, 6.6219 5.30712, 6.46936 4.81394, 6.21746 4.35552, 6.04244 4.03328, 5.80566 3.77279, 5.50673 3.57405, 5.20821 3.37571, 4.87901 3.27634, 4.51915 3.27593, 4.1601 3.27634, 3.83091 3.37571, 3.53198 3.57405, 3.23346 3.77279, 2.99627 4.03328, 2.82084 4.35552, 2.6953 4.59148, 2.59674 4.83357, 2.52477 5.0822, 2.4528 5.33083, 2.39882 5.58274, 2.36283 5.83791, 2.32685 6.09309, 2.30436 6.35399, 2.29536 6.6198, 2.28636 6.88602, 2.28186 7.15428, 2.28186 7.42417, 2.28186 7.6818, 2.28636 7.94066, 2.29536 8.19993, 2.30436 8.4596, 2.32685 8.71682, 2.36283 8.972, 2.39882 9.22717, 2.4528 9.4758, 2.52477 9.71789, 2.59674 9.95998, 2.6953 10.1923, 2.82084 10.4143, 2.88872 10.5501, 2.97174 10.6723, 3.0707 10.7811, 3.16966 10.8903, 3.19624 10.9271, 3.15126 10.8919, 3.18275 11.0449, 3.19829 11.0756, 3.19829 10.9836, 3.19829 10.6261, 3.32997 10.3354, 3.5925 10.1105, 3.85545 9.88597, 4.16419 9.77351, 4.51915 9.7731, 4.91909 9.77351, 5.23929 9.88392, 5.47974 10.1039, 5.72019 10.3243, 5.89849 10.528, 6.01545 10.7153, 6.06493 10.6634, 6.1324 10.5607, 6.21746 10.4078, 6.46487 9.97184, 6.61658 9.49666, 6.6726 8.98181, 6.72904 8.46737, 6.75685 7.94802, 6.75685 7.42417 Z M 5.36851 11.2387 C 5.31903 11.0428, 5.22906 10.8686, 5.09902 10.7157, 4.96898 10.5632, 4.77555 10.4867, 4.51915 10.4863, 4.34862 10.4867, 4.20959 10.537, 4.10163 10.6372, 3.99367 10.7378, 3.93969 10.8531, 3.93969 10.9836, 3.93969 11.0841, 3.97036 11.1762, 4.03088 11.2588, 4.0914 11.3418, 4.1736 11.4027, 4.27665 11.4416, 4.31264 11.4465, 4.3523 11.451, 4.39483 11.4551, 4.43736 11.4596, 4.47907 11.4616, 4.51915 11.4612, 4.69009 11.4616, 4.85202 11.4379, 5.00456 11.3896, 5.1575 11.3418, 5.27854 11.2915, 5.36851 11.2387 Z" stroke="none" fill="#000000" />
			<rect />
		</svg>
	</g>
	<ellipse cx="755.59124755859375" cy="319.0277099609375" rx="7.875" ry="7.875" stroke="none" fill="#000000" transform="matrix(0.333333 0 0 0.333333 -154.115 -52.8783)" />
	<g transform="matrix(1 0 -0 1 103.724 40.1164)">
		<svg width="54.0697556" height="35.9036179">
			<defs />
			<path d="M 4.43626 12.1678 L 4.43626 11.7425 C 4.3463 11.817, 4.1635 11.9053, 3.88706 12.0075, 3.61062 12.1102, 3.31537 12.1613, 3.0009 12.1613, 2.60096 12.1613, 2.20675 12.0897, 1.81826 11.9458, 1.42977 11.8018, 1.09362 11.5794, 0.81064 11.278, 0.514162 10.9512, 0.303969 10.5926, 0.180471 10.2021, 0.0569723 9.81195, -0.00477692 9.4071, -0.00477692 8.98794, -0.00477692 8.5741, 0.0614706 8.16517, 0.193966 7.76155, 0.326461 7.35834, 0.546877 7.00379, 0.854397 6.69831, 1.16232 6.39325, 1.51524 6.16956, 1.91272 6.02766, 2.31021 5.88617, 2.72241 5.81501, 3.14893 5.8146, 3.44582 5.81501, 3.72553 5.86204, 3.98807 5.95569, 4.25101 6.04974, 4.42727 6.13112, 4.51723 6.20064 L 4.51723 3.77974 C 4.51723 3.72331, 4.51069 3.67873, 4.49719 3.64602, 4.4837 3.6133, 4.46121 3.59245, 4.42931 3.58345, 4.36674 3.55319, 4.26001 3.53479, 4.10952 3.52825, 3.95903 3.5217, 3.77829 3.51843, 3.56687 3.51802 L 3.56687 2.66089, 6.25603 2.54312, 6.25603 10.9574 C 6.25603 11.0146, 6.26298 11.0604, 6.27606 11.0952, 6.28956 11.1304, 6.31205 11.152, 6.34354 11.1602, 6.40202 11.1913, 6.50752 11.2089, 6.66046 11.213, 6.8134 11.2175, 6.99947 11.2195, 7.21948 11.2191 L 7.21948 12.0762 Z M 4.43626 7.18209 C 4.30172 6.9907, 4.13324 6.8349, 3.93082 6.71467, 3.7288 6.59485, 3.49939 6.53474, 3.2434 6.53433, 3.03689 6.53474, 2.84714 6.58708, 2.67416 6.69177, 2.50118 6.79646, 2.365 6.93836, 2.26604 7.11666, 2.145 7.33094, 2.07098 7.60574, 2.04399 7.94148, 2.017 8.27762, 2.00351 8.62644, 2.00351 8.98794, 2.00351 9.35476, 2.0125 9.70481, 2.03049 10.0385, 2.04849 10.3722, 2.11351 10.6482, 2.22556 10.8658, 2.32043 11.0363, 2.4427 11.1737, 2.59319 11.2784, 2.74368 11.3831, 2.91093 11.4354, 3.09495 11.435, 3.38734 11.4354, 3.65029 11.3626, 3.88379 11.2162, 4.1177 11.0702, 4.30172 10.8793, 4.43626 10.6433 Z" stroke="none" fill="#000000" />
			<path d="M 16.0996 11.8341 C 16.0726 11.9564, 15.9986 12.0173, 15.8772 12.0173 L 8.16055 12.0173 C 8.11148 12.0173, 8.05955 12.0002, 8.00557 11.965, 7.96549 11.9216, 7.94505 11.8673, 7.94505 11.8014, 7.94505 11.7409, 7.96099 11.6951, 7.99207 11.664 L 11.3212 7.90181, 7.98553 3.17125 C 7.95854 3.1324, 7.94505 3.09314, 7.94505 3.05347 L 7.94505 2.94878 C 7.94505 2.80525, 8.01702 2.73328, 8.16055 2.73287 L 15.8772 2.73287 C 15.9941 2.73328, 16.0681 2.79216, 16.0996 2.90953 L 16.4836 5.65757 C 16.4836 5.77576, 16.4166 5.84977, 16.2816 5.88003 L 16.2207 5.88003 C 16.1041 5.88044, 16.0322 5.81951, 16.0052 5.69683, 15.9512 5.29607, 15.8604 4.91781, 15.7324 4.56204, 15.6044 4.20667, 15.4012 3.91755, 15.1223 3.69468, 14.9877 3.5904, 14.816 3.51107, 14.607 3.45627, 14.398 3.40189, 14.1654 3.35936, 13.9094 3.32869, 13.6534 3.29842, 13.3835 3.28084, 13.1005 3.27634, 12.8175 3.27225, 12.539 3.2698, 12.265 3.26939 L 9.60287 3.26939, 12.4131 7.24752 C 12.4491 7.28268, 12.4671 7.32848, 12.4671 7.38492, 12.4671 7.42458, 12.4491 7.46834, 12.4131 7.51578 L 9.01646 11.3369, 12.1501 11.3369 C 12.4335 11.3373, 12.7222 11.3352, 13.0167 11.3307, 13.3111 11.3266, 13.5929 11.3091, 13.8623 11.2784, 14.1318 11.2481, 14.3756 11.2044, 14.5935 11.1475, 14.8115 11.0911, 14.9877 11.0101, 15.1223 10.905, 15.4053 10.683, 15.6089 10.3975, 15.7324 10.0483, 15.8559 9.69949, 15.9471 9.32654, 16.0052 8.92906, 16.0052 8.80311, 16.0771 8.73972, 16.2207 8.73931 L 16.2816 8.73931 C 16.4121 8.76589, 16.4795 8.83582, 16.4836 8.94869 Z" stroke="none" fill="#000000" />
			<rect />
		</svg>
	</g>
</svg>
