<?xml version="1.0"?>
<svg xmlns="http://www.w3.org/2000/svg" xmlns:xlink="http://www.w3.org/1999/xlink" width="208.166626" height="209">
	<defs>
		<marker id="CustomMarker-01" markerUnits="strokeWidth" markerWidth="15.000001" markerHeight="9" viewBox="-15 -4.5 15 9" orient="auto-start-reverse">
			<path d="M 0 -0 L -10 -3, -8 -0.5, -8 0.5, -10 3 Z" fill="#FF0C00" stroke="#FF0C00" stroke-linejoin="round" />
		</marker>
		<marker id="CustomMarker-02" markerUnits="strokeWidth" markerWidth="15.000001" markerHeight="9" viewBox="-15 -4.5 15 9" orient="auto-start-reverse">
			<path d="M 0 -0 L -10 -3, -8 -0.5, -8 0.5, -10 3 Z" fill="#00FF80" stroke="#00FF80" stroke-linejoin="round" />
		</marker>
		<marker id="CustomMarker-03" markerUnits="strokeWidth" markerWidth="15.000001" markerHeight="9" viewBox="-15 -4.5 15 9" orient="auto-start-reverse">
			<path d="M 0 -0 L -10 -3, -8 -0.5, -8 0.5, -10 3 Z" fill="#000000" stroke="#000000" stroke-linejoin="round" />
		</marker>
		<marker id="CustomMarker-04" markerUnits="strokeWidth" markerWidth="15.000001" markerHeight="9" viewBox="-15 -4.5 15 9" orient="auto-start-reverse">
			<path d="M 0 -0 L -10 -3, -8 -0.5, -8 0.5, -10 3 Z" fill="#000000" stroke="#000000" stroke-linejoin="round" />
		</marker>
		<marker id="CustomMarker-05" markerUnits="strokeWidth" markerWidth="15.000001" markerHeight="9" viewBox="-15 -4.5 15 9" orient="auto-start-reverse">
			<path d="M 0 -0 L -10 -3, -8 -0.5, -8 0.5, -10 3 Z" fill="#000000" stroke="#000000" stroke-linejoin="round" />
		</marker>
		<marker id="CustomMarker-06" markerUnits="strokeWidth" markerWidth="15.000001" markerHeight="9" viewBox="-15 -4.5 15 9" orient="auto-start-reverse">
			<path d="M 0 -0 L -10 -3, -8 -0.5, -8 0.5, -10 3 Z" fill="#000000" stroke="#000000" stroke-linejoin="round" />
		</marker>
		<marker id="CustomMarker-07" markerUnits="strokeWidth" markerWidth="15.000001" markerHeight="9" viewBox="-15 -4.5 15 9" orient="auto-start-reverse">
			<path d="M 0 -0 L -10 -3, -8 -0.5, -8 0.5, -10 3 Z" fill="#000000" stroke="#000000" stroke-linejoin="round" />
		</marker>
	</defs>
	<path d="M 328.099 -0 C 328.099 181.204, 181.204 328.099, -0 328.099, -181.204 328.099, -328.099 181.204, -328.099 -0, -328.099 -181.204, -181.204 -328.099, -0 -328.099, 181.204 -328.099, 328.099 -181.204, 328.099 -0 Z" stroke="none" fill="#FFFFFF" transform="matrix(0.294118 0 0 0.294118 103.167 104.25)" />
	<path d="M 328.099 -0 C 328.099 181.204, 181.204 328.099, -0 328.099, -181.204 328.099, -328.099 181.204, -328.099 -0, -328.099 -181.204, -181.204 -328.099, -0 -328.099, 181.204 -328.099, 328.099 -181.204, 328.099 -0 Z" fill="none" stroke="#000000" stroke-width="3.4000001" stroke-linecap="round" stroke-linejoin="round" transform="matrix(0.294118 0 0 0.294118 103.167 104.25)" />
	<path d="M 0 0 L 0 -327.25" fill="none" stroke="#FF0C00" stroke-width="3.4000001" stroke-linecap="round" stroke-linejoin="round" marker-end="url(#CustomMarker-01)" transform="matrix(0.294118 0 0 0.294118 103.167 200.5)" />
	<path d="M 0 0 L -0.849243 -178.028" fill="none" stroke="#00FF80" stroke-width="3.4000001" stroke-linecap="round" stroke-linejoin="round" marker-end="url(#CustomMarker-02)" transform="matrix(0.294118 0 0 0.294118 103.167 200.5)" />
	<g transform="matrix(1 0 -0 1 81.9317 140.092)">
		<svg width="48.041851" height="41.9471397">
			<defs />
			<path d="M 9.6607 12.0893 C 8.9197 12.059, 8.20734 12.0435, 7.52442 12.0435 L 7.51092 12.0435 C 6.75603 12.0435, 5.9631 12.059, 5.13174 12.0893 L 5.13174 11.2191, 6.22359 11.2191, 5.64413 9.64224, 2.79999 9.64224, 2.24056 11.1798, 2.24056 11.1733 C 2.24056 11.1344, 2.23606 11.1128, 2.22707 11.1079, 2.30395 11.1299, 2.37796 11.1496, 2.44953 11.1668, 2.57098 11.1847, 2.69448 11.1978, 2.82043 11.2064, 2.94638 11.2154, 3.11037 11.2195, 3.31238 11.2191 L 3.31238 12.0893 C 2.74192 12.059, 2.21398 12.0435, 1.72857 12.0435 L 1.52615 12.0435 C 1.06365 12.0435, 0.553702 12.059, -0.00326777 12.0893 L -0.00326777 11.2191, 0.555747 11.2191 C 0.695194 11.2195, 0.841184 11.2064, 0.994126 11.1798, 1.0526 11.1717, 1.10658 11.1606, 1.15566 11.1475, 1.20514 11.1344, 1.22967 11.1259, 1.22967 11.121 L 4.23535 2.7983 C 4.27134 2.7071, 4.33227 2.63104, 4.41773 2.5697, 4.5032 2.50877, 4.60216 2.4781, 4.71421 2.47769 L 4.96325 2.47769 C 5.06222 2.4781, 5.15464 2.50877, 5.23969 2.5697, 5.32516 2.63104, 5.38568 2.7071, 5.42167 2.7983 L 8.46783 11.2191, 9.6607 11.2191, 9.6607 12.0893 Z M 4.22881 5.70337 L 3.11691 8.77857, 5.3407 8.77857 Z" stroke="none" fill="#000000" />
			<path d="M 2.03724 -0.266524 C 2.03724 0.0854552, 2.01273 0.435373, 1.96373 0.783459, 1.91472 1.13155, 1.79335 1.45833, 1.59961 1.76337, 1.46129 1.98596, 1.27626 2.1568, 1.04496 2.27634, 0.813668 2.3961, 0.561992 2.45587, 0.290165 2.45587, 0.0286423 2.45587, -0.218453 2.3961, -0.451121 2.27634, -0.683789 2.1568, -0.869511 1.98596, -1.00783 1.76337, -1.20134 1.45833, -1.32271 1.13155, -1.37172 0.783459, -1.42072 0.435373, -1.44546 0.0854552, -1.44546 -0.266524, -1.44546 -0.622854, -1.42072 -0.978955, -1.37172 -1.33437, -1.32271 -1.68978, -1.20134 -2.02253, -1.00783 -2.33306, -0.869511 -2.55748, -0.684476 -2.73221, -0.453182 -2.85679, -0.221659 -2.98137, 0.0261233 -3.04365, 0.290165 -3.04388, 0.559473 -3.04365, 0.810233 -2.98137, 1.0429 -2.85679, 1.27557 -2.73221, 1.46129 -2.55748, 1.59961 -2.33306, 1.79335 -2.02253, 1.91472 -1.68978, 1.96373 -1.33437, 2.01273 -0.978955, 2.03724 -0.622854, 2.03724 -0.266524 Z M 1.29 -0.394766 C 1.29 -0.548428, 1.28885 -0.710791, 1.28633 -0.881857, 1.28404 -1.05269, 1.27763 -1.2201, 1.26755 -1.38383, 1.25748 -1.54734, 1.23939 -1.70192, 1.21282 -1.84734, 1.18649 -1.99253, 1.15443 -2.11665, 1.11664 -2.21947, 1.04107 -2.38527, 0.930459 -2.52153, 0.784584 -2.62778, 0.638709 -2.73404, 0.473826 -2.78717, 0.290165 -2.7874, 0.111542 -2.78717, -0.049906 -2.73335, -0.194636 -2.62595, -0.339138 -2.51832, -0.449289 -2.38298, -0.52486 -2.21947, -0.562417 -2.11665, -0.594477 -1.99253, -0.621042 -1.84734, -0.647377 -1.70192, -0.665697 -1.54734, -0.675774 -1.38383, -0.68585 -1.2201, -0.692033 -1.05269, -0.694552 -0.881857, -0.697071 -0.710791, -0.698445 -0.548428, -0.698445 -0.394766, -0.698445 -0.223471, -0.697071 -0.0432451, -0.694552 0.145912, -0.692033 0.335299, -0.68585 0.518502, -0.675774 0.695522, -0.665697 0.872771, -0.647377 1.04063, -0.621042 1.19933, -0.594477 1.35826, -0.562417 1.49131, -0.52486 1.59848, -0.454327 1.77711, -0.345321 1.92367, -0.198301 2.0384, -0.05128 2.15336, 0.111542 2.21061, 0.290165 2.21038, 0.476345 2.21061, 0.64306 2.15336, 0.79008 2.0384, 0.93733 1.92367, 1.04611 1.77711, 1.11664 1.59848, 1.15443 1.49131, 1.18649 1.35826, 1.21282 1.19933, 1.23939 1.04063, 1.25748 0.872771, 1.26755 0.695522, 1.27763 0.518502, 1.28404 0.335299, 1.28633 0.145912, 1.28885 -0.0432451, 1.29 -0.223471, 1.29 -0.394766 Z" stroke="none" fill="#000000" transform="matrix(1.12 0 0 1 12.4782 11.6474)" />
			<rect />
		</svg>
	</g>
	<g transform="matrix(1 0 -0 1 81.6207 164.703)">
		<svg width="51.0558052" height="44.9689026">
			<defs />
			<path d="M 9.6607 12.0893 C 8.9197 12.059, 8.20734 12.0435, 7.52442 12.0435 L 7.51092 12.0435 C 6.75603 12.0435, 5.9631 12.059, 5.13174 12.0893 L 5.13174 11.2191, 6.22359 11.2191, 5.64413 9.64224, 2.79999 9.64224, 2.24056 11.1798, 2.24056 11.1733 C 2.24056 11.1344, 2.23606 11.1128, 2.22707 11.1079, 2.30395 11.1299, 2.37796 11.1496, 2.44953 11.1668, 2.57098 11.1847, 2.69448 11.1978, 2.82043 11.2064, 2.94638 11.2154, 3.11037 11.2195, 3.31238 11.2191 L 3.31238 12.0893 C 2.74192 12.059, 2.21398 12.0435, 1.72857 12.0435 L 1.52615 12.0435 C 1.06365 12.0435, 0.553702 12.059, -0.00326777 12.0893 L -0.00326777 11.2191, 0.555747 11.2191 C 0.695194 11.2195, 0.841184 11.2064, 0.994126 11.1798, 1.0526 11.1717, 1.10658 11.1606, 1.15566 11.1475, 1.20514 11.1344, 1.22967 11.1259, 1.22967 11.121 L 4.23535 2.7983 C 4.27134 2.7071, 4.33227 2.63104, 4.41773 2.5697, 4.5032 2.50877, 4.60216 2.4781, 4.71421 2.47769 L 4.96325 2.47769 C 5.06222 2.4781, 5.15464 2.50877, 5.23969 2.5697, 5.32516 2.63104, 5.38568 2.7071, 5.42167 2.7983 L 8.46783 11.2191, 9.6607 11.2191, 9.6607 12.0893 Z M 4.22881 5.70337 L 3.11691 8.77857, 5.3407 8.77857 Z" stroke="none" fill="#00FF80" />
			<path d="M 2.23601 0.587203 C 2.23601 0.821932, 2.19891 1.05231, 2.12471 1.27811, 2.05052 1.50413, 1.92731 1.70314, 1.75487 1.87535, 1.58266 2.04756, 1.38503 2.17214, 1.16244 2.24908, 0.939848 2.32603, 0.707638 2.36427, 0.466039 2.36427, 0.305278 2.36427, 0.15551 2.33817, 0.0171916 2.2855, -0.121127 2.23328, -0.210667 2.19115, -0.250972 2.15909 L -0.250972 3.29128, 0.281233 3.29128, 0.281233 3.7786 C 0.0698625 3.77127, -0.115631 3.76646, -0.275475 3.76395, -0.435091 3.76166, -0.596768 3.76028, -0.760506 3.76028, -0.926304 3.76028, -1.08913 3.76166, -1.24897 3.76395, -1.40882 3.76646, -1.59316 3.77127, -1.80202 3.7786 L -1.80202 3.29128, -1.26981 3.29128, -1.26981 -0.559648 C -1.26981 -0.591251, -1.27989 -0.610716, -1.30004 -0.618273, -1.34034 -0.625372, -1.40515 -0.630182, -1.49446 -0.632701, -1.58377 -0.634991, -1.68614 -0.636365, -1.80202 -0.636594 L -1.80202 -1.12391, -0.292422 -1.19353, -0.292422 -0.940711 C -0.231965 -0.98697, -0.117005 -1.03987, 0.0529162 -1.09987, 0.222837 -1.15964, 0.401918 -1.18964, 0.590617 -1.18987, 0.814583 -1.18964, 1.03237 -1.14865, 1.24374 -1.06689, 1.45511 -0.984909, 1.63877 -0.861017, 1.79449 -0.695219, 1.95319 -0.511786, 2.06655 -0.310263, 2.13433 -0.0904193, 2.20212 0.129424, 2.23601 0.355451, 2.23601 0.587203 Z M 1.11893 0.587203 C 1.11893 0.40171, 1.10656 0.224232, 1.08137 0.054311, 1.05618 -0.115381, 1.00214 -0.277287, 0.919009 -0.431406, 0.866338 -0.528962, 0.804736 -0.60751, 0.734203 -0.667509, 0.663669 -0.727279, 0.585808 -0.757279, 0.500161 -0.757508, 0.346728 -0.757279, 0.203143 -0.720638, 0.0698625 -0.647357, -0.0634178 -0.574076, -0.170363 -0.482474, -0.250972 -0.372781 L -0.250972 1.56184 C -0.175401 1.6768, -0.0808221 1.77161, 0.0323058 1.84604, 0.145434 1.92069, 0.272531 1.95779, 0.413368 1.95756, 0.511382 1.95779, 0.603212 1.92733, 0.68886 1.86619, 0.774507 1.80527, 0.842293 1.72581, 0.892673 1.6278, 0.983359 1.47414, 1.04359 1.30925, 1.07382 1.13338, 1.10404 0.957502, 1.11893 0.775444, 1.11893 0.587203 Z" stroke="none" fill="#00FF80" transform="matrix(1.12 0 0 1 12.8309 11.6474)" />
			<rect />
		</svg>
	</g>
	<path d="M 0 0 L 657.897 4.01926" fill="none" stroke="#000000" stroke-width="2.26666689" stroke-linecap="round" stroke-linejoin="round" stroke-dasharray="1.14467, 3.38867" transform="matrix(0.294118 0 0 0.294118 6.16761 103.657)" />
	<path d="M 0 0 L 0 -325.246" fill="none" stroke="#000000" stroke-width="3.4000001" stroke-linecap="round" stroke-linejoin="round" marker-end="url(#CustomMarker-03)" transform="matrix(0.294118 0 0 0.294118 111.222 200.5)" />
	<path d="M 0 0 L 0 -280.5" fill="none" stroke="#000000" stroke-width="3.4000001" stroke-linecap="round" stroke-linejoin="round" marker-start="url(#CustomMarker-04)" transform="matrix(0.294118 0 0 0.294118 118.597 194.042)" />
	<path d="M 0 0 L 0 -226.667" fill="none" stroke="#000000" stroke-width="3.4000001" stroke-linecap="round" stroke-linejoin="round" marker-end="url(#CustomMarker-05)" transform="matrix(0.294118 0 0 0.294118 126.652 183.486)" />
	<path d="M 0 0 L 0 -138.218" fill="none" stroke="#000000" stroke-width="3.4000001" stroke-linecap="round" stroke-linejoin="round" marker-start="url(#CustomMarker-06)" transform="matrix(0.294118 0 0 0.294118 134.708 172.75)" />
	<path d="M 0 0 L 0 -75.5557" fill="none" stroke="#000000" stroke-width="3.4000001" stroke-linecap="round" stroke-linejoin="round" marker-end="url(#CustomMarker-07)" transform="matrix(0.294118 0 0 0.294118 144.43 161.82)" />
	<path d="M -144.135 -0.880859 L 144.135 0.880554" fill="none" stroke="#000000" stroke-width="1.70000005" stroke-linecap="round" stroke-linejoin="round" stroke-dasharray="0.8585, 2.5415" transform="matrix(0.294118 0 0 0.294118 145.31 149.372)" />
	<g transform="matrix(1 0 -0 1 147.769 140.134)">
		<svg width="32.9720879" height="11.8974066">
			<defs />
			<path d="M 1.59293 11.2387 C 1.59293 11.4571, 1.51565 11.6415, 1.36066 11.792, 1.20567 11.9425, 1.01797 12.0173, 0.797555 12.0173, 0.577547 12.0173, 0.389028 11.9425, 0.231588 11.792, 0.0745567 11.6415, -0.00436783 11.4571, -0.00436783 11.2387, -0.00436783 11.0253, 0.0745567 10.8433, 0.231588 10.6928, 0.389028 10.5423, 0.577547 10.4671, 0.797555 10.4667, 1.01797 10.4671, 1.20567 10.5423, 1.36066 10.6928, 1.51565 10.8433, 1.59293 11.0253, 1.59293 11.2387 Z" stroke="none" fill="#000000" />
			<path d="M 5.3213 11.2387 C 5.3213 11.4571, 5.24401 11.6415, 5.08902 11.792, 4.93404 11.9425, 4.74634 12.0173, 4.52592 12.0173, 4.30591 12.0173, 4.11739 11.9425, 3.95995 11.792, 3.80292 11.6415, 3.724 11.4571, 3.724 11.2387, 3.724 11.0253, 3.80292 10.8433, 3.95995 10.6928, 4.11739 10.5423, 4.30591 10.4671, 4.52592 10.4667, 4.74634 10.4671, 4.93404 10.5423, 5.08902 10.6928, 5.24401 10.8433, 5.3213 11.0253, 5.3213 11.2387 Z" stroke="none" fill="#000000" />
			<path d="M 9.05157 11.2387 C 9.05157 11.4571, 8.97429 11.6415, 8.8193 11.792, 8.66431 11.9425, 8.47661 12.0173, 8.2562 12.0173, 8.03619 12.0173, 7.84767 11.9425, 7.69023 11.792, 7.5332 11.6415, 7.45427 11.4571, 7.45427 11.2387, 7.45427 11.0253, 7.5332 10.8433, 7.69023 10.6928, 7.84767 10.5423, 8.03619 10.4671, 8.2562 10.4667, 8.47661 10.4671, 8.66431 10.5423, 8.8193 10.6928, 8.97429 10.8433, 9.05157 11.0253, 9.05157 11.2387 Z" stroke="none" fill="#000000" />
			<rect />
		</svg>
	</g>
</svg>
