<?xml version="1.0"?>
<svg xmlns="http://www.w3.org/2000/svg" xmlns:xlink="http://www.w3.org/1999/xlink" width="218.214294" height="214.642868">
	<defs>
		<marker id="CustomMarker-01" markerUnits="strokeWidth" markerWidth="15.000001" markerHeight="9" viewBox="-15 -4.5 15 9" orient="auto-start-reverse">
			<path d="M 0 -0 L -10 -3, -8 -0.5, -8 0.5, -10 3 Z" fill="#FF0C00" stroke="#FF0C00" stroke-linejoin="round" />
		</marker>
		<marker id="CustomMarker-02" markerUnits="strokeWidth" markerWidth="15.000001" markerHeight="9" viewBox="-15 -4.5 15 9" orient="auto-start-reverse">
			<path d="M 0 -0 L -10 -3, -8 -0.5, -8 0.5, -10 3 Z" fill="#000000" stroke="#000000" stroke-linejoin="round" />
		</marker>
		<marker id="CustomMarker-03" markerUnits="strokeWidth" markerWidth="15.000001" markerHeight="9" viewBox="-15 -4.5 15 9" orient="auto-start-reverse">
			<path d="M 0 -0 L -10 -3, -8 -0.5, -8 0.5, -10 3 Z" fill="#000000" stroke="#000000" stroke-linejoin="round" />
		</marker>
		<marker id="CustomMarker-04" markerUnits="strokeWidth" markerWidth="15.000001" markerHeight="9" viewBox="-15 -4.5 15 9" orient="auto-start-reverse">
			<path d="M 0 -0 L -10 -3, -8 -0.5, -8 0.5, -10 3 Z" fill="#00FF80" stroke="#00FF80" stroke-linejoin="round" />
		</marker>
	</defs>
	<path d="M 270.199 -0 C 270.199 149.227, 149.227 270.199, -0 270.199, -149.227 270.199, -270.199 149.227, -270.199 -0, -270.199 -149.227, -149.227 -270.199, -0 -270.199, 149.227 -270.199, 270.199 -149.227, 270.199 -0 Z" stroke="none" fill="#FFFFFF" transform="matrix(0.357143 0 0 0.357143 109.056 107.526)" />
	<path d="M 270.199 -0 C 270.199 149.227, 149.227 270.199, -0 270.199, -149.227 270.199, -270.199 149.227, -270.199 -0, -270.199 -149.227, -149.227 -270.199, -0 -270.199, 149.227 -270.199, 270.199 -149.227, 270.199 -0 Z" fill="none" stroke="#000000" stroke-width="2.79999995" stroke-linecap="round" stroke-linejoin="round" transform="matrix(0.357143 0 0 0.357143 109.056 107.526)" />
	<path d="M 0 0 L 1.08252 -407.724" fill="none" stroke="#FF0C00" stroke-width="2.79999995" stroke-linecap="round" stroke-linejoin="round" marker-end="url(#CustomMarker-01)" transform="matrix(0.357143 0 0 0.357143 109.056 203.776)" />
	<path d="M 0 0 L 0 -214.222" fill="none" stroke="#000000" stroke-width="2.79999995" stroke-linecap="round" stroke-linejoin="round" marker-end="url(#CustomMarker-02)" transform="matrix(0.357143 0 0 0.357143 114.629 203.776)" />
	<g transform="matrix(1 0 -0 1 120.115 89.5215)">
		<svg width="45.0279007" height="38.9253807">
			<defs />
			<path d="M 9.6607 12.0893 C 8.9197 12.059, 8.20734 12.0435, 7.52442 12.0435 L 7.51092 12.0435 C 6.75603 12.0435, 5.9631 12.059, 5.13174 12.0893 L 5.13174 11.2191, 6.22359 11.2191, 5.64413 9.64224, 2.79999 9.64224, 2.24056 11.1798, 2.24056 11.1733 C 2.24056 11.1344, 2.23606 11.1128, 2.22707 11.1079, 2.30395 11.1299, 2.37796 11.1496, 2.44953 11.1668, 2.57098 11.1847, 2.69448 11.1978, 2.82043 11.2064, 2.94638 11.2154, 3.11037 11.2195, 3.31238 11.2191 L 3.31238 12.0893 C 2.74192 12.059, 2.21398 12.0435, 1.72857 12.0435 L 1.52615 12.0435 C 1.06365 12.0435, 0.553702 12.059, -0.00326777 12.0893 L -0.00326777 11.2191, 0.555747 11.2191 C 0.695194 11.2195, 0.841184 11.2064, 0.994126 11.1798, 1.0526 11.1717, 1.10658 11.1606, 1.15566 11.1475, 1.20514 11.1344, 1.22967 11.1259, 1.22967 11.121 L 4.23535 2.7983 C 4.27134 2.7071, 4.33227 2.63104, 4.41773 2.5697, 4.5032 2.50877, 4.60216 2.4781, 4.71421 2.47769 L 4.96325 2.47769 C 5.06222 2.4781, 5.15464 2.50877, 5.23969 2.5697, 5.32516 2.63104, 5.38568 2.7071, 5.42167 2.7983 L 8.46783 11.2191, 9.6607 11.2191, 9.6607 12.0893 Z M 4.22881 5.70337 L 3.11691 8.77857, 5.3407 8.77857 Z" stroke="none" fill="#FF0C00" />
			<path d="M 1.69476 2.28366 C 1.23195 2.26901, 0.781725 2.26168, 0.34387 2.26168, -0.0937567 2.26168, -0.543978 2.26901, -1.0068 2.28366 L -1.0068 1.96855, -0.746418 1.96855 C -0.663518 1.96878, -0.585428 1.96764, -0.512605 1.96512, -0.439553 1.96283, -0.370393 1.95665, -0.304898 1.9468, -0.239403 1.93718, -0.182839 1.92733, -0.135206 1.91726, -0.0949018 1.91016, -0.0616962 1.88772, -0.0353607 1.8497, -0.00879633 1.81192, 0.00425696 1.76978, 0.00425696 1.72306 L 0.00425696 -2.40634 C -0.121237 -2.34496, -0.276044 -2.29848, -0.459705 -2.26687, -0.643366 -2.23504, -0.844431 -2.21924, -1.06336 -2.21947 L -1.06336 -2.53091 C -0.761532 -2.53069, -0.482834 -2.56664, -0.227495 -2.63878, 0.0278443 -2.71068, 0.248604 -2.84579, 0.434555 -3.04388 L 0.551576 -3.04388 C 0.634476 -3.04365, 0.675925 -3.00335, 0.675925 -2.92297 L 0.675925 1.72306 C 0.675925 1.77207, 0.688521 1.81489, 0.713711 1.85153, 0.738901 1.88817, 0.775542 1.91016, 0.823175 1.91726, 0.863479 1.92733, 0.915234 1.93718, 0.977981 1.9468, 1.04073 1.95665, 1.11172 1.96283, 1.19096 1.96512, 1.27019 1.96764, 1.34759 1.96878, 1.42316 1.96855 L 1.69476 1.96855, 1.69476 2.28366 Z" stroke="none" fill="#FF0C00" transform="matrix(1.12 0 0 1 12.0933 11.6474)" />
			<rect />
		</svg>
	</g>
	<g transform="matrix(1 0 -0 1 119.735 154.86)">
		<svg width="48.041851" height="41.9471397">
			<defs />
			<path d="M 9.6607 12.0893 C 8.9197 12.059, 8.20734 12.0435, 7.52442 12.0435 L 7.51092 12.0435 C 6.75603 12.0435, 5.9631 12.059, 5.13174 12.0893 L 5.13174 11.2191, 6.22359 11.2191, 5.64413 9.64224, 2.79999 9.64224, 2.24056 11.1798, 2.24056 11.1733 C 2.24056 11.1344, 2.23606 11.1128, 2.22707 11.1079, 2.30395 11.1299, 2.37796 11.1496, 2.44953 11.1668, 2.57098 11.1847, 2.69448 11.1978, 2.82043 11.2064, 2.94638 11.2154, 3.11037 11.2195, 3.31238 11.2191 L 3.31238 12.0893 C 2.74192 12.059, 2.21398 12.0435, 1.72857 12.0435 L 1.52615 12.0435 C 1.06365 12.0435, 0.553702 12.059, -0.00326777 12.0893 L -0.00326777 11.2191, 0.555747 11.2191 C 0.695194 11.2195, 0.841184 11.2064, 0.994126 11.1798, 1.0526 11.1717, 1.10658 11.1606, 1.15566 11.1475, 1.20514 11.1344, 1.22967 11.1259, 1.22967 11.121 L 4.23535 2.7983 C 4.27134 2.7071, 4.33227 2.63104, 4.41773 2.5697, 4.5032 2.50877, 4.60216 2.4781, 4.71421 2.47769 L 4.96325 2.47769 C 5.06222 2.4781, 5.15464 2.50877, 5.23969 2.5697, 5.32516 2.63104, 5.38568 2.7071, 5.42167 2.7983 L 8.46783 11.2191, 9.6607 11.2191, 9.6607 12.0893 Z M 4.22881 5.70337 L 3.11691 8.77857, 5.3407 8.77857 Z" stroke="none" fill="#000000" />
			<path d="M 2.01333 0.902312 C 2.01333 1.11254, 1.96684 1.31429, 1.87386 1.50711, 1.78089 1.70016, 1.65631 1.86504, 1.50013 2.00153, 1.32402 2.15565, 1.1296 2.26969, 0.917084 2.34412, 0.704568 2.41878, 0.482435 2.45587, 0.250912 2.45587, 0.0420601 2.45587, -0.161524 2.42656, -0.3603 2.36794, -0.559075 2.30931, -0.738156 2.22527, -0.898001 2.11535, -1.05785 2.00542, -1.1854 1.87054, -1.28112 1.71047, -1.37685 1.55062, -1.42471 1.36673, -1.42471 1.1588, -1.42471 1.00262, -1.3725 0.886053, -1.26807 0.809108, -1.16365 0.732162, -1.05349 0.69369, -0.937848 0.693461, -0.816934 0.69369, -0.704493 0.732162, -0.600067 0.809108, -0.495641 0.886053, -0.443428 1.00262, -0.443428 1.1588, -0.443428 1.25177, -0.461519 1.3294, -0.49816 1.39169, -0.534572 1.45398, -0.581059 1.50597, -0.637852 1.54742, -0.694416 1.58909, -0.759225 1.61451, -0.832277 1.62413, -0.869833 1.63421, -0.9051 1.63902, -0.937848 1.63879, -0.970366 1.63902, -0.975404 1.64154, -0.952962 1.64612, -0.874871 1.78306, -0.721439 1.9042, -0.492435 2.00909, -0.263431 2.1142, -0.0156488 2.16664, 0.250912 2.16641, 0.376864 2.16664, 0.494343 2.1355, 0.603806 2.07321, 0.71327 2.01092, 0.804643 1.92733, 0.877466 1.82199, 0.968152 1.68551, 1.02975 1.53894, 1.0625 1.38253, 1.09525 1.22635, 1.11151 1.06628, 1.11151 0.902312, 1.11151 0.733994, 1.09525 0.572318, 1.0625 0.417053, 1.02975 0.262017, 0.968152 0.118432, 0.877466 -0.0137036, 0.801895 -0.120877, 0.710064 -0.20767, 0.601974 -0.273623, 0.493885 -0.339576, 0.376864 -0.372553, 0.250912 -0.372782 L -0.296179 -0.372782 C -0.369002 -0.372553, -0.408162 -0.406674, -0.4132 -0.475375 L -0.4132 -0.51568 C -0.4132 -0.544764, -0.404269 -0.567893, -0.386864 -0.585297, -0.364193 -0.607053, -0.335338 -0.618045, -0.300072 -0.618274, -0.227019 -0.627892, -0.151448 -0.632701, -0.0735868 -0.63293, 0.00198448 -0.632701, 0.0761817 -0.63751, 0.149005 -0.647586, 0.285033 -0.657204, 0.403199 -0.699112, 0.503961 -0.773767, 0.604722 -0.848194, 0.688996 -0.943459, 0.756781 -1.05956, 0.824566 -1.17544, 0.876092 -1.30918, 0.911359 -1.46078, 0.946625 -1.61215, 0.964259 -1.76742, 0.964259 -1.92634, 0.964259 -2.04337, 0.951663 -2.15443, 0.926473 -2.25954, 0.901283 -2.36443, 0.854795 -2.45626, 0.786781 -2.53458, 0.645943 -2.69557, 0.46732 -2.77503, 0.250912 -2.77274, 0.0196177 -2.77251, -0.19244 -2.729, -0.384803 -2.64244, -0.577166 -2.55565, -0.706325 -2.46221, -0.77182 -2.36237, -0.789224 -2.35962, -0.780522 -2.35847, -0.745255 -2.3587, -0.65457 -2.35847, -0.569151 -2.33168, -0.488771 -2.27809, -0.367857 -2.2071, -0.307629 -2.08733, -0.307629 -1.91902, -0.307629 -1.77703, -0.35343 -1.67009, -0.44526 -1.59818, -0.537091 -1.52605, -0.639685 -1.49009, -0.752812 -1.49032, -0.86365 -1.49009, -0.967389 -1.52536, -1.06426 -1.59635, -1.16113 -1.66711, -1.20968 -1.77474, -1.20968 -1.91902, -1.20968 -2.09718, -1.16685 -2.25451, -1.0812 -2.39145, -0.995557 -2.52817, -0.885635 -2.64542, -0.75098 -2.7432, -0.616326 -2.84076, -0.461061 -2.91541, -0.284957 -2.96671, -0.108624 -3.01801, 0.0699986 -3.04365, 0.250912 -3.04388, 0.444649 -3.04365, 0.632203 -3.01801, 0.813345 -2.96671, 0.994487 -2.91541, 1.16555 -2.83595, 1.32654 -2.72877, 1.45753 -2.6358, 1.56746 -2.52153, 1.65677 -2.38595, 1.74608 -2.25038, 1.79073 -2.09718, 1.79073 -1.92634, 1.79073 -1.75505, 1.76005 -1.59383, 1.69845 -1.44246, 1.63684 -1.29086, 1.55509 -1.15414, 1.45318 -1.03208, 1.35128 -0.909796, 1.2299 -0.802393, 1.08884 -0.709646, 0.947999 -0.616671, 0.8422 -0.558275, 0.771667 -0.534, 0.832124 -0.526443, 0.935404 -0.490261, 1.08128 -0.425682, 1.22738 -0.360873, 1.36685 -0.274768, 1.50013 -0.167594, 1.65631 -0.0329399, 1.78089 0.127592, 1.87386 0.314459, 1.96684 0.501326, 2.01333 0.697354, 2.01333 0.902312 Z" stroke="none" fill="#000000" transform="matrix(1.12 0 0 1 12.4555 11.6474)" />
			<rect />
		</svg>
	</g>
	<path d="M 0 0 L 541.797 3.31" fill="none" stroke="#000000" stroke-width="2.79999995" stroke-linecap="round" stroke-linejoin="round" stroke-dasharray="1.414, 4.186" transform="matrix(0.357143 0 0 0.357143 12.0569 106.934)" />
	<path d="M 0 0 L 0 539.047" fill="none" stroke="#000000" stroke-width="2.79999995" stroke-linecap="round" stroke-linejoin="round" marker-end="url(#CustomMarker-03)" transform="matrix(0.357143 0 0 0.357143 103.891 11.2594)" />
	<g transform="matrix(1 0 -0 1 81.6466 89.5215)">
		<svg width="48.041851" height="38.9253807">
			<defs />
			<path d="M 9.6607 12.0893 C 8.9197 12.059, 8.20734 12.0435, 7.52442 12.0435 L 7.51092 12.0435 C 6.75603 12.0435, 5.9631 12.059, 5.13174 12.0893 L 5.13174 11.2191, 6.22359 11.2191, 5.64413 9.64224, 2.79999 9.64224, 2.24056 11.1798, 2.24056 11.1733 C 2.24056 11.1344, 2.23606 11.1128, 2.22707 11.1079, 2.30395 11.1299, 2.37796 11.1496, 2.44953 11.1668, 2.57098 11.1847, 2.69448 11.1978, 2.82043 11.2064, 2.94638 11.2154, 3.11037 11.2195, 3.31238 11.2191 L 3.31238 12.0893 C 2.74192 12.059, 2.21398 12.0435, 1.72857 12.0435 L 1.52615 12.0435 C 1.06365 12.0435, 0.553702 12.059, -0.00326777 12.0893 L -0.00326777 11.2191, 0.555747 11.2191 C 0.695194 11.2195, 0.841184 11.2064, 0.994126 11.1798, 1.0526 11.1717, 1.10658 11.1606, 1.15566 11.1475, 1.20514 11.1344, 1.22967 11.1259, 1.22967 11.121 L 4.23535 2.7983 C 4.27134 2.7071, 4.33227 2.63104, 4.41773 2.5697, 4.5032 2.50877, 4.60216 2.4781, 4.71421 2.47769 L 4.96325 2.47769 C 5.06222 2.4781, 5.15464 2.50877, 5.23969 2.5697, 5.32516 2.63104, 5.38568 2.7071, 5.42167 2.7983 L 8.46783 11.2191, 9.6607 11.2191, 9.6607 12.0893 Z M 4.22881 5.70337 L 3.11691 8.77857, 5.3407 8.77857 Z" stroke="none" fill="#000000" />
			<path d="M 1.70813 2.28366 L -1.36327 2.28366, -1.36327 2.08214 C -1.36327 2.06771, -1.35571 2.04573, -1.3406 2.01619 L -0.106727 0.67514 C 0.039377 0.514151, 0.187085 0.349268, 0.336853 0.180721, 0.486622 0.0121739, 0.62036 -0.160037, 0.738526 -0.335912, 0.856692 -0.511787, 0.951041 -0.693158, 1.02157 -0.880025, 1.09211 -1.06689, 1.12715 -1.26292, 1.12715 -1.46834, 1.12715 -1.64146, 1.1047 -1.80337, 1.05936 -1.9536, 1.01402 -2.10382, 0.948751 -2.23573, 0.863104 -2.34931, 0.777457 -2.4629, 0.670512 -2.5545, 0.542269 -2.62412, 0.414027 -2.69374, 0.265633 -2.72854, 0.097086 -2.72877, -0.15436 -2.72854, -0.376494 -2.65343, -0.568857 -2.5032, -0.761221 -2.35298, -0.889005 -2.18741, -0.951981 -2.00695, -0.964347 -2.00192, -0.944195 -1.9994, -0.891524 -1.99963 L -0.827403 -1.99963 C -0.751831 -1.98222, -0.686565 -1.95589, -0.631146 -1.92062, -0.575727 -1.88512, -0.52924 -1.83635, -0.491454 -1.77406, -0.453668 -1.71177, -0.43489 -1.63665, -0.43489 -1.54895, -0.43489 -1.40215, -0.482523 -1.28971, -0.578246 -1.21162, -0.67397 -1.1333, -0.780915 -1.09437, -0.899081 -1.0946, -1.01221 -1.09437, -1.11778 -1.1333, -1.21602 -1.21162, -1.31404 -1.28971, -1.36327 -1.40215, -1.36327 -1.54895, -1.36327 -1.7539, -1.32297 -1.9481, -1.24236 -2.1313, -1.16175 -2.31451, -1.05251 -2.47321, -0.914195 -2.60763, -0.775877 -2.74183, -0.612368 -2.84808, -0.423669 -2.9264, -0.23497 -3.00449, -0.0348202 -3.04365, 0.176321 -3.04388, 0.437844 -3.04365, 0.677611 -3.00518, 0.895164 -2.92824, 1.11272 -2.85129, 1.29821 -2.74068, 1.45164 -2.59664, 1.60508 -2.45237, 1.7253 -2.28565, 1.8121 -2.09649, 1.89889 -1.90711, 1.94217 -1.6978, 1.94217 -1.46834, 1.94217 -1.21414, 1.88446 -0.9801, 1.76859 -0.766439, 1.65294 -0.55255, 1.50958 -0.356522, 1.33852 -0.178357, 1.16745 3.67165e-005, 0.985621 0.167897, 0.793258 0.325451, 0.600894 0.483006, 0.426623 0.63621, 0.270671 0.785062 L -0.597254 1.60215, 0.538605 1.60215 C 0.697076 1.60238, 0.845013 1.60123, 0.981957 1.59871, 1.11913 1.59642, 1.23546 1.59138, 1.33096 1.58406, 1.42668 1.57673, 1.47569 1.57192, 1.47798 1.56917, 1.49813 1.55223, 1.51714 1.5181, 1.53477 1.46681, 1.55241 1.41551, 1.56867 1.35505, 1.58378 1.28544, 1.59889 1.21582, 1.61401 1.14506, 1.62912 1.07292, 1.64424 1.00101, 1.65798 0.922006, 1.67057 0.836359 L 1.94973 0.836359 Z" stroke="none" fill="#000000" transform="matrix(1.12 0 0 1 12.3953 11.6474)" />
			<rect />
		</svg>
	</g>
	<path d="M 0 0 L 463.754 2.83322" fill="none" stroke="#000000" stroke-width="2.79999995" stroke-linecap="round" stroke-linejoin="round" stroke-dasharray="1.414, 4.186" transform="matrix(0.357143 0 0 0.357143 26.6296 58.1605)" />
	<path d="M 0 0 L 518.866 3.16992" fill="none" stroke="#000000" stroke-width="2.79999995" stroke-linecap="round" stroke-linejoin="round" stroke-dasharray="1.414, 4.186" transform="matrix(0.357143 0 0 0.357143 16.9444 82.787)" />
	<path d="M 0 0 L 378.92 2.31494" fill="none" stroke="#000000" stroke-width="2.79999995" stroke-linecap="round" stroke-linejoin="round" stroke-dasharray="1.414, 4.186" transform="matrix(0.357143 0 0 0.357143 41.9351 38.3712)" />
	<path d="M 0 0 L 378.92 2.31506" fill="none" stroke="#000000" stroke-width="2.79999995" stroke-linecap="round" stroke-linejoin="round" stroke-dasharray="1.414, 4.186" transform="matrix(0.357143 0 0 0.357143 41.9351 176.283)" />
	<path d="M 0 0 L 518.866 3.17017" fill="none" stroke="#000000" stroke-width="2.79999995" stroke-linecap="round" stroke-linejoin="round" stroke-dasharray="1.414, 4.186" transform="matrix(0.357143 0 0 0.357143 16.9444 127.268)" />
	<path d="M 0 0 L 473.379 2.892" fill="none" stroke="#000000" stroke-width="2.79999995" stroke-linecap="round" stroke-linejoin="round" stroke-dasharray="1.414, 4.186" transform="matrix(0.357143 0 0 0.357143 23.192 152.56)" />
	<path d="M 0 0 L 0 -68.4996" fill="none" stroke="#00FF80" stroke-width="2.79999995" stroke-linecap="round" stroke-linejoin="round" marker-end="url(#CustomMarker-04)" transform="matrix(0.357143 0 0 0.357143 148.496 200.728)" />
	<g transform="matrix(1 0 -0 1 156.13 180.45)">
		<svg width="51.0558052" height="44.9689026">
			<defs />
			<path d="M 9.6607 12.0893 C 8.9197 12.059, 8.20734 12.0435, 7.52442 12.0435 L 7.51092 12.0435 C 6.75603 12.0435, 5.9631 12.059, 5.13174 12.0893 L 5.13174 11.2191, 6.22359 11.2191, 5.64413 9.64224, 2.79999 9.64224, 2.24056 11.1798, 2.24056 11.1733 C 2.24056 11.1344, 2.23606 11.1128, 2.22707 11.1079, 2.30395 11.1299, 2.37796 11.1496, 2.44953 11.1668, 2.57098 11.1847, 2.69448 11.1978, 2.82043 11.2064, 2.94638 11.2154, 3.11037 11.2195, 3.31238 11.2191 L 3.31238 12.0893 C 2.74192 12.059, 2.21398 12.0435, 1.72857 12.0435 L 1.52615 12.0435 C 1.06365 12.0435, 0.553702 12.059, -0.00326777 12.0893 L -0.00326777 11.2191, 0.555747 11.2191 C 0.695194 11.2195, 0.841184 11.2064, 0.994126 11.1798, 1.0526 11.1717, 1.10658 11.1606, 1.15566 11.1475, 1.20514 11.1344, 1.22967 11.1259, 1.22967 11.121 L 4.23535 2.7983 C 4.27134 2.7071, 4.33227 2.63104, 4.41773 2.5697, 4.5032 2.50877, 4.60216 2.4781, 4.71421 2.47769 L 4.96325 2.47769 C 5.06222 2.4781, 5.15464 2.50877, 5.23969 2.5697, 5.32516 2.63104, 5.38568 2.7071, 5.42167 2.7983 L 8.46783 11.2191, 9.6607 11.2191, 9.6607 12.0893 Z M 4.22881 5.70337 L 3.11691 8.77857, 5.3407 8.77857 Z" stroke="none" fill="#00FF80" />
			<path d="M 2.23601 0.587203 C 2.23601 0.821932, 2.19891 1.05231, 2.12471 1.27811, 2.05052 1.50413, 1.92731 1.70314, 1.75487 1.87535, 1.58266 2.04756, 1.38503 2.17214, 1.16244 2.24908, 0.939848 2.32603, 0.707638 2.36427, 0.466039 2.36427, 0.305278 2.36427, 0.15551 2.33817, 0.0171916 2.2855, -0.121127 2.23328, -0.210667 2.19115, -0.250972 2.15909 L -0.250972 3.29128, 0.281233 3.29128, 0.281233 3.7786 C 0.0698625 3.77127, -0.115631 3.76646, -0.275475 3.76395, -0.435091 3.76166, -0.596768 3.76028, -0.760506 3.76028, -0.926304 3.76028, -1.08913 3.76166, -1.24897 3.76395, -1.40882 3.76646, -1.59316 3.77127, -1.80202 3.7786 L -1.80202 3.29128, -1.26981 3.29128, -1.26981 -0.559648 C -1.26981 -0.591251, -1.27989 -0.610716, -1.30004 -0.618273, -1.34034 -0.625372, -1.40515 -0.630182, -1.49446 -0.632701, -1.58377 -0.634991, -1.68614 -0.636365, -1.80202 -0.636594 L -1.80202 -1.12391, -0.292422 -1.19353, -0.292422 -0.940711 C -0.231965 -0.98697, -0.117005 -1.03987, 0.0529162 -1.09987, 0.222837 -1.15964, 0.401918 -1.18964, 0.590617 -1.18987, 0.814583 -1.18964, 1.03237 -1.14865, 1.24374 -1.06689, 1.45511 -0.984909, 1.63877 -0.861017, 1.79449 -0.695219, 1.95319 -0.511786, 2.06655 -0.310263, 2.13433 -0.0904193, 2.20212 0.129424, 2.23601 0.355451, 2.23601 0.587203 Z M 1.11893 0.587203 C 1.11893 0.40171, 1.10656 0.224232, 1.08137 0.054311, 1.05618 -0.115381, 1.00214 -0.277287, 0.919009 -0.431406, 0.866338 -0.528962, 0.804736 -0.60751, 0.734203 -0.667509, 0.663669 -0.727279, 0.585808 -0.757279, 0.500161 -0.757508, 0.346728 -0.757279, 0.203143 -0.720638, 0.0698625 -0.647357, -0.0634178 -0.574076, -0.170363 -0.482474, -0.250972 -0.372781 L -0.250972 1.56184 C -0.175401 1.6768, -0.0808221 1.77161, 0.0323058 1.84604, 0.145434 1.92069, 0.272531 1.95779, 0.413368 1.95756, 0.511382 1.95779, 0.603212 1.92733, 0.68886 1.86619, 0.774507 1.80527, 0.842293 1.72581, 0.892673 1.6278, 0.983359 1.47414, 1.04359 1.30925, 1.07382 1.13338, 1.10404 0.957502, 1.11893 0.775444, 1.11893 0.587203 Z" stroke="none" fill="#00FF80" transform="matrix(1.12 0 0 1 12.8309 11.6474)" />
			<rect />
		</svg>
	</g>
</svg>
