<?xml version="1.0"?>
<svg xmlns="http://www.w3.org/2000/svg" xmlns:xlink="http://www.w3.org/1999/xlink" width="208.166611" height="209">
	<defs>
		<marker id="CustomMarker-01" markerUnits="strokeWidth" markerWidth="15.000001" markerHeight="9" viewBox="-15 -4.5 15 9" orient="auto-start-reverse">
			<path d="M 0 -0 L -10 -3, -8 -0.5, -8 0.5, -10 3 Z" fill="#FF0C00" stroke="#FF0C00" stroke-linejoin="round" />
		</marker>
		<marker id="CustomMarker-02" markerUnits="strokeWidth" markerWidth="15.000001" markerHeight="9" viewBox="-15 -4.5 15 9" orient="auto-start-reverse">
			<path d="M 0 -0 L -10 -3, -8 -0.5, -8 0.5, -10 3 Z" fill="#000000" stroke="#000000" stroke-linejoin="round" />
		</marker>
	</defs>
	<path d="M 347.399 -0 C 347.399 191.863, 191.863 347.399, -0 347.399, -191.863 347.399, -347.399 191.863, -347.399 -0, -347.399 -191.863, -191.863 -347.399, -0 -347.399, 191.863 -347.399, 347.399 -191.863, 347.399 -0 Z" stroke="none" fill="#FFFFFF" transform="matrix(0.277778 0 0 0.277778 103.167 104.25)" />
	<path d="M 347.399 -0 C 347.399 191.863, 191.863 347.399, -0 347.399, -191.863 347.399, -347.399 191.863, -347.399 -0, -347.399 -191.863, -191.863 -347.399, -0 -347.399, 191.863 -347.399, 347.399 -191.863, 347.399 -0 Z" fill="none" stroke="#000000" stroke-width="3.5999999" stroke-linecap="round" stroke-linejoin="round" transform="matrix(0.277778 0 0 0.277778 103.167 104.25)" />
	<path d="M 0 0 L 0 -346.5" fill="none" stroke="#FF0C00" stroke-width="3.5999999" stroke-linecap="round" stroke-linejoin="round" marker-end="url(#CustomMarker-01)" transform="matrix(0.277778 0 0 0.277778 103.167 200.5)" />
	<path d="M 0 0 L 347.399 -346.5" fill="none" stroke="#000000" stroke-width="3.5999999" stroke-linecap="round" stroke-linejoin="round" marker-end="url(#CustomMarker-02)" transform="matrix(0.277778 0 0 0.277778 103.167 200.5)" />
	<g transform="matrix(1 0 -0 1 81.9317 140.092)">
		<svg width="48.041851" height="41.9471397">
			<defs />
			<path d="M 9.6607 12.0893 C 8.9197 12.059, 8.20734 12.0435, 7.52442 12.0435 L 7.51092 12.0435 C 6.75603 12.0435, 5.9631 12.059, 5.13174 12.0893 L 5.13174 11.2191, 6.22359 11.2191, 5.64413 9.64224, 2.79999 9.64224, 2.24056 11.1798, 2.24056 11.1733 C 2.24056 11.1344, 2.23606 11.1128, 2.22707 11.1079, 2.30395 11.1299, 2.37796 11.1496, 2.44953 11.1668, 2.57098 11.1847, 2.69448 11.1978, 2.82043 11.2064, 2.94638 11.2154, 3.11037 11.2195, 3.31238 11.2191 L 3.31238 12.0893 C 2.74192 12.059, 2.21398 12.0435, 1.72857 12.0435 L 1.52615 12.0435 C 1.06365 12.0435, 0.553702 12.059, -0.00326777 12.0893 L -0.00326777 11.2191, 0.555747 11.2191 C 0.695194 11.2195, 0.841184 11.2064, 0.994126 11.1798, 1.0526 11.1717, 1.10658 11.1606, 1.15566 11.1475, 1.20514 11.1344, 1.22967 11.1259, 1.22967 11.121 L 4.23535 2.7983 C 4.27134 2.7071, 4.33227 2.63104, 4.41773 2.5697, 4.5032 2.50877, 4.60216 2.4781, 4.71421 2.47769 L 4.96325 2.47769 C 5.06222 2.4781, 5.15464 2.50877, 5.23969 2.5697, 5.32516 2.63104, 5.38568 2.7071, 5.42167 2.7983 L 8.46783 11.2191, 9.6607 11.2191, 9.6607 12.0893 Z M 4.22881 5.70337 L 3.11691 8.77857, 5.3407 8.77857 Z" stroke="none" fill="#000000" />
			<path d="M 2.03724 -0.266524 C 2.03724 0.0854552, 2.01273 0.435373, 1.96373 0.783459, 1.91472 1.13155, 1.79335 1.45833, 1.59961 1.76337, 1.46129 1.98596, 1.27626 2.1568, 1.04496 2.27634, 0.813668 2.3961, 0.561992 2.45587, 0.290165 2.45587, 0.0286423 2.45587, -0.218453 2.3961, -0.451121 2.27634, -0.683789 2.1568, -0.869511 1.98596, -1.00783 1.76337, -1.20134 1.45833, -1.32271 1.13155, -1.37172 0.783459, -1.42072 0.435373, -1.44546 0.0854552, -1.44546 -0.266524, -1.44546 -0.622854, -1.42072 -0.978955, -1.37172 -1.33437, -1.32271 -1.68978, -1.20134 -2.02253, -1.00783 -2.33306, -0.869511 -2.55748, -0.684476 -2.73221, -0.453182 -2.85679, -0.221659 -2.98137, 0.0261233 -3.04365, 0.290165 -3.04388, 0.559473 -3.04365, 0.810233 -2.98137, 1.0429 -2.85679, 1.27557 -2.73221, 1.46129 -2.55748, 1.59961 -2.33306, 1.79335 -2.02253, 1.91472 -1.68978, 1.96373 -1.33437, 2.01273 -0.978955, 2.03724 -0.622854, 2.03724 -0.266524 Z M 1.29 -0.394766 C 1.29 -0.548428, 1.28885 -0.710791, 1.28633 -0.881857, 1.28404 -1.05269, 1.27763 -1.2201, 1.26755 -1.38383, 1.25748 -1.54734, 1.23939 -1.70192, 1.21282 -1.84734, 1.18649 -1.99253, 1.15443 -2.11665, 1.11664 -2.21947, 1.04107 -2.38527, 0.930459 -2.52153, 0.784584 -2.62778, 0.638709 -2.73404, 0.473826 -2.78717, 0.290165 -2.7874, 0.111542 -2.78717, -0.049906 -2.73335, -0.194636 -2.62595, -0.339138 -2.51832, -0.449289 -2.38298, -0.52486 -2.21947, -0.562417 -2.11665, -0.594477 -1.99253, -0.621042 -1.84734, -0.647377 -1.70192, -0.665697 -1.54734, -0.675774 -1.38383, -0.68585 -1.2201, -0.692033 -1.05269, -0.694552 -0.881857, -0.697071 -0.710791, -0.698445 -0.548428, -0.698445 -0.394766, -0.698445 -0.223471, -0.697071 -0.0432451, -0.694552 0.145912, -0.692033 0.335299, -0.68585 0.518502, -0.675774 0.695522, -0.665697 0.872771, -0.647377 1.04063, -0.621042 1.19933, -0.594477 1.35826, -0.562417 1.49131, -0.52486 1.59848, -0.454327 1.77711, -0.345321 1.92367, -0.198301 2.0384, -0.05128 2.15336, 0.111542 2.21061, 0.290165 2.21038, 0.476345 2.21061, 0.64306 2.15336, 0.79008 2.0384, 0.93733 1.92367, 1.04611 1.77711, 1.11664 1.59848, 1.15443 1.49131, 1.18649 1.35826, 1.21282 1.19933, 1.23939 1.04063, 1.25748 0.872771, 1.26755 0.695522, 1.27763 0.518502, 1.28404 0.335299, 1.28633 0.145912, 1.28885 -0.0432451, 1.29 -0.223471, 1.29 -0.394766 Z" stroke="none" fill="#000000" transform="matrix(1.12 0 0 1 12.4782 11.6474)" />
			<rect />
		</svg>
	</g>
	<g transform="matrix(1 0 -0 1 141.288 127.203)">
		<svg width="51.0558052" height="44.9689026">
			<defs />
			<path d="M 9.6607 12.0893 C 8.9197 12.059, 8.20734 12.0435, 7.52442 12.0435 L 7.51092 12.0435 C 6.75603 12.0435, 5.9631 12.059, 5.13174 12.0893 L 5.13174 11.2191, 6.22359 11.2191, 5.64413 9.64224, 2.79999 9.64224, 2.24056 11.1798, 2.24056 11.1733 C 2.24056 11.1344, 2.23606 11.1128, 2.22707 11.1079, 2.30395 11.1299, 2.37796 11.1496, 2.44953 11.1668, 2.57098 11.1847, 2.69448 11.1978, 2.82043 11.2064, 2.94638 11.2154, 3.11037 11.2195, 3.31238 11.2191 L 3.31238 12.0893 C 2.74192 12.059, 2.21398 12.0435, 1.72857 12.0435 L 1.52615 12.0435 C 1.06365 12.0435, 0.553702 12.059, -0.00326777 12.0893 L -0.00326777 11.2191, 0.555747 11.2191 C 0.695194 11.2195, 0.841184 11.2064, 0.994126 11.1798, 1.0526 11.1717, 1.10658 11.1606, 1.15566 11.1475, 1.20514 11.1344, 1.22967 11.1259, 1.22967 11.121 L 4.23535 2.7983 C 4.27134 2.7071, 4.33227 2.63104, 4.41773 2.5697, 4.5032 2.50877, 4.60216 2.4781, 4.71421 2.47769 L 4.96325 2.47769 C 5.06222 2.4781, 5.15464 2.50877, 5.23969 2.5697, 5.32516 2.63104, 5.38568 2.7071, 5.42167 2.7983 L 8.46783 11.2191, 9.6607 11.2191, 9.6607 12.0893 Z M 4.22881 5.70337 L 3.11691 8.77857, 5.3407 8.77857 Z" stroke="none" fill="#000000" />
			<path d="M 2.23648 0.587203 C 2.23648 0.821932, 2.19938 1.05231, 2.12518 1.27811, 2.05098 1.50413, 1.92778 1.70314, 1.75534 1.87535, 1.58313 2.04756, 1.3855 2.17214, 1.16291 2.24908, 0.940315 2.32603, 0.708334 2.36427, 0.466735 2.36427, 0.305974 2.36427, 0.156206 2.33817, 0.0178876 2.2855, -0.120431 2.23328, -0.209742 2.19115, -0.250047 2.15909 L -0.250047 3.29128, 0.281929 3.29128, 0.281929 3.7786 C 0.0707874 3.77127, -0.114706 3.76646, -0.27455 3.76395, -0.434395 3.76166, -0.596072 3.76028, -0.759581 3.76028, -0.925379 3.76028, -1.0882 3.76166, -1.24805 3.76395, -1.40789 3.76646, -1.59201 3.77127, -1.80086 3.7786 L -1.80086 3.29128, -1.26889 3.29128, -1.26889 -0.559648 C -1.26889 -0.591251, -1.27896 -0.610716, -1.29911 -0.618273, -1.33919 -0.625372, -1.404 -0.630182, -1.49331 -0.632701, -1.58262 -0.634991, -1.68499 -0.636365, -1.80086 -0.636594 L -1.80086 -1.12391, -0.291726 -1.19353, -0.291726 -0.940711 C -0.231269 -0.98697, -0.11608 -1.03987, 0.0536121 -1.09987, 0.223533 -1.15964, 0.402614 -1.18964, 0.591313 -1.18987, 0.815279 -1.18964, 1.03283 -1.14865, 1.24397 -1.06689, 1.45535 -0.984909, 1.63901 -0.861017, 1.79496 -0.695219, 1.95343 -0.511786, 2.06679 -0.310263, 2.13457 -0.0904193, 2.20258 0.129424, 2.23648 0.355451, 2.23648 0.587203 Z M 1.11963 0.587203 C 1.11963 0.40171, 1.10703 0.224232, 1.08184 0.054311, 1.05665 -0.115381, 1.0026 -0.277287, 0.919476 -0.431406, 0.866805 -0.528962, 0.805203 -0.60751, 0.73467 -0.667509, 0.664365 -0.727279, 0.586504 -0.757279, 0.500857 -0.757508, 0.347424 -0.757279, 0.203839 -0.720638, 0.0705584 -0.647357, -0.0627218 -0.574076, -0.169438 -0.482474, -0.250047 -0.372781 L -0.250047 1.56184 C -0.174476 1.6768, -0.0801262 1.77161, 0.0330018 1.84604, 0.14613 1.92069, 0.273227 1.95779, 0.414064 1.95756, 0.512078 1.95779, 0.603908 1.92733, 0.689556 1.86619, 0.775203 1.80527, 0.842989 1.72581, 0.89314 1.6278, 0.983826 1.47414, 1.04405 1.30925, 1.07428 1.13338, 1.10451 0.957502, 1.11963 0.775444, 1.11963 0.587203 Z" stroke="none" fill="#000000" transform="matrix(1.12 0 0 1 12.8309 11.6474)" />
			<rect />
		</svg>
	</g>
	<path d="M 0 0 L 696.597 4.25568" fill="none" stroke="#000000" stroke-width="2.4000001" stroke-linecap="round" stroke-linejoin="round" stroke-dasharray="1.212, 3.588" transform="matrix(0.277778 0 0 0.277778 6.1676 103.657)" />
</svg>
