<?xml version="1.0"?>
<svg xmlns="http://www.w3.org/2000/svg" xmlns:xlink="http://www.w3.org/1999/xlink" width="487.692322" height="213.846161">
	<defs>
		<marker id="CustomMarker-01" markerUnits="strokeWidth" markerWidth="15.000001" markerHeight="9" viewBox="-15 -4.5 15 9" orient="auto-start-reverse">
			<path d="M 0 -0 L -10 -3, -8 -0.5, -8 0.5, -10 3 Z" fill="#FF0C00" stroke="#FF0C00" stroke-linejoin="round" />
		</marker>
		<marker id="CustomMarker-02" markerUnits="strokeWidth" markerWidth="15.000001" markerHeight="9" viewBox="-15 -4.5 15 9" orient="auto-start-reverse">
			<path d="M 0 -0 L -10 -3, -8 -0.5, -8 0.5, -10 3 Z" fill="#000000" stroke="#000000" stroke-linejoin="round" />
		</marker>
		<marker id="CustomMarker-03" markerUnits="strokeWidth" markerWidth="15.000001" markerHeight="9" viewBox="-15 -4.5 15 9" orient="auto-start-reverse">
			<path d="M 0 -0 L -10 -3, -8 -0.5, -8 0.5, -10 3 Z" fill="#000000" stroke="#000000" stroke-linejoin="round" />
		</marker>
		<marker id="CustomMarker-04" markerUnits="strokeWidth" markerWidth="15.000001" markerHeight="9" viewBox="-15 -4.5 15 9" orient="auto-start-reverse">
			<path d="M 0 -0 L -10 -3, -8 -0.5, -8 0.5, -10 3 Z" fill="#000000" stroke="#000000" stroke-linejoin="round" />
		</marker>
		<marker id="CustomMarker-05" markerUnits="strokeWidth" markerWidth="15.000001" markerHeight="9" viewBox="-15 -4.5 15 9" orient="auto-start-reverse">
			<path d="M 0 -0 L -10 -3, -8 -0.5, -8 0.5, -10 3 Z" fill="#FF0C00" stroke="#FF0C00" stroke-linejoin="round" />
		</marker>
		<marker id="CustomMarker-06" markerUnits="strokeWidth" markerWidth="15.000001" markerHeight="9" viewBox="-15 -4.5 15 9" orient="auto-start-reverse">
			<path d="M 0 -0 L -10 -3, -8 -0.5, -8 0.5, -10 3 Z" fill="#00FF80" stroke="#00FF80" stroke-linejoin="round" />
		</marker>
	</defs>
	<path d="M 250.899 -0 C 250.899 138.568, 138.568 250.899, -0 250.899, -138.568 250.899, -250.899 138.568, -250.899 -0, -250.899 -138.568, -138.568 -250.899, -0 -250.899, 138.568 -250.899, 250.899 -138.568, 250.899 -0 Z" stroke="none" fill="#FFFFFF" transform="matrix(0.384615 0 0 0.384615 113.256 107.063)" />
	<path d="M 250.899 -0 C 250.899 138.568, 138.568 250.899, -0 250.899, -138.568 250.899, -250.899 138.568, -250.899 -0, -250.899 -138.568, -138.568 -250.899, -0 -250.899, 138.568 -250.899, 250.899 -138.568, 250.899 -0 Z" fill="none" stroke="#000000" stroke-width="2.5999999" stroke-linecap="round" stroke-linejoin="round" transform="matrix(0.384615 0 0 0.384615 113.256 107.063)" />
	<path d="M 0 0 L -0.649475 -500.848" fill="none" stroke="#FF0C00" stroke-width="2.5999999" stroke-linecap="round" stroke-linejoin="round" marker-end="url(#CustomMarker-01)" transform="matrix(0.384615 0 0 0.384615 113.256 203.313)" />
	<path d="M 0 0 L 0 -248.717" fill="none" stroke="#000000" stroke-width="2.5999999" stroke-linecap="round" stroke-linejoin="round" marker-end="url(#CustomMarker-02)" transform="matrix(0.384615 0 0 0.384615 116.197 203.313)" />
	<g transform="matrix(1 0 -0 1 96.5443 86.9526)">
		<svg width="45.0279007" height="38.9253807">
			<defs />
			<path d="M 9.6607 12.0893 C 8.9197 12.059, 8.20734 12.0435, 7.52442 12.0435 L 7.51092 12.0435 C 6.75603 12.0435, 5.9631 12.059, 5.13174 12.0893 L 5.13174 11.2191, 6.22359 11.2191, 5.64413 9.64224, 2.79999 9.64224, 2.24056 11.1798, 2.24056 11.1733 C 2.24056 11.1344, 2.23606 11.1128, 2.22707 11.1079, 2.30395 11.1299, 2.37796 11.1496, 2.44953 11.1668, 2.57098 11.1847, 2.69448 11.1978, 2.82043 11.2064, 2.94638 11.2154, 3.11037 11.2195, 3.31238 11.2191 L 3.31238 12.0893 C 2.74192 12.059, 2.21398 12.0435, 1.72857 12.0435 L 1.52615 12.0435 C 1.06365 12.0435, 0.553702 12.059, -0.00326777 12.0893 L -0.00326777 11.2191, 0.555747 11.2191 C 0.695194 11.2195, 0.841184 11.2064, 0.994126 11.1798, 1.0526 11.1717, 1.10658 11.1606, 1.15566 11.1475, 1.20514 11.1344, 1.22967 11.1259, 1.22967 11.121 L 4.23535 2.7983 C 4.27134 2.7071, 4.33227 2.63104, 4.41773 2.5697, 4.5032 2.50877, 4.60216 2.4781, 4.71421 2.47769 L 4.96325 2.47769 C 5.06222 2.4781, 5.15464 2.50877, 5.23969 2.5697, 5.32516 2.63104, 5.38568 2.7071, 5.42167 2.7983 L 8.46783 11.2191, 9.6607 11.2191, 9.6607 12.0893 Z M 4.22881 5.70337 L 3.11691 8.77857, 5.3407 8.77857 Z" stroke="none" fill="#FF0C00" />
			<path d="M 1.69476 2.28366 C 1.23195 2.26901, 0.781725 2.26168, 0.34387 2.26168, -0.0937567 2.26168, -0.543978 2.26901, -1.0068 2.28366 L -1.0068 1.96855, -0.746418 1.96855 C -0.663518 1.96878, -0.585428 1.96764, -0.512605 1.96512, -0.439553 1.96283, -0.370393 1.95665, -0.304898 1.9468, -0.239403 1.93718, -0.182839 1.92733, -0.135206 1.91726, -0.0949018 1.91016, -0.0616962 1.88772, -0.0353607 1.8497, -0.00879633 1.81192, 0.00425696 1.76978, 0.00425696 1.72306 L 0.00425696 -2.40634 C -0.121237 -2.34496, -0.276044 -2.29848, -0.459705 -2.26687, -0.643366 -2.23504, -0.844431 -2.21924, -1.06336 -2.21947 L -1.06336 -2.53091 C -0.761532 -2.53069, -0.482834 -2.56664, -0.227495 -2.63878, 0.0278443 -2.71068, 0.248604 -2.84579, 0.434555 -3.04388 L 0.551576 -3.04388 C 0.634476 -3.04365, 0.675925 -3.00335, 0.675925 -2.92297 L 0.675925 1.72306 C 0.675925 1.77207, 0.688521 1.81489, 0.713711 1.85153, 0.738901 1.88817, 0.775542 1.91016, 0.823175 1.91726, 0.863479 1.92733, 0.915234 1.93718, 0.977981 1.9468, 1.04073 1.95665, 1.11172 1.96283, 1.19096 1.96512, 1.27019 1.96764, 1.34759 1.96878, 1.42316 1.96855 L 1.69476 1.96855, 1.69476 2.28366 Z" stroke="none" fill="#FF0C00" transform="matrix(1.12 0 0 1 12.0933 11.6474)" />
			<rect />
		</svg>
	</g>
	<g transform="matrix(1 0 -0 1 119.987 144.397)">
		<svg width="48.041851" height="41.9471397">
			<defs />
			<path d="M 9.6607 12.0893 C 8.9197 12.059, 8.20734 12.0435, 7.52442 12.0435 L 7.51092 12.0435 C 6.75603 12.0435, 5.9631 12.059, 5.13174 12.0893 L 5.13174 11.2191, 6.22359 11.2191, 5.64413 9.64224, 2.79999 9.64224, 2.24056 11.1798, 2.24056 11.1733 C 2.24056 11.1344, 2.23606 11.1128, 2.22707 11.1079, 2.30395 11.1299, 2.37796 11.1496, 2.44953 11.1668, 2.57098 11.1847, 2.69448 11.1978, 2.82043 11.2064, 2.94638 11.2154, 3.11037 11.2195, 3.31238 11.2191 L 3.31238 12.0893 C 2.74192 12.059, 2.21398 12.0435, 1.72857 12.0435 L 1.52615 12.0435 C 1.06365 12.0435, 0.553702 12.059, -0.00326777 12.0893 L -0.00326777 11.2191, 0.555747 11.2191 C 0.695194 11.2195, 0.841184 11.2064, 0.994126 11.1798, 1.0526 11.1717, 1.10658 11.1606, 1.15566 11.1475, 1.20514 11.1344, 1.22967 11.1259, 1.22967 11.121 L 4.23535 2.7983 C 4.27134 2.7071, 4.33227 2.63104, 4.41773 2.5697, 4.5032 2.50877, 4.60216 2.4781, 4.71421 2.47769 L 4.96325 2.47769 C 5.06222 2.4781, 5.15464 2.50877, 5.23969 2.5697, 5.32516 2.63104, 5.38568 2.7071, 5.42167 2.7983 L 8.46783 11.2191, 9.6607 11.2191, 9.6607 12.0893 Z M 4.22881 5.70337 L 3.11691 8.77857, 5.3407 8.77857 Z" stroke="none" fill="#000000" />
			<path d="M 2.01333 0.902312 C 2.01333 1.11254, 1.96684 1.31429, 1.87386 1.50711, 1.78089 1.70016, 1.65631 1.86504, 1.50013 2.00153, 1.32402 2.15565, 1.1296 2.26969, 0.917084 2.34412, 0.704568 2.41878, 0.482435 2.45587, 0.250912 2.45587, 0.0420601 2.45587, -0.161524 2.42656, -0.3603 2.36794, -0.559075 2.30931, -0.738156 2.22527, -0.898001 2.11535, -1.05785 2.00542, -1.1854 1.87054, -1.28112 1.71047, -1.37685 1.55062, -1.42471 1.36673, -1.42471 1.1588, -1.42471 1.00262, -1.3725 0.886053, -1.26807 0.809108, -1.16365 0.732162, -1.05349 0.69369, -0.937848 0.693461, -0.816934 0.69369, -0.704493 0.732162, -0.600067 0.809108, -0.495641 0.886053, -0.443428 1.00262, -0.443428 1.1588, -0.443428 1.25177, -0.461519 1.3294, -0.49816 1.39169, -0.534572 1.45398, -0.581059 1.50597, -0.637852 1.54742, -0.694416 1.58909, -0.759225 1.61451, -0.832277 1.62413, -0.869833 1.63421, -0.9051 1.63902, -0.937848 1.63879, -0.970366 1.63902, -0.975404 1.64154, -0.952962 1.64612, -0.874871 1.78306, -0.721439 1.9042, -0.492435 2.00909, -0.263431 2.1142, -0.0156488 2.16664, 0.250912 2.16641, 0.376864 2.16664, 0.494343 2.1355, 0.603806 2.07321, 0.71327 2.01092, 0.804643 1.92733, 0.877466 1.82199, 0.968152 1.68551, 1.02975 1.53894, 1.0625 1.38253, 1.09525 1.22635, 1.11151 1.06628, 1.11151 0.902312, 1.11151 0.733994, 1.09525 0.572318, 1.0625 0.417053, 1.02975 0.262017, 0.968152 0.118432, 0.877466 -0.0137036, 0.801895 -0.120877, 0.710064 -0.20767, 0.601974 -0.273623, 0.493885 -0.339576, 0.376864 -0.372553, 0.250912 -0.372782 L -0.296179 -0.372782 C -0.369002 -0.372553, -0.408162 -0.406674, -0.4132 -0.475375 L -0.4132 -0.51568 C -0.4132 -0.544764, -0.404269 -0.567893, -0.386864 -0.585297, -0.364193 -0.607053, -0.335338 -0.618045, -0.300072 -0.618274, -0.227019 -0.627892, -0.151448 -0.632701, -0.0735868 -0.63293, 0.00198448 -0.632701, 0.0761817 -0.63751, 0.149005 -0.647586, 0.285033 -0.657204, 0.403199 -0.699112, 0.503961 -0.773767, 0.604722 -0.848194, 0.688996 -0.943459, 0.756781 -1.05956, 0.824566 -1.17544, 0.876092 -1.30918, 0.911359 -1.46078, 0.946625 -1.61215, 0.964259 -1.76742, 0.964259 -1.92634, 0.964259 -2.04337, 0.951663 -2.15443, 0.926473 -2.25954, 0.901283 -2.36443, 0.854795 -2.45626, 0.786781 -2.53458, 0.645943 -2.69557, 0.46732 -2.77503, 0.250912 -2.77274, 0.0196177 -2.77251, -0.19244 -2.729, -0.384803 -2.64244, -0.577166 -2.55565, -0.706325 -2.46221, -0.77182 -2.36237, -0.789224 -2.35962, -0.780522 -2.35847, -0.745255 -2.3587, -0.65457 -2.35847, -0.569151 -2.33168, -0.488771 -2.27809, -0.367857 -2.2071, -0.307629 -2.08733, -0.307629 -1.91902, -0.307629 -1.77703, -0.35343 -1.67009, -0.44526 -1.59818, -0.537091 -1.52605, -0.639685 -1.49009, -0.752812 -1.49032, -0.86365 -1.49009, -0.967389 -1.52536, -1.06426 -1.59635, -1.16113 -1.66711, -1.20968 -1.77474, -1.20968 -1.91902, -1.20968 -2.09718, -1.16685 -2.25451, -1.0812 -2.39145, -0.995557 -2.52817, -0.885635 -2.64542, -0.75098 -2.7432, -0.616326 -2.84076, -0.461061 -2.91541, -0.284957 -2.96671, -0.108624 -3.01801, 0.0699986 -3.04365, 0.250912 -3.04388, 0.444649 -3.04365, 0.632203 -3.01801, 0.813345 -2.96671, 0.994487 -2.91541, 1.16555 -2.83595, 1.32654 -2.72877, 1.45753 -2.6358, 1.56746 -2.52153, 1.65677 -2.38595, 1.74608 -2.25038, 1.79073 -2.09718, 1.79073 -1.92634, 1.79073 -1.75505, 1.76005 -1.59383, 1.69845 -1.44246, 1.63684 -1.29086, 1.55509 -1.15414, 1.45318 -1.03208, 1.35128 -0.909796, 1.2299 -0.802393, 1.08884 -0.709646, 0.947999 -0.616671, 0.8422 -0.558275, 0.771667 -0.534, 0.832124 -0.526443, 0.935404 -0.490261, 1.08128 -0.425682, 1.22738 -0.360873, 1.36685 -0.274768, 1.50013 -0.167594, 1.65631 -0.0329399, 1.78089 0.127592, 1.87386 0.314459, 1.96684 0.501326, 2.01333 0.697354, 2.01333 0.902312 Z" stroke="none" fill="#000000" transform="matrix(1.12 0 0 1 12.4555 11.6474)" />
			<rect />
		</svg>
	</g>
	<path d="M 0 0 L 503.098 3.07358" fill="none" stroke="#000000" stroke-width="2.5999999" stroke-linecap="round" stroke-linejoin="round" stroke-dasharray="1.313, 3.887" transform="matrix(0.384615 0 0 0.384615 16.2568 106.47)" />
	<path d="M 0 0 L 251.549 251.791" fill="none" stroke="#000000" stroke-width="2.5999999" stroke-linecap="round" stroke-linejoin="round" marker-end="url(#CustomMarker-03)" transform="matrix(0.384615 0 0 0.384615 16.2568 106.47)" />
	<g transform="matrix(1 0 -0 1 70.0571 142.926)">
		<svg width="48.041851" height="38.9253807">
			<defs />
			<path d="M 9.6607 12.0893 C 8.9197 12.059, 8.20734 12.0435, 7.52442 12.0435 L 7.51092 12.0435 C 6.75603 12.0435, 5.9631 12.059, 5.13174 12.0893 L 5.13174 11.2191, 6.22359 11.2191, 5.64413 9.64224, 2.79999 9.64224, 2.24056 11.1798, 2.24056 11.1733 C 2.24056 11.1344, 2.23606 11.1128, 2.22707 11.1079, 2.30395 11.1299, 2.37796 11.1496, 2.44953 11.1668, 2.57098 11.1847, 2.69448 11.1978, 2.82043 11.2064, 2.94638 11.2154, 3.11037 11.2195, 3.31238 11.2191 L 3.31238 12.0893 C 2.74192 12.059, 2.21398 12.0435, 1.72857 12.0435 L 1.52615 12.0435 C 1.06365 12.0435, 0.553702 12.059, -0.00326777 12.0893 L -0.00326777 11.2191, 0.555747 11.2191 C 0.695194 11.2195, 0.841184 11.2064, 0.994126 11.1798, 1.0526 11.1717, 1.10658 11.1606, 1.15566 11.1475, 1.20514 11.1344, 1.22967 11.1259, 1.22967 11.121 L 4.23535 2.7983 C 4.27134 2.7071, 4.33227 2.63104, 4.41773 2.5697, 4.5032 2.50877, 4.60216 2.4781, 4.71421 2.47769 L 4.96325 2.47769 C 5.06222 2.4781, 5.15464 2.50877, 5.23969 2.5697, 5.32516 2.63104, 5.38568 2.7071, 5.42167 2.7983 L 8.46783 11.2191, 9.6607 11.2191, 9.6607 12.0893 Z M 4.22881 5.70337 L 3.11691 8.77857, 5.3407 8.77857 Z" stroke="none" fill="#000000" />
			<path d="M 1.70813 2.28366 L -1.36327 2.28366, -1.36327 2.08214 C -1.36327 2.06771, -1.35571 2.04573, -1.3406 2.01619 L -0.106727 0.67514 C 0.039377 0.514151, 0.187085 0.349268, 0.336853 0.180721, 0.486622 0.0121739, 0.62036 -0.160037, 0.738526 -0.335912, 0.856692 -0.511787, 0.951041 -0.693158, 1.02157 -0.880025, 1.09211 -1.06689, 1.12715 -1.26292, 1.12715 -1.46834, 1.12715 -1.64146, 1.1047 -1.80337, 1.05936 -1.9536, 1.01402 -2.10382, 0.948751 -2.23573, 0.863104 -2.34931, 0.777457 -2.4629, 0.670512 -2.5545, 0.542269 -2.62412, 0.414027 -2.69374, 0.265633 -2.72854, 0.097086 -2.72877, -0.15436 -2.72854, -0.376494 -2.65343, -0.568857 -2.5032, -0.761221 -2.35298, -0.889005 -2.18741, -0.951981 -2.00695, -0.964347 -2.00192, -0.944195 -1.9994, -0.891524 -1.99963 L -0.827403 -1.99963 C -0.751831 -1.98222, -0.686565 -1.95589, -0.631146 -1.92062, -0.575727 -1.88512, -0.52924 -1.83635, -0.491454 -1.77406, -0.453668 -1.71177, -0.43489 -1.63665, -0.43489 -1.54895, -0.43489 -1.40215, -0.482523 -1.28971, -0.578246 -1.21162, -0.67397 -1.1333, -0.780915 -1.09437, -0.899081 -1.0946, -1.01221 -1.09437, -1.11778 -1.1333, -1.21602 -1.21162, -1.31404 -1.28971, -1.36327 -1.40215, -1.36327 -1.54895, -1.36327 -1.7539, -1.32297 -1.9481, -1.24236 -2.1313, -1.16175 -2.31451, -1.05251 -2.47321, -0.914195 -2.60763, -0.775877 -2.74183, -0.612368 -2.84808, -0.423669 -2.9264, -0.23497 -3.00449, -0.0348202 -3.04365, 0.176321 -3.04388, 0.437844 -3.04365, 0.677611 -3.00518, 0.895164 -2.92824, 1.11272 -2.85129, 1.29821 -2.74068, 1.45164 -2.59664, 1.60508 -2.45237, 1.7253 -2.28565, 1.8121 -2.09649, 1.89889 -1.90711, 1.94217 -1.6978, 1.94217 -1.46834, 1.94217 -1.21414, 1.88446 -0.9801, 1.76859 -0.766439, 1.65294 -0.55255, 1.50958 -0.356522, 1.33852 -0.178357, 1.16745 3.67165e-005, 0.985621 0.167897, 0.793258 0.325451, 0.600894 0.483006, 0.426623 0.63621, 0.270671 0.785062 L -0.597254 1.60215, 0.538605 1.60215 C 0.697076 1.60238, 0.845013 1.60123, 0.981957 1.59871, 1.11913 1.59642, 1.23546 1.59138, 1.33096 1.58406, 1.42668 1.57673, 1.47569 1.57192, 1.47798 1.56917, 1.49813 1.55223, 1.51714 1.5181, 1.53477 1.46681, 1.55241 1.41551, 1.56867 1.35505, 1.58378 1.28544, 1.59889 1.21582, 1.61401 1.14506, 1.62912 1.07292, 1.64424 1.00101, 1.65798 0.922006, 1.67057 0.836359 L 1.94973 0.836359 Z" stroke="none" fill="#000000" transform="matrix(1.12 0 0 1 12.3953 11.6474)" />
			<rect />
		</svg>
	</g>
	<path d="M 0 0 L 251.249 -247.704" fill="none" stroke="#000000" stroke-width="2.5999999" stroke-linecap="round" stroke-linejoin="round" stroke-dasharray="1.313, 3.887" transform="matrix(0.384615 0 0 0.384615 16.2568 105.834)" />
	<g transform="matrix(1 0 -0 1 220.663 99.6467)">
		<svg width="42.0139389" height="27.0062103">
			<defs />
			<path d="M 8.22122 -26.2598 C 8.22122 -26.9848, 8.77122 -27.3535, 9.87122 -27.3598, 11.1087 -27.3535, 11.9962 -26.9223, 12.5462 -26.0598, 18.0462 -15.4535, 26.4587 -7.85351, 37.7837 -3.25976, 39.9837 -2.32226, 42.04 -1.62226, 43.965 -1.15976, 45.1337 -0.822262, 45.715 -0.384762, 45.715 0.140238, 45.715 0.677738, 45.1337 1.11524, 43.965 1.44024, 29.89 4.97774, 19.415 13.2777, 12.5462 26.3402, 12.1337 27.1402, 11.3837 27.5402, 10.2837 27.5402, 8.90872 27.5402, 8.22122 27.2777, 8.22122 26.7402, 8.22122 26.4777, 8.39622 25.9402, 8.73372 25.1402, 11.14 20.5465, 14.0962 16.4465, 17.5962 12.8402 L 18.6275 11.8402, -44.31 11.8402 C -45.2663 11.3777, -45.7475 10.7152, -45.7475 9.84024, -45.7475 8.84649, -45.1975 8.17774, -44.1038 7.84024 L 23.1587 7.84024, 24.1837 7.04024 C 26.9337 5.04649, 30.9525 2.74649, 36.24 0.140238, 35.965 -0.0535126, 35.6212 -0.222261, 35.2087 -0.359762, 31.4337 -1.95351, 27.7587 -4.08476, 24.1837 -6.75976 L 23.1587 -7.55976, -44.1038 -7.55976 C -45.1975 -7.88476, -45.7475 -8.55351, -45.7475 -9.55976, -45.7475 -10.4223, -45.2663 -11.0848, -44.31 -11.5598 L 18.6275 -11.5598, 17.5962 -12.5598 C 14.0962 -16.1535, 11.14 -20.2535, 8.73372 -24.8598, 8.39622 -25.5223, 8.22122 -25.9848, 8.22122 -26.2598 Z" stroke="none" fill="#000000" transform="matrix(0.134 0 0 0.134 9.20133 7.93832)" />
			<rect />
		</svg>
	</g>
	<path d="M 250.899 -0 C 250.899 138.568, 138.568 250.899, -0 250.899, -138.568 250.899, -250.899 138.568, -250.899 -0, -250.899 -138.568, -138.568 -250.899, -0 -250.899, 138.568 -250.899, 250.899 -138.568, 250.899 -0 Z" stroke="none" fill="#FFFFFF" transform="matrix(0.384615 0 0 0.384615 350.904 108.322)" />
	<path d="M 250.899 -0 C 250.899 138.568, 138.568 250.899, -0 250.899, -138.568 250.899, -250.899 138.568, -250.899 -0, -250.899 -138.568, -138.568 -250.899, -0 -250.899, 138.568 -250.899, 250.899 -138.568, 250.899 -0 Z" fill="none" stroke="#000000" stroke-width="2.5999999" stroke-linecap="round" stroke-linejoin="round" transform="matrix(0.384615 0 0 0.384615 350.904 108.322)" />
	<path d="M 0 0 L 0 -248.717" fill="none" stroke="#000000" stroke-width="2.5999999" stroke-linecap="round" stroke-linejoin="round" marker-end="url(#CustomMarker-04)" transform="matrix(0.384615 0 0 0.384615 353.845 204.572)" />
	<g transform="matrix(1 0 -0 1 356.316 37.936)">
		<svg width="140.972076" height="111.111885">
			<defs />
			<path d="M 9.6607 12.0893 C 8.9197 12.059, 8.20734 12.0435, 7.52442 12.0435 L 7.51092 12.0435 C 6.75603 12.0435, 5.9631 12.059, 5.13174 12.0893 L 5.13174 11.2191, 6.22359 11.2191, 5.64413 9.64224, 2.79999 9.64224, 2.24056 11.1798, 2.24056 11.1733 C 2.24056 11.1344, 2.23606 11.1128, 2.22707 11.1079, 2.30395 11.1299, 2.37796 11.1496, 2.44953 11.1668, 2.57098 11.1847, 2.69448 11.1978, 2.82043 11.2064, 2.94638 11.2154, 3.11037 11.2195, 3.31238 11.2191 L 3.31238 12.0893 C 2.74192 12.059, 2.21398 12.0435, 1.72857 12.0435 L 1.52615 12.0435 C 1.06365 12.0435, 0.553702 12.059, -0.00326777 12.0893 L -0.00326777 11.2191, 0.555747 11.2191 C 0.695194 11.2195, 0.841184 11.2064, 0.994126 11.1798, 1.0526 11.1717, 1.10658 11.1606, 1.15566 11.1475, 1.20514 11.1344, 1.22967 11.1259, 1.22967 11.121 L 4.23535 2.7983 C 4.27134 2.7071, 4.33227 2.63104, 4.41773 2.5697, 4.5032 2.50877, 4.60216 2.4781, 4.71421 2.47769 L 4.96325 2.47769 C 5.06222 2.4781, 5.15464 2.50877, 5.23969 2.5697, 5.32516 2.63104, 5.38568 2.7071, 5.42167 2.7983 L 8.46783 11.2191, 9.6607 11.2191, 9.6607 12.0893 Z M 4.22881 5.70337 L 3.11691 8.77857, 5.3407 8.77857 Z" stroke="none" fill="#FF0C00" />
			<path d="M 1.69796 2.28366 C 1.23514 2.26901, 0.784693 2.26168, 0.346838 2.26168, -0.0907886 2.26168, -0.541239 2.26901, -1.00429 2.28366 L -1.00429 1.96855, -0.743679 1.96855 C -0.660779 1.96878, -0.582689 1.96764, -0.509866 1.96512, -0.436813 1.96283, -0.367654 1.95665, -0.302159 1.9468, -0.236664 1.93718, -0.1801 1.92733, -0.132467 1.91726, -0.0921626 1.91016, -0.0587281 1.88772, -0.0323926 1.8497, -0.00582814 1.81192, 0.00722504 1.76978, 0.00722504 1.72306 L 0.00722504 -2.40634 C -0.118498 -2.34496, -0.273305 -2.29848, -0.456966 -2.26687, -0.640627 -2.23504, -0.841921 -2.21924, -1.06085 -2.21947 L -1.06085 -2.53091 C -0.758793 -2.53069, -0.480095 -2.56664, -0.224756 -2.63878, 0.0305834 -2.71068, 0.251343 -2.84579, 0.437523 -3.04388 L 0.554544 -3.04388 C 0.637444 -3.04365, 0.678893 -3.00335, 0.678893 -2.92297 L 0.678893 1.72306 C 0.678893 1.77207, 0.691489 1.81489, 0.716679 1.85153, 0.74187 1.88817, 0.77851 1.91016, 0.826143 1.91726, 0.866448 1.92733, 0.918203 1.93718, 0.98095 1.9468, 1.04393 1.95665, 1.11492 1.96283, 1.19415 1.96512, 1.27339 1.96764, 1.35079 1.96878, 1.42613 1.96855 L 1.69796 1.96855, 1.69796 2.28366 Z" stroke="none" fill="#FF0C00" transform="matrix(1.12 0 0 1 12.0933 11.6474)" />
			<polyline points="-4.69 0 4.69 0" fill="none" stroke="#FF0C00" stroke-width="0.535999954" stroke-linecap="round" stroke-linejoin="round" transform="matrix(1 0 0 1 22.8038 8.00532)" />
			<polyline points="0 -4.69 0 4.69" fill="none" stroke="#FF0C00" stroke-width="0.535999954" stroke-linecap="round" stroke-linejoin="round" transform="matrix(1 0 0 1 22.8038 8.00532)" />
			<path d="M 41.0405 12.0893 C 40.2995 12.059, 39.5872 12.0435, 38.9042 12.0435 L 38.8907 12.0435 C 38.1359 12.0435, 37.3429 12.059, 36.5116 12.0893 L 36.5116 11.2191, 37.6034 11.2191, 37.024 9.64224, 34.1798 9.64224, 33.6204 11.1798, 33.6204 11.1733 C 33.6204 11.1344, 33.6159 11.1128, 33.6069 11.1079, 33.6838 11.1299, 33.7578 11.1496, 33.8294 11.1668, 33.9508 11.1847, 34.0743 11.1978, 34.2003 11.2064, 34.3262 11.2154, 34.4902 11.2195, 34.6922 11.2191 L 34.6922 12.0893 C 34.1217 12.059, 33.5938 12.0435, 33.1084 12.0435 L 32.906 12.0435 C 32.4435 12.0435, 31.9335 12.059, 31.3766 12.0893 L 31.3766 11.2191, 31.9356 11.2191 C 32.075 11.2195, 32.221 11.2064, 32.374 11.1798, 32.4324 11.1717, 32.4864 11.1606, 32.5355 11.1475, 32.585 11.1344, 32.6095 11.1259, 32.6095 11.121 L 35.6152 2.7983 C 35.6512 2.7071, 35.7121 2.63104, 35.7976 2.5697, 35.883 2.50877, 35.982 2.4781, 36.094 2.47769 L 36.3431 2.47769 C 36.442 2.4781, 36.5345 2.50877, 36.6195 2.5697, 36.705 2.63104, 36.7655 2.7071, 36.8015 2.7983 L 39.8477 11.2191, 41.0405 11.2191, 41.0405 12.0893 Z M 35.6086 5.70337 L 34.4967 8.77857, 36.7205 8.77857 Z" stroke="none" fill="#FF0C00" />
			<path d="M 1.70813 2.28366 L -1.36327 2.28366, -1.36327 2.08214 C -1.36327 2.06771, -1.35571 2.04573, -1.3406 2.01619 L -0.106727 0.67514 C 0.039377 0.514151, 0.187085 0.349268, 0.336853 0.180721, 0.486622 0.0121739, 0.62036 -0.160037, 0.738526 -0.335912, 0.856692 -0.511787, 0.951041 -0.693158, 1.02157 -0.880025, 1.09211 -1.06689, 1.12715 -1.26292, 1.12715 -1.46834, 1.12715 -1.64146, 1.1047 -1.80337, 1.05936 -1.9536, 1.01402 -2.10382, 0.948751 -2.23573, 0.863104 -2.34931, 0.777457 -2.4629, 0.670512 -2.5545, 0.542269 -2.62412, 0.414027 -2.69374, 0.265633 -2.72854, 0.097086 -2.72877, -0.15436 -2.72854, -0.376494 -2.65343, -0.568857 -2.5032, -0.761221 -2.35298, -0.889005 -2.18741, -0.951981 -2.00695, -0.964347 -2.00192, -0.944195 -1.9994, -0.891524 -1.99963 L -0.827403 -1.99963 C -0.751831 -1.98222, -0.686565 -1.95589, -0.631146 -1.92062, -0.575727 -1.88512, -0.52924 -1.83635, -0.491454 -1.77406, -0.453668 -1.71177, -0.43489 -1.63665, -0.43489 -1.54895, -0.43489 -1.40215, -0.482523 -1.28971, -0.578246 -1.21162, -0.67397 -1.1333, -0.780915 -1.09437, -0.899081 -1.0946, -1.01221 -1.09437, -1.11778 -1.1333, -1.21602 -1.21162, -1.31404 -1.28971, -1.36327 -1.40215, -1.36327 -1.54895, -1.36327 -1.7539, -1.32297 -1.9481, -1.24236 -2.1313, -1.16175 -2.31451, -1.05251 -2.47321, -0.914195 -2.60763, -0.775877 -2.74183, -0.612368 -2.84808, -0.423669 -2.9264, -0.23497 -3.00449, -0.0348202 -3.04365, 0.176321 -3.04388, 0.437844 -3.04365, 0.677611 -3.00518, 0.895164 -2.92824, 1.11272 -2.85129, 1.29821 -2.74068, 1.45164 -2.59664, 1.60508 -2.45237, 1.7253 -2.28565, 1.8121 -2.09649, 1.89889 -1.90711, 1.94217 -1.6978, 1.94217 -1.46834, 1.94217 -1.21414, 1.88446 -0.9801, 1.76859 -0.766439, 1.65294 -0.55255, 1.50958 -0.356522, 1.33852 -0.178357, 1.16745 3.67165e-005, 0.985621 0.167897, 0.793258 0.325451, 0.600894 0.483006, 0.426623 0.63621, 0.270671 0.785062 L -0.597254 1.60215, 0.538605 1.60215 C 0.697076 1.60238, 0.845013 1.60123, 0.981957 1.59871, 1.11913 1.59642, 1.23546 1.59138, 1.33096 1.58406, 1.42668 1.57673, 1.47569 1.57192, 1.47798 1.56917, 1.49813 1.55223, 1.51714 1.5181, 1.53477 1.46681, 1.55241 1.41551, 1.56867 1.35505, 1.58378 1.28544, 1.59889 1.21582, 1.61401 1.14506, 1.62912 1.07292, 1.64424 1.00101, 1.65798 0.922006, 1.67057 0.836359 L 1.94973 0.836359 Z" stroke="none" fill="#FF0C00" transform="matrix(1.12 0 0 1 43.7751 11.6474)" />
			<rect />
		</svg>
	</g>
	<g transform="matrix(1 0 -0 1 357.635 145.657)">
		<svg width="48.041851" height="41.9471397">
			<defs />
			<path d="M 9.6607 12.0893 C 8.9197 12.059, 8.20734 12.0435, 7.52442 12.0435 L 7.51092 12.0435 C 6.75603 12.0435, 5.9631 12.059, 5.13174 12.0893 L 5.13174 11.2191, 6.22359 11.2191, 5.64413 9.64224, 2.79999 9.64224, 2.24056 11.1798, 2.24056 11.1733 C 2.24056 11.1344, 2.23606 11.1128, 2.22707 11.1079, 2.30395 11.1299, 2.37796 11.1496, 2.44953 11.1668, 2.57098 11.1847, 2.69448 11.1978, 2.82043 11.2064, 2.94638 11.2154, 3.11037 11.2195, 3.31238 11.2191 L 3.31238 12.0893 C 2.74192 12.059, 2.21398 12.0435, 1.72857 12.0435 L 1.52615 12.0435 C 1.06365 12.0435, 0.553702 12.059, -0.00326777 12.0893 L -0.00326777 11.2191, 0.555747 11.2191 C 0.695194 11.2195, 0.841184 11.2064, 0.994126 11.1798, 1.0526 11.1717, 1.10658 11.1606, 1.15566 11.1475, 1.20514 11.1344, 1.22967 11.1259, 1.22967 11.121 L 4.23535 2.7983 C 4.27134 2.7071, 4.33227 2.63104, 4.41773 2.5697, 4.5032 2.50877, 4.60216 2.4781, 4.71421 2.47769 L 4.96325 2.47769 C 5.06222 2.4781, 5.15464 2.50877, 5.23969 2.5697, 5.32516 2.63104, 5.38568 2.7071, 5.42167 2.7983 L 8.46783 11.2191, 9.6607 11.2191, 9.6607 12.0893 Z M 4.22881 5.70337 L 3.11691 8.77857, 5.3407 8.77857 Z" stroke="none" fill="#000000" />
			<path d="M 2.01333 0.902312 C 2.01333 1.11254, 1.96684 1.31429, 1.87386 1.50711, 1.78089 1.70016, 1.65631 1.86504, 1.50013 2.00153, 1.32402 2.15565, 1.1296 2.26969, 0.917084 2.34412, 0.704568 2.41878, 0.482435 2.45587, 0.250912 2.45587, 0.0420601 2.45587, -0.161524 2.42656, -0.3603 2.36794, -0.559075 2.30931, -0.738156 2.22527, -0.898001 2.11535, -1.05785 2.00542, -1.1854 1.87054, -1.28112 1.71047, -1.37685 1.55062, -1.42471 1.36673, -1.42471 1.1588, -1.42471 1.00262, -1.3725 0.886053, -1.26807 0.809108, -1.16365 0.732162, -1.05349 0.69369, -0.937848 0.693461, -0.816934 0.69369, -0.704493 0.732162, -0.600067 0.809108, -0.495641 0.886053, -0.443428 1.00262, -0.443428 1.1588, -0.443428 1.25177, -0.461519 1.3294, -0.49816 1.39169, -0.534572 1.45398, -0.581059 1.50597, -0.637852 1.54742, -0.694416 1.58909, -0.759225 1.61451, -0.832277 1.62413, -0.869833 1.63421, -0.9051 1.63902, -0.937848 1.63879, -0.970366 1.63902, -0.975404 1.64154, -0.952962 1.64612, -0.874871 1.78306, -0.721439 1.9042, -0.492435 2.00909, -0.263431 2.1142, -0.0156488 2.16664, 0.250912 2.16641, 0.376864 2.16664, 0.494343 2.1355, 0.603806 2.07321, 0.71327 2.01092, 0.804643 1.92733, 0.877466 1.82199, 0.968152 1.68551, 1.02975 1.53894, 1.0625 1.38253, 1.09525 1.22635, 1.11151 1.06628, 1.11151 0.902312, 1.11151 0.733994, 1.09525 0.572318, 1.0625 0.417053, 1.02975 0.262017, 0.968152 0.118432, 0.877466 -0.0137036, 0.801895 -0.120877, 0.710064 -0.20767, 0.601974 -0.273623, 0.493885 -0.339576, 0.376864 -0.372553, 0.250912 -0.372782 L -0.296179 -0.372782 C -0.369002 -0.372553, -0.408162 -0.406674, -0.4132 -0.475375 L -0.4132 -0.51568 C -0.4132 -0.544764, -0.404269 -0.567893, -0.386864 -0.585297, -0.364193 -0.607053, -0.335338 -0.618045, -0.300072 -0.618274, -0.227019 -0.627892, -0.151448 -0.632701, -0.0735868 -0.63293, 0.00198448 -0.632701, 0.0761817 -0.63751, 0.149005 -0.647586, 0.285033 -0.657204, 0.403199 -0.699112, 0.503961 -0.773767, 0.604722 -0.848194, 0.688996 -0.943459, 0.756781 -1.05956, 0.824566 -1.17544, 0.876092 -1.30918, 0.911359 -1.46078, 0.946625 -1.61215, 0.964259 -1.76742, 0.964259 -1.92634, 0.964259 -2.04337, 0.951663 -2.15443, 0.926473 -2.25954, 0.901283 -2.36443, 0.854795 -2.45626, 0.786781 -2.53458, 0.645943 -2.69557, 0.46732 -2.77503, 0.250912 -2.77274, 0.0196177 -2.77251, -0.19244 -2.729, -0.384803 -2.64244, -0.577166 -2.55565, -0.706325 -2.46221, -0.77182 -2.36237, -0.789224 -2.35962, -0.780522 -2.35847, -0.745255 -2.3587, -0.65457 -2.35847, -0.569151 -2.33168, -0.488771 -2.27809, -0.367857 -2.2071, -0.307629 -2.08733, -0.307629 -1.91902, -0.307629 -1.77703, -0.35343 -1.67009, -0.44526 -1.59818, -0.537091 -1.52605, -0.639685 -1.49009, -0.752812 -1.49032, -0.86365 -1.49009, -0.967389 -1.52536, -1.06426 -1.59635, -1.16113 -1.66711, -1.20968 -1.77474, -1.20968 -1.91902, -1.20968 -2.09718, -1.16685 -2.25451, -1.0812 -2.39145, -0.995557 -2.52817, -0.885635 -2.64542, -0.75098 -2.7432, -0.616326 -2.84076, -0.461061 -2.91541, -0.284957 -2.96671, -0.108624 -3.01801, 0.0699986 -3.04365, 0.250912 -3.04388, 0.444649 -3.04365, 0.632203 -3.01801, 0.813345 -2.96671, 0.994487 -2.91541, 1.16555 -2.83595, 1.32654 -2.72877, 1.45753 -2.6358, 1.56746 -2.52153, 1.65677 -2.38595, 1.74608 -2.25038, 1.79073 -2.09718, 1.79073 -1.92634, 1.79073 -1.75505, 1.76005 -1.59383, 1.69845 -1.44246, 1.63684 -1.29086, 1.55509 -1.15414, 1.45318 -1.03208, 1.35128 -0.909796, 1.2299 -0.802393, 1.08884 -0.709646, 0.947999 -0.616671, 0.8422 -0.558275, 0.771667 -0.534, 0.832124 -0.526443, 0.935404 -0.490261, 1.08128 -0.425682, 1.22738 -0.360873, 1.36685 -0.274768, 1.50013 -0.167594, 1.65631 -0.0329399, 1.78089 0.127592, 1.87386 0.314459, 1.96684 0.501326, 2.01333 0.697354, 2.01333 0.902312 Z" stroke="none" fill="#000000" transform="matrix(1.12 0 0 1 12.4555 11.6474)" />
			<rect />
		</svg>
	</g>
	<path d="M 0 0 L 503.098 3.07358" fill="none" stroke="#000000" stroke-width="2.5999999" stroke-linecap="round" stroke-linejoin="round" stroke-dasharray="1.313, 3.887" transform="matrix(0.384615 0 0 0.384615 253.905 107.73)" />
	<g transform="matrix(1 0 -0 1 414.219 82.6864)">
		<svg width="212.972046" height="126.052834">
			<defs />
			<path d="M 9.6607 14.6353 C 8.9197 14.605, 8.20734 14.5895, 7.52442 14.5895 L 7.51092 14.5895 C 6.75603 14.5895, 5.9631 14.605, 5.13174 14.6353 L 5.13174 13.7651, 6.22359 13.7651, 5.64413 12.1882, 2.79999 12.1882, 2.24056 13.7258, 2.24056 13.7193 C 2.24056 13.6804, 2.23606 13.6588, 2.22707 13.6539, 2.30395 13.6759, 2.37796 13.6956, 2.44953 13.7128, 2.57098 13.7307, 2.69448 13.7438, 2.82043 13.7524, 2.94638 13.7614, 3.11037 13.7655, 3.31238 13.7651 L 3.31238 14.6353 C 2.74192 14.605, 2.21398 14.5895, 1.72857 14.5895 L 1.52615 14.5895 C 1.06365 14.5895, 0.553702 14.605, -0.00326777 14.6353 L -0.00326777 13.7651, 0.555747 13.7651 C 0.695194 13.7655, 0.841184 13.7524, 0.994126 13.7258, 1.0526 13.7177, 1.10658 13.7066, 1.15566 13.6935, 1.20514 13.6804, 1.22967 13.6719, 1.22967 13.667 L 4.23535 5.3443 C 4.27134 5.2531, 4.33227 5.17704, 4.41773 5.1157, 4.5032 5.05477, 4.60216 5.0241, 4.71421 5.02369 L 4.96325 5.02369 C 5.06222 5.0241, 5.15464 5.05477, 5.23969 5.1157, 5.32516 5.17704, 5.38568 5.2531, 5.42167 5.3443 L 8.46783 13.7651, 9.6607 13.7651, 9.6607 14.6353 Z M 4.22881 8.24937 L 3.11691 11.3246, 5.3407 11.3246 Z" stroke="none" fill="#00FF80" />
			<path d="M 2.23601 0.587203 C 2.23601 0.821932, 2.19891 1.05231, 2.12471 1.27811, 2.05052 1.50413, 1.92731 1.70314, 1.75487 1.87535, 1.58266 2.04756, 1.38503 2.17214, 1.16244 2.24908, 0.939848 2.32603, 0.707638 2.36427, 0.466039 2.36427, 0.305278 2.36427, 0.15551 2.33817, 0.0171916 2.2855, -0.121127 2.23328, -0.210667 2.19115, -0.250972 2.15909 L -0.250972 3.29128, 0.281233 3.29128, 0.281233 3.7786 C 0.0698625 3.77127, -0.115631 3.76646, -0.275475 3.76395, -0.435091 3.76166, -0.596768 3.76028, -0.760506 3.76028, -0.926304 3.76028, -1.08913 3.76166, -1.24897 3.76395, -1.40882 3.76646, -1.59316 3.77127, -1.80202 3.7786 L -1.80202 3.29128, -1.26981 3.29128, -1.26981 -0.559648 C -1.26981 -0.591251, -1.27989 -0.610716, -1.30004 -0.618273, -1.34034 -0.625372, -1.40515 -0.630182, -1.49446 -0.632701, -1.58377 -0.634991, -1.68614 -0.636365, -1.80202 -0.636594 L -1.80202 -1.12391, -0.292422 -1.19353, -0.292422 -0.940711 C -0.231965 -0.98697, -0.117005 -1.03987, 0.0529162 -1.09987, 0.222837 -1.15964, 0.401918 -1.18964, 0.590617 -1.18987, 0.814583 -1.18964, 1.03237 -1.14865, 1.24374 -1.06689, 1.45511 -0.984909, 1.63877 -0.861017, 1.79449 -0.695219, 1.95319 -0.511786, 2.06655 -0.310263, 2.13433 -0.0904193, 2.20212 0.129424, 2.23601 0.355451, 2.23601 0.587203 Z M 1.11893 0.587203 C 1.11893 0.40171, 1.10656 0.224232, 1.08137 0.054311, 1.05618 -0.115381, 1.00214 -0.277287, 0.919009 -0.431406, 0.866338 -0.528962, 0.804736 -0.60751, 0.734203 -0.667509, 0.663669 -0.727279, 0.585808 -0.757279, 0.500161 -0.757508, 0.346728 -0.757279, 0.203143 -0.720638, 0.0698625 -0.647357, -0.0634178 -0.574076, -0.170363 -0.482474, -0.250972 -0.372781 L -0.250972 1.56184 C -0.175401 1.6768, -0.0808221 1.77161, 0.0323058 1.84604, 0.145434 1.92069, 0.272531 1.95779, 0.413368 1.95756, 0.511382 1.95779, 0.603212 1.92733, 0.68886 1.86619, 0.774507 1.80527, 0.842293 1.72581, 0.892673 1.6278, 0.983359 1.47414, 1.04359 1.30925, 1.07382 1.13338, 1.10404 0.957502, 1.11893 0.775444, 1.11893 0.587203 Z" stroke="none" fill="#00FF80" transform="matrix(1.12 0 0 1 12.8309 14.1934)" />
			<polyline points="-4.69 -1.407 4.69 -1.407" fill="none" stroke="#00FF80" stroke-width="0.535999954" stroke-linecap="round" stroke-linejoin="round" transform="matrix(1 0 0 1 24.2365 10.5513)" />
			<polyline points="-4.69 1.407 4.69 1.407" fill="none" stroke="#00FF80" stroke-width="0.535999954" stroke-linecap="round" stroke-linejoin="round" transform="matrix(1 0 0 1 24.2365 10.5513)" />
			<polyline points="52.1786 2.01 44.6715 2.01" fill="none" stroke="#00FF80" stroke-width="0.535999954" stroke-linecap="round" stroke-linejoin="round" />
			<polyline points="44.6715 2.01 37.5535 17.0826" fill="none" stroke="#00FF80" stroke-width="0.535999954" stroke-linecap="round" stroke-linejoin="round" />
			<polyline points="37.5535 17.0826 34.9565 9.75152" fill="none" stroke="#00FF80" stroke-width="0.535999954" stroke-linecap="round" stroke-linejoin="round" />
			<polyline points="34.9565 9.75152 33.6165 10.8193" fill="none" stroke="#00FF80" stroke-width="0.535999954" stroke-linecap="round" stroke-linejoin="round" />
			<polyline points="33.6165 10.8193 33.6165 10.8193" fill="none" stroke="#00FF80" stroke-width="0.535999954" stroke-linecap="round" stroke-linejoin="round" />
			<polyline points="33.6165 10.8193 35.4925 9.32441" fill="none" stroke="#00FF80" stroke-width="0.535999954" stroke-linecap="round" stroke-linejoin="round" />
			<polyline points="35.4925 9.32441 37.9462 16.251" fill="none" stroke="#00FF80" stroke-width="0.535999954" stroke-linecap="round" stroke-linejoin="round" />
			<ellipse cx="44.67154535651207" cy="2.0099992454051971" rx="0.26799997687339783" ry="0.26799997687339783" stroke="none" fill="#00FF80" />
			<ellipse cx="37.553465217351913" cy="17.082641929388046" rx="0.26799997687339783" ry="0.26799997687339783" stroke="none" fill="#00FF80" />
			<ellipse cx="35.492544502019882" cy="9.3244059979915619" rx="0.26799997687339783" ry="0.26799997687339783" stroke="none" fill="#00FF80" />
			<polygon points="35.4925 9.32441 37.9462 16.251 37.5535 17.0826 34.9565 9.75152" stroke="none" fill="#00FF80" />
			<path d="M 51.585 11.6882 C 51.585 12.1074, 51.506 12.5074, 51.3473 12.8877, 51.189 13.2684, 50.9602 13.6103, 50.6604 13.9132, 50.3567 14.2086, 50.0144 14.4342, 49.6337 14.5897, 49.253 14.746, 48.8494 14.8237, 48.4222 14.8237, 48.0527 14.8237, 47.7081 14.7544, 47.3891 14.6154, 47.0701 14.4767, 46.7927 14.2867, 46.5571 14.0451, 46.3214 13.8038, 46.1367 13.5237, 46.002 13.2051, 45.8678 12.8869, 45.8005 12.5479, 45.8005 12.1884, 45.8005 11.9407, 45.883 11.754, 46.0481 11.6277, 46.2132 11.5019, 46.384 11.4386, 46.5599 11.4382, 46.745 11.4386, 46.919 11.5007, 47.0817 11.6245, 47.2448 11.7487, 47.3261 11.9367, 47.3261 12.1884, 47.3261 12.3427, 47.2921 12.4721, 47.2239 12.5767, 47.1558 12.6817, 47.0721 12.7627, 46.9727 12.8204, 46.8737 12.8781, 46.7627 12.9113, 46.6392 12.9194 L 46.5599 12.9194, 46.428 12.9194 C 46.5294 13.2788, 46.7651 13.6018, 47.1346 13.888, 47.5045 14.1745, 47.9337 14.3176, 48.4222 14.3172, 48.6775 14.3176, 48.9264 14.2515, 49.1684 14.1188, 49.4105 13.9866, 49.6084 13.811, 49.7623 13.5926, 49.9431 13.3321, 50.0589 13.0364, 50.1094 12.7049, 50.1599 12.3739, 50.1851 12.0349, 50.1851 11.6882, 50.1851 11.338, 50.1743 11.0017, 50.1523 10.6787, 50.1302 10.3561, 50.0401 10.0515, 49.8814 9.7646, 49.7672 9.5554, 49.6209 9.38147, 49.4425 9.24241, 49.2642 9.10375, 49.065 9.03402, 48.8446 9.03361, 48.4266 9.03402, 48.0635 9.11858, 47.7554 9.28729, 47.4472 9.45641, 47.1983 9.69887, 47.0091 10.0147, 46.9695 10.0876, 46.9057 10.1241, 46.8176 10.1237 L 46.7647 10.1237 C 46.6108 10.1241, 46.5334 10.0535, 46.5334 9.91207 L 46.5334 5.41077 C 46.5334 5.30016, 46.5976 5.22963, 46.725 5.19917, 46.7474 5.19957, 46.7639 5.20198, 46.7747 5.20599, 46.7859 5.21039, 46.7955 5.2124, 46.8044 5.212, 47.4428 5.50295, 48.1008 5.64842, 48.7785 5.64802, 49.4654 5.64842, 50.1238 5.50295, 50.753 5.212, 50.7618 5.2124, 50.7706 5.21039, 50.7795 5.20599, 50.7883 5.20198, 50.8015 5.19957, 50.8191 5.19917, 50.9642 5.19957, 51.0347 5.2657, 51.0303 5.39795, 51.0303 5.4753, 51.0171 5.52659, 50.9907 5.55184, 50.6781 5.97985, 50.2809 6.31448, 49.7988 6.55574, 49.3171 6.79739, 48.8053 6.91802, 48.2635 6.91762, 47.8147 6.91802, 47.4275 6.86672, 47.1013 6.76373 L 47.1013 9.21315 C 47.2556 9.05125, 47.488 8.90698, 47.7982 8.78074, 48.1084 8.6549, 48.4575 8.59158, 48.8446 8.59118, 49.2233 8.59158, 49.5812 8.67734, 49.9178 8.84806, 50.2545 9.01919, 50.5506 9.24121, 50.8059 9.51452, 51.07 9.82271, 51.266 10.1637, 51.3934 10.5377, 51.5213 10.912, 51.585 11.2955, 51.585 11.6882 Z" stroke="none" fill="#00FF80" />
			<path d="M 64.5193 14.6353 C 63.7783 14.605, 63.0659 14.5895, 62.383 14.5895 L 62.3695 14.5895 C 61.6146 14.5895, 60.8217 14.605, 59.9903 14.6353 L 59.9903 13.7651, 61.0822 13.7651, 60.5027 12.1882, 57.6586 12.1882, 57.0991 13.7258, 57.0991 13.7193 C 57.0991 13.6804, 57.0946 13.6588, 57.0856 13.6539, 57.1625 13.6759, 57.2365 13.6956, 57.3081 13.7128, 57.4296 13.7307, 57.5531 13.7438, 57.679 13.7524, 57.805 13.7614, 57.9689 13.7655, 58.171 13.7651 L 58.171 14.6353 C 57.6005 14.605, 57.0726 14.5895, 56.5872 14.5895 L 56.3847 14.5895 C 55.9222 14.5895, 55.4123 14.605, 54.8553 14.6353 L 54.8553 13.7651, 55.4143 13.7651 C 55.5538 13.7655, 55.6998 13.7524, 55.8527 13.7258, 55.9112 13.7177, 55.9652 13.7066, 56.0142 13.6935, 56.0637 13.6804, 56.0883 13.6719, 56.0883 13.667 L 59.0939 5.3443 C 59.1299 5.2531, 59.1908 5.17704, 59.2763 5.1157, 59.3618 5.05477, 59.4607 5.0241, 59.5728 5.02369 L 59.8218 5.02369 C 59.9208 5.0241, 60.0132 5.05477, 60.0983 5.1157, 60.1837 5.17704, 60.2443 5.2531, 60.2803 5.3443 L 63.3264 13.7651, 64.5193 13.7651, 64.5193 14.6353 Z M 59.0874 8.24937 L 57.9755 11.3246, 60.1993 11.3246 Z" stroke="none" fill="#00FF80" />
			<path d="M 2.03724 -0.266524 C 2.03724 0.0854552, 2.01273 0.435373, 1.96373 0.783459, 1.91472 1.13155, 1.79335 1.45833, 1.59961 1.76337, 1.46129 1.98596, 1.27626 2.1568, 1.04496 2.27634, 0.813668 2.3961, 0.561992 2.45587, 0.290165 2.45587, 0.0286423 2.45587, -0.218453 2.3961, -0.451121 2.27634, -0.683789 2.1568, -0.869511 1.98596, -1.00783 1.76337, -1.20134 1.45833, -1.32271 1.13155, -1.37172 0.783459, -1.42072 0.435373, -1.44546 0.0854552, -1.44546 -0.266524, -1.44546 -0.622854, -1.42072 -0.978955, -1.37172 -1.33437, -1.32271 -1.68978, -1.20134 -2.02253, -1.00783 -2.33306, -0.869511 -2.55748, -0.684476 -2.73221, -0.453182 -2.85679, -0.221659 -2.98137, 0.0261233 -3.04365, 0.290165 -3.04388, 0.559473 -3.04365, 0.810233 -2.98137, 1.0429 -2.85679, 1.27557 -2.73221, 1.46129 -2.55748, 1.59961 -2.33306, 1.79335 -2.02253, 1.91472 -1.68978, 1.96373 -1.33437, 2.01273 -0.978955, 2.03724 -0.622854, 2.03724 -0.266524 Z M 1.29 -0.394766 C 1.29 -0.548428, 1.28885 -0.710791, 1.28633 -0.881857, 1.28404 -1.05269, 1.27763 -1.2201, 1.26755 -1.38383, 1.25748 -1.54734, 1.23939 -1.70192, 1.21282 -1.84734, 1.18649 -1.99253, 1.15443 -2.11665, 1.11664 -2.21947, 1.04107 -2.38527, 0.930459 -2.52153, 0.784584 -2.62778, 0.638709 -2.73404, 0.473826 -2.78717, 0.290165 -2.7874, 0.111542 -2.78717, -0.049906 -2.73335, -0.194636 -2.62595, -0.339138 -2.51832, -0.449289 -2.38298, -0.52486 -2.21947, -0.562417 -2.11665, -0.594477 -1.99253, -0.621042 -1.84734, -0.647377 -1.70192, -0.665697 -1.54734, -0.675774 -1.38383, -0.68585 -1.2201, -0.692033 -1.05269, -0.694552 -0.881857, -0.697071 -0.710791, -0.698445 -0.548428, -0.698445 -0.394766, -0.698445 -0.223471, -0.697071 -0.0432451, -0.694552 0.145912, -0.692033 0.335299, -0.68585 0.518502, -0.675774 0.695522, -0.665697 0.872771, -0.647377 1.04063, -0.621042 1.19933, -0.594477 1.35826, -0.562417 1.49131, -0.52486 1.59848, -0.454327 1.77711, -0.345321 1.92367, -0.198301 2.0384, -0.05128 2.15336, 0.111542 2.21061, 0.290165 2.21038, 0.476345 2.21061, 0.64306 2.15336, 0.79008 2.0384, 0.93733 1.92367, 1.04611 1.77711, 1.11664 1.59848, 1.15443 1.49131, 1.18649 1.35826, 1.21282 1.19933, 1.23939 1.04063, 1.25748 0.872771, 1.26755 0.695522, 1.27763 0.518502, 1.28404 0.335299, 1.28633 0.145912, 1.28885 -0.0432451, 1.29 -0.223471, 1.29 -0.394766 Z" stroke="none" fill="#00FF80" transform="matrix(1.12 0 0 1 67.3368 14.1934)" />
			<rect />
		</svg>
	</g>
	<path d="M 0 0 L 251.25 -247.704" fill="none" stroke="#000000" stroke-width="2.5999999" stroke-linecap="round" stroke-linejoin="round" stroke-dasharray="1.313, 3.887" transform="matrix(0.384615 0 0 0.384615 253.905 107.094)" />
	<path d="M 0 0 L 243.252 -248.717" fill="none" stroke="#FF0C00" stroke-width="2.5999999" stroke-linecap="round" stroke-linejoin="round" marker-end="url(#CustomMarker-05)" transform="matrix(0.384615 0 0 0.384615 353.845 108.852)" />
	<path d="M 0 0 L 243.252 -494.316" fill="none" stroke="#00FF80" stroke-width="2.5999999" stroke-linecap="round" stroke-linejoin="round" marker-end="url(#CustomMarker-06)" transform="matrix(0.384615 0 0 0.384615 353.845 203.313)" />
</svg>
