<?xml version="1.0"?>
<svg xmlns="http://www.w3.org/2000/svg" xmlns:xlink="http://www.w3.org/1999/xlink" width="408.780518" height="271.492554">
	<defs>
		<pattern id="Fill_HP-01" patternTransform="rotate(135)" patternUnits="userSpaceOnUse" width="25" height="25">
			<rect width="25" height="25" fill="#FFFFFF" />
			<path d="M 0 12.5 L 25 12.5" fill="none" stoke-width="5" stroke="#777777" />
		</pattern>
		<marker id="CustomMarker-01" markerUnits="strokeWidth" markerWidth="15.000001" markerHeight="9" viewBox="-15 -4.5 15 9" orient="auto-start-reverse">
			<path d="M 0 -0 L -10 -3, -8 -0.5, -8 0.5, -10 3 Z" fill="#000000" stroke="#000000" stroke-linejoin="round" />
		</marker>
		<marker id="CustomMarker-02" markerUnits="strokeWidth" markerWidth="14.25" markerHeight="7.5" viewBox="-14.25 -3.75 14.25 7.5" orient="auto-start-reverse">
			<path d="M -9.5 -2.5 L 0 -0, -9.5 2.5" fill="none" stroke="#000000" stroke-linejoin="round" />
		</marker>
		<marker id="CustomMarker-03" markerUnits="strokeWidth" markerWidth="14.25" markerHeight="7.5" viewBox="-14.25 -3.75 14.25 7.5" orient="auto-start-reverse">
			<path d="M -9.5 -2.5 L 0 -0, -9.5 2.5" fill="none" stroke="#000000" stroke-linejoin="round" />
		</marker>
		<marker id="CustomMarker-04" markerUnits="strokeWidth" markerWidth="14.25" markerHeight="7.5" viewBox="-14.25 -3.75 14.25 7.5" orient="auto-start-reverse">
			<path d="M -9.5 -2.5 L 0 -0, -9.5 2.5" fill="none" stroke="#000000" stroke-linejoin="round" />
		</marker>
		<marker id="CustomMarker-05" markerUnits="strokeWidth" markerWidth="14.25" markerHeight="7.5" viewBox="-14.25 -3.75 14.25 7.5" orient="auto-start-reverse">
			<path d="M -9.5 -2.5 L 0 -0, -9.5 2.5" fill="none" stroke="#000000" stroke-linejoin="round" />
		</marker>
		<marker id="CustomMarker-06" markerUnits="strokeWidth" markerWidth="14.25" markerHeight="7.5" viewBox="-14.25 -3.75 14.25 7.5" orient="auto-start-reverse">
			<path d="M -9.5 -2.5 L 0 -0, -9.5 2.5" fill="none" stroke="#004AFF" stroke-linejoin="round" />
		</marker>
		<marker id="CustomMarker-07" markerUnits="strokeWidth" markerWidth="14.25" markerHeight="7.5" viewBox="-14.25 -3.75 14.25 7.5" orient="auto-start-reverse">
			<path d="M -9.5 -2.5 L 0 -0, -9.5 2.5" fill="none" stroke="#000000" stroke-linejoin="round" />
		</marker>
		<marker id="CustomMarker-08" markerUnits="strokeWidth" markerWidth="14.25" markerHeight="7.5" viewBox="-14.25 -3.75 14.25 7.5" orient="auto-start-reverse">
			<path d="M -9.5 -2.5 L 0 -0, -9.5 2.5" fill="none" stroke="#004AFF" stroke-linejoin="round" />
		</marker>
		<marker id="CustomMarker-09" markerUnits="strokeWidth" markerWidth="14.25" markerHeight="7.5" viewBox="-14.25 -3.75 14.25 7.5" orient="auto-start-reverse">
			<path d="M -9.5 -2.5 L 0 -0, -9.5 2.5" fill="none" stroke="#004AFF" stroke-linejoin="round" />
		</marker>
		<marker id="CustomMarker-10" markerUnits="strokeWidth" markerWidth="14.25" markerHeight="7.5" viewBox="-14.25 -3.75 14.25 7.5" orient="auto-start-reverse">
			<path d="M -9.5 -2.5 L 0 -0, -9.5 2.5" fill="none" stroke="#000000" stroke-linejoin="round" />
		</marker>
		<marker id="CustomMarker-11" markerUnits="strokeWidth" markerWidth="21" markerHeight="9" viewBox="-21 -4.5 21 9" orient="auto-start-reverse">
			<path d="M 0 -0 L -14 -3, -14 -0.5, -14 0.5, -14 3 Z" fill="#000000" stroke="#000000" stroke-linejoin="round" />
		</marker>
		<marker id="CustomMarker-12" markerUnits="strokeWidth" markerWidth="21" markerHeight="9" viewBox="-21 -4.5 21 9" orient="auto-start-reverse">
			<path d="M 0 -0 L -14 -3, -14 -0.5, -14 0.5, -14 3 Z" fill="#000000" stroke="#000000" stroke-linejoin="round" />
		</marker>
		<marker id="CustomMarker-13" markerUnits="strokeWidth" markerWidth="21" markerHeight="9" viewBox="-21 -4.5 21 9" orient="auto-start-reverse">
			<path d="M 0 -0 L -14 -3, -14 -0.5, -14 0.5, -14 3 Z" fill="#000000" stroke="#000000" stroke-linejoin="round" />
		</marker>
		<marker id="CustomMarker-14" markerUnits="strokeWidth" markerWidth="21" markerHeight="9" viewBox="-21 -4.5 21 9" orient="auto-start-reverse">
			<path d="M 0 -0 L -14 -3, -14 -0.5, -14 0.5, -14 3 Z" fill="#000000" stroke="#000000" stroke-linejoin="round" />
		</marker>
		<marker id="CustomMarker-15" markerUnits="strokeWidth" markerWidth="21" markerHeight="9" viewBox="-21 -4.5 21 9" orient="auto-start-reverse">
			<path d="M 0 -0 L -14 -3, -14 -0.5, -14 0.5, -14 3 Z" fill="#000000" stroke="#000000" stroke-linejoin="round" />
		</marker>
		<marker id="CustomMarker-16" markerUnits="strokeWidth" markerWidth="21" markerHeight="9" viewBox="-21 -4.5 21 9" orient="auto-start-reverse">
			<path d="M 0 -0 L -14 -3, -14 -0.5, -14 0.5, -14 3 Z" fill="#000000" stroke="#000000" stroke-linejoin="round" />
		</marker>
		<marker id="CustomMarker-17" markerUnits="strokeWidth" markerWidth="15.000001" markerHeight="9" viewBox="-15 -4.5 15 9" orient="auto-start-reverse">
			<path d="M 0 -0 L -10 -3, -8 -0.5, -8 0.5, -10 3 Z" fill="#000000" stroke="#000000" stroke-linejoin="round" />
		</marker>
		<marker id="CustomMarker-18" markerUnits="strokeWidth" markerWidth="15.000001" markerHeight="9" viewBox="-15 -4.5 15 9" orient="auto-start-reverse">
			<path d="M 0 -0 L -10 -3, -8 -0.5, -8 0.5, -10 3 Z" fill="#000000" stroke="#000000" stroke-linejoin="round" />
		</marker>
		<marker id="CustomMarker-19" markerUnits="strokeWidth" markerWidth="21" markerHeight="9" viewBox="-21 -4.5 21 9" orient="auto-start-reverse">
			<path d="M 0 -0 L -14 -3, -14 -0.5, -14 0.5, -14 3 Z" fill="#004AFF" stroke="#004AFF" stroke-linejoin="round" />
		</marker>
		<marker id="CustomMarker-20" markerUnits="strokeWidth" markerWidth="21" markerHeight="9" viewBox="-21 -4.5 21 9" orient="auto-start-reverse">
			<path d="M 0 -0 L -14 -3, -14 -0.5, -14 0.5, -14 3 Z" fill="#004AFF" stroke="#004AFF" stroke-linejoin="round" />
		</marker>
	</defs>
	<path d="M -198.002 0 L 198.002 0, 198.002 12.1459, -198.002 12.1459 Z" stroke="none" fill="url(#Fill_HP-01)" transform="matrix(-0.00252063 -0.624995 0.624995 -0.00252063 354.603 132.281)" />
	<path d="M -198.002 0 L 198.002 0" fill="none" stroke="#000000" stroke-width="1.60000002" stroke-linecap="round" stroke-linejoin="round" transform="matrix(-0.00252063 -0.624995 0.624995 -0.00252063 354.603 132.281)" />
	<path d="M 0 -39.5762 L 0 39.5764" fill="none" stroke="#000000" stroke-width="1.60000002" stroke-linecap="round" stroke-linejoin="round" transform="matrix(0.625 0 0 0.625 126.11 38.5783)" />
	<path d="M 0 30.9233 L 0 -30.9229" fill="none" stroke="#000000" stroke-width="1.60000002" stroke-linecap="round" stroke-linejoin="round" marker-end="url(#CustomMarker-01)" transform="matrix(0.625 0 0 0.625 126.11 112.954)" />
	<path d="M -219.337 3.05176e-005 L 219.337 0" fill="none" stroke="#000000" stroke-width="1.60000002" stroke-linecap="round" stroke-linejoin="round" transform="matrix(0.625 0 0 0.625 263.195 132.281)" />
	<path d="M 0 -120.167 L 0 120.166" fill="none" stroke="#000000" stroke-width="0.800000012" stroke-linecap="round" stroke-linejoin="round" stroke-dasharray="2.804, 1.996" transform="matrix(0.625 0 0 0.625 126.11 138.418)" />
	<g transform="matrix(1 0 -0 1 111.849 140.881)">
		<svg width="29.9581337" height="35.9036179">
			<defs />
			<path d="M 8.75961 7.43726 C 8.59767 8.07029, 8.33595 8.68083, 7.97445 9.2697, 7.61295 9.85857, 7.15781 10.3971, 6.60983 10.8854, 6.11584 11.3262, 5.57523 11.6767, 4.98881 11.936, 4.4024 12.1952, 3.81517 12.3249, 3.22671 12.3249, 2.63375 12.3249, 2.10664 12.1944, 1.64617 11.9327, 1.18571 11.671, 0.818489 11.3176, 0.544502 10.8723, 0.243526 10.38, 0.0705461 9.83444, 0.0255632 9.23658, 0.00757009 9.09304, -0.00142652 8.9491, -0.00142652 8.80474, -0.00142652 8.35573, 0.0570512 7.89118, 0.173598 7.41109, 0.344533 6.77029, 0.608296 6.14789, 0.965706 5.54348, 1.32312 4.93948, 1.7799 4.39314, 2.33687 3.90406, 2.83127 3.46404, 3.37147 3.1095, 3.95789 2.84123, 4.5443 2.57297, 5.13603 2.43884, 5.73349 2.43843, 6.32644 2.43884, 6.85111 2.5742, 7.30707 2.84451, 7.76344 3.11522, 8.12821 3.47263, 8.4022 3.91714, 8.70317 4.41032, 8.88065 4.95993, 8.93463 5.56597, 8.94363 5.71482, 8.94813 5.86081, 8.94813 6.00435, 8.94813 6.47135, 8.88556 6.94899, 8.75961 7.43726 Z M 7.39826 4.1396 C 7.25023 3.77361, 7.02777 3.4759, 6.73088 3.2469, 6.4344 3.01789, 6.07045 2.90339, 5.63902 2.90298, 5.2125 2.90339, 4.78803 3.02035, 4.3656 3.25344, 3.94357 3.48694, 3.56613 3.78874, 3.23325 4.15923, 2.81532 4.60906, 2.48531 5.09651, 2.24281 5.622, 2.00031 6.14789, 1.81138 6.68073, 1.67644 7.22134, 1.5194 7.81062, 1.4229 8.38436, 1.38691 8.94214, 1.37791 9.04724, 1.37341 9.15193, 1.37341 9.25621, 1.37341 9.69295, 1.44539 10.1203, 1.58892 10.5386, 1.72837 10.9099, 1.94183 11.2207, 2.22932 11.4714, 2.5168 11.7225, 2.87625 11.8476, 3.30727 11.8472, 3.75219 11.8476, 4.1873 11.72, 4.61177 11.4649, 5.03625 11.2097, 5.41697 10.8944, 5.75393 10.519, 6.18986 10.0136, 6.52886 9.47908, 6.77136 8.91638, 7.01427 8.35369, 7.21179 7.77995, 7.36432 7.19517, 7.50377 6.65047, 7.59128 6.11395, 7.62726 5.5856 L 7.62726 5.3566 C 7.62726 4.92067, 7.5512 4.51501, 7.39826 4.1396 Z" stroke="none" fill="#000000" />
			<rect />
		</svg>
	</g>
	<g transform="matrix(1 0 -0 1 113.049 104.948)">
		<svg width="23.9302292" height="23.9844532">
			<defs />
			<path d="M 6.51884 7.07085 C 6.46977 7.26755, 6.36958 7.41477, 6.21909 7.51291, 6.0686 7.61106, 5.9173 7.66013, 5.76436 7.65972, 5.60733 7.66013, 5.47687 7.60983, 5.37341 7.50923, 5.29735 7.43563, 5.25687 7.33953, 5.25196 7.22134, 5.25196 7.17391, 5.26096 7.11257, 5.27895 7.03814, 5.32843 6.87293, 5.4049 6.74739, 5.50795 6.66233, 5.61141 6.57727, 5.68339 6.5282, 5.72387 6.5147, 5.63881 6.44968, 5.46338 6.41697, 5.19798 6.41656, 4.96448 6.41697, 4.75551 6.53801, 4.57149 6.7801, 4.38747 7.02219, 4.25007 7.31335, 4.1601 7.65318 L 3.54016 10.0479 C 3.47718 10.2884, 3.43015 10.5174, 3.39866 10.7349, 3.38067 10.8093, 3.37167 10.8748, 3.37167 10.9312, 3.37167 11.067, 3.39417 11.1954, 3.43915 11.3172, 3.48413 11.4485, 3.55161 11.5532, 3.64157 11.6317, 3.73154 11.7102, 3.84604 11.7495, 3.98508 11.7491, 4.16501 11.7495, 4.33799 11.7029, 4.50402 11.6088, 4.67045 11.5152, 4.8234 11.3888, 4.96243 11.2293, 5.10147 11.0702, 5.22497 10.885, 5.33293 10.6732, 5.44089 10.4617, 5.52595 10.2446, 5.58892 10.0217, 5.61591 9.90887, 5.69238 9.85203, 5.81793 9.85162 L 5.97291 9.85162 C 6.08987 9.85203, 6.14835 9.89578, 6.14835 9.98248, 6.14835 10.0091, 6.1418 10.0332, 6.12831 10.0544, 6.06533 10.3166, 5.9631 10.575, 5.82161 10.8302, 5.68012 11.0854, 5.51531 11.3111, 5.32639 11.5074, 5.13746 11.7037, 4.92318 11.8652, 4.68272 11.9912, 4.44227 12.1179, 4.18505 12.1809, 3.91106 12.1809, 3.63258 12.1809, 3.39212 12.1212, 3.19011 12.001, 2.98809 11.8816, 2.8237 11.7254, 2.69775 11.5332, 2.65767 11.4857, 2.62618 11.4367, 2.60369 11.3864, 2.5812 11.3365, 2.57425 11.3287, 2.58325 11.363, 2.4757 11.5422, 2.30517 11.7233, 2.07126 11.9065, 1.83776 12.0897, 1.56827 12.1809, 1.26239 12.1809, 1.09186 12.1809, 0.923378 12.1592, 0.756941 12.1155, 0.590913 12.0721, 0.445741 12.0047, 0.322242 11.9131, 0.198744 11.8215, 0.105507 11.7102, 0.0425305 11.579, 0.0114514 11.5009, -0.00408817 11.4158, -0.0044971 11.3238, -0.00408817 11.2588, 0.00490842 11.1823, 0.0224926 11.0948, 0.0719738 10.8989, 0.172981 10.7517, 0.325923 10.6535, 0.478865 10.5554, 0.631398 10.5063, 0.783931 10.5059, 0.941371 10.5063, 1.07632 10.5566, 1.18837 10.6564, 1.26484 10.7308, 1.30287 10.8269, 1.30287 10.9443, 1.30287 11.0056, 1.29387 11.067, 1.27588 11.1275, 1.2358 11.2804, 1.1626 11.4039, 1.0571 11.4976, 0.951594 11.5916, 0.875941 11.6428, 0.830958 11.6509, 0.916426 11.7213, 1.08941 11.754, 1.3499 11.7491, 1.58381 11.7495, 1.79482 11.6276, 1.98334 11.3831, 2.17227 11.1389, 2.30926 10.8466, 2.39473 10.5059 L 3.02122 8.0981 C 3.08419 7.87155, 3.13367 7.64909, 3.16966 7.43072, 3.17866 7.3612, 3.18316 7.29577, 3.18316 7.23443, 3.18316 7.09948, 3.16312 6.97312, 3.12222 6.85494, 3.07765 6.72449, 3.00813 6.61898, 2.91367 6.53801, 2.8192 6.45745, 2.70225 6.41697, 2.56321 6.41656, 2.38328 6.41697, 2.20907 6.46399, 2.04059 6.55764, 1.87211 6.6517, 1.71835 6.77683, 1.57931 6.93386, 1.44027 7.09089, 1.31677 7.27328, 1.20881 7.4802, 1.10086 7.68753, 1.02234 7.90672, 0.97245 8.13736, 0.923378 8.25554, 0.840364 8.31647, 0.723408 8.32056 L 0.574965 8.32056 C 0.467414 8.32097, 0.413435 8.26658, 0.413435 8.15699 L 0.413435 8.11119 C 0.480909 7.84129, 0.58437 7.57834, 0.723408 7.32317, 0.862446 7.06799, 1.02888 6.84226, 1.2219 6.64597, 1.41533 6.44968, 1.63125 6.28938, 1.86925 6.16506, 2.10725 6.04075, 2.36569 5.97859, 2.64377 5.97818, 2.91367 5.97859, 3.15167 6.03747, 3.35818 6.15525, 3.5651 6.27302, 3.73358 6.43005, 3.86362 6.62593, 3.89061 6.67419, 3.91556 6.72571, 3.93805 6.7801, 3.96054 6.8349, 3.96708 6.8488, 3.95809 6.82222, 4.07055 6.63084, 4.24353 6.44232, 4.47703 6.25666, 4.71094 6.07142, 4.97797 5.97859, 5.27895 5.97818, 5.44988 5.97859, 5.61918 5.99944, 5.78767 6.04075, 5.95615 6.08246, 6.10255 6.14871, 6.22604 6.24031, 6.34954 6.33191, 6.44074 6.44518, 6.4988 6.58013, 6.53029 6.65906, 6.54583 6.74861, 6.54583 6.84839, 6.54583 6.91423, 6.53684 6.98825, 6.51884 7.07085 Z" stroke="none" fill="#000000" />
			<rect />
		</svg>
	</g>
	<path d="M 0 -39.5762 L 0 39.5767" fill="none" stroke="#000000" stroke-width="1.60000002" stroke-linecap="round" stroke-linejoin="round" transform="matrix(0.625 0 0 0.625 126.11 238.257)" />
	<path d="M 0 -198 L 0 198" fill="none" stroke="#000000" stroke-width="1.60000002" stroke-linecap="round" stroke-linejoin="round" marker-start="url(#CustomMarker-02)" marker-end="url(#CustomMarker-03)" transform="matrix(0.625 0 0 0.625 286.769 132.281)" />
	<path d="M -93.9473 51.4161 L 93.9474 -51.4161" fill="none" stroke="#000000" stroke-width="1.60000002" stroke-linecap="round" stroke-linejoin="round" marker-end="url(#CustomMarker-04)" transform="matrix(0.625 0 0 0.625 67.3924 129.929)" />
	<path d="M -93.9471 51.4165 L 93.9469 -51.4161" fill="none" stroke="#000000" stroke-width="1.60000002" stroke-linecap="round" stroke-linejoin="round" marker-end="url(#CustomMarker-05)" transform="matrix(0.625 0 0 0.625 67.217 164.355)" />
	<path d="M -128.527 25.396 L 128.527 -25.396" fill="none" stroke="#004AFF" stroke-width="1.60000002" stroke-linecap="round" stroke-linejoin="round" marker-end="url(#CustomMarker-06)" transform="matrix(0.625 0 0 0.625 206.439 81.921)" />
	<path d="M -128.527 25.396 L 128.527 -25.3961" fill="none" stroke="#000000" stroke-width="1.60000002" stroke-linecap="round" stroke-linejoin="round" marker-end="url(#CustomMarker-07)" transform="matrix(0.625 0 0 0.625 206.439 117.272)" />
	<path d="M -128.527 -73.7497 L 128.527 73.7491" fill="none" stroke="#004AFF" stroke-width="1.60000002" stroke-linecap="round" stroke-linejoin="round" marker-end="url(#CustomMarker-08)" transform="matrix(0.625 0 0 0.625 206.439 143.887)" />
	<path d="M -54.2383 10.7168 L 54.2396 -10.7173" fill="none" stroke="#000000" stroke-width="1.60000002" stroke-linecap="round" stroke-linejoin="round" stroke-dasharray="0.808, 2.392" transform="matrix(0.625 0 0 0.625 321.203 124.363)" />
	<path d="M -53.8679 -41.4507 L 53.8685 41.4508" fill="none" stroke="#004AFF" stroke-width="1.60000002" stroke-linecap="round" stroke-linejoin="round" transform="matrix(0.625 0 0 0.625 320.436 91.9552)" />
	<path d="M -53.8679 36.8748 L 53.8685 -36.8743" fill="none" stroke="#004AFF" stroke-width="1.60000002" stroke-linecap="round" stroke-linejoin="round" marker-end="url(#CustomMarker-09)" transform="matrix(0.625 0 0 0.625 320.436 166.933)" />
	<path d="M -53.8679 -13.1699 L 53.8685 13.17" fill="none" stroke="#000000" stroke-width="1.60000002" stroke-linecap="round" stroke-linejoin="round" marker-end="url(#CustomMarker-10)" transform="matrix(0.625 0 0 0.625 320.436 109.631)" />
	<g transform="matrix(1 0 -0 1 127.906 79.5791)">
		<svg width="32.9720879" height="35.9036179">
			<defs />
			<path d="M 9.6607 12.0893 C 8.9197 12.059, 8.20734 12.0435, 7.52442 12.0435 L 7.51092 12.0435 C 6.75603 12.0435, 5.9631 12.059, 5.13174 12.0893 L 5.13174 11.2191, 6.22359 11.2191, 5.64413 9.64224, 2.79999 9.64224, 2.24056 11.1798, 2.24056 11.1733 C 2.24056 11.1344, 2.23606 11.1128, 2.22707 11.1079, 2.30395 11.1299, 2.37796 11.1496, 2.44953 11.1668, 2.57098 11.1847, 2.69448 11.1978, 2.82043 11.2064, 2.94638 11.2154, 3.11037 11.2195, 3.31238 11.2191 L 3.31238 12.0893 C 2.74192 12.059, 2.21398 12.0435, 1.72857 12.0435 L 1.52615 12.0435 C 1.06365 12.0435, 0.553702 12.059, -0.00326777 12.0893 L -0.00326777 11.2191, 0.555747 11.2191 C 0.695194 11.2195, 0.841184 11.2064, 0.994126 11.1798, 1.0526 11.1717, 1.10658 11.1606, 1.15566 11.1475, 1.20514 11.1344, 1.22967 11.1259, 1.22967 11.121 L 4.23535 2.7983 C 4.27134 2.7071, 4.33227 2.63104, 4.41773 2.5697, 4.5032 2.50877, 4.60216 2.4781, 4.71421 2.47769 L 4.96325 2.47769 C 5.06222 2.4781, 5.15464 2.50877, 5.23969 2.5697, 5.32516 2.63104, 5.38568 2.7071, 5.42167 2.7983 L 8.46783 11.2191, 9.6607 11.2191, 9.6607 12.0893 Z M 4.22881 5.70337 L 3.11691 8.77857, 5.3407 8.77857 Z" stroke="none" fill="#004AFF" />
			<rect />
		</svg>
	</g>
	<ellipse cx="707.75078105926514" cy="328.27550029754639" rx="4.1999998092651367" ry="4.1999998092651367" stroke="none" fill="#004AFF" transform="matrix(0.625 0 0 0.625 -316.235 -107.379)" />
	<ellipse cx="947.58256816864014" cy="280.88646221160889" rx="4.1999998092651367" ry="4.1999998092651367" stroke="none" fill="#000000" transform="matrix(0.625 0 0 0.625 -316.235 -107.379)" />
	<g transform="matrix(1 0 -0 1 271.6 48.6415)">
		<svg width="29.9581337" height="35.9036179">
			<defs />
			<path d="M 8.80623 9.45904 C 8.80623 9.82585, 8.73466 10.1751, 8.59072 10.5063, 8.44677 10.838, 8.23576 11.1279, 7.95687 11.3761, 7.6379 11.6338, 7.28212 11.8161, 6.88873 11.9229, 6.49574 12.0296, 6.09703 12.0828, 5.69259 12.0828 L -0.00183612 12.0828, -0.00183612 11.2191, 1.29204 11.2191, 1.29204 3.51802, -0.00183612 3.51802, -0.00183612 2.65435, 5.3086 2.65435 C 5.71304 2.65476, 6.11052 2.70383, 6.50147 2.80198, 6.89241 2.90012, 7.24532 3.06901, 7.55938 3.30865, 7.84236 3.52702, 8.05706 3.79242, 8.20305 4.10403, 8.34944 4.41605, 8.42223 4.74401, 8.42223 5.08834, 8.42223 5.42039, 8.34699 5.73118, 8.1965 6.02112, 8.04601 6.31146, 7.83337 6.55641, 7.55938 6.75679, 7.19134 7.00583, 7.01386 7.12811, 7.02695 7.1232, 6.84742 7.10193, 6.89568 7.13996, 7.17212 7.23811, 7.44856 7.33625, 7.70783 7.47897, 7.95032 7.66627, 8.23331 7.88464, 8.44677 8.15085, 8.59072 8.46492, 8.73466 8.77898, 8.80623 9.11063, 8.80623 9.45904 Z M 6.21848 5.08834 C 6.21848 4.87937, 6.20417 4.67572, 6.17473 4.47698, 6.14528 4.27864, 6.07454 4.09421, 5.96208 3.92369, 5.89052 3.81082, 5.79523 3.71472, 5.67582 3.6362, 5.55682 3.55769, 5.43455 3.51843, 5.3086 3.51802 L 3.3408 3.51802, 3.3408 6.82222, 4.93115 6.82222 C 5.11558 6.82263, 5.28652 6.78256, 5.44355 6.70159, 5.60058 6.62103, 5.74003 6.50652, 5.86107 6.35767, 5.99602 6.18346, 6.08967 5.98758, 6.14119 5.76921, 6.19272 5.55125, 6.21848 5.32429, 6.21848 5.08834 Z M 6.5215 9.45904 C 6.5215 9.20632, 6.50474 8.96014, 6.4712 8.72009, 6.43767 8.48046, 6.35793 8.25554, 6.23198 8.04576, 6.15101 7.89772, 6.04796 7.77709, 5.922 7.68303, 5.79605 7.58939, 5.65456 7.54236, 5.49712 7.54195 L 3.3408 7.54195, 3.3408 11.2191, 5.3086 11.2191 C 5.48853 11.2195, 5.65456 11.177, 5.8075 11.0919, 5.96044 11.0069, 6.08599 10.8969, 6.18454 10.7611, 6.31499 10.5697, 6.40373 10.3624, 6.45076 10.1399, 6.49819 9.91745, 6.5215 9.6905, 6.5215 9.45904 Z" stroke="none" fill="#000000" />
			<rect />
		</svg>
	</g>
	<ellipse cx="976.44975566864014" cy="286.44356060028076" rx="4.1999998092651367" ry="4.1999998092651367" stroke="none" fill="#000000" transform="matrix(0.625 0 0 0.625 -316.235 -107.379)" />
	<g transform="matrix(1 0 -0 1 294.716 51.7665)">
		<svg width="29.9581337" height="35.9036179">
			<defs />
			<path d="M 8.65778 8.83091 C 8.65778 9.311, 8.56005 9.75838, 8.36457 10.1726, 8.1691 10.5873, 7.90739 10.9459, 7.57942 11.2489, 7.25145 11.5524, 6.86624 11.792, 6.42377 11.9683, 5.9813 12.1449, 5.51307 12.2333, 5.01866 12.2333, 4.35374 12.2333, 3.7023 12.1278, 3.06436 11.9163, 2.42642 11.7049, 1.86455 11.3655, 1.37955 10.8985, 0.889643 10.4323, 0.53714 9.88924, 0.321223 9.2697, 0.105713 8.65057, -0.00224549 8.01795, -0.00224549 7.37183, -0.00224549 6.72653, 0.105713 6.09432, 0.321223 5.47478, 0.53714 4.85565, 0.889643 4.31013, 1.37955 3.83863, 1.86046 3.37244, 2.41947 3.03425, 3.05741 2.82488, 3.69535 2.6155, 4.34924 2.51081, 5.01866 2.51041, 5.46808 2.51081, 5.88356 2.58729, 6.26551 2.73982, 6.64746 2.89276, 6.96193 3.08005, 7.20892 3.3021 L 8.03088 2.57584 C 8.08977 2.53249, 8.15724 2.51081, 8.23331 2.51041 L 8.34086 2.51041 C 8.55228 2.51081, 8.65778 2.611, 8.65778 2.81138 L 8.65778 6.06978 C 8.65778 6.14421, 8.62875 6.21413, 8.57027 6.27956, 8.5122 6.34499, 8.43573 6.37771, 8.34086 6.3773 L 7.99735 6.3773 C 7.81333 6.37771, 7.70742 6.28406, 7.68043 6.09595, 7.64485 5.72996, 7.56061 5.37991, 7.42811 5.04622, 7.29562 4.71252, 7.12264 4.42136, 6.90917 4.17273, 6.69571 3.9241, 6.45117 3.72903, 6.17473 3.58713, 5.89829 3.44564, 5.59608 3.37449, 5.26812 3.37408, 4.8191 3.37449, 4.3934 3.46077, 3.99101 3.63293, 3.58903 3.8055, 3.25983 4.0615, 3.00343 4.40132, 2.69836 4.8029, 2.51312 5.25886, 2.44769 5.76921, 2.38267 6.27956, 2.34995 6.81404, 2.34995 7.37183, 2.34995 7.64704, 2.3569 7.91858, 2.3704 8.18684, 2.38389 8.4551, 2.41293 8.716, 2.45791 8.96872, 2.50289 9.22186, 2.56996 9.46395, 2.65992 9.69499, 2.74989 9.92645, 2.86889 10.1399, 3.01693 10.3358, 3.26883 10.6764, 3.59557 10.9328, 3.99755 11.105, 4.39995 11.2776, 4.82769 11.3635, 5.28161 11.363, 5.62307 11.3635, 5.94409 11.298, 6.24506 11.1672, 6.54604 11.0363, 6.80898 10.8556, 7.03349 10.6241, 7.2584 10.393, 7.43711 10.1236, 7.5696 9.81604, 7.7021 9.50852, 7.76835 9.18014, 7.76835 8.83091, 7.76835 8.63503, 7.86731 8.53689, 8.06483 8.53648 L 8.34086 8.53648 C 8.55228 8.53689, 8.65778 8.63503, 8.65778 8.83091 Z" stroke="none" fill="#000000" />
			<rect />
		</svg>
	</g>
	<g transform="matrix(1 0 -0 1 357.276 101.625)">
		<svg width="29.9581337" height="35.9036179">
			<defs />
			<path d="M 8.42244 5.38277 C 8.42244 5.75817, 8.3427 6.11722, 8.18321 6.4595, 8.02373 6.80218, 7.7935 7.09089, 7.49211 7.32603, 7.14615 7.59266, 6.76216 7.78036, 6.33973 7.88913, 5.91771 7.99832, 5.49078 8.05271, 5.05936 8.0523 L 3.49599 8.0523, 3.49599 11.2191, 4.78987 11.2191, 4.78987 12.0893 C 3.94542 12.059, 3.14799 12.0435, 2.39719 12.0435, 1.6337 12.0435, 0.834234 12.059, -0.00163051 12.0893 L -0.00163051 11.2191, 1.29224 11.2191, 1.29224 3.51802, -0.00163051 3.51802, -0.00163051 2.65435, 5.05936 2.65435 C 5.49078 2.65476, 5.91771 2.71037, 6.33973 2.82161, 6.76216 2.93284, 7.14615 3.12381, 7.49211 3.39371, 7.80699 3.63825, 8.04049 3.93309, 8.19344 4.27742, 8.34638 4.62215, 8.42244 4.9906, 8.42244 5.38277 Z M 6.07024 5.38277 C 6.07024 5.25232, 6.0682 5.11614, 6.0637 4.97424, 6.0592 4.83275, 6.05021 4.69535, 6.03671 4.56204, 6.02322 4.42913, 6.00195 4.31013, 5.97251 4.20544, 5.94347 4.10076, 5.90176 4.0202, 5.84778 3.96294, 5.69975 3.78465, 5.5055 3.66565, 5.26505 3.60676, 5.0246 3.54787, 4.77637 3.51843, 4.52038 3.51802 L 3.42852 3.51802, 3.42852 7.25406, 4.52038 7.25406 C 4.77637 7.25447, 5.0246 7.22502, 5.26505 7.16614, 5.5055 7.10725, 5.69975 6.98416, 5.84778 6.79605, 5.90176 6.73962, 5.94347 6.65906, 5.97251 6.55437, 6.00195 6.44968, 6.02322 6.33314, 6.03671 6.20432, 6.05021 6.07591, 6.0592 5.94056, 6.0637 5.79866, 6.0682 5.65716, 6.07024 5.51854, 6.07024 5.38277 Z" stroke="none" fill="#FF0C00" />
			<rect />
		</svg>
	</g>
	<g transform="matrix(1 0 -0 1 375.708 114.795)">
		<svg width="42.0139465" height="35.9036179">
			<defs />
			<path d="M 9.6607 12.0893 C 8.9197 12.059, 8.20734 12.0435, 7.52442 12.0435 L 7.51092 12.0435 C 6.75603 12.0435, 5.9631 12.059, 5.13174 12.0893 L 5.13174 11.2191, 6.22359 11.2191, 5.64413 9.64224, 2.79999 9.64224, 2.24056 11.1798, 2.24056 11.1733 C 2.24056 11.1344, 2.23606 11.1128, 2.22707 11.1079, 2.30395 11.1299, 2.37796 11.1496, 2.44953 11.1668, 2.57098 11.1847, 2.69448 11.1978, 2.82043 11.2064, 2.94638 11.2154, 3.11037 11.2195, 3.31238 11.2191 L 3.31238 12.0893 C 2.74192 12.059, 2.21398 12.0435, 1.72857 12.0435 L 1.52615 12.0435 C 1.06365 12.0435, 0.553702 12.059, -0.00326777 12.0893 L -0.00326777 11.2191, 0.555747 11.2191 C 0.695194 11.2195, 0.841184 11.2064, 0.994126 11.1798, 1.0526 11.1717, 1.10658 11.1606, 1.15566 11.1475, 1.20514 11.1344, 1.22967 11.1259, 1.22967 11.121 L 4.23535 2.7983 C 4.27134 2.7071, 4.33227 2.63104, 4.41773 2.5697, 4.5032 2.50877, 4.60216 2.4781, 4.71421 2.47769 L 4.96325 2.47769 C 5.06222 2.4781, 5.15464 2.50877, 5.23969 2.5697, 5.32516 2.63104, 5.38568 2.7071, 5.42167 2.7983 L 8.46783 11.2191, 9.6607 11.2191, 9.6607 12.0893 Z M 4.22881 5.70337 L 3.11691 8.77857, 5.3407 8.77857 Z" stroke="none" fill="#004AFF" />
			<path d="M 11.1134 7.22789 C 11.0774 7.32848, 11.0169 7.37878, 10.9314 7.37837 L 10.8775 7.37837, 10.837 7.35875 C 10.7519 7.33748, 10.7045 7.27859, 10.6955 7.18209 L 10.6955 7.13628, 11.376 2.91607 C 11.4079 2.71569, 11.5031 2.56439, 11.6626 2.46174, 11.8221 2.35951, 11.9828 2.30798, 12.1444 2.30757, 12.3198 2.30798, 12.4613 2.36237, 12.5688 2.47115, 12.6367 2.53699, 12.6702 2.62409, 12.6702 2.73287, 12.6702 2.81179, 12.6502 2.90339, 12.6093 3.00767 Z" stroke="none" fill="#004AFF" />
			<rect />
		</svg>
	</g>
	<path d="M -14.8672 -11.4404 L 14.8677 11.4404" fill="none" stroke="#004AFF" stroke-width="1.60000002" stroke-linecap="round" stroke-linejoin="round" stroke-dasharray="0.808, 2.392" transform="matrix(0.625 0 0 0.625 363.55 125.131)" />
	<ellipse cx="1074.1393308639526" cy="360.06953716278076" rx="4.1999998092651367" ry="4.1999998092651367" stroke="none" fill="#FF0C00" transform="matrix(0.625 0 0 0.625 -316.235 -107.379)" />
	<path d="M -14.1914 9.71484 L 14.1919 -9.7149" fill="none" stroke="#004AFF" stroke-width="1.60000002" stroke-linecap="round" stroke-linejoin="round" stroke-dasharray="0.808, 2.392" transform="matrix(0.625 0 0 0.625 363.972 137.132)" />
	<ellipse cx="1102.5226316452026" cy="383.45527935028076" rx="4.1999998092651367" ry="4.1999998092651367" stroke="none" fill="#004AFF" transform="matrix(0.625 0 0 0.625 -316.235 -107.379)" />
	<path d="M 54.1401 -23.9237 C 57.4753 -16.3882, 59.1981 -8.23954, 59.1981 -3.22356e-005" fill="none" stroke="#000000" stroke-width="1.60000002" stroke-linecap="round" stroke-linejoin="round" transform="matrix(0.625 0 -0 0.625 174.213 132.22)" />
	<g transform="matrix(1 0 -0 1 213.585 116.358)">
		<svg width="21.0837173" height="35.9036179">
			<defs />
			<path d="M 5.6975 3.93023 C 5.80545 4.34489, 5.85903 4.76814, 5.85903 5.19957, 5.85903 5.33533, 5.85453 5.46619, 5.84553 5.59214, 5.80096 6.16833, 5.70445 6.74616, 5.556 7.32603, 5.39447 7.91081, 5.19001 8.49027, 4.94301 9.0636, 4.69601 9.63733, 4.36764 10.1878, 3.9587 10.7153, 3.81966 10.8944, 3.66549 11.0715, 3.49701 11.2457, 3.32853 11.4203, 3.14778 11.5761, 2.95477 11.7135, 2.76175 11.8509, 2.56055 11.9634, 2.35159 12.0501, 2.14262 12.1376, 1.92343 12.1809, 1.69443 12.1809, 1.46092 12.1809, 1.25973 12.1363, 1.09125 12.0468, 0.922765 11.9576, 0.778001 11.8423, 0.656548 11.7004, 0.535503 11.5589, 0.435314 11.4007, 0.356798 11.226, 0.278282 11.0518, 0.214079 10.8727, 0.164598 10.6891, 0.0525499 10.2839, -0.00388324 9.86511, -0.00388324 9.43287, -0.00388324 9.29383, 0.00511336 9.15643, 0.0231065 9.02066, 0.0590928 8.45387, 0.155602 7.88055, 0.312633 7.29986, 0.461076 6.7159, 0.661046 6.13807, 0.912541 5.56638, 1.16445 4.9951, 1.49895 4.44304, 1.91689 3.9106, 2.05633 3.7323, 2.20928 3.55442, 2.3753 3.37776, 2.54133 3.2011, 2.71881 3.04407, 2.90733 2.90666, 3.09626 2.76926, 3.295 2.65721, 3.50397 2.5697, 3.71293 2.4826, 3.93417 2.43884, 4.16767 2.43843, 4.40158 2.43884, 4.60155 2.48382, 4.76758 2.57297, 4.9336 2.66253, 5.08082 2.77703, 5.20882 2.91648, 5.33722 3.05633, 5.43823 3.21541, 5.51225 3.39412, 5.58667 3.57323, 5.64842 3.75193, 5.6975 3.93023 Z M 4.78761 4.08072 C 4.76962 3.91101, 4.74713 3.75193, 4.72014 3.60349, 4.69315 3.45546, 4.65389 3.32664, 4.60237 3.21745, 4.55084 3.10868, 4.48459 3.02444, 4.40362 2.96555, 4.32265 2.90666, 4.2196 2.87722, 4.09365 2.87681, 3.83316 2.87722, 3.5927 2.99827, 3.3727 3.24036, 3.15269 3.48244, 2.93923 3.77156, 2.7323 4.10689, 2.43583 4.58698, 2.20682 5.08016, 2.04488 5.58601, 1.88295 6.09227, 1.74391 6.58054, 1.62695 7.05123 L 4.36968 7.05123 C 4.49114 6.55887, 4.60359 6.0571, 4.70665 5.54634, 4.77862 5.20202, 4.8146 4.86178, 4.8146 4.52564, 4.8146 4.37761, 4.80561 4.22957, 4.78761 4.08072 Z M 1.48546 7.58121 C 1.36441 8.07438, 1.2585 8.57165, 1.16853 9.073, 1.09697 9.43532, 1.06098 9.79764, 1.06098 10.1591, 1.06098 10.2949, 1.06548 10.4258, 1.07448 10.5517, 1.08348 10.7222, 1.10392 10.8817, 1.135 11.0298, 1.16649 11.1782, 1.2082 11.3058, 1.25973 11.4125, 1.31125 11.5197, 1.37995 11.6023, 1.46542 11.6612, 1.55089 11.72, 1.65435 11.7495, 1.7754 11.7491, 2.03139 11.7495, 2.27062 11.6297, 2.49308 11.3896, 2.71554 11.15, 2.92532 10.8617, 3.12325 10.5255, 3.41972 10.0373, 3.64873 9.54246, 3.81067 9.0407, 3.97261 8.53934, 4.11164 8.05271, 4.22819 7.58121 Z" stroke="none" fill="#000000" />
			<rect />
		</svg>
	</g>
	<path d="M 47.3121 -11.0464 C 48.1576 -7.42511, 48.5846 -3.71873, 48.5846 -5.00054e-005" fill="none" stroke="#000000" stroke-width="1.60000002" stroke-linecap="round" stroke-linejoin="round" transform="matrix(0.625 0 -0 0.625 287.304 132.281)" />
	<g transform="matrix(1 0 -0 1 320.907 117.186)">
		<svg width="21.0837173" height="35.9036179">
			<defs />
			<path d="M 5.6975 3.93023 C 5.80545 4.34489, 5.85903 4.76814, 5.85903 5.19957, 5.85903 5.33533, 5.85453 5.46619, 5.84553 5.59214, 5.80096 6.16833, 5.70445 6.74616, 5.556 7.32603, 5.39447 7.91081, 5.19001 8.49027, 4.94301 9.0636, 4.69601 9.63733, 4.36764 10.1878, 3.9587 10.7153, 3.81966 10.8944, 3.66549 11.0715, 3.49701 11.2457, 3.32853 11.4203, 3.14778 11.5761, 2.95477 11.7135, 2.76175 11.8509, 2.56055 11.9634, 2.35159 12.0501, 2.14262 12.1376, 1.92343 12.1809, 1.69443 12.1809, 1.46092 12.1809, 1.25973 12.1363, 1.09125 12.0468, 0.922765 11.9576, 0.778001 11.8423, 0.656548 11.7004, 0.535503 11.5589, 0.435314 11.4007, 0.356798 11.226, 0.278282 11.0518, 0.214079 10.8727, 0.164598 10.6891, 0.0525499 10.2839, -0.00388324 9.86511, -0.00388324 9.43287, -0.00388324 9.29383, 0.00511336 9.15643, 0.0231065 9.02066, 0.0590928 8.45387, 0.155602 7.88055, 0.312633 7.29986, 0.461076 6.7159, 0.661046 6.13807, 0.912541 5.56638, 1.16445 4.9951, 1.49895 4.44304, 1.91689 3.9106, 2.05633 3.7323, 2.20928 3.55442, 2.3753 3.37776, 2.54133 3.2011, 2.71881 3.04407, 2.90733 2.90666, 3.09626 2.76926, 3.295 2.65721, 3.50397 2.5697, 3.71293 2.4826, 3.93417 2.43884, 4.16767 2.43843, 4.40158 2.43884, 4.60155 2.48382, 4.76758 2.57297, 4.9336 2.66253, 5.08082 2.77703, 5.20882 2.91648, 5.33722 3.05633, 5.43823 3.21541, 5.51225 3.39412, 5.58667 3.57323, 5.64842 3.75193, 5.6975 3.93023 Z M 4.78761 4.08072 C 4.76962 3.91101, 4.74713 3.75193, 4.72014 3.60349, 4.69315 3.45546, 4.65389 3.32664, 4.60237 3.21745, 4.55084 3.10868, 4.48459 3.02444, 4.40362 2.96555, 4.32265 2.90666, 4.2196 2.87722, 4.09365 2.87681, 3.83316 2.87722, 3.5927 2.99827, 3.3727 3.24036, 3.15269 3.48244, 2.93923 3.77156, 2.7323 4.10689, 2.43583 4.58698, 2.20682 5.08016, 2.04488 5.58601, 1.88295 6.09227, 1.74391 6.58054, 1.62695 7.05123 L 4.36968 7.05123 C 4.49114 6.55887, 4.60359 6.0571, 4.70665 5.54634, 4.77862 5.20202, 4.8146 4.86178, 4.8146 4.52564, 4.8146 4.37761, 4.80561 4.22957, 4.78761 4.08072 Z M 1.48546 7.58121 C 1.36441 8.07438, 1.2585 8.57165, 1.16853 9.073, 1.09697 9.43532, 1.06098 9.79764, 1.06098 10.1591, 1.06098 10.2949, 1.06548 10.4258, 1.07448 10.5517, 1.08348 10.7222, 1.10392 10.8817, 1.135 11.0298, 1.16649 11.1782, 1.2082 11.3058, 1.25973 11.4125, 1.31125 11.5197, 1.37995 11.6023, 1.46542 11.6612, 1.55089 11.72, 1.65435 11.7495, 1.7754 11.7491, 2.03139 11.7495, 2.27062 11.6297, 2.49308 11.3896, 2.71554 11.15, 2.92532 10.8617, 3.12325 10.5255, 3.41972 10.0373, 3.64873 9.54246, 3.81067 9.0407, 3.97261 8.53934, 4.11164 8.05271, 4.22819 7.58121 Z" stroke="none" fill="#000000" />
			<rect />
		</svg>
	</g>
	<g transform="matrix(1 0 -0 1 214.054 60.17)">
		<svg width="18.0697632" height="32.8818588">
			<defs />
			<path d="M 4.8734 11.9764 C 4.06347 11.9507, 3.27518 11.9379, 2.50894 11.9379, 1.74309 11.9379, 0.954802 11.9507, 0.144472 11.9764 L 0.144472 11.4249, 0.600533 11.4249 C 0.745607 11.4253, 0.882265 11.4233, 1.00971 11.4189, 1.13755 11.4149, 1.25858 11.4041, 1.37319 11.3869, 1.48781 11.37, 1.5868 11.3528, 1.67015 11.3352, 1.74069 11.3227, 1.7992 11.2835, 1.84528 11.2169, 1.89177 11.1508, 1.91461 11.0771, 1.91461 10.9953 L 1.91461 3.76888 C 1.6946 3.87628, 1.42369 3.95764, 1.10228 4.01294, 0.780874 4.06865, 0.428608 4.0963, 0.0454848 4.0959 L 0.0454848 3.55087 C 0.574083 3.55127, 1.0618 3.48835, 1.50865 3.36211, 1.95549 3.23627, 2.34182 2.99983, 2.66764 2.65317 L 2.87242 2.65317 C 3.0175 2.65357, 3.09003 2.72411, 3.09003 2.86477 L 3.09003 10.9953 C 3.09003 11.0811, 3.11208 11.156, 3.15616 11.2202, 3.20024 11.2843, 3.26436 11.3227, 3.34772 11.3352, 3.41825 11.3528, 3.50883 11.37, 3.61863 11.3869, 3.72884 11.4041, 3.85308 11.4149, 3.99174 11.4189, 4.1304 11.4233, 4.26585 11.4253, 4.3977 11.4249 L 4.8734 11.4249, 4.8734 11.9764 Z" stroke="none" fill="#004AFF" />
			<rect />
		</svg>
	</g>
	<g transform="matrix(1 0 -0 1 213.559 96.2201)">
		<svg width="21.0837173" height="32.8818588">
			<defs />
			<path d="M 5.43396 11.9764 L 0.0582091 11.9764, 0.0582091 11.6237 C 0.0582091 11.5985, 0.0714341 11.56, 0.0978841 11.5083 L 2.25756 9.16146 C 2.51284 8.87973, 2.77133 8.59119, 3.03343 8.29623, 3.29552 8.00127, 3.53037 7.6999, 3.73716 7.39212, 3.94395 7.08434, 4.10906 6.76694, 4.23249 6.43993, 4.35593 6.11291, 4.41724 5.76986, 4.41724 5.41038, 4.41724 5.10741, 4.37757 4.82407, 4.29822 4.56118, 4.21887 4.29828, 4.10465 4.06744, 3.95477 3.86867, 3.80528 3.66989, 3.61813 3.50959, 3.39371 3.38776, 3.16928 3.26593, 2.90919 3.20502, 2.61424 3.20461, 2.17421 3.20502, 1.78547 3.33646, 1.44843 3.59936, 1.1118 3.86226, 0.888176 4.152, 0.777968 4.4678, 0.756328 4.47662, 0.791594 4.48103, 0.883768 4.48063 L 0.99598 4.48063 C 1.12823 4.51108, 1.24245 4.55717, 1.33943 4.61889, 1.43641 4.681, 1.51777 4.76636, 1.58389 4.87537, 1.65002 4.98438, 1.68288 5.11582, 1.68288 5.26931, 1.68288 5.5262, 1.59952 5.72297, 1.432 5.85963, 1.26449 5.99669, 1.07733 6.06482, 0.870543 6.06442, 0.672569 6.06482, 0.48742 5.99669, 0.315896 5.85963, 0.144372 5.72297, 0.0582091 5.5262, 0.0582091 5.26931, 0.0582091 4.91064, 0.128742 4.5708, 0.269809 4.25019, 0.410875 3.92958, 0.602036 3.65186, 0.844093 3.41662, 1.08615 3.18177, 1.37229 2.99582, 1.70251 2.85876, 2.03274 2.7221, 2.383 2.65357, 2.7529 2.65317, 3.21096 2.65357, 3.63056 2.7209, 4.01127 2.85556, 4.39199 2.99021, 4.71661 3.18378, 4.98511 3.43585, 5.25362 3.68833, 5.46402 3.98008, 5.6159 4.3111, 5.76779 4.64253, 5.84353 5.00882, 5.84353 5.41038, 5.84353 5.85522, 5.74254 6.26479, 5.53976 6.6387, 5.33738 7.01301, 5.0865 7.35606, 4.78714 7.66784, 4.48777 7.98003, 4.16957 8.27379, 3.83254 8.54951, 3.4959 8.82523, 3.19093 9.09334, 2.91801 9.35383 L 1.39874 10.7837, 3.3869 10.7837 C 3.66422 10.7841, 3.92311 10.7821, 4.16276 10.7777, 4.40281 10.7737, 4.6064 10.7649, 4.77391 10.7521, 4.94143 10.7392, 5.02719 10.7308, 5.0312 10.726, 5.06647 10.6964, 5.09973 10.6367, 5.13059 10.5469, 5.16145 10.4571, 5.1899 10.3513, 5.21635 10.2295, 5.2428 10.1077, 5.26925 9.98382, 5.2957 9.85758, 5.32215 9.73174, 5.3462 9.59348, 5.36824 9.4436 L 5.85676 9.4436 Z" stroke="none" fill="#000000" />
			<rect />
		</svg>
	</g>
	<g transform="matrix(1 0 -0 1 213.447 154.058)">
		<svg width="23.9302292" height="35.9036179">
			<defs />
			<path d="M 6.07667 9.55902 C 6.07667 9.92691, 5.99532 10.28, 5.83261 10.6174, 5.6699 10.9553, 5.45189 11.2438, 5.17857 11.4826, 4.87039 11.7524, 4.53015 11.9519, 4.15825 12.0822, 3.78635 12.2128, 3.39761 12.2778, 2.99245 12.2778, 2.62696 12.2778, 2.27068 12.2265, 1.92283 12.1239, 1.57497 12.0213, 1.26158 11.8742, 0.981849 11.6818, 0.702121 11.4895, 0.478899 11.2534, 0.311383 10.9733, 0.143867 10.6936, 0.0601086 10.3717, 0.0601086 10.0079, 0.0601086 9.73455, 0.151481 9.53056, 0.334226 9.39591, 0.516971 9.26125, 0.709735 9.19393, 0.912118 9.19353, 1.12372 9.19393, 1.32049 9.26125, 1.50323 9.39591, 1.68598 9.53056, 1.77735 9.73455, 1.77735 10.0079, 1.77735 10.1706, 1.74569 10.3064, 1.68157 10.4154, 1.61785 10.5244, 1.5365 10.6154, 1.43711 10.6879, 1.33812 10.7609, 1.22471 10.8054, 1.09687 10.8222, 1.03114 10.8398, 0.969426 10.8483, 0.912118 10.8478, 0.85521 10.8483, 0.846393 10.8527, 0.885668 10.8607, 1.02233 11.1003, 1.29083 11.3123, 1.69159 11.4959, 2.09235 11.6798, 2.52597 11.7716, 2.99245 11.7712, 3.21286 11.7716, 3.41845 11.7171, 3.61001 11.6081, 3.80157 11.4991, 3.96148 11.3528, 4.08892 11.1685, 4.24762 10.9296, 4.35542 10.6731, 4.41273 10.3994, 4.47004 10.1261, 4.49849 9.84596, 4.49849 9.55902, 4.49849 9.26446, 4.47004 8.98152, 4.41273 8.70981, 4.35542 8.4385, 4.24762 8.18722, 4.08892 7.95599, 3.95667 7.76843, 3.79596 7.61655, 3.60681 7.50113, 3.41765 7.38571, 3.21286 7.328, 2.99245 7.3276 L 2.03504 7.3276 C 1.9076 7.328, 1.83907 7.26829, 1.83025 7.14806 L 1.83025 7.07753 C 1.83025 7.02663, 1.84588 6.98616, 1.87634 6.9557, 1.91601 6.91763, 1.96651 6.89839, 2.02823 6.89799, 2.15607 6.88116, 2.28832 6.87274, 2.42457 6.87234, 2.55682 6.87274, 2.68667 6.86433, 2.81411 6.84669, 3.05216 6.82986, 3.25895 6.75652, 3.43528 6.62588, 3.61162 6.49563, 3.75909 6.32892, 3.87772 6.12573, 3.99634 5.92295, 4.08651 5.68891, 4.14823 5.42361, 4.20995 5.15871, 4.2408 4.88699, 4.2408 4.60887, 4.2408 4.40408, 4.21876 4.20971, 4.17468 4.02577, 4.1306 3.84222, 4.04924 3.68152, 3.93022 3.54446, 3.68375 3.26272, 3.37116 3.12366, 2.99245 3.12767, 2.58768 3.12807, 2.21658 3.20421, 1.87995 3.3557, 1.54331 3.50759, 1.31728 3.6711, 1.20267 3.84583, 1.17221 3.85064, 1.18744 3.85264, 1.24915 3.85224, 1.40785 3.85264, 1.55734 3.89953, 1.698 3.9933, 1.9096 4.11754, 2.015 4.32714, 2.015 4.62169, 2.015 4.87016, 1.93485 5.05731, 1.77415 5.18315, 1.61344 5.30939, 1.4339 5.37231, 1.23593 5.37191, 1.04196 5.37231, 0.86042 5.31059, 0.6909 5.18636, 0.52138 5.06252, 0.436419 4.87417, 0.436419 4.62169, 0.436419 4.3099, 0.511361 4.03458, 0.661244 3.79493, 0.811127 3.55568, 1.00349 3.35049, 1.23914 3.17937, 1.47478 3.00865, 1.74649 2.878, 2.05468 2.78823, 2.36326 2.69846, 2.67585 2.65357, 2.99245 2.65317, 3.33149 2.65357, 3.65971 2.69846, 3.97671 2.78823, 4.2937 2.878, 4.59307 3.01706, 4.8748 3.20461, 5.10403 3.36732, 5.2964 3.5673, 5.45269 3.80455, 5.60899 4.0418, 5.68714 4.3099, 5.68714 4.60887, 5.68714 4.90863, 5.63343 5.19077, 5.52563 5.45567, 5.41783 5.72097, 5.27476 5.96022, 5.09642 6.17382, 4.91808 6.38783, 4.70568 6.57578, 4.45882 6.73809, 4.21235 6.9008, 4.0272 7.00299, 3.90377 7.04547, 4.00957 7.05869, 4.19031 7.12201, 4.44559 7.23503, 4.70127 7.34844, 4.94533 7.49913, 5.17857 7.68668, 5.45189 7.92232, 5.6699 8.20325, 5.83261 8.53027, 5.99532 8.85729, 6.07667 9.20034, 6.07667 9.55902 Z" stroke="none" fill="#004AFF" />
			<rect />
		</svg>
	</g>
	<path d="M -128.527 0 L 128.527 0" fill="none" stroke="#000000" stroke-width="1.20000005" stroke-linecap="round" stroke-linejoin="round" marker-start="url(#CustomMarker-11)" marker-end="url(#CustomMarker-12)" transform="matrix(0.625 0 -0 0.625 206.439 240.533)" />
	<path d="M -128.527 -24.7957 L -128.527 12.7312" fill="none" stroke="#000000" stroke-width="0.800000012" stroke-linecap="round" stroke-linejoin="round" transform="matrix(0.625 0 -0 0.625 206.439 240.533)" />
	<path d="M 128.527 -24.7957 L 128.527 24.7957" fill="none" stroke="#000000" stroke-width="0.800000012" stroke-linecap="round" stroke-linejoin="round" transform="matrix(0.625 0 -0 0.625 206.439 240.533)" />
	<g transform="matrix(1 0 -0 1 204.07 240.485)">
		<svg width="18.0697632" height="27.0062141">
			<defs />
			<path d="M 4.73691 10.0741 C 4.73691 10.3493, 4.69315 10.6253, 4.60564 10.9022, 4.51813 11.1794, 4.35496 11.4244, 4.11696 11.6378, 3.86097 11.8607, 3.57921 12.0034, 3.27128 12.0664, 2.96376 12.1298, 2.66156 12.1613, 2.36467 12.1613, 2.08619 12.1613, 1.83592 12.1265, 1.61346 12.0566, 1.391 11.9871, 1.20779 11.902, 1.06385 11.8014 L 0.585392 12.1024 C 0.540818 12.1286, 0.493791 12.1449, 0.44431 12.1515, 0.394828 12.158, 0.349846 12.1613, 0.309361 12.1613, 0.219395 12.1613, 0.145378 12.1298, 0.0869001 12.0664, 0.0288312 12.0034, -0.00061214 11.9347, -0.00061214 11.8603 L -0.00061214 10.0086 C -0.00061214 9.80418, 0.102849 9.70154, 0.309361 9.70113 L 0.571898 9.70113 C 0.751829 9.70154, 0.857743 9.78455, 0.888823 9.94976, 0.987785 10.4213, 1.15545 10.7869, 1.391 11.0461, 1.62695 11.3058, 1.95165 11.4354, 2.36467 11.435, 2.5491 11.4354, 2.71758 11.4182, 2.87012 11.3831, 3.02306 11.3483, 3.1576 11.2894, 3.27455 11.206, 3.35552 11.1365, 3.41645 11.0441, 3.45653 10.9283, 3.49701 10.813, 3.51705 10.685, 3.51705 10.5452, 3.51705 10.3362, 3.43526 10.1497, 3.27128 9.98616, 3.1073 9.82258, 2.8971 9.71667, 2.64111 9.66841 L 1.80525 9.51138 C 1.57624 9.46395, 1.35296 9.38747, 1.135 9.28279, 0.917039 9.1781, 0.722795 9.04847, 0.55186 8.89348, 0.381334 8.7389, 0.246794 8.55774, 0.147831 8.35041, 0.048869 8.14349, -0.00061214 7.91531, -0.00061214 7.66627, -0.00061214 7.41354, 0.048869 7.15755, 0.147831 6.89787, 0.246794 6.63861, 0.410368 6.42146, 0.639372 6.24644, 0.891276 6.04606, 1.17099 5.91766, 1.47851 5.86081, 1.78644 5.80438, 2.08169 5.77576, 2.36467 5.77535, 2.80959 5.77576, 3.17355 5.85223, 3.45653 6.00435 L 3.84747 5.8146 C 3.90145 5.78884, 3.98201 5.77576, 4.08997 5.77535, 4.29239 5.77576, 4.3934 5.8784, 4.3934 6.08287 L 4.3934 7.52886 C 4.3934 7.73415, 4.29239 7.83679, 4.08997 7.83638 L 3.81353 7.83638 C 3.59802 7.83679, 3.49456 7.73415, 3.50356 7.52886, 3.50356 7.18904, 3.40255 6.92323, 3.20053 6.73103, 2.99852 6.53924, 2.71513 6.44314, 2.35118 6.44273, 2.17165 6.44314, 2.00767 6.45541, 1.85923 6.47913, 1.71119 6.50325, 1.5787 6.55887, 1.46174 6.64556, 1.30021 6.75925, 1.21924 6.93386, 1.21924 7.169, 1.21924 7.33953, 1.29571 7.4892, 1.44825 7.6176, 1.60119 7.74642, 1.79421 7.83025, 2.02771 7.8691 L 2.88361 8.02613 C 3.13551 8.07438, 3.37351 8.16067, 3.59802 8.28498, 3.82293 8.4093, 4.01922 8.56102, 4.18771 8.73972, 4.35619 8.91883, 4.48991 9.12167, 4.58887 9.34822, 4.68783 9.57518, 4.73691 9.81727, 4.73691 10.0741 Z" stroke="none" fill="#000000" />
			<rect />
		</svg>
	</g>
	<path d="M -54.667 0 L 54.667 0" fill="none" stroke="#000000" stroke-width="1.20000005" stroke-linecap="round" stroke-linejoin="round" marker-start="url(#CustomMarker-13)" marker-end="url(#CustomMarker-14)" transform="matrix(0.625 0 -0 0.625 320.935 218.033)" />
	<path d="M -54.667 -24.7956 L -54.667 12.7312" fill="none" stroke="#000000" stroke-width="0.800000012" stroke-linecap="round" stroke-linejoin="round" transform="matrix(0.625 0 -0 0.625 320.935 218.033)" />
	<path d="M 54.667 -24.7956 L 54.667 24.7956" fill="none" stroke="#000000" stroke-width="0.800000012" stroke-linecap="round" stroke-linejoin="round" transform="matrix(0.625 0 -0 0.625 320.935 218.033)" />
	<g transform="matrix(1 0 -0 1 321.156 217.985)">
		<svg width="21.0837173" height="35.9036179">
			<defs />
			<path d="M 5.36237 3.75357 C 5.36237 4.06804, 5.26136 4.30481, 5.05935 4.46389, 4.85734 4.62338, 4.63242 4.70271, 4.38543 4.7023, 4.14742 4.70271, 3.92701 4.62338, 3.72499 4.46389, 3.52298 4.30481, 3.42156 4.06804, 3.42156 3.75357, 3.42156 3.57936, 3.45878 3.42928, 3.53279 3.30251, 3.60722 3.17615, 3.63953 3.11481, 3.63053 3.1189, 3.76098 3.16307, 3.79697 3.18474, 3.73849 3.18433, 3.41052 3.18474, 3.14349 3.30456, 2.93657 3.54419, 2.81552 3.68405, 2.7321 3.84026, 2.68712 4.01243, 2.64213 4.185, 2.61964 4.37556, 2.61964 4.58453 L 2.61964 5.89966, 3.96749 5.89966, 3.96749 6.76334, 2.68712 6.76334, 2.68712 11.2191, 3.87303 11.2191, 3.87303 12.0893 C 3.15903 12.059, 2.47365 12.0435, 1.81772 12.0435, 1.24725 12.0435, 0.640803 12.059, -0.00204383 12.0893 L -0.00204383 11.2191, 0.955274 11.2191, 0.955274 6.76334, 0.152943 6.76334, 0.152943 5.89966, 0.955274 5.89966, 0.955274 4.58453 C 0.955274 4.27087, 1.02847 3.97767, 1.17446 3.70491, 1.32045 3.43256, 1.52369 3.19987, 1.78419 3.00767, 2.09866 2.79421, 2.43112 2.65067, 2.78158 2.57624, 3.13204 2.50223, 3.4825 2.46501, 3.83295 2.4646, 4.02188 2.46501, 4.20836 2.49446, 4.39238 2.55334, 4.5764 2.61223, 4.74038 2.69729, 4.88433 2.80852, 5.02827 2.91975, 5.14359 3.05633, 5.2311 3.21745, 5.31862 3.37898, 5.36237 3.55769, 5.36237 3.75357 Z" stroke="none" fill="#000000" />
			<rect />
		</svg>
	</g>
	<path d="M -78.9495 0 L 78.9492 0" fill="none" stroke="#000000" stroke-width="0.800000012" stroke-linecap="round" stroke-linejoin="round" stroke-dasharray="2.804, 1.996" transform="matrix(0.625 0 0 0.625 88.0035 132.281)" />
	<path d="M -52.445 27.4362 C -57.0982 18.5559, -59.4164 8.63971, -59.1821 -1.38136" fill="none" stroke="#000000" stroke-width="1.60000002" stroke-linecap="round" stroke-linejoin="round" transform="matrix(0.625 0 -0 0.625 125.934 133.144)" />
	<g transform="matrix(1 0 -0 1 76.9362 135.84)">
		<svg width="35.9860382" height="41.9471397">
			<defs />
			<path d="M 5.6975 3.93023 C 5.80545 4.34489, 5.85903 4.76814, 5.85903 5.19957, 5.85903 5.33533, 5.85453 5.46619, 5.84553 5.59214, 5.80096 6.16833, 5.70445 6.74616, 5.556 7.32603, 5.39447 7.91081, 5.19001 8.49027, 4.94301 9.0636, 4.69601 9.63733, 4.36764 10.1878, 3.9587 10.7153, 3.81966 10.8944, 3.66549 11.0715, 3.49701 11.2457, 3.32853 11.4203, 3.14778 11.5761, 2.95477 11.7135, 2.76175 11.8509, 2.56055 11.9634, 2.35159 12.0501, 2.14262 12.1376, 1.92343 12.1809, 1.69443 12.1809, 1.46092 12.1809, 1.25973 12.1363, 1.09125 12.0468, 0.922765 11.9576, 0.778001 11.8423, 0.656548 11.7004, 0.535503 11.5589, 0.435314 11.4007, 0.356798 11.226, 0.278282 11.0518, 0.214079 10.8727, 0.164598 10.6891, 0.0525499 10.2839, -0.00388324 9.86511, -0.00388324 9.43287, -0.00388324 9.29383, 0.00511336 9.15643, 0.0231065 9.02066, 0.0590928 8.45387, 0.155602 7.88055, 0.312633 7.29986, 0.461076 6.7159, 0.661046 6.13807, 0.912541 5.56638, 1.16445 4.9951, 1.49895 4.44304, 1.91689 3.9106, 2.05633 3.7323, 2.20928 3.55442, 2.3753 3.37776, 2.54133 3.2011, 2.71881 3.04407, 2.90733 2.90666, 3.09626 2.76926, 3.295 2.65721, 3.50397 2.5697, 3.71293 2.4826, 3.93417 2.43884, 4.16767 2.43843, 4.40158 2.43884, 4.60155 2.48382, 4.76758 2.57297, 4.9336 2.66253, 5.08082 2.77703, 5.20882 2.91648, 5.33722 3.05633, 5.43823 3.21541, 5.51225 3.39412, 5.58667 3.57323, 5.64842 3.75193, 5.6975 3.93023 Z M 4.78761 4.08072 C 4.76962 3.91101, 4.74713 3.75193, 4.72014 3.60349, 4.69315 3.45546, 4.65389 3.32664, 4.60237 3.21745, 4.55084 3.10868, 4.48459 3.02444, 4.40362 2.96555, 4.32265 2.90666, 4.2196 2.87722, 4.09365 2.87681, 3.83316 2.87722, 3.5927 2.99827, 3.3727 3.24036, 3.15269 3.48244, 2.93923 3.77156, 2.7323 4.10689, 2.43583 4.58698, 2.20682 5.08016, 2.04488 5.58601, 1.88295 6.09227, 1.74391 6.58054, 1.62695 7.05123 L 4.36968 7.05123 C 4.49114 6.55887, 4.60359 6.0571, 4.70665 5.54634, 4.77862 5.20202, 4.8146 4.86178, 4.8146 4.52564, 4.8146 4.37761, 4.80561 4.22957, 4.78761 4.08072 Z M 1.48546 7.58121 C 1.36441 8.07438, 1.2585 8.57165, 1.16853 9.073, 1.09697 9.43532, 1.06098 9.79764, 1.06098 10.1591, 1.06098 10.2949, 1.06548 10.4258, 1.07448 10.5517, 1.08348 10.7222, 1.10392 10.8817, 1.135 11.0298, 1.16649 11.1782, 1.2082 11.3058, 1.25973 11.4125, 1.31125 11.5197, 1.37995 11.6023, 1.46542 11.6612, 1.55089 11.72, 1.65435 11.7495, 1.7754 11.7491, 2.03139 11.7495, 2.27062 11.6297, 2.49308 11.3896, 2.71554 11.15, 2.92532 10.8617, 3.12325 10.5255, 3.41972 10.0373, 3.64873 9.54246, 3.81067 9.0407, 3.97261 8.53934, 4.11164 8.05271, 4.22819 7.58121 Z" stroke="none" fill="#000000" />
			<path d="M 2.03724 -0.266524 C 2.03724 0.0854552, 2.01273 0.435373, 1.96373 0.783459, 1.91472 1.13155, 1.79335 1.45833, 1.59961 1.76337, 1.46129 1.98596, 1.27626 2.1568, 1.04496 2.27634, 0.813668 2.3961, 0.561992 2.45587, 0.290165 2.45587, 0.0286423 2.45587, -0.218453 2.3961, -0.451121 2.27634, -0.683789 2.1568, -0.869511 1.98596, -1.00783 1.76337, -1.20134 1.45833, -1.32271 1.13155, -1.37172 0.783459, -1.42072 0.435373, -1.44546 0.0854552, -1.44546 -0.266524, -1.44546 -0.622854, -1.42072 -0.978955, -1.37172 -1.33437, -1.32271 -1.68978, -1.20134 -2.02253, -1.00783 -2.33306, -0.869511 -2.55748, -0.684476 -2.73221, -0.453182 -2.85679, -0.221659 -2.98137, 0.0261233 -3.04365, 0.290165 -3.04388, 0.559473 -3.04365, 0.810233 -2.98137, 1.0429 -2.85679, 1.27557 -2.73221, 1.46129 -2.55748, 1.59961 -2.33306, 1.79335 -2.02253, 1.91472 -1.68978, 1.96373 -1.33437, 2.01273 -0.978955, 2.03724 -0.622854, 2.03724 -0.266524 Z M 1.29 -0.394766 C 1.29 -0.548428, 1.28885 -0.710791, 1.28633 -0.881857, 1.28404 -1.05269, 1.27763 -1.2201, 1.26755 -1.38383, 1.25748 -1.54734, 1.23939 -1.70192, 1.21282 -1.84734, 1.18649 -1.99253, 1.15443 -2.11665, 1.11664 -2.21947, 1.04107 -2.38527, 0.930459 -2.52153, 0.784584 -2.62778, 0.638709 -2.73404, 0.473826 -2.78717, 0.290165 -2.7874, 0.111542 -2.78717, -0.049906 -2.73335, -0.194636 -2.62595, -0.339138 -2.51832, -0.449289 -2.38298, -0.52486 -2.21947, -0.562417 -2.11665, -0.594477 -1.99253, -0.621042 -1.84734, -0.647377 -1.70192, -0.665697 -1.54734, -0.675774 -1.38383, -0.68585 -1.2201, -0.692033 -1.05269, -0.694552 -0.881857, -0.697071 -0.710791, -0.698445 -0.548428, -0.698445 -0.394766, -0.698445 -0.223471, -0.697071 -0.0432451, -0.694552 0.145912, -0.692033 0.335299, -0.68585 0.518502, -0.675774 0.695522, -0.665697 0.872771, -0.647377 1.04063, -0.621042 1.19933, -0.594477 1.35826, -0.562417 1.49131, -0.52486 1.59848, -0.454327 1.77711, -0.345321 1.92367, -0.198301 2.0384, -0.05128 2.15336, 0.111542 2.21061, 0.290165 2.21038, 0.476345 2.21061, 0.64306 2.15336, 0.79008 2.0384, 0.93733 1.92367, 1.04611 1.77711, 1.11664 1.59848, 1.15443 1.49131, 1.18649 1.35826, 1.21282 1.19933, 1.23939 1.04063, 1.25748 0.872771, 1.26755 0.695522, 1.27763 0.518502, 1.28404 0.335299, 1.28633 0.145912, 1.28885 -0.0432451, 1.29 -0.223471, 1.29 -0.394766 Z" stroke="none" fill="#000000" transform="matrix(1.12 0 0 1 8.00716 11.6474)" />
			<rect />
		</svg>
	</g>
	<path d="M -140.306 -55.8094 L 140.306 -55.8094" fill="none" stroke="#000000" stroke-width="1.20000005" stroke-linecap="round" stroke-linejoin="round" marker-start="url(#CustomMarker-15)" marker-end="url(#CustomMarker-16)" transform="matrix(-2.9057e-007 -0.625 0.625 -2.9057e-007 79.5411 152.752)" />
	<path d="M -140.306 -73.9444 L -140.306 73.9444" fill="none" stroke="#000000" stroke-width="0.800000012" stroke-linecap="round" stroke-linejoin="round" transform="matrix(-2.9057e-007 -0.625 0.625 -2.9057e-007 79.5411 152.752)" />
	<path d="M 140.306 -73.9444 L 140.306 73.9444" fill="none" stroke="#000000" stroke-width="0.800000012" stroke-linecap="round" stroke-linejoin="round" transform="matrix(-2.9057e-007 -0.625 0.625 -2.9057e-007 79.5411 152.752)" />
	<g transform="matrix(1 0 -0 1 30.0573 96.2201)">
		<svg width="23.9302292" height="27.0062141">
			<defs />
			<path d="M 6.53602 11.7229 C 6.53602 11.828, 6.50126 11.9143, 6.43174 11.9814, 6.36222 12.0492, 6.27348 12.0828, 6.16552 12.0828 L 5.32312 12.0828 C 5.19308 12.0828, 5.05486 12.0689, 4.90846 12.0402, 4.76247 12.012, 4.62302 11.9613, 4.49052 11.8869, 4.35803 11.8129, 4.24598 11.716, 4.15356 11.5957, 4.06155 11.4759, 4.01534 11.3221, 4.01534 11.134 L 4.01534 11.5266 C 4.02434 11.5139, 3.87508 11.6166, 3.56756 11.8345, 3.26004 12.0525, 2.89936 12.1613, 2.48551 12.1613, 2.20253 12.1613, 1.9175 12.1318, 1.63002 12.073, 1.34254 12.0141, 1.07755 11.9188, 0.834641 11.7855, 0.592142 11.6526, 0.392173 11.4812, 0.234733 11.2718, 0.0777016 11.0625, -0.001223 10.8073, -0.001223 10.5059, -0.001223 10.1007, 0.127183 9.75306, 0.383176 9.46272, 0.63917 9.17278, 0.9426 8.95359, 1.29306 8.80474, 1.71549 8.62195, 2.14569 8.49763, 2.58366 8.4322, 3.02163 8.36677, 3.42688 8.32751, 3.79983 8.31402 L 3.79983 7.86255 C 3.79983 7.66667, 3.77734 7.48143, 3.73236 7.30681, 3.68738 7.1326, 3.61131 6.97516, 3.50335 6.83531, 3.4093 6.72244, 3.30011 6.63738, 3.17661 6.58054, 3.05312 6.52411, 2.92389 6.49548, 2.78894 6.49507, 2.63641 6.49548, 2.48838 6.50203, 2.34443 6.51511, 2.20049 6.5282, 2.14446 6.53024, 2.17554 6.52125, 2.15755 6.50407, 2.18127 6.55887, 2.24629 6.68523, 2.31172 6.812, 2.34402 6.96003, 2.34402 7.12974, 2.34402 7.44421, 2.24097 7.68099, 2.03405 7.84006, 1.82754 7.99955, 1.60058 8.07888, 1.35358 8.07847, 1.11558 8.07888, 0.893119 7.99955, 0.686198 7.84006, 0.479685 7.68099, 0.376224 7.44421, 0.376224 7.12974, 0.376224 6.84226, 0.457194 6.60917, 0.619132 6.43005, 0.781071 6.25135, 0.984312 6.11395, 1.22886 6.01785, 1.47381 5.92215, 1.73348 5.85754, 2.00747 5.82483, 2.28146 5.79211, 2.54195 5.77576, 2.78894 5.77535, 3.1394 5.77576, 3.48659 5.81297, 3.83009 5.88699, 4.17401 5.96141, 4.4942 6.1074, 4.79068 6.32496, 5.04218 6.51307, 5.24215 6.74003, 5.39018 7.00583, 5.53863 7.27205, 5.61264 7.55749, 5.61264 7.86255 L 5.61264 11.0294 C 5.61264 11.0559, 5.65313 11.0944, 5.7341 11.1443, 5.81507 11.1946, 5.9586 11.2195, 6.16552 11.2191, 6.26899 11.2195, 6.3565 11.2522, 6.42847 11.3176, 6.50044 11.3831, 6.53602 11.4702, 6.53602 11.579 L 6.53602 11.7229 Z M 3.79983 8.97486 C 3.62931 8.99285, 3.42157 9.03211, 3.17661 9.09304, 2.93166 9.15438, 2.70143 9.24148, 2.48551 9.35435, 2.288 9.48112, 2.13178 9.6451, 2.01728 9.84548, 1.90278 10.0463, 1.84553 10.2663, 1.84553 10.5059, 1.84553 10.768, 1.92077 10.9885, 2.07126 11.1672, 2.22175 11.3463, 2.39596 11.4354, 2.59347 11.435, 2.75991 11.4354, 2.91612 11.4052, 3.06211 11.3438, 3.2081 11.2829, 3.3361 11.1966, 3.4461 11.0854, 3.55652 10.9741, 3.6428 10.8457, 3.70578 10.6993, 3.76875 10.5533, 3.79983 10.3951, 3.79983 10.2246 Z" stroke="none" fill="#000000" />
			<rect />
		</svg>
	</g>
	<path d="M -52.3054 24.2509 L 52.3054 -24.2509" fill="none" stroke="#000000" stroke-width="1.60000002" stroke-linecap="round" stroke-linejoin="round" marker-start="url(#CustomMarker-17)" marker-end="url(#CustomMarker-18)" transform="matrix(0.625 0 0 0.625 77.3512 225.036)" />
	<g transform="matrix(1 0 -0 1 75.9357 205.517)">
		<svg width="26.9441814" height="35.9036179">
			<defs />
			<path d="M 7.21015 8.98794 C 7.21015 9.4071, 7.1439 9.81849, 7.01141 10.2217, 6.87891 10.6253, 6.65891 10.9807, 6.35098 11.2882, 6.04346 11.5957, 5.6885 11.8182, 5.28611 11.9556, 4.88413 12.093, 4.47192 12.1613, 4.04949 12.1613, 3.69044 12.1613, 3.36575 12.0938, 3.07581 11.9589, 2.78629 11.8239, 2.5581 11.6689, 2.39166 11.4939 L 1.76517 12.0828, 0.949757 12.0828, 0.949757 3.77974 C 0.949757 3.72331, 0.943214 3.67792, 0.929719 3.64275, 0.916224 3.60799, 0.898231 3.58836, 0.87533 3.58345, 0.808265 3.55319, 0.699079 3.53479, 0.548591 3.52825, 0.398103 3.5217, 0.215308 3.51843, -0.000609539 3.51802 L -0.000609539 2.66089, 2.69509 2.54312, 2.69509 6.2399 C 2.79406 6.16179, 2.99034 6.07142, 3.28478 5.96877, 3.57921 5.86654, 3.89 5.81501, 4.21797 5.8146, 4.61791 5.81501, 5.01253 5.88821, 5.40102 6.0342, 5.78951 6.1806, 6.1232 6.40184, 6.40168 6.69791, 6.69857 7.01688, 6.90754 7.37469, 7.02858 7.77136, 7.14963 8.16844, 7.21015 8.5741, 7.21015 8.98794 Z M 5.21536 8.98794 C 5.21536 8.62644, 5.20432 8.2764, 5.18183 7.93821, 5.15975 7.60043, 5.09677 7.32439, 4.99331 7.11011, 4.89885 6.93182, 4.77412 6.79114, 4.61913 6.6885, 4.46415 6.58627, 4.29444 6.53474, 4.11042 6.53433, 3.83643 6.53474, 3.58003 6.60262, 3.34203 6.73757, 3.10403 6.87293, 2.91306 7.03855, 2.76911 7.23443 L 2.76911 10.7153 C 2.90406 10.9296, 3.07295 11.103, 3.27496 11.2359, 3.47698 11.3692, 3.70394 11.4354, 3.95543 11.435, 4.16235 11.4354, 4.35414 11.3843, 4.53162 11.2817, 4.7091 11.1794, 4.84977 11.0343, 4.95283 10.8461, 5.07428 10.6327, 5.1483 10.3603, 5.17529 10.0287, 5.20228 9.69745, 5.21536 9.35026, 5.21536 8.98794 Z" stroke="none" fill="#000000" />
			<rect />
		</svg>
	</g>
	<path d="M 0 -182.739 L 0 182.739" fill="none" stroke="#000000" stroke-width="0.800000012" stroke-linecap="round" stroke-linejoin="round" stroke-dasharray="2.804, 1.996" transform="matrix(0.625 0 0 0.625 372.842 126.321)" />
	<path d="M -68.6449 0 L 68.6449 0" fill="none" stroke="#004AFF" stroke-width="1.20000005" stroke-linecap="round" stroke-linejoin="round" marker-start="url(#CustomMarker-19)" marker-end="url(#CustomMarker-20)" transform="matrix(0.625 0 -0 0.625 329.717 240.533)" />
	<path d="M -68.6449 -24.7956 L -68.6449 12.7312" fill="none" stroke="#000000" stroke-width="0.800000012" stroke-linecap="round" stroke-linejoin="round" transform="matrix(0.625 0 -0 0.625 329.717 240.533)" />
	<path d="M 68.6449 -24.7956 L 68.6449 24.7956" fill="none" stroke="#000000" stroke-width="0.800000012" stroke-linecap="round" stroke-linejoin="round" transform="matrix(0.625 0 -0 0.625 329.717 240.533)" />
	<g transform="matrix(1 0 -0 1 324.824 240.485)">
		<svg width="26.9441814" height="35.9036179">
			<defs />
			<path d="M 4.73691 10.0741 C 4.73691 10.3493, 4.69315 10.6253, 4.60564 10.9022, 4.51813 11.1794, 4.35496 11.4244, 4.11696 11.6378, 3.86097 11.8607, 3.57921 12.0034, 3.27128 12.0664, 2.96376 12.1298, 2.66156 12.1613, 2.36467 12.1613, 2.08619 12.1613, 1.83592 12.1265, 1.61346 12.0566, 1.391 11.9871, 1.20779 11.902, 1.06385 11.8014 L 0.585392 12.1024 C 0.540818 12.1286, 0.493791 12.1449, 0.44431 12.1515, 0.394828 12.158, 0.349846 12.1613, 0.309361 12.1613, 0.219395 12.1613, 0.145378 12.1298, 0.0869001 12.0664, 0.0288312 12.0034, -0.00061214 11.9347, -0.00061214 11.8603 L -0.00061214 10.0086 C -0.00061214 9.80418, 0.102849 9.70154, 0.309361 9.70113 L 0.571898 9.70113 C 0.751829 9.70154, 0.857743 9.78455, 0.888823 9.94976, 0.987785 10.4213, 1.15545 10.7869, 1.391 11.0461, 1.62695 11.3058, 1.95165 11.4354, 2.36467 11.435, 2.5491 11.4354, 2.71758 11.4182, 2.87012 11.3831, 3.02306 11.3483, 3.1576 11.2894, 3.27455 11.206, 3.35552 11.1365, 3.41645 11.0441, 3.45653 10.9283, 3.49701 10.813, 3.51705 10.685, 3.51705 10.5452, 3.51705 10.3362, 3.43526 10.1497, 3.27128 9.98616, 3.1073 9.82258, 2.8971 9.71667, 2.64111 9.66841 L 1.80525 9.51138 C 1.57624 9.46395, 1.35296 9.38747, 1.135 9.28279, 0.917039 9.1781, 0.722795 9.04847, 0.55186 8.89348, 0.381334 8.7389, 0.246794 8.55774, 0.147831 8.35041, 0.048869 8.14349, -0.00061214 7.91531, -0.00061214 7.66627, -0.00061214 7.41354, 0.048869 7.15755, 0.147831 6.89787, 0.246794 6.63861, 0.410368 6.42146, 0.639372 6.24644, 0.891276 6.04606, 1.17099 5.91766, 1.47851 5.86081, 1.78644 5.80438, 2.08169 5.77576, 2.36467 5.77535, 2.80959 5.77576, 3.17355 5.85223, 3.45653 6.00435 L 3.84747 5.8146 C 3.90145 5.78884, 3.98201 5.77576, 4.08997 5.77535, 4.29239 5.77576, 4.3934 5.8784, 4.3934 6.08287 L 4.3934 7.52886 C 4.3934 7.73415, 4.29239 7.83679, 4.08997 7.83638 L 3.81353 7.83638 C 3.59802 7.83679, 3.49456 7.73415, 3.50356 7.52886, 3.50356 7.18904, 3.40255 6.92323, 3.20053 6.73103, 2.99852 6.53924, 2.71513 6.44314, 2.35118 6.44273, 2.17165 6.44314, 2.00767 6.45541, 1.85923 6.47913, 1.71119 6.50325, 1.5787 6.55887, 1.46174 6.64556, 1.30021 6.75925, 1.21924 6.93386, 1.21924 7.169, 1.21924 7.33953, 1.29571 7.4892, 1.44825 7.6176, 1.60119 7.74642, 1.79421 7.83025, 2.02771 7.8691 L 2.88361 8.02613 C 3.13551 8.07438, 3.37351 8.16067, 3.59802 8.28498, 3.82293 8.4093, 4.01922 8.56102, 4.18771 8.73972, 4.35619 8.91883, 4.48991 9.12167, 4.58887 9.34822, 4.68783 9.57518, 4.73691 9.81727, 4.73691 10.0741 Z" stroke="none" fill="#000000" />
			<path d="M 6.18698 7.22789 C 6.15099 7.32848, 6.09047 7.37878, 6.005 7.37837 L 5.95103 7.37837, 5.91054 7.35875 C 5.82548 7.33748, 5.77805 7.27859, 5.76905 7.18209 L 5.76905 7.13628, 6.44952 2.91607 C 6.48141 2.71569, 6.5767 2.56439, 6.73618 2.46174, 6.89567 2.35951, 7.05638 2.30798, 7.21791 2.30757, 7.39334 2.30798, 7.53483 2.36237, 7.64238 2.47115, 7.71027 2.53699, 7.7438 2.62409, 7.7438 2.73287, 7.7438 2.81179, 7.72376 2.90339, 7.68287 3.00767 Z" stroke="none" fill="#000000" />
			<rect />
		</svg>
	</g>
</svg>
