<?xml version="1.0"?>
<svg xmlns="http://www.w3.org/2000/svg" xmlns:xlink="http://www.w3.org/1999/xlink" width="222.106674" height="162.711258">
	<defs>
		<marker id="CustomMarker-01" markerUnits="strokeWidth" markerWidth="15.000001" markerHeight="9" viewBox="-15 -4.5 15 9" orient="auto-start-reverse">
			<path d="M 0 -0 L -10 -3, -8 -0.5, -8 0.5, -10 3 Z" fill="#000000" stroke="#000000" stroke-linejoin="round" />
		</marker>
	</defs>
	<rect x="-289.990601" y="-151.117645" width="579.981201" height="302.235291" stroke="none" fill="#000000" transform="matrix(0.357143 0 0 0.357143 110.039 62.4706)" />
	<path d="M -289.991 -151.118 L 289.991 -151.118, 289.991 151.118, -289.991 151.118 Z" fill="none" stroke="#000000" stroke-width="2.79999995" stroke-linecap="round" stroke-linejoin="round" transform="matrix(0.357143 0 0 0.357143 110.039 62.4706)" />
	<path d="M -0 -0 L -222.864 0.000182026 C -222.864 -123.084, -123.084 -222.864, -0.00036545 -222.864, 123.084 -222.864, 222.863 -123.085, 222.864 -2.65674e-005, 222.864 -8.85581e-006, 222.864 8.8558e-006, 222.864 2.65674e-005 Z" stroke="none" fill="#000000" transform="matrix(0.357143 0 0 0.357143 110.039 117.857)" />
	<path d="M -0 -0 L -222.864 0.000182026 C -222.864 -123.084, -123.084 -222.864, -0.00036545 -222.864, 123.084 -222.864, 222.863 -123.085, 222.864 -2.65674e-005, 222.864 -8.85581e-006, 222.864 8.8558e-006, 222.864 2.65674e-005 Z" fill="none" stroke="#FFFFFF" stroke-width="2.79999995" stroke-linecap="round" stroke-linejoin="round" transform="matrix(0.357143 0 0 0.357143 110.039 117.857)" />
	<path d="M 111.592 -0 C 111.592 61.6305, 61.6305 111.592, -0 111.592, -61.6305 111.592, -111.592 61.6305, -111.592 -0, -111.592 -61.6305, -61.6305 -111.592, -0 -111.592, 61.6305 -111.592, 111.592 -61.6305, 111.592 -0 Z" stroke="none" fill="#FFFFFF" transform="matrix(0.357143 0 0 0.357143 110.039 116.386)" />
	<path d="M 111.592 -0 C 111.592 61.6305, 61.6305 111.592, -0 111.592, -61.6305 111.592, -111.592 61.6305, -111.592 -0, -111.592 -61.6305, -61.6305 -111.592, -0 -111.592, 61.6305 -111.592, 111.592 -61.6305, 111.592 -0 Z" fill="none" stroke="#FFFFFF" stroke-width="2.79999995" stroke-linecap="round" stroke-linejoin="round" transform="matrix(0.357143 0 0 0.357143 110.039 116.386)" />
	<path d="M -0 -0 L 111.592 -4.70323e-006 C 111.592 61.6303, 61.6303 111.592, 2.08876e-005 111.592, -61.6303 111.592, -111.592 61.6303, -111.592 4.86909e-005, -111.592 -61.6302, -61.6304 -111.591, -0.000129337 -111.592 Z" stroke="none" fill="#000000" transform="matrix(0.357143 0 0 0.357143 110.039 116.386)" />
	<path d="M -0 -0 L 111.592 -4.70323e-006 C 111.592 61.6303, 61.6303 111.592, 2.08876e-005 111.592, -61.6303 111.592, -111.592 61.6303, -111.592 4.86909e-005, -111.592 -61.6302, -61.6304 -111.591, -0.000129337 -111.592 Z" fill="none" stroke="#FFFFFF" stroke-width="0" stroke-linecap="round" stroke-linejoin="round" transform="matrix(0.357143 0 0 0.357143 110.039 116.386)" />
	<path d="M 30.7628 0 L -30.7628 0" fill="none" stroke="#000000" stroke-width="2.79999995" stroke-linecap="round" stroke-linejoin="round" marker-end="url(#CustomMarker-01)" transform="matrix(0.357143 0 0 0.357143 155.715 136.008)" />
	<g transform="matrix(1 0 -0 1 171.662 119.662)">
		<svg width="156.041824" height="108.090134">
			<defs />
			<path d="M 7.21015 17.3283 C 7.21015 17.7474, 7.1439 18.1588, 7.01141 18.562, 6.87891 18.9656, 6.65891 19.321, 6.35098 19.6285, 6.04346 19.936, 5.6885 20.1585, 5.28611 20.2959, 4.88413 20.4333, 4.47192 20.5016, 4.04949 20.5016, 3.69044 20.5016, 3.36575 20.4341, 3.07581 20.2992, 2.78629 20.1642, 2.5581 20.0092, 2.39166 19.8342 L 1.76517 20.4231, 0.949757 20.4231, 0.949757 12.1201 C 0.949757 12.0636, 0.943214 12.0182, 0.929719 11.9831, 0.916224 11.9483, 0.898231 11.9287, 0.87533 11.9238, 0.808265 11.8935, 0.699079 11.8751, 0.548591 11.8686, 0.398103 11.862, 0.215308 11.8588, -0.000609539 11.8583 L -0.000609539 11.0012, 2.69509 10.8834, 2.69509 14.5802 C 2.79406 14.5021, 2.99034 14.4117, 3.28478 14.3091, 3.57921 14.2069, 3.89 14.1553, 4.21797 14.1549, 4.61791 14.1553, 5.01253 14.2285, 5.40102 14.3745, 5.78951 14.5209, 6.1232 14.7422, 6.40168 15.0382, 6.69857 15.3572, 6.90754 15.715, 7.02858 16.1117, 7.14963 16.5088, 7.21015 16.9144, 7.21015 17.3283 Z M 5.21536 17.3283 C 5.21536 16.9668, 5.20432 16.6167, 5.18183 16.2785, 5.15975 15.9407, 5.09677 15.6647, 4.99331 15.4504, 4.89885 15.2721, 4.77412 15.1315, 4.61913 15.0288, 4.46415 14.9266, 4.29444 14.8751, 4.11042 14.8747, 3.83643 14.8751, 3.58003 14.9429, 3.34203 15.0779, 3.10403 15.2133, 2.91306 15.3789, 2.76911 15.5747 L 2.76911 19.0556 C 2.90406 19.2699, 3.07295 19.4433, 3.27496 19.5762, 3.47698 19.7095, 3.70394 19.7757, 3.95543 19.7753, 4.16235 19.7757, 4.35414 19.7246, 4.53162 19.622, 4.7091 19.5198, 4.84977 19.3746, 4.95283 19.1865, 5.07428 18.973, 5.1483 18.7007, 5.17529 18.369, 5.20228 18.0378, 5.21536 17.6906, 5.21536 17.3283 Z" stroke="none" fill="#000000" />
			<polyline points="-4.69 0 4.69 0" fill="none" stroke="#000000" stroke-width="0.535999954" stroke-linecap="round" stroke-linejoin="round" transform="matrix(1 0 0 1 15.7868 16.3456)" />
			<polyline points="0 -4.69 0 4.69" fill="none" stroke="#000000" stroke-width="0.535999954" stroke-linecap="round" stroke-linejoin="round" transform="matrix(1 0 0 1 15.7868 16.3456)" />
			<polyline points="25.9038 16.3456 35.6795 16.3456" fill="none" stroke="#000000" stroke-width="0.535999954" stroke-linecap="round" stroke-linejoin="round" />
			<path d="M 34.2692 11.9846 C 34.2422 12.1155, 34.1657 12.1809, 34.0398 12.1809 L 33.3929 12.1809 C 33.3479 12.1809, 33.3143 12.1703, 33.2918 12.1482, 33.0628 12.0263, 32.9009 11.8345, 32.8064 11.5724 L 31.5531 8.18316, 28.2509 11.9585 C 28.1164 12.1069, 27.9814 12.1854, 27.8465 12.194, 27.8244 12.203, 27.7994 12.2071, 27.7724 12.2071, 27.6424 12.2071, 27.5389 12.1678, 27.4625 12.0893, 27.3684 12.0198, 27.321 11.9372, 27.321 11.8407, 27.312 11.8411, 27.3075 11.8149, 27.3075 11.7622, 27.3075 11.6362, 27.3774 11.5054, 27.5165 11.3696 L 31.3645 7.67281, 30.0032 3.96949 C 29.9001 3.70818, 29.7922 3.48572, 29.6797 3.30251, 29.5677 3.11931, 29.4012 3.02771, 29.1808 3.0273, 29.1088 3.02771, 29.0573 2.99704, 29.0258 2.9357, 29.0127 2.90993, 29.0058 2.88172, 29.0058 2.85064 L 29.0058 2.80484 C 29.0193 2.7529, 29.0475 2.70629, 29.09 2.66457, 29.1326 2.62327, 29.1898 2.60242, 29.2618 2.60201, 29.6392 2.60242, 29.9987 2.66253, 30.3402 2.78235, 30.6816 2.90257, 30.9131 3.13035, 31.0341 3.46568 L 33.8243 11.0621 C 33.8873 11.2281, 33.9502 11.3823, 34.0132 11.5238, 34.0762 11.6657, 34.1477 11.7671, 34.2287 11.8276, 34.2557 11.8718, 34.2692 11.9131, 34.2692 11.9519 L 34.2692 11.9846 Z" stroke="none" fill="#000000" />
			<path d="M 33.268 28.657 L 27.893 28.657, 27.893 28.3044 C 27.893 28.2791, 27.9063 28.2406, 27.9327 28.1889 L 30.092 25.8421 C 30.3477 25.5604, 30.6061 25.2718, 30.8682 24.9769, 31.1303 24.6819, 31.3644 24.3805, 31.5712 24.0728, 31.778 23.765, 31.9431 23.4476, 32.0665 23.1206, 32.1899 22.7936, 32.2513 22.4505, 32.2513 22.091, 32.2513 21.7881, 32.212 21.5047, 32.1326 21.2418, 32.0533 20.9789, 31.9391 20.7481, 31.7892 20.5493, 31.6393 20.3505, 31.4521 20.1902, 31.2277 20.0684, 31.0033 19.9466, 30.7436 19.8857, 30.4487 19.8853, 30.0086 19.8857, 29.6199 20.0171, 29.2833 20.28, 28.9466 20.5429, 28.723 20.8326, 28.6128 21.1484, 28.5911 21.1573, 28.6264 21.1617, 28.7186 21.1613 L 28.8308 21.1613 C 28.963 21.1917, 29.0773 21.2378, 29.1742 21.2995, 29.2712 21.3616, 29.3526 21.447, 29.4187 21.556, 29.4848 21.665, 29.5177 21.7965, 29.5177 21.95, 29.5177 22.2068, 29.4343 22.4036, 29.2668 22.5403, 29.0993 22.6773, 28.9122 22.7455, 28.7054 22.7451, 28.5074 22.7455, 28.3226 22.6773, 28.1507 22.5403, 27.9792 22.4036, 27.893 22.2068, 27.893 21.95, 27.893 21.5913, 27.9636 21.2514, 28.1046 20.9308, 28.2457 20.6102, 28.4369 20.3325, 28.6789 20.0973, 28.921 19.8624, 29.2071 19.6765, 29.5373 19.5394, 29.8676 19.4027, 30.2178 19.3342, 30.5873 19.3338, 31.045 19.3342, 31.4646 19.4015, 31.8453 19.5362, 32.226 19.6709, 32.5506 19.8644, 32.8191 20.1165, 33.0876 20.369, 33.298 20.6607, 33.4499 20.9917, 33.6018 21.3232, 33.6776 21.6895, 33.6776 22.091, 33.6776 22.5359, 33.5766 22.9454, 33.3738 23.3193, 33.1714 23.6936, 32.9205 24.0367, 32.6212 24.3485, 32.3218 24.6607, 32.0036 24.9544, 31.667 25.2302, 31.3303 25.5059, 31.0253 25.774, 30.7524 26.0345 L 29.2336 27.4644, 31.2213 27.4644 C 31.4986 27.4648, 31.7575 27.4628, 31.9972 27.4584, 32.2372 27.4544, 32.4408 27.4455, 32.6079 27.4327, 32.7754 27.4199, 32.8612 27.4115, 32.8652 27.4067, 32.9005 27.377, 32.9337 27.3173, 32.9646 27.2275, 32.9955 27.1378, 33.0239 27.032, 33.0504 26.9101, 33.0768 26.7883, 33.1033 26.6645, 33.1297 26.5382, 33.1562 26.4124, 33.1802 26.2741, 33.2023 26.1242 L 33.6908 26.1242 Z" stroke="none" fill="#000000" />
			<rect />
		</svg>
	</g>
</svg>
