<?xml version="1.0"?>
<svg xmlns="http://www.w3.org/2000/svg" xmlns:xlink="http://www.w3.org/1999/xlink" width="367.999817" height="227">
	<defs>
		<marker id="CustomMarker-01" markerUnits="strokeWidth" markerWidth="15.000001" markerHeight="9" viewBox="-15 -4.5 15 9" orient="auto-start-reverse">
			<path d="M 0 -0 L -10 -3, -8 -0.5, -8 0.5, -10 3 Z" fill="#000000" stroke="#000000" stroke-linejoin="round" />
		</marker>
		<marker id="CustomMarker-02" markerUnits="strokeWidth" markerWidth="15.000001" markerHeight="9" viewBox="-15 -4.5 15 9" orient="auto-start-reverse">
			<path d="M 0 -0 L -10 -3, -8 -0.5, -8 0.5, -10 3 Z" fill="#000000" stroke="#000000" stroke-linejoin="round" />
		</marker>
	</defs>
	<rect x="-350.999695" y="-152.499969" width="701.99939" height="304.999939" stroke="none" fill="#15C114" fill-opacity="0.392156839" transform="matrix(0.5 0 0 0.5 184 143.25)" />
	<path d="M -351 -152.5 L 351 -152.5, 351 152.5, -351 152.5 Z" fill="none" stroke="#000000" stroke-width="2" stroke-linecap="round" stroke-linejoin="round" transform="matrix(0.5 0 0 0.5 184 143.25)" />
	<path d="M -116.843 -58.5 L 116.844 58.5001" fill="none" stroke="#000000" stroke-width="2" stroke-linecap="round" stroke-linejoin="round" marker-end="url(#CustomMarker-01)" transform="matrix(0.5 0 0 0.5 66.9217 37.75)" />
	<path d="M -116.843 -58.5 L 116.843 58.5001" fill="none" stroke="#000000" stroke-width="2" stroke-linecap="round" stroke-linejoin="round" marker-end="url(#CustomMarker-02)" transform="matrix(0.5 0 0 0.5 191.75 37.75)" />
	<ellipse cx="648.15374755859375" cy="262.18820190429688" rx="5.25" ry="5.25" stroke="none" fill="#000000" transform="matrix(0.5 0 0 0.5 -232.5 -81)" />
	<ellipse cx="915.27935791015625" cy="270.9344482421875" rx="5.25" ry="5.25" stroke="none" fill="#000000" transform="matrix(0.5 0 0 0.5 -232.5 -81)" />
	<path d="M 7.50922 -14.9986 L -7.50928 14.9986" fill="none" stroke="#000000" stroke-width="2" stroke-linecap="round" stroke-linejoin="round" transform="matrix(0.5 0 0 0.5 91.4346 49.4019)" />
	<path d="M 7.50952 -14.9987 L -7.50964 14.9984" fill="none" stroke="#000000" stroke-width="2" stroke-linecap="round" stroke-linejoin="round" transform="matrix(0.5 0 0 0.5 225.14 54.4673)" />
	<path d="M 22.6432 -0 C 22.6432 11.9344, 12.5055 21.6091, -0 21.6091, -12.5055 21.6091, -22.6432 11.9344, -22.6432 -0, -22.6432 -11.9344, -12.5055 -21.6091, -0 -21.6091, 12.5055 -21.6091, 22.6432 -11.9344, 22.6432 -0 Z" stroke="none" fill="#FFFFFF" transform="matrix(0.5 0 -0 0.5 62.269 110.795)" />
	<path d="M 22.6432 -0 C 22.6432 11.9344, 12.5055 21.6091, -0 21.6091, -12.5055 21.6091, -22.6432 11.9344, -22.6432 -0, -22.6432 -11.9344, -12.5055 -21.6091, -0 -21.6091, 12.5055 -21.6091, 22.6432 -11.9344, 22.6432 -0 Z" fill="none" stroke="#000000" stroke-width="2" stroke-linecap="round" stroke-linejoin="round" transform="matrix(0.5 0 -0 0.5 62.269 110.795)" />
	<ellipse cx="589.5380859375" cy="383.59048461914062" rx="5.25" ry="5.25" stroke="none" fill="#000000" transform="matrix(0.5 0 0 0.5 -232.5 -81)" />
	<g transform="matrix(1 0 -0 1 34.9921 130.94)">
		<svg width="168.097641" height="47.9906693">
			<defs />
			<path d="M 2.21277 2.23691 L 2.33152 2.06418 C 3.63423 2.94944, 4.37555 3.56481, 4.55548 3.91027, 4.73541 4.25574, 4.82178 4.52564, 4.82178 4.71277, 4.82178 4.94668, 4.7534 5.159, 4.61306 5.34973, 4.47631 5.54405, 4.36475 5.63762, 4.28558 5.63402, 4.12724 5.63762, 3.99049 5.38931, 3.87174 4.8855, 3.63423 4.19816, 3.08364 3.3165, 2.21277 2.23691 Z M 6.30441 6.32496 L 6.30441 2.98543 C 6.30441 2.37366, 6.28642 1.60715, 6.24324 0.682302 L 7.66829 1.25808, 7.1321 1.77629, 7.1321 6.32496, 8.14331 6.32496 C 8.93501 5.06184, 9.58637 3.67996, 10.0974 2.17933 L 11.3461 3.043, 10.8099 3.3309 C 9.94263 4.52564, 9.17252 5.52246, 8.49598 6.32496 L 11.3461 6.32496, 12.1738 5.51886, 13.3002 6.67043, 8.4384 6.67043, 8.4384 11.7949 C 8.4384 12.4498, 8.73709 12.7737, 9.32726 12.7737 L 11.6988 12.7737 C 11.9795 12.7737, 12.1558 12.5938, 12.235 12.2303, 12.3141 11.8669, 12.3933 10.9924, 12.4725 9.60691 L 12.7676 9.60691 C 12.7676 10.6073, 12.8071 11.2911, 12.8863 11.6545, 12.9655 12.0216, 13.203 12.3167, 13.5988 12.5434, 13.3217 13.1192, 12.8287 13.4287, 12.1162 13.4646 L 9.15093 13.4646 C 8.16491 13.4646, 7.66829 13.004, 7.66829 12.0828 L 7.66829 6.67043, 5.35437 6.67043 C 5.23922 8.82241, 4.82178 10.4094, 4.10925 11.4242, 3.39672 12.4426, 1.99325 13.3135, -0.101152 14.0404 L -0.162329 13.8101 C 1.73775 12.968, 2.97208 12.0108, 3.54426 10.9348, 4.12004 9.86241, 4.42593 8.44095, 4.46551 6.67043 L 1.97526 6.67043 C 1.46065 6.67402, 0.985635 6.7316, 0.5502 6.84316 L 0.0176025 6.32496 Z" stroke="none" fill="#000000" />
			<path d="M 23.5689 8.28261 L 23.5689 11.8525, 25.7029 11.8525, 25.7029 8.28261 Z M 26.4154 11.8525 C 26.4154 12.3167, 26.437 12.7557, 26.473 13.1768 L 25.7029 13.5222, 25.7029 12.1979, 20.7799 12.1979, 20.7799 13.2919, 20.0098 13.5798 C 20.0494 12.3563, 20.0674 10.6865, 20.0674 8.5741, 20.0674 6.4653, 20.0494 4.84952, 20.0098 3.73394 L 20.7799 4.19457, 22.8564 4.19457 C 22.8564 2.47082, 22.8384 1.26168, 22.7952 0.567145 L 24.0403 1.14293, 23.5689 1.54597, 23.5689 4.19457, 25.6417 4.19457, 25.998 3.67636, 26.8868 4.30972, 26.4154 4.65519 Z M 20.7799 4.54004 L 20.7799 7.93714, 22.8564 7.93714, 22.8564 4.54004 Z M 23.5689 4.54004 L 23.5689 7.93714, 25.7029 7.93714, 25.7029 4.54004 Z M 20.7799 8.28261 L 20.7799 11.8525, 22.8564 11.8525, 22.8564 8.28261 Z M 17.4008 9.95238 C 17.4008 11.7985, 17.4224 13.0436, 17.4584 13.695 L 16.6271 14.098 C 16.6703 12.601, 16.6883 11.2983, 16.6883 10.1827, 15.5007 10.6073, 14.7522 10.8952, 14.4356 11.0464 L 14.0793 11.4494, 13.4243 10.4706 C 14.4931 10.2835, 15.5799 10.0136, 16.6883 9.66449 L 16.6883 7.24621, 14.9682 7.24621, 14.4931 7.5341, 13.8994 6.78558 C 14.216 6.63444, 14.4859 6.27098, 14.7019 5.6952, 14.9178 5.11942, 15.1841 4.35291, 15.5007 3.38847, 15.0689 3.39207, 14.6335 3.44965, 14.198 3.56121 L 13.6618 3.043, 15.6195 3.043 C 15.7778 2.47082, 15.8966 1.9922, 15.9758 1.60715, 16.0549 1.22569, 16.1161 0.840641, 16.1557 0.451989 L 17.3397 1.14293 C 17.0662 1.14653, 16.7495 1.76189, 16.3896 2.98543 L 18.0522 2.98543, 18.7647 2.29449, 19.7723 3.3309, 16.2709 3.3309, 14.9682 6.90074, 16.6883 6.90074 C 16.6883 5.82835, 16.6703 4.8891, 16.6271 4.07941 L 17.8722 4.71277, 17.4008 5.05824, 17.4008 6.90074, 18.1709 6.90074, 18.8835 6.2098, 19.7723 7.24621, 17.4008 7.24621, 17.4008 9.49175, 19.5348 8.91597, 19.5924 9.08871 Z" stroke="none" fill="#000000" />
			<path d="M 27.1909 3.50363 L 38.9909 3.50363, 39.8833 2.63996, 41.1284 3.8491, 33.834 3.8491 C 33.7944 4.58322, 33.6937 5.4253, 33.5353 6.38254 L 37.3895 6.38254, 37.9832 5.80675, 38.9333 6.67043, 38.3395 7.01589 C 37.9437 9.97397, 37.6702 11.7229, 37.5118 12.2591, 37.3535 12.7953, 37.1088 13.1696, 36.7705 13.3783, 36.4322 13.5906, 35.968 13.7741, 35.3742 13.9253, 35.2159 13.3135, 34.5645 12.7737, 33.4166 12.3131 L 33.4777 12.0828 C 34.5465 12.3923, 35.2483 12.5542, 35.583 12.5722, 35.9212 12.5938, 36.1767 12.529, 36.3531 12.3743, 36.533 12.2231, 36.6985 11.7337, 36.8569 10.906, 37.0152 10.0819, 37.2131 8.68926, 37.4506 6.728 L 33.4777 6.728 C 32.8084 10.0711, 30.8687 12.4498, 27.666 13.8677 L 27.5472 13.6374 C 31.1063 11.6833, 32.884 8.41936, 32.884 3.8491 L 29.1486 3.8491 C 28.6376 3.8527, 28.1626 3.91027, 27.7235 4.02183 Z M 32.884 0.682302 C 33.9132 1.07095, 34.5142 1.39843, 34.6941 1.66473, 34.874 1.93463, 34.9604 2.14335, 34.9604 2.29449, 34.9604 2.45283, 34.8812 2.63636, 34.7229 2.84508, 34.5645 3.0574, 34.4674 3.16176, 34.4242 3.15816, 34.2694 3.16176, 34.1111 2.94944, 33.9528 2.5248, 33.7153 1.95262, 33.3194 1.39483, 32.7652 0.855036 Z" stroke="none" fill="#000000" />
			<path d="M 46.1107 6.44011 L 46.1107 9.43418, 49.4323 9.43418, 49.4323 6.44011 Z M 49.9649 12.3131 C 50.7565 12.3563, 51.3899 12.3851, 51.8649 12.403, 52.3399 12.4246, 52.5559 12.1619, 52.5163 11.6221 L 52.5163 3.61879, 43.2642 3.61879, 43.2642 13.5222, 42.3753 13.9253 C 42.4149 12.8133, 42.4329 11.9136, 42.4329 11.2191 L 42.4329 5.05824 C 42.4329 4.25574, 42.4149 3.46764, 42.3753 2.69754 L 43.3254 3.27332, 45.8732 3.27332 C 46.3482 1.93463, 46.6073 0.991784, 46.6433 0.451989 L 47.9496 1.08535 C 47.4746 1.35884, 46.924 2.08577, 46.2906 3.27332 L 52.3975 3.27332, 52.8114 2.63996, 53.8226 3.38847, 53.3476 3.79152, 53.3476 11.9676 C 53.4267 12.9284, 52.9913 13.5618, 52.0413 13.8677, 52.0053 13.2163, 51.3107 12.7953, 49.9649 12.601 Z M 50.2635 9.03113 C 50.2635 9.34061, 50.2851 9.80124, 50.3211 10.413 L 49.4323 10.7585, 49.4323 9.77964, 46.1107 9.77964, 46.1107 10.6433, 45.2219 10.9888 C 45.2614 10.0315, 45.2794 9.05632, 45.2794 8.0559, 45.2794 7.05908, 45.2614 6.23139, 45.2219 5.57644 L 46.1107 6.09465, 49.3747 6.09465, 49.7885 5.51886, 50.7386 6.26738, 50.2635 6.67043 Z" stroke="none" fill="#000000" />
			<rect />
		</svg>
	</g>
</svg>
