<?xml version="1.0"?>
<svg xmlns="http://www.w3.org/2000/svg" xmlns:xlink="http://www.w3.org/1999/xlink" width="204.559433" height="77.730278">
	<defs />
	<rect x="-468.898682" y="-151.825684" width="937.797363" height="303.651367" stroke="none" fill="#771926" fill-opacity="0.392156839" transform="matrix(0.2 0 -0 0.2 102.28 38.8651)" />
	<path d="M -468.899 -151.826 L 468.899 -151.826, 468.899 151.826, -468.899 151.826 Z" fill="none" stroke="#000000" stroke-width="5" stroke-linecap="round" stroke-linejoin="round" transform="matrix(0.2 0 -0 0.2 102.28 38.8651)" />
	<path d="M 0 0 L 0 303.651" fill="none" stroke="#000000" stroke-width="5" stroke-linecap="round" stroke-linejoin="round" transform="matrix(0.2 0 0 0.2 120.672 8.50002)" />
	<g transform="matrix(1 0 -0 1 69.7414 15.2786)">
		<svg width="45.0279007" height="38.9253807">
			<defs />
			<path d="M 10.0412 3.51802 C 9.81221 3.51843, 9.62778 3.52089, 9.48874 3.52497, 9.3497 3.52947, 9.2168 3.5401, 9.09085 3.55728, 9.02787 3.57078, 8.97185 3.58304, 8.92236 3.59368, 8.87329 3.60472, 8.84835 3.61453, 8.84835 3.62271 L 5.62021 11.8734 C 5.53515 12.0873, 5.37771 12.192, 5.1483 12.1875 L 4.89926 12.1875 C 4.67025 12.1875, 4.51036 12.0852, 4.42039 11.8799 L 1.14523 3.51802, -0.000199184 3.51802, -0.000199184 2.64781 C 0.260293 2.6613, 0.474575 2.6703, 0.643056 2.67439, 0.811538 2.67889, 0.9837 2.68093, 1.15872 2.68052, 1.31616 2.68093, 1.46992 2.68338, 1.62041 2.68747, 1.7709 2.69197, 1.92507 2.69402, 2.0821 2.69361 L 2.0956 2.69361 C 2.85049 2.69402, 3.64996 2.67889, 4.49482 2.64781 L 4.49482 3.51802, 3.41646 3.51802, 5.62675 9.17769, 7.83746 3.55728, 7.83746 3.55074 C 7.83746 3.58591, 7.84441 3.60799, 7.8575 3.61617, 7.79493 3.60799, 7.72541 3.5949, 7.64853 3.57691, 7.52299 3.55973, 7.39744 3.54583, 7.27149 3.53479, 7.14554 3.52416, 6.98156 3.51843, 6.77913 3.51802 L 6.77913 2.64781 C 7.41298 2.67889, 8.0039 2.69402, 8.55187 2.69361 L 8.56536 2.69361 C 9.00129 2.69402, 9.49324 2.67889, 10.0412 2.64781 L 10.0412 3.51802 Z" stroke="none" fill="#000000" />
			<path d="M 1.69796 2.28366 C 1.23514 2.26901, 0.784693 2.26168, 0.346838 2.26168, -0.0907886 2.26168, -0.541239 2.26901, -1.00429 2.28366 L -1.00429 1.96855, -0.743679 1.96855 C -0.660779 1.96878, -0.582689 1.96764, -0.509866 1.96512, -0.436813 1.96283, -0.367654 1.95665, -0.302159 1.9468, -0.236664 1.93718, -0.1801 1.92733, -0.132467 1.91726, -0.0921626 1.91016, -0.0587281 1.88772, -0.0323926 1.8497, -0.00582814 1.81192, 0.00722504 1.76978, 0.00722504 1.72306 L 0.00722504 -2.40634 C -0.118498 -2.34496, -0.273305 -2.29848, -0.456966 -2.26687, -0.640627 -2.23504, -0.841921 -2.21924, -1.06085 -2.21947 L -1.06085 -2.53091 C -0.758793 -2.53069, -0.480095 -2.56664, -0.224756 -2.63878, 0.0305834 -2.71068, 0.251343 -2.84579, 0.437523 -3.04388 L 0.554544 -3.04388 C 0.637444 -3.04365, 0.678893 -3.00335, 0.678893 -2.92297 L 0.678893 1.72306 C 0.678893 1.77207, 0.691489 1.81489, 0.716679 1.85153, 0.74187 1.88817, 0.77851 1.91016, 0.826143 1.91726, 0.866448 1.92733, 0.918203 1.93718, 0.98095 1.9468, 1.04393 1.95665, 1.11492 1.96283, 1.19415 1.96512, 1.27339 1.96764, 1.35079 1.96878, 1.42613 1.96855 L 1.69796 1.96855, 1.69796 2.28366 Z" stroke="none" fill="#000000" transform="matrix(1.12 0 0 1 11.1307 11.6474)" />
			<rect />
		</svg>
	</g>
	<g transform="matrix(1 0 -0 1 161.931 15.2786)">
		<svg width="45.0279007" height="38.9253807">
			<defs />
			<path d="M 10.0412 3.51802 C 9.81221 3.51843, 9.62778 3.52089, 9.48874 3.52497, 9.3497 3.52947, 9.2168 3.5401, 9.09085 3.55728, 9.02787 3.57078, 8.97185 3.58304, 8.92236 3.59368, 8.87329 3.60472, 8.84835 3.61453, 8.84835 3.62271 L 5.62021 11.8734 C 5.53515 12.0873, 5.37771 12.192, 5.1483 12.1875 L 4.89926 12.1875 C 4.67025 12.1875, 4.51036 12.0852, 4.42039 11.8799 L 1.14523 3.51802, -0.000199184 3.51802, -0.000199184 2.64781 C 0.260293 2.6613, 0.474575 2.6703, 0.643056 2.67439, 0.811538 2.67889, 0.9837 2.68093, 1.15872 2.68052, 1.31616 2.68093, 1.46992 2.68338, 1.62041 2.68747, 1.7709 2.69197, 1.92507 2.69402, 2.0821 2.69361 L 2.0956 2.69361 C 2.85049 2.69402, 3.64996 2.67889, 4.49482 2.64781 L 4.49482 3.51802, 3.41646 3.51802, 5.62675 9.17769, 7.83746 3.55728, 7.83746 3.55074 C 7.83746 3.58591, 7.84441 3.60799, 7.8575 3.61617, 7.79493 3.60799, 7.72541 3.5949, 7.64853 3.57691, 7.52299 3.55973, 7.39744 3.54583, 7.27149 3.53479, 7.14554 3.52416, 6.98156 3.51843, 6.77913 3.51802 L 6.77913 2.64781 C 7.41298 2.67889, 8.0039 2.69402, 8.55187 2.69361 L 8.56536 2.69361 C 9.00129 2.69402, 9.49324 2.67889, 10.0412 2.64781 L 10.0412 3.51802 Z" stroke="none" fill="#000000" />
			<path d="M 1.70813 2.28366 L -1.36327 2.28366, -1.36327 2.08214 C -1.36327 2.06771, -1.35571 2.04573, -1.3406 2.01619 L -0.106727 0.67514 C 0.039377 0.514151, 0.187085 0.349268, 0.336853 0.180721, 0.486622 0.0121739, 0.62036 -0.160037, 0.738526 -0.335912, 0.856692 -0.511787, 0.951041 -0.693158, 1.02157 -0.880025, 1.09211 -1.06689, 1.12715 -1.26292, 1.12715 -1.46834, 1.12715 -1.64146, 1.1047 -1.80337, 1.05936 -1.9536, 1.01402 -2.10382, 0.948751 -2.23573, 0.863104 -2.34931, 0.777457 -2.4629, 0.670512 -2.5545, 0.542269 -2.62412, 0.414027 -2.69374, 0.265633 -2.72854, 0.097086 -2.72877, -0.15436 -2.72854, -0.376494 -2.65343, -0.568857 -2.5032, -0.761221 -2.35298, -0.889005 -2.18741, -0.951981 -2.00695, -0.964347 -2.00192, -0.944195 -1.9994, -0.891524 -1.99963 L -0.827403 -1.99963 C -0.751831 -1.98222, -0.686565 -1.95589, -0.631146 -1.92062, -0.575727 -1.88512, -0.52924 -1.83635, -0.491454 -1.77406, -0.453668 -1.71177, -0.43489 -1.63665, -0.43489 -1.54895, -0.43489 -1.40215, -0.482523 -1.28971, -0.578246 -1.21162, -0.67397 -1.1333, -0.780915 -1.09437, -0.899081 -1.0946, -1.01221 -1.09437, -1.11778 -1.1333, -1.21602 -1.21162, -1.31404 -1.28971, -1.36327 -1.40215, -1.36327 -1.54895, -1.36327 -1.7539, -1.32297 -1.9481, -1.24236 -2.1313, -1.16175 -2.31451, -1.05251 -2.47321, -0.914195 -2.60763, -0.775877 -2.74183, -0.612368 -2.84808, -0.423669 -2.9264, -0.23497 -3.00449, -0.0348202 -3.04365, 0.176321 -3.04388, 0.437844 -3.04365, 0.677611 -3.00518, 0.895164 -2.92824, 1.11272 -2.85129, 1.29821 -2.74068, 1.45164 -2.59664, 1.60508 -2.45237, 1.7253 -2.28565, 1.8121 -2.09649, 1.89889 -1.90711, 1.94217 -1.6978, 1.94217 -1.46834, 1.94217 -1.21414, 1.88446 -0.9801, 1.76859 -0.766439, 1.65294 -0.55255, 1.50958 -0.356522, 1.33852 -0.178357, 1.16745 3.67165e-005, 0.985621 0.167897, 0.793258 0.325451, 0.600894 0.483006, 0.426623 0.63621, 0.270671 0.785062 L -0.597254 1.60215, 0.538605 1.60215 C 0.697076 1.60238, 0.845013 1.60123, 0.981957 1.59871, 1.11913 1.59642, 1.23546 1.59138, 1.33096 1.58406, 1.42668 1.57673, 1.47569 1.57192, 1.47798 1.56917, 1.49813 1.55223, 1.51714 1.5181, 1.53477 1.46681, 1.55241 1.41551, 1.56867 1.35505, 1.58378 1.28544, 1.59889 1.21582, 1.61401 1.14506, 1.62912 1.07292, 1.64424 1.00101, 1.65798 0.922006, 1.67057 0.836359 L 1.94973 0.836359 Z" stroke="none" fill="#000000" transform="matrix(1.12 0 0 1 11.4328 11.6474)" />
			<rect />
		</svg>
	</g>
	<g transform="matrix(1 0 -0 1 71.7623 41.2291)">
		<svg width="29.9581337" height="35.9036179">
			<defs />
			<path d="M 7.92926 6.27916 C 7.90268 6.02234, 7.87815 5.79457, 7.85566 5.59582, 7.83316 5.39749, 7.80495 5.20447, 7.77141 5.01677, 7.73788 4.82948, 7.69167 4.66018, 7.63319 4.50969, 7.57472 4.3592, 7.50479 4.2402, 7.42382 4.15269, 7.25329 3.98298, 7.05455 3.85989, 6.82759 3.78342, 6.60104 3.70736, 6.36181 3.66892, 6.10991 3.66851 L 5.51 3.66851, 5.51 11.2191, 7.34326 11.2191, 7.34326 12.0893 C 6.32337 12.059, 5.34643 12.0435, 4.4116 12.0435, 3.47269 12.0435, 2.49328 12.059, 1.4734 12.0893 L 1.4734 11.2191, 3.30625 11.2191, 3.30625 3.66851, 2.78077 3.66851 C 2.52927 3.66892, 2.27982 3.70491, 2.03282 3.77688, 1.78583 3.84885, 1.57686 3.97439, 1.40593 4.15269, 1.31596 4.2447, 1.24317 4.36493, 1.18674 4.51296, 1.13071 4.66141, 1.08491 4.82948, 1.04892 5.01677, 1.01294 5.20447, 0.983904 5.39749, 0.961412 5.59582, 0.938921 5.79457, 0.913976 6.02234, 0.886986 6.27916 L -0.00244877 6.27916, 0.307524 2.80484, 8.50913 2.80484, 8.81911 6.27916 Z" stroke="none" fill="#000000" />
			<rect />
		</svg>
	</g>
	<g transform="matrix(1 0 -0 1 164.262 41.2291)">
		<svg width="29.9581337" height="35.9036179">
			<defs />
			<path d="M 7.92926 6.27916 C 7.90268 6.02234, 7.87815 5.79457, 7.85566 5.59582, 7.83316 5.39749, 7.80495 5.20447, 7.77141 5.01677, 7.73788 4.82948, 7.69167 4.66018, 7.63319 4.50969, 7.57472 4.3592, 7.50479 4.2402, 7.42382 4.15269, 7.25329 3.98298, 7.05455 3.85989, 6.82759 3.78342, 6.60104 3.70736, 6.36181 3.66892, 6.10991 3.66851 L 5.51 3.66851, 5.51 11.2191, 7.34326 11.2191, 7.34326 12.0893 C 6.32337 12.059, 5.34643 12.0435, 4.4116 12.0435, 3.47269 12.0435, 2.49328 12.059, 1.4734 12.0893 L 1.4734 11.2191, 3.30625 11.2191, 3.30625 3.66851, 2.78077 3.66851 C 2.52927 3.66892, 2.27982 3.70491, 2.03282 3.77688, 1.78583 3.84885, 1.57686 3.97439, 1.40593 4.15269, 1.31596 4.2447, 1.24317 4.36493, 1.18674 4.51296, 1.13071 4.66141, 1.08491 4.82948, 1.04892 5.01677, 1.01294 5.20447, 0.983904 5.39749, 0.961412 5.59582, 0.938921 5.79457, 0.913976 6.02234, 0.886986 6.27916 L -0.00244877 6.27916, 0.307524 2.80484, 8.50913 2.80484, 8.81911 6.27916 Z" stroke="none" fill="#000000" />
			<rect />
		</svg>
	</g>
</svg>
